<?xml version="1.0" encoding="utf-8"?>
<!-- Generator: Adobe Illustrator 23.0.3, SVG Export Plug-In . SVG Version: 6.00 Build 0)  -->
<svg version="1.1" id="Capa_1" xmlns="http://www.w3.org/2000/svg" xmlns:xlink="http://www.w3.org/1999/xlink" x="0px" y="0px"
	 viewBox="0 0 500 500" style="enable-background:new 0 0 500 500;" xml:space="preserve">
<style type="text/css">
	.st0{fill-rule:evenodd;clip-rule:evenodd;fill:#971661;stroke:#070308;stroke-width:3;}
</style>
<path id="path3439" class="st0" d="M149.8,470.7v-10.4l3.9-9.4l-5.8-9.4l-6.8,4.2v-13.5l4.9-10.4v-15.6l1-18.7l5.8-10.4l-4.9-15.6
	l-9.7-13.5h-8.7l-4.9,6.2l-3.9,9.4h-5.8l-21.4-17.7h-9.7L74,349l-1-9.4l8.7-15.6l3.9-10.4l7.8-8.3l-6.8-9.4l-1.9-12.5l4.9-8.3
	l-1-4.2l-4.9-7.3l7.8-8.3l10.7-14.6l-1.9-12.5l6.8-15.6l-2.9-29.1l2.9-12.5v-9.4l-4.9-7.3l4.9-15.6l6.8-6.2v-9.4l4.9-7.3l-1-25
	l5.8-3.1l-4.9-7.3l7.8-9.4l-1-11.4l-4.9-5.2l2.9-8.3l10.7,2.1l7.8-10.4l8.7,3.1l7.8,4.2l9.7-3.1l4.9-7.3l3.9-4.2l9.7,5.2V41l4.9,6.2
	l-1.9,3.1v8.3l1.9,2.1l-5.8,6.2l1,12.5l7.8,3.1l1.9,10.4l10.7,8.3l3.9,3.1l8.7-2.1l9.7,8.3l11.7,13.5h6.8l1.9,1l1.9-9.4l5.8-4.2
	l7.8-4.2l-7.8-8.3l10.7-3.1l6.8-9.4l13.6,8.3l17.5,8.3l11.7,11.4l1.9,8.3l2.9,12.5l4.9,4.2h3.9l6.8,18.7l7.8,30.2l-7.8,11.4
	l-3.9,9.4l-3.9,6.3l5.8,8.3h8.7h7.8l7.8-3.1l9.7,27.1l7.8,12.5l5.8-5.2l2.9-4.2l6.8,8.3l3.9,8.3l10.7,2.1l9.7-3.1l7.8-13.5
	l-11.7,84.3L416,349l-4.9,12.5l-12.6-9.4l-16.5-7.3l-11.7-4.2h-12.6l-14.6,3.1h-12.6c0,0-2.9-5.2-2.9-9.4c0-4.2-1.9-18.7-1.9-18.7
	l-6.8-13.5l-19.4-4.2l-6.8,10.4l-9.7,6.2l-4.9,7.3l9.7,7.3l1,8.3l-4.9,6.2l9.7,4.2l1.9,9.4l-3.9,7.3l-18.5,7.3l-9.7,12.5l-18.5,0
	l-11.7,7.3l-2.9,9.4l-15.5,2.1h-10.7l-10.7,13.5l-4.9,12.5l-2.9,12.5l-11.7,14.6l-7.8,6.2l-3.9,8.3L149.8,470.7L149.8,470.7z"/>
</svg>
