<?xml version="1.0" encoding="utf-8"?>
<!-- Generator: Adobe Illustrator 23.0.3, SVG Export Plug-In . SVG Version: 6.00 Build 0)  -->
<svg version="1.1" id="Capa_1" xmlns="http://www.w3.org/2000/svg" xmlns:xlink="http://www.w3.org/1999/xlink" x="0px" y="0px"
	 viewBox="0 0 500 500" style="enable-background:new 0 0 500 500;" xml:space="preserve">
<style type="text/css">
	.st0{fill:#1474AB;stroke:#000000;stroke-width:3;stroke-miterlimit:10;}
	.st1{fill:#4F8E3A;stroke:#000000;stroke-width:3;stroke-miterlimit:10;}
	.st2{fill:#D6893F;stroke:#000000;stroke-width:3;stroke-miterlimit:10;}
	.st3{fill:#AE2E17;stroke:#000000;stroke-width:3;stroke-miterlimit:10;}
	.st4{fill:#A5BF31;stroke:#000000;stroke-width:3;stroke-miterlimit:10;}
	.st5{fill:#E9E559;stroke:#211915;stroke-width:2;stroke-miterlimit:10;}
</style>
<path class="st0" d="M171.2,134.2c0.8,2.7,0.7,4.7,0.5,6.1c-0.4,2.2-1.2,3.1-0.6,4.5c0.7,2,3.3,2.7,3.8,2.8c1.7,0.4,3.6,0.1,5-1
	c1.1-0.9-0.2,0.1,1.1-0.9c0.5-0.4,0.7-1.6,2.4-1.1s3.7,1.1,3.9,1.7c0.7,2.1,0.8,2.6,1.7,4.3c0.7,1.3,2.2,1.9,2.6,2.1
	c1.3,0.5,1.8,0.1,2.9,0.4c3.1,0.7,3.2,4.9,5.8,5.1c1.3,0.1,1.5-0.8,3.6-1.4c3.8-1.1,5.4,1,6.8,0c2.4-1.8-0.4-8.3,0.4-17
	c0.1-0.7,7.8,0.7,4.4-1.5c-1.3-0.9-1.1-1.7,0.7-2.3c1.6-0.6,2.9-2,5.4-4.9c0.8-0.9,1.7-2.1,3.3-3.6c0.8-0.7,1.2-1.1,1.4-1.2
	c1.9-1,3.7,0.2,5.3-1c0.2-0.2,0.4-0.3,0.6-0.6c2.4-2.7,3.6-4,5.6-6.5c3.2-3.9,3-3,3.8-4.4c1.6-2.7,1.2-4.1,2.3-8
	c1.7-6,3.8-5.7,3.8-9.1c0.1-5-4.5-8.7-3.2-10c0.6-0.6,1.6,0.1,2.7-0.6c1.5-0.9,1.2-2.7,2-5.6c0.7-2.7,1.8-4.5,3.5-7.2
	c2.1-3.5,3.1-3.9,3.2-5.7c0-1.2-0.3-2.2,0-4.2c0.3-1.7,0.7-2.2,1.1-2.4c0.9-0.6,1.7,0.1,2.7,0c1.2-0.1,2.3-1.2,4.8-7.2
	c2-4.8,1.8-5.3,3-6.9c1-1.3,2.6-3.5,5.3-4.2c2.9-0.8,4.5,0.6,6.3-0.8c1.1-0.8,0.7-1.4,2.3-3c1.6-1.7,2.4-1.3,3.2-2.6
	c1.2-2,0.3-4.6,0.1-5c-0.5-1.3-1-1.3-2.8-3.8c-2.5-3.2-2.3-4.1-3.6-4.5c-1.7-0.6-4.5-0.1-4.5-0.1h-0.1c-0.1,0-0.2,0.1-0.2,0.1
	c-0.4,0.1-0.1,2.9-0.1,2.9c0.1,1,0.2,1.2,0.1,1.3c-0.6,0.5-2.8-1.8-3.6-1.2c-0.8,0.5,0.6,2.8-0.3,3.9c-1.2,1.4-4.6-0.7-5.7,0.6
	c-0.8,0.9,0.9,2.5,0.9,4.5c0.1,3.8-5.6,5.8-13.6,11.8c-7.5,5.6-6.2,6.7-9.7,7.8c-7.7,2.6-14.3-2.9-17.2,0.6c-1.7,2.2,0,5.4-2.4,7.2
	c-1.4,1.1-3.4,1-4.7,1c-2.9-0.1-3.4-1.2-5.3-1.3c-3-0.1-5.2,2.7-8.7,7.1c-3.1,3.8-4.6,5.8-5.2,8.6c-0.3,1.5-0.4,3.1-1.7,4.5
	c-1.4,1.5-2.9,1.4-3.1,2.5c-0.3,1.3,1.8,1.9,2.6,4.2c0.4,1.3,0.1,2.4-0.2,4c-0.3,1.4-1,4.4-3,6.2c-0.2,0.2-0.6,0.5-0.5,0.7
	c0.1,0.5,1.8,0.6,3.2,0.4c0.7-0.1,0.9-0.2,1.1-0.1c0.6,0.5-0.2,3.5-2.1,4.8c-1.9,1.4-3.3-0.2-5.7,0.6c-3.7,1.3-5.9,6.8-6.4,10.6
	c-0.4,2.9,0.1,5-1.1,5.7c-1.5,0.9-3.6-1-4.8,0c-0.9,0.8,0.1,2-0.9,3.3c-1.3,1.7-3.6,0.4-5.1,2.3c-0.4,0.5-0.9,1.4-1.9,1.5
	c-0.4,0.1-0.7,0-0.8,0.1c-0.2,0.4,1.5,1.4,2.8,3.3C170.7,133,171,133.7,171.2,134.2z"/>
<path class="st1" d="M156.5,353.1c0.5,0.6,1.6-0.4,3,0.3c1.3,0.6,0.9,1.8,2.4,3.3c0.4,0.4,1,2,1.5,2.3c1.3,0.8,2.9,0.8,4.2,0.1
	c0.9-0.5,2.1-2.1,3.6-2.4c2.7-2.1,2.6-4.9,3.9-4.8l2.7,2.7c4.6,5.1,6,5.7,6,5.7c2.8,1.3,3.7-0.1,5.7,1.2c3,1.9,2.7,5.9,4.5,6
	c1.4,0.1,1.7-2.1,3.3-2.1c2.3,0,3,4.5,6,4.8c1.4,0.2,2.3-0.6,3,0s0.3,1.6,0.9,3c0.6,1.3,1.5,1.9,2.1,2.4c2.7,2.1,6.3,7.5,7.2,12.7
	c0.6,3-0.1,4.3,1.2,5.4c1.8,1.7,4.7,0.6,5.4,2.1c0.6,1.3-1.2,2.8-0.6,3.6c0.7,0.9,3-1.1,5.1-0.3c2.9,1.1,3.6,6.7,3.9,8.8
	c0.4,3.1,0,4.5,1.2,5.7c1.3,1.3,2.5,0.4,4.2,1.5c2.5,1.7,3.6,6.2,2.4,9.4c-0.9,2.3-2.6,3.1-2.1,4.2c0.3,0.8,1.3,0.6,3.9,1.8
	c2.2,1,2.3,1.5,3.3,1.5c1.8,0,2-1.4,3.9-1.5c1.6-0.1,1.9,0.9,4.2,1.2c0.7,0.1,2.3,0.3,3.9-0.3c2.4-0.9,2.4-2.6,4.5-3
	c1.6-0.3,2.2,0.5,3,0c1.7-1.1,0.4-4,2-5c0.8-0.5,1.6-0.9,3.5,0.2c0,0,8.4,7.3,5.1,3.9c0,0,2.9,3.2,5.1,1.5c0.9-0.7,0.3-1.8,1.5-3
	c1-1,2.7-1.4,3.9-0.9c1.7,0.7,2.7,3.3,2.7,3.3c9.1,5,13,7.5,13,7.5c0.3,1.2,0.5,3,0.3,5.1c-0.4,3.4-1.8,5-5.3,10.6
	c-7.3,11.4-2.7,6.7-8,16c-0.1,0.2-1.2,2.1-0.6,2.7c0.8,0.9,4-1.9,6.9-0.6c0.4,0.2,0.7,0.5,1.4,1c1.7,1.4,1.8,2.3,4.1,5.4
	c0,0,0.8,1.1,2.4,2.7c1,1,1.2,1.1,1.4,1.1c0.9-0.2,0.8-3,1.2-7.4c0.3-2.6,0.4-2.9,0.8-5.7c0.9-6.8,2.7-18.2,3.1-22.8
	c1.4-16.2,3.4-26,4.8-37.4c0.7-5.8,0.3-6.3,1.2-8.8c0.6-1.7,1.4-3.2,0.8-4.7c-0.5-1.1-1.3-1.3-2.6-3.3c-0.3-0.5-0.7-1.1-1-1.8
	c-0.7-1.7-1.5-4.5-1.5-4.5s1.5-4.2,0.9-6.9c-0.9-3.7-5.8-2.7-8.1-6.6c-1.4-2.3,0.2-2.4-1.4-9.8c-0.3-1.5-0.9-3.8-0.5-6.8
	c0.2-1.8,0.7-2.6,0.9-3c1.1-1.7,2.8-2.4,4.2-3c1.6-0.6,2.1-0.4,3.3-1.2c1.7-1.1,1.7-2.8,3-3c0.8-0.1,1.6,0.3,1.8,0.5
	c1.1,0.7,1,1.5,1.8,2.3c1,0.9,2.9,1.2,3.9,0.6c3.2-1.9,0.3-14.9,0.6-11.2c-1.5-0.9-3.8-1.9-6.5-2c-3.3-0.1-5,1.1-6.4,0.1
	c-0.8-0.7-0.8-1.6-0.8-6.3c-0.1-6.7-0.2-8.7,1.1-9.4l3.3-0.3l0,0c0.3-0.5,0.9-1.1,1.7-1.2c1.1-0.1,1.6,1,3.2,1.5
	c1.1,0.4,2,0.3,3,0.2c3.3-0.4,15.1-1.2,18.1-0.2c0.1,0,0.6,0.2,0.9,0c0.9-0.5,0.4-3,0.3-3.5c-0.2-1.2-0.5-1.5-0.3-2
	c0.3-0.8,1.5-1.4,2.4-1.2c2.3,0.4,2.2,4.9,4.7,5.4c0.8,0.2,1.5-0.2,2.2-0.5c3.8-1.9,3.1-6.7,6.1-7.6c1.3-0.4,2.9,0,3.6,0.9
	c0.7,0.8,0.3,1.7,0.6,3c0.5,2.1,2,2.4,3.3,4.2c1.2,1.7,1.3,4.5,1.5,10c0.1,2.4,0,4.4,0,5.9c1,0.5,2.5,1.1,3.3,0.4
	c1-0.7,0.4-2.6,0.3-6.6c-0.2-5.2,0.8-5.5,0-7.8c-0.9-2.8-2.4-2.6-3.6-5.7c-0.9-2.4-0.2-3-0.9-6.9c-0.6-3.4-0.9-5.3-2.3-7.2
	c-2.2-3.3-5.3-4-5.9-6.9c-0.1-0.5-0.2-1.3-0.8-2c-0.9-1.1-2-0.8-2.9-1.7c-0.9-1-0.7-2.7-0.6-3.2c0.4-2.5,2.4-3,5.6-6.5
	c2.3-2.5,4.2-4.5,3.8-6.6c-0.4-1.9-2.1-1.8-2.7-4.2c-0.5-2.2,0.7-3.4-0.3-4.8c-0.7-1.1-1.6-0.7-2.4-1.8c-1.4-1.9,0.2-4.4-0.8-5.1
	c-0.9-0.7-3,0.6-3.9,1.2c-4.3,2.7-3.9,5.4-7.4,6.8c-1,0.4-2,0.5-3.5,1.5c-1.2,0.8-2.9,1.2-3.5,1.7c-2.3,1.9-4.6,0.7-7.5,0.6
	c-2.4,0-5.7,2.4-12.1,7.4c-7.6,5.9-11.5,8.9-13.3,11.6c-2.7,3.9-3.8,7.5-6.9,7.9c-2.2,0.3-2.8-1.4-5.3-1.1c-3.3,0.5-5.3,1.2-8.9,2.2
	c-1.5,0.4-0.9,2.6-3.9,2c-6.2-1.2-3.3-0.1-20.1-1.8c-1.8-0.2-2.8-0.3-4.1,0.2c-3.4,1.2-4.1,3.1-7.6,4.8c-1.3,0.6-2.3,2.2-6.2,2.1
	c-3.9,0-5.9-0.1-7.1-1.2c-1.1-1.1,1-3.6,1.1-7.3c0.3-9.9-0.3-10.5-0.8-13.7c-0.4-2.3-0.8-3.1-3.1-7.6c-2.6-5.2-5.5-8.3-6.9-8.2
	c-1.9,0.1-3.2,4.2-5.9,11.9c-1.2,3.5-1.2,4.2-2.3,5.9c-1.6,2.5-2.9,3.2-5.4,6.6c-0.6,0.8-1,1.5-2.4,3.8c-5.5,9.2-9.1,15.8-9.1,15.8
	c-2,3.8-2.2,4.4-3.3,5.7c-1.4,1.7-3.1,3-6.5,5.7c-1.4,1.1-2.1,1.7-2.9,2.1c-2.2,1.3-3.3,1.2-5,2.4c-0.8,0.6-1.4,1.3-2.6,2.7
	c-3.2,3.9-3.4,5.3-6,8.1c-1.1,1.2-1.8,1.9-3,2.7c-2.7,1.7-4,1.2-5.7,2.7c-1.1,0.9-0.8,1.4-2.7,5.1
	C157.4,350.5,155.8,352.4,156.5,353.1z"/>
<path class="st2" d="M264.2,169.9c-1.7-0.9-2.5,4.4-2.5,6.3c0.1,3.1,2.8,3.9,3.8,6.5c0.8,2.3,1.2,3.9,0.8,5
	c-1.8,5.1-7.1,12.8-10.4,19.6c-0.7,1.4-3,2-3.7,4c-1.2,3.3-1.7,5.7-2.8,6.6c-2.1,1.7-2.7,1.1-13.9,17.8c-5.6,8.3-5.5,7.1-6.8,9.7
	c-4.7,10.2-6.8,16.6-7.1,18.7c-0.4,3.4,8.4,7.3,9.7,16.6c1.2,8.8-2.1,15.7,0,19.9c1.9,3.8,9.2,1.9,9.7,1.8c3.2-0.6,3.9-2.1,8.1-3.9
	c3.8-1.7,7-2.1,9.1-2.4c11.4-1.7,14.5,4.4,22,1.5c3.2-1.2,4.4-3,9.1-3.9c3.4-0.7,5,0.8,6.9-0.3c4-2.2,5.8-7.6,19.6-18.4
	c7.4-5.8,10.5-8.3,13.9-7.8c1.9,0.3,2.7,0.5,5.1-0.3c1.9-0.6,2.1-1.7,5.1-3c2.4-1.1,2.7-0.6,3.9-1.5c2.1-1.6,2.1-2.6,3.9-4.2
	c2.5-2.2,5-1.6,5.4-3c0.5-1.4-2.4-2.5-3-6c-0.3-1.5,0-2.9,0-3c0.4-2.3,1.5-2.8,1.2-3.9c-0.4-1.5-2.5-1.2-3.3-3
	c-0.7-1.5,0-3.1,0.3-3.9c0.6-1.5,0.4-3.2,0.9-4.1c2.4-3.8-1.7-7.9,0.6-11.5c0.2-0.3-0.8-0.2,1.8-2.9c2.1-2.1,2.3-2.4,2.4-2.7
	c0.6-1.2,0.5-2.5,0.3-5.1c-0.2-2.8-0.5-2.7-0.3-3.6c0.6-2.2,2.5-2.1,3.3-4.5c0.3-0.8,0-0.7,0.3-3.9c0.3-3,0.5-3.3,0.3-3.9
	c-0.7-2.3-4.5-2.8-6.3-2.1c-11,4.2-20.5,0.1-27.7,2.1c-5.8,1.6-6.8,2.6-7.9,1.5c-6-5.7-10.8-18.2-12.7-20.8c-1-1.5-2.4,1.6-4.8,1.2
	c-3.2-0.6-3.6-4-6.3-4.2c-2.2-0.2-2.8,2-5.7,2.7c-2.4,0.5-4.2-1.6-6.9-1.5C276,171.8,266.6,171.2,264.2,169.9z"/>
<path class="st3" d="M156.9,352.7l4.5-10l10.4-7.7l6.3-9.1l9.5-5.9l5-4.1l15.8-27.6l7.2-7.7l5.9-14.9l8.6-21.3l11.3-15.8l11.8-15.8
	l12.7-24c0,0,0.9-5.4-2.3-9.5c-1.3-1.6,0-7.7,0-7.7l-3.2-8.6l-4-0.7l-0.6-7c0,0,1.3-7.6,3.6-9.1c1.1-0.7-0.9-9.1-0.9-9.1l-6.3-10
	c0,0,1.8-15.4-5.7-12.2c-0.1-0.9-0.3-1.8-0.4-2.7c-2.4,0.6-4.7,1.2-7.1,1.8c0,0-5.9,10-7.2,10.4c-1.4,0.5-7.7,1.8-7.7,1.8L210.5,140
	v16.6H204c0,0-2.8,4.6-5.9-1.4c-1.9-3.6-3.1-0.9-6.3-4.1c-3.6-3.6-4.4-5.9-3.9-8c0.1-0.4-0.3-0.8-0.7-0.6l-9,3.7
	c0,0-2.6,1.4-4.4,1.4c-1.1,0-1.9,0.8-2,1.9l0.5,22l-1.1,10.4l5.2,22.6c0.8,1.8,3,7.1,1.3,8.9c-0.3,0.3-1.1,0.9-1.3,1.1
	c-1.1,0.9-2.1,1.5-2.7,1.9c-1.1,6.1-2,11-2.5,14.1c-2.7,15.8-2.9,19.6-5.2,26.9c-2.1,6.9-2.7,6-3.6,10.4c-1.6,7.7-0.2,12.2-3,19.1
	c-1.1,2.7-2.4,4.7-3.2,5.9c-2,0.3-4.1,0.6-6.1,0.9l-6.8,10v5.4l-4.5,6.8l-8.1,2.3c0.2,4.2,0.5,8.5,0.7,12.7c0.5,1.4,1.1,2.7,1.6,4.1
	h3.6l4.1,6.8c2-0.4,4.1-0.8,6.1-1.1c0.5,0.9,1.1,1.8,1.6,2.7c0.3,0.8,0.6,1.7,0.9,2.5c1.4,0.5,2.7,0.9,4.1,1.4
	c-0.3,0.3-1.2,1.3-1.1,2.5C152.4,351.3,154.3,352.8,156.9,352.7z"/>
<path class="st4" d="M173.4,181.7c0.3-1.9,0-5.2,0.2-8.5c0.1-1,0.9-0.7,1-6.5c0.2-8.6,0.2-9.2-0.1-10.8c-0.5-1.9-0.9-2.7-0.9-4.5
	c0-2.6,1-4.2,0.2-4.9c-0.9-0.8-1.4,0.1-2-0.7c-0.6-0.7-0.4-1.7-1.1-3.4c-0.3-0.8-0.8-0.6-1.5-1.7c-0.9-1.2-0.7-2.1-1.2-3.3
	c-0.6-1.5-1.5-2.1-2.7-3.3c-3.5-3.7-3-7.1-4.6-7.2s-3.8,3.1-3.2,5.5c0.4,1.8,2.1,1.7,3.4,4.2c0.9,1.8,0.1,2.1,1.2,4.9
	c0.8,2.1,1.5,2.7,1.5,4.4c0,0.6,0,1.9-0.8,2.7s-1.5,0.4-2.5,0.9c-2.3,1.2-1.1,5.2-3.1,6.2c-1,0.5-2.5,0.1-2.9-0.6
	c-0.3-0.6,0.2-1.1-0.1-1.7c-0.4-0.8-2-1.1-2.6-0.6c-1.1,1,1.9,4.2,0.6,6.6c-0.4,0.7-0.8,0.5-2,1.9c-1.1,1.2-1.9,2.2-1.9,3.3
	c0,0.8,0.5,1.2,2.6,3.5c3.1,3.2,3.3,3.7,3.4,4.3c0.3,1.9-1.3,2.8-0.7,4.2s2.5,1.2,3.1,2.7c0.4,1.1-0.3,2,0.2,2.4s1.4-0.7,2.3-0.5
	c1.4,0.5,2.2,5.1,0.2,7.4c-0.9,1-0.1,1.4-0.6,2.3c-0.7,1.2-1.6,2.1,0.5,6.5c2.4,5,3.1,6.1,2.9,8c-0.1,0.7-0.3,2.8-1.8,3.9
	c-1.4,1-2.7,0.2-3.6,1.4c-0.9,1.1-0.8,3.3-0.8,3.3s1.5,1.6,1.8,2c1.5,1.8,0.1,4.4,0.3,7.8c0.3,4.3,2.7,4.1,3,8.5
	c0.2,2.9-0.9,2.5-1.5,8c-0.4,3.6-0.1,5.8-1.5,6.6c-1.2,0.7-2.3-0.1-3.2,0.8c-0.8,0.9-0.7,2.9,0.3,3.8c0.6,0.5,1,0.2,1.5,0.8
	c0.8,0.8,0.2,1.8,0.9,2.4c0.7,0.6,1.8-0.2,2.4,0.3c0.8,0.8-0.9,3.1,0,4.1c0.6,0.7,1.8-0.1,2.6,0.6c1.3,1.1,0.7,5.1-1.4,6.2
	c-1,0.5-1.7,0.1-2.3,0.8c-0.7,0.9,0.4,1.9,0,3.2c-0.7,2.2-4.5,1.9-5.1,4.1c-0.3,1.2,0.7,1.7,0.3,2.9c-0.6,1.7-3,1.3-3.8,3.2
	c-0.2,0.5-0.1,0.6,0,2.6c0.1,2.1,0.1,3.2,0,3.9c-0.5,3.3-4.5,6.3-6.5,5.6c-0.9-0.3-1-1.2-2-1.2c-0.9,0-1.4,0.8-2.4,1.5
	c-1.8,1.3-3.9-0.3-4.8,1.1c-2.4,3.5-5.8,11-4.5,13.9c0.3,0.7,4.2,5,1.8,4.7c-1.1-0.2,0.2-0.6,0,0c-0.6,1.7-2.3,2.9-5.6,0.8
	c-2.4-1.6-3.3,5.3-4.5,6.8c-1,1.1,1.1,1.6,2.6,3.9c0.7,1.1-0.1,1.8,0.5,2.6c0.8,1,1.9,0.5,2.9,1.7c0.5,0.6,0.3,0.9,0.8,1.7
	c0.8,1.5,2.9,2.8,3.8,2.3c0.8-0.4,0.7-3.2,0.5-8.8c-0.1-1.3-0.1-2.4,0.6-3.2c0.9-1,2.2-0.5,3.8-0.8c4.1-0.7,6.8-6.3,7.7-9.8
	c0.6-2.4,0.5-4.4,0.5-4.4c4.3-2.6,6.3-7.9,8-9.5c1.6-1.6,2.7,0.8,4.1,0.2c3.8-1.9,3.3-7.5,4.2-10c0.4-1,1.5-1.2,1.8-2.3
	c0.5-1.7-0.8-2.5-0.3-4.4c0.3-1.3,1.1-1.4,1.7-2.9c0.5-1.5,0.1-2.7,0-3.8c-0.4-3.1,1.2-3.8,3-10.3c0.8-2.7,0.4-2.3,1.5-6.6
	c1-3.8,1.9-6,2.1-7.4c1.7-10.6,3.3-13.5,3.6-20.5c0.1-2.8,0.2-4.1,3.2-10c1.3-2.6,2.3-5,1.5-7.2c-0.6-1.5-1.4-1.4-2.1-3
	c-1.2-2.7,0.9-4.1,0.8-8.1c-0.1-3.7-1.9-7-2.6-8.3c-0.8-1.5-1.5-2.5-2-4.4C173.1,184.3,173.2,182.8,173.4,181.7z"/>
<path class="st5" d="M68.2,40.6c0.1-0.4,0.6-0.7,0.9-0.8c0.5-0.2,0.9-0.6,1.1-0.8c0.3-0.2,0-0.3,0.2-0.5c0.2-0.2,0.7-0.5,0.9-0.5
	c0.5-0.1,0.8,0.2,1.3,0c0.2-0.1,0.4-0.2,0.4-0.2c0.3-0.1,0.4-0.1,0.5-0.1c0.3,0,0.5,0.2,0.6,0.3c0.2,0.1,0.2,0.1,0.4,0.2
	c0.1,0,0.2,0.1,0.6,0c0.2-0.1,1-0.4,1.1-1c0-0.2-0.1-0.4-0.1-0.4c-0.1-0.2-0.3-0.3-0.6-0.4c-0.6-0.4-0.7-0.6-1.2-0.7
	c-0.3-0.1-0.2,0-0.5-0.1c-0.6-0.2-0.6-0.5-1-0.6c-0.2-0.1-0.3-0.2-0.4-0.3c-0.2-0.1-0.5,0-0.7-0.1c-0.1-0.1-0.1-0.2-0.3-0.3
	c-0.1,0-0.2,0-0.3,0c-0.4-0.1-1.1-0.9-1.5-1.5c0-0.1-0.1-0.3-0.2-0.5c-0.2-0.4-0.2-0.5-0.4-0.5c-0.3-0.2-0.4-0.1-0.7-0.3
	c0,0-0.2-0.1-0.3-0.3c-0.2-0.2-0.4-0.4-0.4-0.4c-0.2-0.2-0.2-0.2-0.3-0.2c-0.2-0.1-0.1,0.1-0.5,0.2c-0.3,0.1-0.5,0.1-0.5,0
	c-0.2-0.2-0.3-0.2-0.5-0.1c-0.2,0.1-0.6,0.2-0.7,0.7c-0.1,0.3-0.7,0.6-1.1,0.9c-0.2,0.2-0.6,0.6-1,1.1c-0.4,0.6-0.9,0.7-1.4,1.3
	c-0.5,0.6-0.6,0.8-1.5,1.4c-0.6,0.4-2.1,2.2-2.1,2.6c0,0.1-0.3,0.3,0,1.1c0.2,0.5,0.2,0.8,0,1.3c-0.4,0.8,0,0.8,0.2,1.7
	c0.1,0.4-0.3,0.4-0.4,0.8c-0.1,0.4,0,1-0.1,1.2c-0.2,0.3-0.6,1.1-1.3,1.7c-0.3,0.3-0.5,0.5-0.8,1c-0.6,1.1-0.8,1-1.2,1.5
	c-0.2,0.3-0.5,0.7-0.6,1.6c0,0.3-0.3,0.3-0.4,0.5c-0.1,0.3-0.1,0.6,0.2,1.4c0.5,1.3,0.4,1.3,0.6,1.7c0.1,0.3,0.6,0.4,0.6,0.8
	c0,0.4,0,0.5-0.1,0.6c-1.4,1.9-1,2.6-1,3.3c0,0.3-0.1,0.5-0.2,0.9c-0.9,3.2-1.1,3.6-1.1,3.7c0,0.1,0,0.1,0,0.3
	c-0.1,0.7,0.5,1.2,1.4,1.5c0.1,0,0.8,0.6,1.1,0.6c0,0,0.1,0.1,0.2,0.1c0,0,0.2,0,0.2,0l0.1,0c1-0.2,0.8-0.1,0.8-0.1
	c0.1,0.1,0.1,0.4,0,0.5C56.3,66,56,66.1,56,66.1c-0.2-0.2-0.2-0.3-0.4-0.4c-0.6-0.4-0.3,0.5-0.2,0.5c0.1,0,0.2,0.2,0.3,0.3
	c0.1,0.1,0.1,0.6,0.1,0.8c0.1,0.5-0.2,0.8-0.2,1.2c0,0.6,0,0.8,0,1.3c0,1.2-0.4,1.7-0.4,2.7c-0.1,1.5,0.7,2,0.7,2.9
	c0,0.5-0.3,0.4-0.6,1.4c-0.1,0.4-0.3,0.7-0.4,1.1c-0.1,0.5-0.1,0.6-0.3,0.8c-0.3,0.5-1.3,1-1.4,1.8c0,0.2,0,0.7,0,1
	c0,0.4-0.2,1.1-0.2,1.2c0.1,0.3-0.1,1.3,1,3.4c0.4,0.7,0.4,1.3,0.6,1.6c0.2,0.4,1.2,0.3,1.3,0.7c0.2,0.4,0.7,0.1,0.8,0.1
	c0.1,0,0.4,0,0.7-0.2c0.5-0.4,0.4-0.8,0.8-1.4c0.3-0.4,0.3-0.4,0.7-0.9c0.3-0.4,0.3-0.8,0.5-1.3c0.3-0.8,0.5-0.7,0.9-1.5
	c0.6-1.2,0.6-1,0.9-2.2c0.2-0.7,0.7-1.3,0.7-1.5c0.1-0.7,0-0.8,0.4-1.3c0.6-0.6,0.7-0.5,0.9-1.2c0.1-0.4,0.3-0.8,0.2-1.5
	c-0.1-0.8,0-0.9,0.2-1.9c0.2-0.9,0-1,0.1-2.1c0.1-1.2,0.4-1.6,0.4-2.4c-0.1-2.6,1.3-3.5,1.8-4c0.1-0.1,0.7-1.6,0.9-1.6
	c0.6-1.1,0.3-2.4,0.4-2.8c0-0.3,0,0-0.1-0.2c-0.2-0.4,0.1-1,0-1.7c-0.1-0.3-0.2-0.3-0.2-0.6c0-0.4,0.1-0.8,0.5-1.1
	c0.4-0.3,0.6-0.1,0.9-0.4c0.3-0.2,0.4-0.6,0.4-1.1c0-0.5-0.2-0.9-0.2-1.1c0-1.1,0.1-1.7,0.1-3c0-1-0.3-0.7-0.4-1.7
	c-0.1-1.2,0.2-2.1-0.1-2.3c-0.2-0.1-0.4,0-0.8-0.1c-0.4,0-0.7-0.4-0.7-0.7c0-0.4,0.9-0.8,1.6-0.7c0.4,0,0.6,0,1,0
	c0.2,0,0.5,0,0.8-0.5c0.1-0.2,0.3-0.6,0.2-0.8c-0.3-0.3-0.9-0.1-1.4-0.4c-0.4-0.3-0.3-0.7-0.5-0.7c-0.3,0-0.4,0.5-0.7,0.4
	c-0.3,0-0.4-0.4-0.8-0.6c-0.2-0.1-0.4,0.1-0.4-0.1c0-0.3,0.1-1,0-1.3c0-0.1,0.2,0,0.6,0.1c0.5,0.1,0.7,0.1,0.8,0.1
	c0.4,0.2,0.3,0.4,0.7,0.6c0.3,0.2,0.7,0.1,1.1,0c0.6-0.1,0.3-1.1,0.3-1.1c-0.2-0.2-0.4-0.4-0.8-0.5C68.5,41.1,68.3,40.8,68.2,40.6z"
	/>
<path class="st5" d="M67.3,42.5c0.3,0,0.3-0.1,0.4,0c0,0,0.1,0.1,0.1,0.2c0,0.1,0,0.2-0.1,0.3c-0.1,0-0.2,0-0.3,0
	c-0.1,0-0.1,0.1-0.2,0.1c-0.2,0-0.3,0-0.4,0c-0.2-0.1-0.1-0.3-0.1-0.5c0-0.1,0.1,0,0.2-0.1C67,42.5,67.1,42.5,67.3,42.5z"/>
<path class="st5" d="M73.4,27.2c0,0-0.2,0.4,0,0.8c0.1,0.1,0.1,0.3,0.1,0.4c0,0,0.1,0.1,0.2,0.1c0.1,0,0.1-0.1,0.1-0.1
	c0.1-0.3,0.4-0.3,0.5-0.6c0.1-0.2,0.1-0.3,0-0.4c-0.1,0-0.2-0.6-0.4-0.5C73.6,27,73.4,27.2,73.4,27.2z"/>
<path class="st5" d="M72.4,40.3c-0.2-0.1-0.1-0.2,0-0.3c0.1-0.2,0.3-0.3,0.5-0.3c0,0,0.1,0,0.2,0.1c0.1,0.1-0.1,0.3-0.2,0.4
	C72.7,40.3,72.5,40.3,72.4,40.3z"/>
<path class="st5" d="M74.4,50.8c0-0.2,0-0.8,0-1.1c0-0.1,0.1-0.2,0.3-0.2c0.1,0,0.3,0,0.3,0.1c0.1,0.2-0.2,1.1-0.4,1.3
	C74.5,50.8,74.4,50.9,74.4,50.8z"/>
<path class="st5" d="M74.6,52.2c0.2,0.7,0.3,1,0.2,1c-0.1,0-0.1,0.2-0.2,0.1c-0.2-0.3-0.5-0.6-0.6-0.8c0-0.1-0.1-0.2,0-0.3
	C74.2,52.1,74.6,52.2,74.6,52.2z"/>
<path class="st5" d="M71.7,56c-0.1,0-0.3,0.1-0.4,0.2c-0.1,0.1-0.1,0.1-0.1,0.3c0,0.3-0.2,0.3-0.4,0.6c0,0.1-0.1,0.3-0.1,0.4
	c0,0.1,0,0.2,0.1,0.4c0.1,0.3,0.1,0.4,0.2,0.5c0.1,0.1,0.2,0,0.3-0.1c0.2-0.1,0.3-0.5,0.3-0.7c0-0.9,0.1-0.8,0.1-1.4
	C71.8,56.2,71.8,56,71.7,56z"/>
<path class="st5" d="M103,45.3c0,0.1,0.5-0.3,1-0.4c0.2-0.1,0.3,0,0.5,0c0.3-0.1,0.3-0.3,0.7-0.6c0.1-0.1,0.4-0.3,0.9-0.4
	c0.2,0,0.6,0,0.8,0.3c0.2,0.2,0.1,0.5,0.1,0.6c-0.1,0.3-0.2,0.4-0.3,0.7c-0.1,0.3,0.1,0.4,0,0.6c-0.3,1-2.2,1.4-2.8,1.7
	c-0.1,0-0.2,0.1-0.2,0.3c-0.1,0.3,0,0.6,0.1,0.9c0.2,0.8,0,0.8,0.2,1.5c0.2,0.6,0.3,0.6,0.4,1.2c0.1,0.5,0.2,0.9,0,1.2
	c-0.1,0.2-0.3,0.4-0.2,0.6c0,0.2,0.2,0.4,0.2,0.3c0,0-0.3,1-1,2.2c-0.2,0.3-0.7,0.9-1.2,1.3c-0.2,0.2-0.6,0.1-1.1,0.3
	c-0.3,0.1-0.3,0.1-0.8,0.3c-0.7,0.3-0.7,0.2-1,0.4c-0.5,0.3-0.3,0.6-0.8,1c-0.5,0.4-0.7,0.2-1.2,0.6c-0.3,0.3-0.3,0.4-0.6,1.1
	c-0.3,0.7-0.7,1.2-1.3,1.4c-0.3,0.1-0.6,0.2-0.8,0.2c-0.8,0.1-1-0.1-1.4,0.1c-0.3,0.2-0.3,0.4-0.6,0.5c-0.3,0.1-0.2-0.1-0.4,0
	c-0.4,0.2-0.9,1.2-1.1,1.2c-0.5,0-1.2,0-1.6,0c-0.1,0-0.1-0.3-0.4-0.8c-0.2-0.4-0.2-0.5-0.2-0.5c-0.5-0.5-0.6-0.5-0.6-0.9
	c0-0.2,0-0.6,0-0.8c0-0.3,0.3-0.6,0.3-0.8c0.1-0.7,0-1.3-0.2-1.8c-0.2-0.8-0.7-1.7-1.2-2c-0.4-0.2-0.6-0.1-0.6-0.1
	c-0.2,0-0.3-0.1-0.4-0.1c-0.2-0.1-0.2-0.5-0.1-0.7c0-0.1,0.1-0.2,0.1-0.3c0-0.2-0.2-0.3-0.2-0.3c0.1-1.3,0.2-1.1,0.3-1.3
	c0.2-0.3,0.4-0.9,0.5-1.5c0-0.6,0-1.1,0-1.6c0-0.4-0.3-0.6-0.5-1.3c0-0.1-0.1-0.3,0-0.5c0.1-0.2,0.3-0.3,0.3-0.5
	c0.2-0.6,0-1,0.2-1.7c0-0.1,0.1-0.3,0.4-1.1c0.5-1.5,0.6-1.4,0.7-1.5c0.2-0.6,0.1-0.6,0.3-0.8c0.3-0.5,0.7-0.6,0.9-1.1
	c0.2-0.3,0-0.3,0.2-0.5c0.2-0.3,0.5-0.2,1-0.4c0.5-0.3,0.4-0.6,0.8-0.7c0.2-0.1,0.3-0.1,0.7-0.1c0.4,0,0.5,0,0.6,0
	c0.3,0.1,0.6,0.6,0.9,0.8c0,0,0.3,0.1,0.6,0c0.2-0.1,0.2-0.3,0.5-0.4c0.2-0.1,0.4,0.1,0.6,0c0.5-0.5,1.4-1.5,1.4-1.9
	c0-0.2,0.1-0.4,0-0.8c0-0.6-0.2-1.1-0.2-1.2C96,36.8,96,36.7,96,36.4c0-0.3,0-0.5,0.1-0.6c0.3-0.4,1.2-0.3,1.3-0.7
	c0.1-0.2-0.1-0.4,0-0.9c0.1-0.2,0.1-0.3,0.3-0.4c0.2-0.1,0.2,0,0.5-0.1c0.1,0,0.3-0.1,0.3-0.1l0,0c0,0,0.2,0,0.3,0.1
	c0.1,0.1-0.1,0.3,0,0.5c0.1,0.2,0.3,0.1,0.6,0.3c0.2,0.1,0.3,0.3,0.3,0.7c0.1,0.6,0.1,0.7,0.4,1c0.1,0.1,0.2,0.4,0.6,0.6
	c0.3,0.1,0.7,0,0.7,0c0.2,0,0.4-0.1,0.6-0.1c0.1,0,0.1,0,0.2,0.1c0.1,0,0.2,0.1,0.4,0.2c0.3,0,0.4-0.2,0.6-0.1
	c0.1,0,0.2,0.2,0.2,0.4c0,0.1,0.2,0.6-0.1,1.2c-0.1,0.2-0.2,0.3-0.2,0.3c-0.2,0.1-0.3,0.1-0.5,0.1c-0.3,0.2-0.6,0.7-0.7,0.9
	c0,0.1,0,0.5,0.2,0.6c0.2,0.1,0.1,0,0.2,0.1c0.1,0.1,0.1,0.3,0.1,0.3c-0.1,0.2-0.3,0.3-0.3,0.5c0.1,0.2,0.2,0.2,0.2,0.2
	c0.4,0.3,0.6,0.5,0.7,0.6c0.3,0.1,0.4,1.1,0.6,1.4c0.1,0.2,0.3,0.2,0.5,0.4c0.1,0.1,0.2,0.3,0,0.4c-0.2,0.1-0.2,0.2-0.5,0.3
	C103.2,44.9,103,45.2,103,45.3z"/>
<path class="st5" d="M95.3,31.6c0.3-0.4,0.9-0.4,1.2-0.9c0.1-0.1,0.1-0.4,0.1-0.4C96,30.2,95.1,30,95,30.1c-0.1,0.2-0.3,0.4-0.6,0.4
	c-0.2,0-0.3-0.2-0.5-0.1c-0.2,0.1-0.2,0.1-0.5,0.2c-0.4,0.1-0.3,0.1-0.7,0.2c-0.2,0.1-0.3,0.2-0.3,0.2c0,0.1,0,0.2-0.1,0.3
	c0,0-0.1,0.1-0.2,0.2c-0.1,0.1-0.2,0-0.3,0.1c-0.2,0.1-0.2,0.2-0.3,0.3c-0.1,0.2-0.1,0.4-0.1,0.5c0,0.4-0.3,0.5-0.5,1.2
	c-0.1,0.3-0.2,0.5-0.1,0.7c0.1,0.3,0.5,0.6,0.8,0.7c0.3,0.1,0.3,0,0.5,0.1c0.1,0.1,0.2,0.2,0.3,0.4c0.2,0.2,0.2,0.2,0.3,0.4
	c0.2,0.2,0.4,0.4,0.5,0.4c0.2,0.1,0.3-0.1,0.4-0.2c0.2-0.2,0.2-0.2,0.3-0.3c0.3-0.1,0.5,0.1,0.8-0.1c0.2-0.1,0.4-0.2,0.6-0.3
	c0.3-0.1,0.3,0.1,0.5,0c0.1,0,0,0,0.1-0.2c0.2-0.4,0.1-0.5,0.2-0.7c0.2-0.3,0.4-0.3,0.5-0.6c0.1-0.2,0-0.2-0.1-0.4
	c-0.1-0.1-0.3-0.1-0.4-0.1c-0.1,0-0.1,0-0.3,0.1c-0.1,0-0.3,0.1-0.4,0c-0.1-0.1,0-0.3-0.1-0.8c0-0.3,0-0.3-0.1-0.6
	C95.3,31.8,95.2,31.7,95.3,31.6z"/>
</svg>
