<?xml version="1.0" encoding="UTF-8" standalone="no"?>
<!-- Created with Inkscape (http://www.inkscape.org/) -->

<svg
   xmlns:dc="http://purl.org/dc/elements/1.1/"
   xmlns:cc="http://creativecommons.org/ns#"
   xmlns:rdf="http://www.w3.org/1999/02/22-rdf-syntax-ns#"
   xmlns:svg="http://www.w3.org/2000/svg"
   xmlns="http://www.w3.org/2000/svg"
   xmlns:sodipodi="http://sodipodi.sourceforge.net/DTD/sodipodi-0.dtd"
   xmlns:inkscape="http://www.inkscape.org/namespaces/inkscape"
   id="svg4165"
   version="1.1"
   inkscape:version="0.91 r13725"
   width="2466.5625"
   height="1286.25"
   viewBox="0 0 2466.5625 1286.25"
   sodipodi:docname="Distillation.svg">
  <metadata
     id="metadata4171">
    <rdf:RDF>
      <cc:Work
         rdf:about="">
        <dc:format>image/svg+xml</dc:format>
        <dc:type
           rdf:resource="http://purl.org/dc/dcmitype/StillImage" />
        <dc:title></dc:title>
      </cc:Work>
    </rdf:RDF>
  </metadata>
  <defs
     id="defs4169" />
  <sodipodi:namedview
     pagecolor="#ffffff"
     bordercolor="#666666"
     borderopacity="1"
     objecttolerance="10"
     gridtolerance="10"
     guidetolerance="10"
     inkscape:pageopacity="0"
     inkscape:pageshadow="2"
     inkscape:window-width="1600"
     inkscape:window-height="837"
     id="namedview4167"
     showgrid="false"
     inkscape:zoom="0.44758647"
     inkscape:cx="1233.2812"
     inkscape:cy="643.125"
     inkscape:window-x="-8"
     inkscape:window-y="-8"
     inkscape:window-maximized="1"
     inkscape:current-layer="svg4165" />
  <path
     style="fill:#000000"
     d="m 2186.25,1285.2577 c -16.2422,-0.3739 -62.8594,-0.9331 -103.5937,-1.2427 -85.024,-0.6461 -92.4616,-0.9295 -94.8905,-3.6162 -2.5018,-2.7674 -2.0305,-10.2333 1.0762,-17.0514 2.7749,-6.0895 4.2084,-9.8398 7.5504,-19.7536 1.2168,-3.6094 4.1757,-12.0469 6.5754,-18.75 2.3997,-6.7032 6.5893,-18.5157 9.3101,-26.25 2.7209,-7.7344 6.6964,-18.31 8.8346,-23.5014 2.1381,-5.1913 3.8875,-9.9667 3.8875,-10.612 0,-0.6453 1.2141,-4.2026 2.6978,-7.9049 1.4838,-3.7025 4.1933,-11.3724 6.021,-17.0442 4.6405,-14.3999 11.5222,-33.5498 14.6554,-40.7813 4.1553,-9.5908 3.9259,-6.5792 5.2484,-68.9062 0.9642,-45.43908 2.0265,-52.58461 7.5053,-50.48227 0.7417,0.28472 2.682,0.0525 4.3116,-0.51534 1.9858,-0.69225 3.3358,-0.72347 4.0934,-0.0948 0.9975,0.82781 20.2806,1.4654 32.5607,1.07662 l 4.4374,-0.14053 -0.2186,-16.40597 c -0.1357,-10.17947 -0.5744,-16.40016 -1.1561,-16.39059 -1.0616,0.0178 -11.9765,5.50125 -21.0938,10.59768 -7.4858,4.18444 -9.4201,4.26094 -12.8111,0.50663 -19.1127,-21.15977 -17.3264,-20.25488 -30.8556,-15.63028 -15.175,5.18719 -36.883,7.9965 -41.7332,5.40075 -0.9154,-0.48994 -2.4556,-0.89072 -3.4226,-0.89072 -1.5899,0 -13.3239,-11.32253 -13.3944,-12.92469 -0.1196,-2.71399 -4.8289,-4.08539 -8.6927,-2.53138 -5.8952,2.37105 -16.3469,5.15541 -22.6841,6.04313 -10.524,1.47419 -15.9263,3.094 -25.3125,7.5895 -5.1563,2.46956 -11.9063,5.54775 -15,6.84038 -14.6723,6.13022 -40.653,19.35637 -41.1363,20.9415 -0.2847,0.93375 -0.7347,18.57281 -0.9999,39.19776 -0.2652,20.6251 -0.7116,51.6329 -0.992,68.9063 -0.8584,52.8679 -0.9772,138.1639 -0.1955,140.304 1.2328,3.3755 2.4214,3.4677 49.4174,3.8354 l 45.4688,0.3557 3.1447,2.9868 3.1448,2.9869 -0.6525,17.7224 c -0.9705,26.3623 -0.1235,25.8676 -40.3245,23.5495 -10.9794,-0.6332 -99.5057,-1.6015 -158.9968,-1.7394 -81.0785,-0.1877 -70.9518,2.9969 -70.9572,-22.314 l 0,-19.7544 2.4791,-2.6731 c 3.0992,-3.3419 5.6948,-3.4524 52.1666,-2.2221 37.361,0.9889 43.4173,0.9512 44.647,-0.2785 1.0473,-1.0473 1.6283,-19.0952 2.1815,-67.7592 0.2256,-19.8516 0.9027,-61.5067 1.5047,-92.567 1.1855,-61.1766 1.1639,-61.6914 -2.5609,-60.7565 -2.1522,0.5402 -20.4762,7.941 -27.9598,11.2926 -1.5469,0.6928 -5.1255,2.1688 -7.9526,3.2801 -2.827,1.1112 -7.3746,3.0426 -10.1058,4.2918 -2.7313,1.2493 -5.2171,2.2715 -5.5241,2.2715 -0.3069,0 -2.9312,1.0258 -5.8316,2.2796 -2.9003,1.2538 -12.4367,5.1076 -21.1917,8.5639 -8.755,3.4564 -16.5597,6.6154 -17.3438,7.0201 -0.784,0.4047 -4.1676,1.6815 -7.5192,2.8373 -3.3515,1.1559 -11.3672,4.1923 -17.8125,6.7479 -6.4453,2.5554 -17.414,6.6691 -24.375,9.1413 -6.9609,2.4722 -16.2422,5.8313 -20.625,7.4646 -4.3828,1.6333 -9.6562,3.541 -11.7187,4.2392 -2.0625,0.6983 -8.6016,3.0236 -14.5313,5.1674 -5.9297,2.1438 -13.9453,4.9044 -17.8125,6.1346 -3.8672,1.2303 -22.0078,7.3158 -40.3125,13.5235 -18.3047,6.2075 -34.7578,11.6797 -36.5625,12.1602 -1.8047,0.4806 -6.8672,2.1302 -11.25,3.6659 -8.2156,2.8786 -30.8568,9.9896 -40.7812,12.8083 -3.0938,0.8787 -8.1563,2.457 -11.25,3.5075 -3.0938,1.0504 -6.8907,2.2249 -8.4375,2.6102 -1.5469,0.3852 -9.1407,2.656 -16.875,5.0462 -22.1099,6.8326 -28.4626,8.6672 -37.5,10.8295 -4.6407,1.1103 -9.9141,2.695 -11.7188,3.5217 -1.8047,0.8267 -5.3906,2.0228 -7.9687,2.6581 -2.5782,0.6353 -10.3828,2.8211 -17.3438,4.8573 -6.9609,2.0361 -15.8203,4.3473 -19.6875,5.1358 -3.8672,0.7885 -10.6172,2.7285 -15,4.3111 -8.0839,2.919 -15.6072,4.9906 -25.7818,7.0992 -3.094,0.6413 -6.469,1.6119 -7.5,2.1571 -1.031,0.5452 -4.6166,1.6822 -7.9682,2.5267 -3.3515,0.8444 -8.8359,2.3507 -12.1875,3.3473 -3.3515,0.9967 -11.3672,3.1218 -17.8125,4.7226 -6.4453,1.6007 -13.8281,3.4942 -16.4062,4.2078 -2.5782,0.7136 -8.9063,2.3775 -14.0625,3.6977 -5.1563,1.3202 -14.0157,3.6411 -19.6875,5.1576 -5.6719,1.5165 -14.3203,3.6513 -19.2188,4.7439 -13.0831,2.9183 -24.5195,5.6544 -27.1875,6.5045 -1.289,0.4107 -4.664,1.245 -7.5,1.8539 -2.8359,0.609 -7.6875,1.6993 -10.7812,2.4231 -3.0938,0.7236 -10.6875,2.4374 -16.875,3.8084 -6.1875,1.3709 -17.1563,3.8858 -24.375,5.5888 -7.2188,1.7029 -15.6563,3.576 -18.75,4.1625 -7.544,1.4299 -16.8835,3.5124 -27.6563,6.1667 -4.8984,1.2068 -12.0703,2.8791 -15.9375,3.7161 -13.6379,2.9517 -23.94795,5.2537 -27.65623,6.1748 -2.0625,0.5122 -4.80469,0.958 -6.09375,0.9906 -1.28906,0.033 -3.1875,0.4077 -4.21875,0.8336 -1.03125,0.4258 -6.51563,1.6768 -12.1875,2.7798 -8.62556,1.6775 -16.7085,3.3618 -29.10066,6.0637 -1.73709,0.3787 -1.93312,-0.085 -2.12897,-5.0454 -0.2535,-6.4185 0.34529,-7.1113 6.85463,-7.9309 2.57812,-0.3247 8.48437,-1.4293 13.125,-2.4548 4.64062,-1.0254 11.60156,-2.5082 15.46875,-3.295 25.55688,-5.1998 39.26678,-8.134 48.28128,-10.3333 15.1523,-3.6969 21.9362,-5.2479 27.1875,-6.2158 7.2771,-1.3414 17.8551,-3.5793 28.125,-5.9502 5.1562,-1.1904 12.75,-2.896 16.875,-3.7902 4.125,-0.8942 9.3984,-2.1748 11.7187,-2.8458 2.3203,-0.671 9.2813,-2.3352 15.4688,-3.6982 17.3841,-3.8294 22.8605,-5.0979 30.5326,-7.0722 3.9023,-1.0042 8.3531,-1.8258 9.8906,-1.8258 1.5375,0 3.1963,-0.3901 3.6861,-0.8668 0.4899,-0.4767 6.375,-2.1974 13.0782,-3.8238 6.7031,-1.6263 14.2968,-3.5477 16.875,-4.2697 14.5675,-4.0798 37.0186,-9.803 39.8926,-10.1694 1.8315,-0.2334 4.9955,-1.061 7.0312,-1.8389 2.0356,-0.7779 7.3467,-2.3003 11.8025,-3.3831 4.4556,-1.0828 10.5223,-2.8196 13.4813,-3.8596 2.9591,-1.04 7.1182,-2.2364 9.2425,-2.6586 2.1243,-0.4222 9.6875,-2.4864 16.8071,-4.587 7.1196,-2.1008 14.9243,-4.0883 17.3437,-4.4167 2.4195,-0.3285 5.8756,-1.2676 7.6803,-2.0868 1.8047,-0.8194 4.7578,-1.8065 6.5625,-2.1938 8.5661,-1.838 24.1273,-6.2269 38.3098,-10.8049 3.7969,-1.2257 7.8761,-2.2284 9.0646,-2.2284 1.1887,0 3.3555,-0.6023 4.8153,-1.3386 1.4597,-0.7362 6.6619,-2.4676 11.5603,-3.8475 11.599,-3.2675 12.4473,-3.5237 26.2947,-7.9384 6.4699,-2.0628 12.2819,-3.7505 12.9157,-3.7505 1.2227,0 6.802,-1.7451 30.1646,-9.4345 7.9922,-2.6306 20.6485,-6.6594 28.125,-8.953 7.4766,-2.2936 14.4375,-4.5531 15.4688,-5.0212 1.0312,-0.4681 4.8281,-1.7581 8.4375,-2.8665 3.6093,-1.1085 11.2031,-3.6389 16.875,-5.6231 5.6718,-1.9842 14.2872,-4.7159 19.1452,-6.0705 4.858,-1.3545 9.698,-3.0688 10.7555,-3.8095 1.0575,-0.7407 2.6583,-1.3467 3.5573,-1.3467 0.899,0 3.02,-0.598 4.7133,-1.3289 1.6932,-0.7309 5.6099,-2.0594 8.7037,-2.9522 3.0937,-0.8929 6.4571,-2.1934 7.4742,-2.8899 1.0171,-0.6966 3.207,-1.2665 4.8666,-1.2665 1.6595,0 3.2438,-0.3665 3.5205,-0.8143 0.2769,-0.448 2.1454,-1.077 4.1524,-1.3979 2.0069,-0.3209 4.1185,-1.1491 4.6921,-1.8404 0.5738,-0.6913 3.4762,-2.0231 6.4499,-2.9595 2.9738,-0.9365 8.149,-2.7435 11.5005,-4.0156 3.3516,-1.272 9.8906,-3.7019 14.5313,-5.3996 4.6406,-1.6978 11.8125,-4.4292 15.9375,-6.0697 4.125,-1.6405 10.0312,-3.7935 13.125,-4.7843 3.0937,-0.9909 6.4687,-2.2167 7.5,-2.724 1.0312,-0.5073 5.2386,-2.0058 9.3498,-3.33 4.1112,-1.324 7.908,-2.7539 8.4375,-3.1773 0.5295,-0.4234 4.112,-1.8972 7.9612,-3.275 3.8493,-1.3778 7.4352,-2.8517 7.9687,-3.2752 0.5337,-0.4236 2.025,-1.0909 3.314,-1.4829 1.2891,-0.392 4.4531,-1.6559 7.0313,-2.8087 2.5781,-1.1529 7.1039,-2.9837 10.0573,-4.0687 2.9534,-1.0849 6.1174,-2.3546 7.0312,-2.8216 3.6205,-1.8501 6.6022,-3.0141 12.3338,-4.8148 3.2916,-1.0341 7.3519,-2.725 9.0227,-3.7577 1.6709,-1.0326 6.7824,-3.315 11.3589,-5.072 8.3261,-3.19627 22.2701,-8.93461 30.5208,-12.55993 6.3126,-2.77378 6.0894,-0.89015 6.2981,-53.14462 0.105,-26.29688 0.3602,-53.50781 0.5671,-60.46875 0.2068,-6.96094 0.6524,-30.24697 0.9902,-51.74673 l 0.6141,-39.09047 -3.0238,-4.50328 c -1.663,-2.4768 -3.6932,-4.88909 -4.5114,-5.36065 -1.6019,-0.92328 -2.8066,-2.13316 -18.3508,-18.43071 -18.0405,-18.91468 -20.634,-21.49308 -21.6241,-21.49766 -6.1608,-0.0285 -13.0992,-13.26368 -9.1748,-17.50112 14.9772,-16.17141 14.9931,-12.65754 -0.1282,-28.19373 -6.9025,-7.09191 -15.2346,-15.8336 -18.5156,-19.42596 -3.281,-3.59237 -9.1296,-9.78566 -12.9968,-13.76288 -16.3757,-16.84159 -22.4833,-23.29133 -29.5516,-31.2069 -4.1137,-4.60698 -11.0656,-11.99612 -15.4484,-16.42029 -4.3828,-4.42418 -12.3475,-12.67826 -17.6992,-18.34241 -27.783,-29.40451 -46.3773,-48.80473 -79.9579,-83.42346 -16.8211,-17.34116 -28.2775,-29.23055 -40.9818,-42.53068 -2.7749,-2.905 -11.2124,-11.60995 -18.75,-19.34432 -14.4516,-14.82881 -34.8928,-36.38183 -45.1111,-47.56482 -3.3515,-3.66798 -12.4492,-13.23987 -20.2171,-21.27087 -35.3218,-36.51834 -46.353,-48.4136 -46.3156,-49.94352 0.039,-1.6163 2.27,-4.50204 3.4798,-4.50204 0.5276,0 5.9468,-4.65801 12.0427,-10.35113 6.096,-5.69313 12.8822,-11.70485 15.0804,-13.35938 5.4468,-4.09957 5.499,-3.97483 -7.0725,-16.88962 -6.12,-6.28711 -12.7386,-13.32956 -14.7082,-15.64987 -4.8385,-5.70013 -18.5103,-19.6875 -19.2433,-19.6875 -0.324,0 -2.5228,1.47656 -4.8864,3.28125 -5.9437,4.53838 -16.5973,1.09056 -16.5973,-5.3714 0,-0.75308 -0.8437,-2.13283 -1.875,-3.0661 -2.9561,-2.67527 -2.3328,-6.21605 2.0408,-11.59254 3.4486,-4.23941 5.9145,-6.17939 5.2248,-4.11059 -0.2461,0.73829 0.5344,1.17188 2.1094,1.17188 1.5453,0 1.0577,-2.56579 -0.6092,-3.20542 -1.3725,-0.52666 -1.3164,-0.83864 0.4979,-2.76987 l 2.0446,-2.17636 -9.19,-8.8148 c -13.5344,-12.98194 -24.1181,-22.11813 -29.3557,-25.34083 -2.548,-1.56781 -4.9502,-3.3492 -5.3383,-3.95862 -0.388,-0.60942 -4.7133,-4.7087 -9.6118,-9.10952 -4.8984,-4.40082 -11.8594,-10.85825 -15.4687,-14.34986 -3.6094,-3.4916 -8.0307,-7.47789 -9.8251,-8.85843 -1.7945,-1.38052 -6.4992,-5.04129 -10.455,-8.13504 -3.9558,-3.09375 -8.7381,-6.67969 -10.6274,-7.96875 -1.8893,-1.28906 -5.5812,-3.98665 -8.2042,-5.99464 -2.623,-2.00798 -11.771,-8.35284 -20.3287,-14.09968 C 1211.924,86.043116 1186.8028,73.048474 1145.2073,57.515824 1089.3717,36.665661 1033.1992,27.423765 989.0625,31.825816 c -41.74753,4.163767 -88.39748,15.698851 -115.78125,28.629121 -3.60938,1.704301 -8.46094,3.969403 -10.78125,5.033561 -8.09732,3.713645 -20.45335,11.174563 -26.02792,15.716376 -3.08935,2.517006 -7.8836,5.974374 -10.6539,7.683039 -2.77032,1.708664 -6.30255,4.137859 -7.84943,5.398206 l -2.8125,2.29155 3.04688,2.404115 c 1.67578,1.322256 3.04687,3.051486 3.04687,3.842716 0,0.85626 0.53784,1.23222 1.32866,0.92875 1.34441,-0.5159 2.42134,1.15638 2.42134,3.75987 0,1.50113 -1.93671,6.37758 -4.40075,11.08063 -0.81044,1.54688 -2.53679,4.92188 -3.83633,7.5 -1.29955,2.57812 -3.48776,6.375 -4.8627,8.4375 -1.37494,2.0625 -3.00942,5.01562 -3.63218,6.5625 -0.72169,1.79264 -2.50236,3.47167 -4.91058,4.6303 -2.07807,0.99979 -4.0064,2.18687 -4.28518,2.63795 -1.4061,2.27511 -0.0207,184.18957 1.41363,185.62391 1.04502,1.04501 11.42909,1.1598 17.22809,0.19044 12.46591,-2.08381 13.16969,3.41672 3.0129,23.54775 -6.82777,13.53281 -10.97203,18.39425 -16.72187,19.6157 -1.93475,0.41101 -2.42455,0.86568 -1.7063,1.58393 1.46029,1.46029 10.62066,4.41391 12.02179,3.87624 4.39455,-1.68635 4.31635,-2.83557 4.17811,61.4005 l -0.12936,60.1131 5.61576,2.83483 c 17.74282,8.95654 31.42172,21.10473 46.26064,41.08394 5.28161,7.11118 12.77395,24.97799 16.20458,38.64266 0.84143,3.35156 2.01275,6.67779 2.60293,7.39163 3.83187,4.63473 -1.40854,46.82331 -7.58275,61.04587 -1.00727,2.32031 -2.74895,6.32812 -3.8704,8.90625 -1.12144,2.57812 -2.4411,5.32031 -2.93258,6.09375 -0.49148,0.77344 -1.59681,2.67187 -2.45628,4.21875 -2.15769,3.88337 -8.16104,11.98733 -14.10301,19.03773 -7.62838,9.05138 -7.65234,9.03441 12.36059,8.75972 13.04178,-0.17902 15.1881,0.4675 16.96066,5.10887 6.23898,16.33652 -5.10804,33.27295 -19.00119,28.36098 -3.95489,-1.39826 -167.13168,-1.70517 -260.92822,-0.49076 -26.03906,0.33713 -78.77344,0.70976 -117.1875,0.82808 -38.41406,0.1183 -72.58503,0.43847 -75.93548,0.71149 l -6.09173,0.49639 -0.7812,5.62058 c -0.99775,7.17869 -1.73114,7.97317 -7.35998,7.97317 -13.03669,0 -13.87596,0.88079 -14.51535,15.23351 -0.2814,6.31689 -0.82533,12.98097 -1.20871,14.80909 -0.38338,1.82813 -0.39877,4.14844 -0.0342,5.15625 0.36458,1.00782 0.90234,5.75985 1.19502,10.56007 0.29267,4.80021 1.03648,9.33537 1.65291,10.07812 0.87453,1.05376 0.84802,1.67912 -0.12072,2.84636 -2.00242,2.41279 -2.67376,52.73578 -2.70481,202.7536 -0.005,24.9388 0.29418,45.8216 0.66522,46.4062 0.7759,1.2227 0.96401,15.5912 0.20413,15.5931 -1.9269,0 -1.85174,44.7645 0.0772,45.9847 0.75015,0.4745 11.27797,0.88 23.39516,0.901 12.11719,0.021 73.67275,0.1699 136.79014,0.3311 l 114.75889,0.2929 1.69555,2.0939 c 2.77686,3.4293 3.06351,7.9761 1.83747,29.1476 -1.64719,28.4438 -1.29399,27.8668 -16.43066,26.8449 -4.67233,-0.3153 -66.92483,-0.8051 -138.33889,-1.0881 -102.74627,-0.4074 -199.06463,-1.0403 -204.5853,-1.3444 -3.06453,-0.1688 -6.34807,-50.0994 -3.57156,-54.31 1.6832,-2.5526 5.14712,-2.8961 23.40643,-2.3208 l 18.81294,0.5928 0.10209,-5.9841 c 0.0562,-3.2913 0.22705,-12.734 0.37977,-20.984 0.71012,-38.3632 1.47375,-113.10474 1.92524,-188.43755 0.27194,-45.375 0.71144,-85.45313 0.97666,-89.0625 0.26522,-3.60938 0.4738,-11.39672 0.46351,-17.3052 -0.0103,-5.90848 0.3612,-12.43358 0.82554,-14.50022 0.52199,-2.32322 0.50291,-4.16881 -0.05,-4.83501 -0.49184,-0.59263 -0.85925,-7.31304 -0.81646,-14.93426 0.0934,-16.64319 0.90429,-15.71222 -13.1058,-15.04715 -6.76319,0.32104 -12.01351,0.11636 -14.25701,-0.55581 l -3.55132,-1.064 0.56784,-7.36355 0.56783,-7.36355 -3.83362,0 c -2.1085,0 -4.09506,0.42302 -4.4146,0.94003 -0.38836,0.62839 -1.1633,0.62839 -2.33745,0 -2.8652,-1.53341 -3.57601,-1.18926 -9.19199,4.45059 -16.76158,16.83281 -38.09964,15.60694 -40.0172,-2.29898 -0.36993,-3.45437 -1.07425,-7.33706 -1.56514,-8.62822 -5.6845,-14.95135 1.65531,-35.3942 15.18642,-42.29726 10.58629,-5.40072 26.91327,1.85045 29.99727,13.32243 2.30088,8.55891 2.1121,8.38239 8.63306,8.07176 l 5.85908,-0.2791 0.47861,-5.15625 c 0.76311,-8.22121 3.87007,-10.3125 15.32089,-10.3125 4.63835,0 8.10907,-0.59884 11.417,-1.96989 l 4.75272,-1.96991 0.32217,-40.45197 c 0.1772,-22.24859 0.36694,-67.87386 0.42164,-101.38948 l 0.0995,-60.9375 -12.1875,-0.22351 c -19.63682,-0.36013 -20.61753,-0.92908 -20.62248,-11.96399 l -0.003,-5.625 -5.15625,0 -5.15625,0 -3.28125,6.71314 c -7.5534,15.45356 -25.81576,20.13077 -33.52931,8.58724 -6.99331,-10.46567 -8.14256,-12.71407 -8.98164,-17.57191 -6.23075,-36.07248 29.17909,-59.6111 44.274,-29.43105 2.31126,4.62102 5.16289,6.85883 8.74018,6.85883 3.00436,0 3.45978,-1.18252 3.89968,-10.12575 0.44024,-8.95009 0.71415,-9.093 17.42746,-9.093 7.67256,0 14.24031,-0.29003 14.595,-0.64451 1.26139,-1.26064 2.25843,-267.06157 1.06487,-283.88674 -0.54493,-7.68181 -0.0401,-8.18607 8.29198,-8.28308 3.9012,-0.0455 7.51057,-0.3406 8.0208,-0.65594 1.49867,-0.92624 17.58506,0.63602 19.27529,1.87195 2.67302,1.95456 3.09692,9.20688 3.04331,52.06707 -0.0287,22.94531 -0.11702,86.22656 -0.19628,140.625 l -0.14409,98.90625 6.5625,0.47144 c 9.67011,0.69469 13.56659,4.36152 13.58852,12.78763 0.007,3.0113 -8.76062,2.8764 168.28648,2.58896 l 165.9375,-0.2694 0.29466,-2.37806 c 0.16205,-1.30793 1.32072,-3.18516 2.57479,-4.17163 2.23568,-1.75857 2.28988,-2.1384 2.77932,-19.47375 0.9358,-33.14415 0.0706,-31.10111 13.51799,-31.92037 12.2824,-0.74827 14.30059,-4.27383 2.73889,-4.78455 -8.17781,-0.36124 -7.86737,0.004 -19.095,-22.43844 -1.8644,-3.72662 -3.74447,-6.99486 -4.17792,-7.26274 -0.43344,-0.26788 -1.29657,-2.60669 -1.91806,-5.19735 -1.81764,-7.57678 -1.58145,-7.67637 16.40405,-6.9168 14.25799,0.60215 15.21137,0.53564 15.84096,-1.10506 1.2962,-3.37783 0.69399,-199.3087 -0.61867,-201.28566 -0.65188,-0.98179 -4.5531,-3.60791 -8.66937,-5.83584 l -7.48385,-4.05075 0.22492,-5.94132 c 0.23258,-6.14336 4.75903,-18.214104 7.43088,-19.816019 0.68774,-0.412341 1.25045,-1.272357 1.25045,-1.91115 0,-3.695395 5.48118,-11.263067 9.76051,-13.475996 3.47171,-1.795293 12.0141,-1.216466 14.4394,0.978405 3.46117,3.13231 6.84886,2.016863 14.78827,-4.869244 11.54121,-10.010086 33.48606,-26.176329 40.23057,-29.6369 1.54687,-0.793694 5.34375,-2.741505 8.4375,-4.32847 3.09375,-1.586965 6.67969,-3.499453 7.96875,-4.249973 5.63585,-3.281313 25.72387,-12.183393 29.53125,-13.08688 1.54687,-0.367073 4.93414,-1.594976 7.52724,-2.728676 2.59311,-1.133699 6.38998,-2.361388 8.4375,-2.728198 2.04752,-0.36681 6.04307,-1.534558 8.87901,-2.594996 2.83594,-1.060437 7.26562,-2.479505 9.84375,-3.153481 2.57812,-0.673977 7.85156,-2.088248 11.71875,-3.142824 3.86719,-1.054576 10.61719,-2.5806657 15,-3.3913104 4.38281,-0.8106447 9.44531,-1.8537464 11.25,-2.3180037 3.645,-0.9376815 22.87069,-3.5142593 33.75,-4.5230906 16.3139,-1.51277673 67.3852,0.7093675 71.2537,3.1002988 0.3248,0.2007262 4.1482,0.8092635 8.4965,1.3523052 7.3272,0.9150608 10.3735,1.5177155 27.1248,5.3662777 9.4987,2.18229 30.4481,8.372304 40.7812,12.049804 5.1563,1.83508 10.4395,3.68439 11.7405,4.109577 5.1741,1.691063 23.2198,8.777963 27.6346,10.85271 9.5677,4.496387 36.6729,18.107466 39.8437,20.007882 1.8047,1.081628 6.8672,3.957582 11.25,6.391011 4.3828,2.433428 11.1328,6.595813 15,9.249744 3.8672,2.653932 8.9297,5.839365 11.25,7.078741 2.3203,1.239377 6.1942,3.738127 8.6086,5.552779 2.4144,1.814652 9.9464,7.307179 16.7376,12.205617 19.3916,13.98687 24.6106,17.86619 32.4705,24.13497 4.0367,3.21955 10.0817,7.72076 13.4333,10.00271 3.3516,2.28195 9.953,7.24153 14.6698,11.02128 4.7169,3.77976 10.1834,8.13791 12.148,9.68479 5.3539,4.21554 25.6769,21.06025 37.7442,31.28438 5.8607,4.96546 11.2712,9.38322 12.0235,9.81723 1.6205,0.93486 9.627,-4.09139 15.3232,-9.61937 8.5801,-8.32666 10.7078,-8.21464 20.5023,1.07931 7.366,6.98948 8.0996,9.17783 4.6847,13.9736 -3.6295,5.09717 -2.4502,6.70247 25.5588,34.79297 16.3017,16.34917 13.5619,15.71065 23.8267,5.55271 4.5994,-4.55148 9.0601,-8.66476 9.9128,-9.14063 0.8527,-0.47586 4.1192,-3.2822 7.259,-6.2363 10.0187,-9.42623 9.0302,-9.87755 33.3227,15.21485 l 18.606,19.21875 6.6623,0.0247 c 3.6642,0.0136 9.6154,0.50992 13.2247,1.10305 3.6094,0.59313 15.6329,1.12054 26.7188,1.17201 11.0859,0.0515 25.8516,0.52668 32.8125,1.05599 6.9609,0.5293 16.4531,0.7229 21.0937,0.43022 25.0188,-1.57788 58.1384,-1.73266 107.7621,-0.50361 19.566,0.48459 35.7519,0.70368 35.9688,0.48683 0.2168,-0.21683 0.4505,-6.72209 0.5192,-14.45612 0.1447,-16.28381 -0.068,-15.87536 8.6289,-16.64849 3.5728,-0.31764 6.9964,-0.97091 7.608,-1.45171 0.6964,-0.54749 1.812,-0.49951 2.9852,0.12839 1.1561,0.61873 9.2712,1.00256 21.1963,1.00256 l 19.323,0 2.3909,2.39092 c 1.9229,1.92286 2.2492,2.88642 1.6668,4.92188 -0.6836,2.38923 -0.7535,28.26414 -0.078,28.9395 0.4387,0.43876 19.8644,3.03304 30.6227,4.08964 4.8984,0.48109 11.8594,1.30703 15.4687,1.83543 3.6094,0.52841 14.1563,2.0245 23.4375,3.32465 9.2813,1.30014 20.6719,3.00233 25.3125,3.78263 4.6407,0.78029 12.5265,2.00737 17.5242,2.72683 4.9977,0.71945 10.693,1.75415 12.6563,2.29933 1.9632,0.54517 5.1241,0.99359 7.0241,0.99646 1.9001,0.003 4.5322,0.41493 5.8492,0.91565 1.3171,0.50074 6.0906,1.55333 10.6079,2.33909 4.5173,0.78576 11.1665,2.06699 14.7758,2.84718 3.6094,0.78019 9.7266,2.03765 13.5938,2.79436 3.8672,0.75671 11.4609,2.45664 16.875,3.77761 5.414,1.32098 12.5859,2.984 15.9375,3.6956 3.3515,0.71161 10.5234,2.3735 15.9375,3.69312 5.414,1.31961 13.4297,3.2175 17.8125,4.21753 4.3828,1.00004 11.5547,2.8668 15.9375,4.14837 4.3828,1.28157 13.875,3.87674 21.0937,5.76705 21.6696,5.67441 55.9823,15.51681 63.75,18.28633 2.5782,0.91922 9.75,3.25525 15.9375,5.19119 13.8849,4.34426 53.8971,17.87025 66.5625,22.5012 5.1563,1.88533 10.4297,3.78302 11.7188,4.21712 1.289,0.4341 5.2969,1.91973 8.9062,3.30141 3.6094,1.38168 8.25,3.05508 10.3125,3.71866 2.0625,0.66358 7.125,2.56164 11.25,4.21791 4.125,1.65627 9.8446,3.7671 12.7102,4.69072 2.8656,0.92363 8.8823,3.19938 13.3704,5.05722 4.488,1.85786 8.6493,3.37791 9.2472,3.37791 0.5979,0 1.7532,0.57767 2.5672,1.2837 0.814,0.70603 4.4332,2.41573 8.0425,3.79933 3.6094,1.3836 7.4063,2.91588 8.4375,3.40507 3.1318,1.48566 20.1798,8.3405 27.7029,11.13909 3.8928,1.44814 10.2209,4.24144 14.0625,6.20734 9.8866,5.05944 10.0181,5.11871 15.6686,7.06277 8.6416,2.97314 11.4723,5.17915 11.4723,8.94052 0,6.35876 -5.7679,9.48861 -11.7188,6.35903 -8.2605,-4.34421 -24.9752,-12.51093 -29.0625,-14.19987 -2.5781,-1.06531 -9.1172,-3.92194 -14.5312,-6.34807 -9.4276,-4.22467 -30.0346,-12.78822 -52.0313,-21.6224 -5.6718,-2.27791 -11.045,-4.56575 -11.9403,-5.08408 -0.8957,-0.51836 -2.2725,-0.94246 -3.0599,-0.94246 -0.7875,0 -2.1643,-0.41826 -3.0597,-0.92947 -0.8953,-0.5112 -5.8466,-2.4647 -11.0028,-4.3411 -5.1563,-1.87641 -9.7969,-3.7346 -10.3125,-4.12932 -0.5157,-0.39472 -2.4141,-1.14573 -4.2188,-1.6689 -4.904,-1.42165 -16.3252,-5.50296 -25.3125,-9.04519 -4.3828,-1.72744 -11.3437,-4.20846 -15.4687,-5.51337 -4.125,-1.30492 -12.3516,-4.02863 -18.2813,-6.05272 -12.5244,-4.27518 -44.2611,-14.51315 -51.0937,-16.4824 -2.5782,-0.74304 -7.6407,-2.17592 -11.25,-3.18417 -9.618,-2.6867 -43.1441,-12.35853 -49.7743,-14.35921 -3.1414,-0.94793 -9.2586,-2.53922 -13.5937,-3.53618 -6.7577,-1.55409 -16.5729,-4.05214 -29.9133,-7.61324 -7.9824,-2.13083 -41.815,-9.68474 -54.375,-12.14047 -21.3588,-4.17609 -31.1093,-6.00738 -35.1562,-6.60285 -2.5782,-0.37935 -6.586,-1.17183 -8.9063,-1.76107 -2.3203,-0.58923 -9.7031,-1.93981 -16.4062,-3.00129 -6.7032,-1.06147 -17.461,-2.76392 -23.9063,-3.78321 -6.4453,-1.01929 -16.5703,-2.4499 -22.5,-3.17912 -5.9297,-0.72923 -13.7344,-1.78165 -17.3437,-2.33871 -52.3069,-8.07288 -48.7512,-10.16811 -50.0732,29.50574 -0.086,2.57813 -0.356,52.38906 -0.6002,110.69096 l -0.444,106.00347 15.2462,15.42991 c 8.3853,8.48646 19.3594,19.33838 24.3868,24.11537 5.0273,4.777 9.1406,9.01927 9.1406,9.42728 0,0.40801 1.2656,1.8695 2.8125,3.24778 4.424,3.94175 3.5958,6.99173 -4.4463,16.37553 -6.7639,7.89237 -10.6849,15.784 -8.6498,17.40961 0.7575,0.60517 4.3105,4.25308 7.8955,8.10646 3.585,3.85336 11.3897,12.09208 17.3438,18.30824 5.954,6.21616 12.9349,13.72545 15.5131,16.68732 2.5781,2.96187 7.0078,7.7947 9.8437,10.73962 2.8359,2.94493 8.3,8.7247 12.1423,12.84393 3.8424,4.11924 15.2533,16.13796 25.3577,26.70827 10.1044,10.57031 21.4794,22.59375 25.2779,26.71875 3.7985,4.125 7.3761,7.92187 7.9501,8.4375 0.574,0.51562 6.7106,7.05469 13.6368,14.53125 6.9262,7.47656 15.6024,16.75781 19.2804,20.625 3.678,3.86719 10.89,11.46094 16.0266,16.875 5.1366,5.41406 13.5772,14.0625 18.7568,19.21875 16.1026,16.03002 17.2878,26.70054 6.7383,60.66458 -2.4387,7.85141 -2.6541,9.34924 -1.5672,10.90093 2.1043,3.00444 11.4886,13.00435 26.1857,27.90375 15.1581,15.36668 15.9156,16.7517 11.7874,21.55102 -2.0343,2.36513 -2.8489,2.57494 -12.4218,3.1995 -8.8438,0.57694 -13.526,1.383 -13.526,2.32856 0,0.13969 0.6328,1.7685 1.4063,3.6196 0.7734,1.85109 1.4062,4.36462 1.4062,5.58562 0,1.221 1.4812,4.12125 3.2917,6.44513 3.5276,4.52765 4.1393,7.93162 2.7923,15.53568 l -0.7058,3.98438 9.7327,0.099 c 5.353,0.0544 16.1509,0.15994 23.9952,0.23438 19.7533,0.1875 17.5603,-5.78785 17.8678,48.68372 0.3395,60.1372 0.5422,62.3845 7.5434,83.6392 3.0573,9.2812 8.1664,25.1015 11.3537,35.1562 3.1873,10.0547 6.3485,19.9688 7.025,22.0313 4.3532,13.2725 13.859,43.326 15.5677,49.2187 1.1214,3.8672 2.8283,8.7188 3.7931,10.7813 0.9649,2.0625 3.0472,7.9687 4.6276,13.125 1.5804,5.1562 3.2798,10.2187 3.7765,11.25 3.5493,7.3686 8.4702,23.7153 7.9592,26.4393 -1.2399,6.6093 3.3694,6.1664 -51.1201,4.9121 z m 37.2656,-8.3699 c 3.7076,-0.016 3.9758,-1.9953 1.2992,-9.587 -0.9613,-2.7264 -2.4969,-7.4883 -3.4126,-10.582 -0.9156,-3.0938 -1.9949,-6.4688 -2.3982,-7.5 -0.4034,-1.0313 -1.454,-3.873 -2.3348,-6.3149 -2.2223,-6.1615 -2.8,-6.4332 -9.3255,-4.3847 -10.9127,3.4256 -19.8161,1.7336 -27.5249,-5.2308 l -3.7693,-3.4054 -6.7918,2.981 c -3.7354,1.6395 -7.663,2.968 -8.7279,2.9522 -14.9704,-0.2223 -24.446,-1.7682 -32.84,-5.3575 -4.8186,-2.0605 -9.5324,-1.4086 -15.2496,2.1091 -12.4092,7.6349 -27.0645,7.423 -35.2222,-0.5092 -4.3739,-4.2531 -13.8078,-5.0589 -18.9811,-1.6214 -4.1059,2.7282 -15.4283,2.8897 -20.5187,0.2927 -5.6493,-2.8819 -16.2941,-3.3371 -21.4158,-0.9155 -6.6362,3.1376 -8.581,6.3534 -13.7188,22.6856 -1.0544,3.3516 -2.7701,8.7172 -3.8128,11.9236 -3.7424,11.5083 -8.2092,10.4995 48.7292,11.0047 114.6292,1.0169 168.316,1.6746 168.7262,2.067 0.2447,0.2341 1.2994,0.1962 2.3437,-0.084 1.0444,-0.2807 3.2699,-0.516 4.9457,-0.5231 z m -22.1711,-46.0331 c 8.705,-2.7871 9.9448,-4.1002 8.4205,-8.918 -2.9235,-9.2405 -6.8342,-22.0122 -7.7217,-25.218 -0.571,-2.0625 -1.8269,-5.5383 -2.7907,-7.7241 -0.964,-2.1858 -1.7526,-4.5051 -1.7526,-5.1539 0,-1.2443 -5.1801,-17.6697 -6.5823,-20.872 -0.9904,-2.2619 -10.6723,-32.1715 -15.477,-47.8125 -1.9007,-6.1875 -4.455,-13.8662 -5.6762,-17.064 -2.2131,-5.7952 -2.2217,-5.976 -2.6623,-56.2268 -0.5224,-59.56949 1.7086,-52.7744 -17.3595,-52.87462 -7.5069,-0.0394 -30.1883,-0.14484 -50.4031,-0.23437 l -36.754,-0.16266 -0.5092,2.02847 c -0.2799,1.11572 -0.4916,22.84228 -0.4704,48.28128 0.022,25.8274 -0.3444,47.4947 -0.8289,49.0652 -0.4773,1.5469 -1.3031,3.8672 -1.8353,5.1563 -0.5321,1.2891 -2.3231,6.7734 -3.98,12.1875 -1.657,5.4141 -4.4792,13.6406 -6.2717,18.2812 -1.7925,4.6407 -4.9068,13.0782 -6.9208,18.75 -2.0139,5.6719 -3.924,10.9454 -4.2448,11.7188 -1.0236,2.4689 -7.8772,21.5654 -12.9977,36.2163 -2.7268,7.8018 -5.6072,15.6064 -6.401,17.3437 -1.3657,2.9887 -3.4217,9.8079 -3.433,11.3862 0,0.4 4.108,0.5587 9.1353,0.3526 7.735,-0.317 9.775,-0.082 13.2653,1.5336 7.4498,3.4465 10.5161,3.5203 19.5594,0.4706 11.1325,-3.7542 18.9148,-2.5903 26.9217,4.0262 7.289,6.0233 14.0361,5.9909 23.6617,-0.1134 8.0231,-5.0881 20.4445,-6.0315 27.4513,-2.0849 8.6779,4.8877 23.7293,5.2394 33.215,0.7759 8.0058,-3.767 12.2897,-3.0374 18.9062,3.2203 5.3521,5.0618 8.0493,5.7419 14.5358,3.6651 z m -94.7362,-14.9 c -7.2119,-1.772 -11.0938,-16.389 -7.4756,-28.1484 2.01,-6.5328 4.5955,-17.3837 4.6062,-19.3322 0.053,-9.4608 10.4785,-5.5656 12.0279,4.4936 0.5824,3.7818 1.2516,8.1417 1.4871,9.6886 0.2354,1.5468 1.2585,6.6517 2.2735,11.3441 3.5817,16.5588 -1.2766,24.8149 -12.9191,21.9543 z m -3.3437,-70.2784 c -3.1441,-1.2754 -4.4283,-4.8545 -3.9248,-10.9386 0.6854,-8.2828 1.1634,-10.4257 4.262,-19.1127 1.5634,-4.3828 3.2653,-11.0921 3.7821,-14.9095 0.9899,-7.3108 1.8132,-8.4903 5.9425,-8.5137 3.5521,-0.02 4.6944,2.6648 4.6944,11.0328 0,3.9818 0.738,9.6117 1.7017,12.9814 2.5662,8.9738 -0.016,22.7525 -5.3724,28.6717 -1.6139,1.7834 -7.5859,2.2082 -11.0855,0.7886 z m 3.9351,-84.0415 c -3.5307,-3.8078 -3.7051,-19.0374 -0.2814,-24.5771 0.2438,-0.3944 0.9036,-5.132 1.4664,-10.528 1.5109,-14.4875 1.3243,-14.0297 5.7158,-14.0297 4.468,0 4.4901,0.042 7.3618,14.0625 1.109,5.4141 2.4799,12.1109 3.0465,14.882 2.8789,14.0794 -9.5415,28.5672 -17.3091,20.1903 z M 1876.8014,953.8005 c 3.3921,-1.34719 6.5892,-2.77209 7.1049,-3.1665 0.5156,-0.39431 1.9921,-1.02975 3.2812,-1.41188 1.2891,-0.38221 6.7734,-2.79309 12.1875,-5.35753 5.4141,-2.56443 11.3203,-5.36193 13.125,-6.21675 5.8864,-2.78799 37.8323,-35.28973 36.6902,-37.32845 -1.2924,-2.30664 -20.4472,-21.88323 -21.4057,-21.87696 -0.4142,0.003 -1.8482,0.741 -3.1864,1.64063 -13.7425,9.23808 -12.826,8.81326 -17.5006,8.11225 -4.0734,-0.61084 -5.0729,-1.38096 -13.757,-10.59888 -19.663,-20.87206 -23.0039,-23.64207 -24.3339,-20.176 -0.7794,2.03079 -0.725,97.42369 0.056,98.20454 0.8895,0.8895 0.9294,0.88012 7.7389,-1.82447 z m 210.9927,-9.25734 c 2.7911,-1.79822 6.543,-3.75403 8.3377,-4.34635 8.7792,-2.89739 13.5291,-6.01555 10.9522,-7.18967 -4.1442,-1.88825 -2.7143,-7.69464 1.895,-7.69464 2.7521,0 4.4664,2.27951 3.9087,5.19728 -0.4433,2.3192 -0.3199,2.38661 3.8741,2.11476 3.8183,-0.24749 4.3699,-0.55871 4.6518,-2.62454 0.1759,-1.28906 0.9384,-3.03644 1.6943,-3.88306 1.2322,-1.38022 0.8559,-2.09628 -3.6413,-6.92781 l -5.0156,-5.38849 -3.3574,1.21405 c -5.9929,2.16709 -8.7469,-1.62087 -4.4804,-6.16247 l 1.9258,-2.04987 -4.157,-4.33868 c -4.6902,-4.89499 -6.0474,-5.23926 -8.7889,-2.2293 -3.878,4.25761 -4.5302,6.54769 -2.2888,8.03595 2.2025,1.46239 2.6498,4.77559 0.8832,6.54218 -1.7332,1.73313 -5.2911,1.33399 -6.5856,-0.7388 -1.1032,-1.76652 -1.4461,-1.58459 -6.5704,3.48628 -5.7222,5.66249 -6.2547,6.81907 -4.0002,8.69002 2.2978,1.90703 1.7409,5.5127 -1.0477,6.78327 -2.2009,1.0028 -2.6796,0.85572 -4.6425,-1.42635 -2.642,-3.07144 -2.972,-3.10056 -5.7338,-0.506 -4.022,3.77845 1.8108,13.89683 6.8964,11.96333 2.7759,-1.05544 6.8713,0.94931 6.8713,3.36366 0,2.26743 3.0253,1.59018 8.4191,-1.88475 z m 1.659,-11.80575 c -2.4878,-1.44905 -2.0877,-5.3864 0.6754,-6.64534 4.3553,-1.98438 7.5883,4.4302 3.3706,6.68745 -2.1581,1.15501 -1.9876,1.15678 -4.046,-0.0421 z m -70.5468,5.65518 c 9.627,-1.0274 25.8705,-5.37932 26.4386,-7.08332 0.1752,-0.52574 -6.0149,-7.46898 -13.756,-15.42945 -7.7409,-7.96046 -16.7144,-17.36112 -19.9411,-20.89034 -3.2265,-3.52921 -11.14,-11.763 -17.5853,-18.29728 -6.4453,-6.53429 -13.4062,-13.95241 -15.4687,-16.48472 -2.0625,-2.53231 -6.2813,-7.20808 -9.375,-10.3906 -3.0938,-3.18253 -9.211,-9.55254 -13.5938,-14.15558 -4.3828,-4.60305 -13.2422,-13.87694 -19.6875,-20.60865 -6.4453,-6.73171 -13.5728,-14.31385 -15.8391,-16.84918 -4.2312,-4.73389 -27.8524,-29.13631 -57.1276,-59.01683 -45.8814,-46.8302 -47.0596,-48.06106 -57.4903,-60.05918 -0.8528,-0.98104 -4.5442,-4.72825 -8.2031,-8.32712 -3.6588,-3.59888 -6.6524,-7.09294 -6.6524,-7.76459 0,-0.67165 -0.7852,-1.52398 -1.7451,-1.89408 -1.6316,-0.62916 -22.7279,-22.09998 -52.1611,-53.08714 -2.0625,-2.17139 -11.5663,-11.93836 -21.1195,-21.70438 -9.5531,-9.76602 -24.2896,-25.13921 -32.7475,-34.16265 -8.458,-9.02344 -23.3974,-24.84375 -33.1986,-35.15625 -15.754,-16.57594 -25.0384,-26.24061 -56.4654,-58.77876 -4.3314,-4.48456 -7.8753,-8.32054 -7.8753,-8.52441 0,-0.20386 -6.8667,-7.29249 -15.2593,-15.7525 -8.3926,-8.46001 -21.1543,-21.62359 -28.3594,-29.25241 -7.205,-7.62881 -14.8446,-15.64443 -16.9769,-17.8125 -2.1323,-2.16806 -11.7966,-12.37942 -21.4762,-22.69192 -25.3615,-27.01973 -59.6152,-62.34375 -60.4548,-62.34375 -2.1695,0 -29.9734,23.59186 -29.9734,25.43268 0,1.96789 8.1617,11.11054 25.6091,28.68701 10.3533,10.42989 19.2233,19.67654 19.711,20.54811 0.4877,0.87155 3.8848,4.59797 7.549,8.28093 3.6642,3.68296 8.7715,9.10589 11.3497,12.05094 2.5781,2.94505 5.3314,6.08352 6.1185,6.97436 0.7872,0.89085 2.6856,2.69652 4.2188,4.01262 1.5332,1.31609 5.2822,5.11297 8.3313,8.4375 3.049,3.32453 15.4943,16.37554 27.6562,29.00225 12.1619,12.6267 25.0658,26.05881 28.6752,29.84912 7.0812,7.4362 25.352,25.5473 26.6072,26.37464 0.4224,0.27835 0.9366,1.00998 1.1428,1.62583 0.2062,0.61586 9.0234,10.09385 19.5937,21.06219 10.5703,10.96834 23.2266,24.16742 28.125,29.33129 4.8984,5.16387 14.4738,15.09214 21.2785,22.06282 6.8049,6.97068 13.4485,13.93958 14.7636,15.48646 1.3152,1.54687 4.8566,5.34375 7.8698,8.4375 3.0132,3.09375 10.2455,10.6875 16.0718,16.875 5.8263,6.1875 15.9566,16.73437 22.5118,23.4375 6.5553,6.70312 14.1503,14.71875 16.8777,17.8125 4.0525,4.59666 49.4808,51.59446 67.9706,70.31885 2.5781,2.61083 8.4548,8.73997 13.0593,13.62032 4.6045,4.88033 14.7295,15.45592 22.5,23.50132 19.1226,19.79916 30.5168,31.76266 33.4257,35.09603 1.3323,1.52679 4.2855,4.4848 6.5625,6.57335 3.7133,3.406 25.5083,25.85726 65.9271,67.91226 7.6861,7.9972 21.1861,21.77204 30,30.61074 8.8139,8.83871 19.7559,20.12386 24.3157,25.07813 l 8.2902,9.00775 5.3035,0.009 c 2.9169,0.009 9.5222,-0.44109 14.6785,-0.9914 z m 45.8085,-18.30011 c 3.9889,-3.40514 5.9311,-5.6989 5.5863,-6.59741 -0.7266,-1.8938 2.3434,-5.05757 4.9077,-5.05757 2.961,0 10.5165,-7.91783 11.6805,-12.24037 0.5151,-1.91329 1.5664,-4.00139 2.3362,-4.64022 2.1887,-1.8165 1.7285,-2.89084 -3.783,-8.82999 l -5.1544,-5.55434 -2.6172,2.50746 c -3.09,2.96041 -5.3604,3.19785 -6.697,0.70037 -1.2791,-2.38983 -0.3629,-4.52446 2.6104,-6.08234 l 2.4245,-1.27032 -6.4395,-6.67012 c -6.5563,-6.79118 -8.0068,-7.7487 -8.0068,-5.28549 0,1.85973 -4.0578,4.42316 -5.8892,3.72039 -3.7202,-1.42759 -2.8205,-6.78496 1.2771,-7.60449 3.8135,-0.76271 3.7294,-0.92562 -5.5558,-10.75386 -4.5612,-4.82787 -10.151,-10.8488 -12.4219,-13.37986 -2.2709,-2.53108 -9.2181,-9.91389 -15.4382,-16.40625 -6.22,-6.49238 -16.6998,-17.6051 -23.2882,-24.69494 -6.5883,-7.08985 -12.5318,-12.89063 -13.2075,-12.89063 -0.6757,0 -2.0545,-1.39979 -3.0639,-3.11063 -2.8506,-4.8313 -11.4323,-13.62488 -13.6093,-13.94508 -1.1568,-0.17017 -2.2211,-1.24717 -2.6009,-2.63179 -0.9504,-3.46507 -11.2208,-13.9045 -14.0147,-14.24534 -1.7195,-0.20976 -2.6142,-1.1228 -3.3593,-3.42794 -1.301,-4.02494 -10.3737,-13.26422 -13.0251,-13.26422 -2.6527,0 -4.2406,-1.72672 -4.2406,-4.61114 0,-2.83193 -8.8552,-12.26386 -11.514,-12.26386 -3.3826,0 -5.361,-1.81768 -5.361,-4.92538 0,-4.6356 -8.4929,-12.88712 -13.2642,-12.88712 -3.8,0 -5.2303,-1.99931 -4.0625,-5.67871 1.0702,-3.37172 -7.451,-10.99243 -12.7102,-11.36711 l -4.1818,-0.29793 0,-4.48144 c 0,-6.63546 -6.0747,-12.39356 -13.075,-12.39356 -4.9947,0 -7.0951,-3.15706 -4.3227,-6.49756 0.7788,-0.9384 -0.1715,-2.49698 -4.0301,-6.61019 l -5.0493,-5.38225 -3.284,1.1875 c -5.512,1.99316 -9.678,-3.70094 -4.7326,-6.46853 1.3844,-0.77478 0.8422,-1.67475 -4.0233,-6.67769 l -5.6234,-5.78221 -2.9899,1.70921 c -4.9098,2.80662 -9.7204,-2.52985 -4.9603,-5.50256 2.7801,-1.73624 2.4634,-2.66783 -2.5188,-7.4079 -7.1635,-6.81528 -7.3178,-6.89066 -9.5467,-4.6618 -2.4333,2.4333 -5.3273,2.48789 -6.5922,0.12436 -1.5067,-2.81521 -1.196,-3.70207 1.9718,-5.62852 l 2.9424,-1.78934 -6.8044,-6.81788 -6.8044,-6.81787 -1.2659,2.41607 c -2.4606,4.69633 -7.885,4.51929 -7.885,-0.25737 0,-2.12777 0.5974,-3.02596 2.5781,-3.87665 1.418,-0.60897 2.7889,-1.26771 3.0465,-1.46386 0.2576,-0.19616 -3.7503,-4.43495 -8.9062,-9.41955 -5.1561,-4.9846 -18.8668,-18.79215 -30.4684,-30.68346 -32.2129,-33.01741 -33.6881,-34.52822 -35.1865,-36.0357 -4.2509,-4.27669 -10.751,-11.75768 -10.751,-12.37343 0,-0.3924 -1.6374,-1.54885 -3.6388,-2.56987 -2.1676,-1.10579 -4.6218,-3.48266 -6.0697,-5.87843 -4.0399,-6.68475 -7.441,-10.10889 -11.3856,-11.46293 -2.9632,-1.01717 -3.9351,-1.92891 -4.6338,-4.34711 -1.1227,-3.88532 -10.3199,-13.05573 -13.094,-13.05573 -2.7424,0 -4.3031,-1.71257 -4.3031,-4.7221 0,-3.97343 -8.5145,-12.1529 -12.6506,-12.1529 -3.5111,0 -5.6239,-2.39275 -4.5602,-5.16459 0.9562,-2.49208 -9.4322,-12.49198 -12.3901,-11.92656 -3.5264,0.67414 -5.3,-1.36777 -4.6338,-5.33513 0.6857,-4.08368 -8.019,-13.9836 -10.7653,-12.24347 -4.3343,2.74636 -8.9076,-1.01112 -6.2211,-5.11132 1.7935,-2.73706 -7.4443,-13.5135 -10.4449,-12.18484 -5.7404,2.54174 -10.0905,-1.03612 -6.3223,-5.19992 2.3881,-2.63896 -8.9175,-14.25779 -11.5529,-11.87281 -2.7622,2.49977 -6.5575,1.99903 -7.301,-0.96328 -0.4891,-1.94859 -0.1466,-2.89169 1.5484,-4.26423 l 2.1764,-1.76231 -5.5214,-5.57952 c -5.8326,-5.89419 -6.9832,-6.43608 -8.8612,-4.17327 -1.5102,1.81969 -5.0648,1.80471 -6.5856,-0.0278 -1.4837,-1.78771 0.1715,-6.06599 2.3468,-6.06599 2.4937,0 1.5806,-1.51584 -4.7391,-7.8667 -6.203,-6.23368 -7.8971,-7.28573 -7.8971,-4.90434 0,2.12762 -2.6018,3.65216 -5.1441,3.01412 -4.0687,-1.0212 -2.6472,-7.11808 1.6597,-7.11808 3.1299,0 5.0196,2.10763 -44.7095,-49.86892 C 1496.9788,270.42807 1488.6912,262.5 1487.6655,262.5 c -1.9612,0 -2.2248,1.00323 -0.6716,2.55636 3.2583,3.25831 -2.8207,8.5098 -6.901,5.96161 -2.1102,-1.31786 -3.7052,-0.46589 -9.4692,5.05762 -3.326,3.18738 -3.4838,3.56786 -2.1094,5.08669 4.6956,5.18854 -1.9336,10.64852 -7.2051,5.93437 -1.538,-1.37534 -1.9041,-1.21728 -4.9943,2.15645 -5.2784,5.76265 -5.3943,6.32344 -2.1536,10.41068 8.2583,10.41505 28.696,31.99992 30.9882,32.72744 0.9663,0.30668 2.5595,2.10897 3.5405,4.00507 2.146,4.14809 9.7565,11.62912 13.6538,13.42151 1.6752,0.77045 2.9333,2.14096 3.1114,3.3892 0.4491,3.14845 9.1236,12.1765 12.3886,12.89364 2.8107,0.61732 5.5937,3.5585 5.5937,5.91156 0,3.07583 8.5632,11.4253 11.7178,11.4253 3.7573,0 5.5711,1.97334 4.7651,5.18443 -1.0289,4.09953 7.4263,12.15932 12.7559,12.15932 l 4.0424,0 5e-4,3.85689 c 7e-4,4.6815 8.9038,15.73883 10.9916,13.65104 3.2984,-3.29843 7.8347,-0.0849 6.9016,4.88911 -0.9869,5.2608 7.0073,13.35101 11.485,11.6229 4.4212,-1.70632 7.4831,1.61919 5.328,5.78674 -1.3187,2.5502 -1.2262,2.7502 3.8892,8.40281 l 5.24,5.79044 1.7905,-1.92183 c 2.7427,-2.94395 6.3171,-2.39247 7.6361,1.17816 0.4213,1.14054 -0.1101,2.37577 -1.6273,3.7818 l -2.253,2.08804 5.1817,5.82758 c 5.6069,6.3057 6.7099,6.81865 8.4998,3.95257 1.3762,-2.20357 5.1196,-2.4695 6.77,-0.48093 1.5692,1.89075 0.4476,5.84073 -1.8671,6.57537 -2.682,0.85123 -2.5099,1.19563 4.0984,8.20243 6.1502,6.52112 8.0913,7.61697 8.0913,4.56792 0,-2.55041 2.396,-4.17261 5.1441,-3.48287 3.6767,0.92281 3.3619,5.92741 -0.4566,7.25856 -4.0199,1.40134 -4.1345,1.22366 10.6114,16.45887 7.3832,7.62817 15.8968,16.61159 18.9191,19.96315 8.713,9.66214 23.6047,24.375 24.6712,24.375 0.5353,0 1.1097,0.60853 1.2765,1.35229 0.6336,2.8268 10.6744,13.55868 13.6628,14.60326 1.8254,0.63803 3.2527,1.88343 3.5595,3.10581 0.7482,2.98122 10.2295,12.08616 13.7812,13.23417 2.5391,0.82072 3.1003,1.51667 3.3526,4.15773 0.3732,3.90421 9.8849,13.52229 12.5521,12.69235 2.8646,-0.89131 5.4261,1.26866 5.4261,4.57535 0,5.03052 7.7345,13.18211 11.7863,12.42197 3.6465,-0.68409 6.336,2.14005 5.4395,5.71185 -1.0859,4.32685 8.2763,13.48821 11.8367,11.58272 3.3778,-1.80774 5.9385,0.44065 5.3657,4.71126 -0.7289,5.43431 7.0462,14.15425 11.0103,12.34814 4.9193,-2.24141 8.6622,1.63541 6.1361,6.35559 -0.9614,1.79624 -0.5721,2.58034 3.4177,6.88419 5.4646,5.89468 5.2788,5.80569 8.169,3.91201 4.5325,-2.96987 8.2032,2.0036 5.121,6.93882 -2.268,3.63171 8.2113,13.77168 11.3226,10.95596 2.1916,-1.98337 6.3669,-1.89356 7.4229,0.15965 1.0461,2.03386 0.4137,3.94691 -1.9328,5.84698 -1.7339,1.40401 -1.5807,1.69998 4.0692,7.8659 l 5.8708,6.40701 1.7795,-2.44276 c 1.8853,-2.58813 5.1759,-3.20228 7.0605,-1.31775 1.836,1.83605 1.2927,4.22141 -1.4099,6.19013 l -2.5348,1.84653 5.9126,6.66917 c 6.7824,7.65007 6.6054,7.57195 8.7229,3.85075 1.0846,-1.90603 2.3262,-2.80658 3.8695,-2.80658 5.3288,0 5.7489,6.5665 0.5162,8.06722 l -2.9584,0.84845 9.7378,10.24089 c 5.3558,5.63249 13.5347,14.09281 18.1754,18.80071 19.0304,19.30633 57.3217,59.54862 59.1092,62.12085 0.8062,1.16016 2.0809,2.10938 2.8327,2.10938 0.7518,0 2.1245,1.24583 3.0505,2.76853 2.7432,4.51095 11.514,13.30145 14.2089,14.24088 1.5542,0.54181 3.0812,2.19037 4.0385,4.36028 1.9748,4.47591 9.1441,11.5218 13.022,12.7977 2.2301,0.73377 3.2024,1.75463 3.7689,3.95728 1.1069,4.30383 10.0159,13.43783 13.1068,13.43783 2.4583,0 3.5812,1.47025 3.5812,4.68863 0,2.67361 9.1613,12.18637 11.7362,12.18637 3.8783,0 5.1379,0.99721 5.1591,4.08468 0.031,4.49839 8.6732,13.21944 12.8232,12.93995 3.3587,-0.22619 5.5079,2.37597 4.6552,5.63639 -2.2529,8.61523 12.2293,12.79375 20.3411,5.86896 z m -11.1255,-6.04374 c -1.3757,-4.33479 4.9934,-7.34725 7.404,-3.50187 1.4858,2.37031 -0.3747,4.8566 -3.8984,5.20967 -2.2471,0.22517 -3.01,-0.14648 -3.5056,-1.7078 z m -16.6698,-15.56681 c -2.4739,-2.47385 0.5139,-7.27968 4.2008,-6.75702 3.7209,0.52747 3.122,6.77471 -0.6852,7.14764 -1.5654,0.15335 -3.1475,-0.0224 -3.5156,-0.39062 z m 16.6855,-1.25902 c -1.3857,-4.36594 4.1635,-7.69595 7.0431,-4.2264 0.91,1.09651 0.9417,1.97911 0.1349,3.75 -1.3578,2.97985 -6.2798,3.30652 -7.178,0.4764 z m 17.3325,-0.0354 c -1.6384,-3.06136 0.3961,-5.79903 4.0466,-5.44538 2.296,0.22242 3.0553,0.78777 3.291,2.4501 0.634,4.47239 -5.2595,6.87818 -7.3376,2.99528 z m -51.5856,-16.43401 c -1.9874,-2.39466 0.2732,-6.06599 3.7351,-6.06599 2.2244,0 2.9388,0.49411 3.4061,2.35593 1.0898,4.34209 -4.2949,7.1396 -7.1412,3.71006 z m 17.28,-0.92192 c -0.7727,-3.07863 1.1347,-5.31635 4.2253,-4.9571 4.6524,0.5408 3.3346,7.31303 -1.4229,7.31303 -1.5797,0 -2.3799,-0.67277 -2.8024,-2.35593 z m 17.4075,0.92192 c -1.9595,-2.36117 0.2714,-6.06599 3.6527,-6.06599 3.7982,0 5.1146,3.30944 2.3972,6.02678 -1.87,1.87001 -4.5162,1.88715 -6.0499,0.0392 z m -50.8363,-16.45358 c -4.0073,-2.33406 0.1889,-8.60091 4.457,-6.65625 2.6694,1.21628 3.0592,4.00305 0.8667,6.19562 -1.6949,1.69487 -3.0094,1.8086 -5.3237,0.46063 z m 16.7645,-0.97004 c -1.6048,-2.29125 -1.1202,-4.2315 1.3926,-5.5764 2.4322,-1.3016 5.5148,0.47919 5.5148,3.18576 0,4.35205 -4.4539,5.89353 -6.9074,2.39064 z m 17.4074,0.85763 c -3.2603,-3.26033 1.4197,-9.32046 4.941,-6.39804 2.0056,1.66453 1.7899,5.39163 -0.3794,6.55256 -2.3384,1.25147 -3.1842,1.22282 -4.5616,-0.15452 z m -51.5625,-16.875 c -3.3509,-3.35092 0.683,-8.4983 5.0873,-6.49155 2.6546,1.20948 2.8827,3.91844 0.5108,6.065 -2.0245,1.83213 -4.039,1.98563 -5.5981,0.42655 z m 18.3722,0.41016 c -2.4191,-0.51998 -3.0613,-3.80849 -1.1551,-5.91484 3.1311,-3.45998 7.7316,-1.21825 6.6166,3.22423 -0.576,2.29493 -2.6192,3.30154 -5.4615,2.69061 z m 15.2678,-1.95271 c -0.6663,-1.24527 -0.5294,-2.2961 0.489,-3.75 2.7233,-3.88811 7.7143,-1.50819 6.5516,3.12412 -0.7398,2.94777 -5.5682,3.37699 -7.0406,0.62588 z m 17.4225,1.10505 c -1.0187,-1.01863 -0.7127,-4.53733 0.5,-5.75 3.1746,-3.17453 8.3606,0.0476 6.533,4.05901 -1.0265,2.25277 -5.4159,3.30814 -7.033,1.69099 z m -67.4767,-16.39321 c -3.8521,-2.15576 -0.7831,-8.0645 3.6153,-6.96057 2.0368,0.51122 2.3675,1.05972 2.1215,3.51917 -0.3251,3.25077 -3.1014,4.91623 -5.7368,3.4414 z m 15.9587,-0.43736 c -1.1496,-1.14952 -0.7328,-4.76234 0.6852,-5.93911 3.2123,-2.66606 8.6434,1.01059 6.5147,4.4103 -1.0523,1.68059 -5.9981,2.73075 -7.1999,1.52881 z m 17.1803,-0.78069 c -2.5343,-3.05376 1.3647,-7.01031 5.5877,-5.66999 2.1041,0.66784 2.5418,4.11443 0.75,5.90625 -1.542,1.54202 -4.9678,1.4143 -6.3377,-0.23626 z M 2020,830 c -1.0187,-1.01863 -0.7127,-4.53733 0.5,-5.75 1.6935,-1.69347 5.2502,-1.35174 6.2975,0.60505 1.7876,3.34027 -4.1262,7.81632 -6.7975,5.14495 z m -69.0324,-18.06882 c -1.543,-2.88321 0.3362,-5.87726 3.454,-5.50299 3.1394,0.37685 4.8532,2.96786 3.4478,5.21243 -1.5412,2.46146 -5.6475,2.63432 -6.9018,0.29056 z m 18.0168,1.19793 c -2.2839,-0.92153 -1.3961,-5.84962 1.1698,-6.4936 3.3046,-0.82941 5.1583,0.13328 5.1583,2.67882 0,3.6134 -2.7375,5.26364 -6.3281,3.81478 z m 16.8281,-0.50411 c -2.4683,-2.4682 -0.5723,-6.375 3.0938,-6.375 3.8569,0 5.3954,3.37693 2.7455,6.02678 -1.7545,1.75455 -4.2822,1.90529 -5.8393,0.34822 z m 16.8312,-0.51563 c -0.5013,-0.95666 -0.5183,-2.54502 -0.041,-3.80999 1.1628,-3.0814 6.7796,-2.63085 7.2348,0.58035 0.6086,4.2931 -5.2567,6.92632 -7.1939,3.22965 z M 1934.25,795.75 c -1.6072,-1.60729 -1.3897,-5.13529 0.3579,-5.80595 4.5479,-1.74521 7.9235,0.77751 6.1751,4.61496 -1.1471,2.51732 -4.5807,3.14329 -6.533,1.19099 z m 16.7239,-0.68209 c -1.2421,-2.32087 -0.3124,-4.70933 2.2034,-5.66058 2.7376,-1.03511 5.2602,0.52296 5.2602,3.24892 0,3.8881 -5.6896,5.72653 -7.4636,2.41166 z m 17.9636,0.68209 c -2.2481,-2.24812 0.3172,-7.3125 3.7042,-7.3125 0.9635,0 3.6083,2.79763 3.6083,3.81697 0,2.98807 -5.2909,5.5172 -7.3125,3.49553 z m 17.1972,-0.13538 c -2.1809,-1.5947 -1.3343,-5.85155 1.3321,-6.69782 4.4668,-1.41774 7.373,3.30323 3.9438,6.40665 -2.0782,1.88069 -3.0303,1.93323 -5.2759,0.29117 z M 1917.375,778.875 c -3.1171,-3.11713 1.2818,-8.46079 4.9252,-5.98301 2.0761,1.41184 2.224,5.09847 0.2547,6.34954 -1.6867,1.07157 -3.8983,0.91507 -5.1799,-0.36653 z m 15.7507,-1.77657 c 0,-3.66331 3.1361,-6.11629 6.0969,-4.76727 4.425,2.01618 1.7189,7.67344 -3.5188,7.3562 -2.1092,-0.12774 -2.5776,-0.59813 -2.5781,-2.58893 z m 18.4368,1.33907 c -1.3168,-1.31679 -0.5464,-4.97609 1.25,-5.9375 3.7848,-2.02553 7.4881,2.44937 4.5,5.4375 -1.2127,1.21267 -4.7314,1.51864 -5.75,0.5 z m 17.375,-0.5 c -1.7175,-1.71745 -1.3433,-4.31723 0.7854,-5.45646 3.834,-2.05188 7.5135,1.11156 5.5532,4.77437 -1.0819,2.02169 -4.6185,2.40225 -6.3386,0.68209 z m -68.8594,-15.82509 c -3.0931,-1.80155 -0.694,-7.42491 3.1676,-7.42491 3.7487,0 4.791,4.70503 1.5457,6.97809 -2.4231,1.6972 -2.5464,1.70889 -4.7133,0.44682 z m 18.2813,-0.006 c -3.9936,-1.50798 -1.4233,-7.85593 2.9293,-7.23495 1.4781,0.21087 2.0672,1.05485 2.2817,3.26886 0.341,3.52049 -1.8914,5.21958 -5.211,3.96609 z m 15.7404,-1.28069 c -1.6125,-1.94295 -0.3116,-5.09667 2.3811,-5.7725 3.9808,-0.99911 6.7535,3.2118 3.9566,6.00876 -1.542,1.54202 -4.9678,1.4143 -6.3377,-0.23626 z m 17.4627,0.73626 c -1.4485,-1.44849 -0.5954,-5.82055 1.25,-6.40625 4.441,-1.40954 7.6301,2.77611 4.5,5.90625 -1.2127,1.21267 -4.7314,1.51864 -5.75,0.5 z m -68.2796,-16.02045 c -2.3213,-0.50015 -2.8915,-3.01459 -1.2513,-5.51789 1.8038,-2.75297 5.6395,-2.93663 7.0309,-0.33666 1.8307,3.42076 -1.4853,6.77977 -5.7796,5.85455 z m 15.6516,-2.01571 c -0.9498,-2.9923 1.0943,-5.87541 3.9246,-5.53565 5.4788,0.65768 5.104,6.58419 -0.4517,7.14085 -2.2046,0.22092 -3.0118,-0.15217 -3.4729,-1.6052 z m 18.4405,0.66131 c -0.6187,-0.61875 -1.125,-1.83272 -1.125,-2.69771 0,-4.04306 6.7758,-5.01042 7.3376,-1.04757 0.5612,3.9592 -3.5314,6.42646 -6.2126,3.74528 z m 16.6644,-0.30901 c -1.9874,-2.39466 0.2732,-6.06599 3.7351,-6.06599 2.2244,0 2.9388,0.49411 3.4061,2.35593 1.0898,4.34209 -4.2949,7.1396 -7.1412,3.71006 z m -52.095,-17.79692 c -0.7304,-2.91026 0.9713,-5.14407 3.9187,-5.14407 3.2077,0 4.7768,3.36399 2.6601,5.70299 -2.3884,2.63909 -5.8499,2.34501 -6.5788,-0.55892 z m 17.6181,1.23093 c -2.4683,-2.4682 -0.5722,-6.375 3.0938,-6.375 3.8569,0 5.3954,3.37693 2.7455,6.02678 -1.7545,1.75455 -4.2822,1.90529 -5.8393,0.34822 z m 18.3281,0.11241 c -3.4887,-2.03198 -0.9911,-6.92334 3.2297,-6.325 2.4833,0.35203 3.4406,3.82461 1.6494,5.98294 -1.3106,1.57912 -2.6,1.66951 -4.8791,0.34206 z m -53.0438,-16.68162 c -0.7082,-0.44898 -1.1133,-1.96158 -0.9375,-3.50127 0.369,-3.23256 5.8328,-4.03421 7.6679,-1.12503 1.9475,3.08749 -3.3805,6.7499 -6.7304,4.6263 z m 17.696,-0.53544 c -0.6183,-0.74505 -0.9864,-2.32708 -0.8179,-3.51563 0.4672,-3.29601 6.7247,-3.18269 7.1923,0.13025 0.5285,3.74404 -4.056,6.17882 -6.3744,3.38538 z m 17.5353,0.34206 c -3.4428,-2.00525 -0.9987,-6.938 3.1339,-6.325 3.5194,0.52203 4.5158,3.38984 1.9185,5.52132 -2.5219,2.06959 -2.8024,2.1142 -5.0524,0.80368 z m -53.0156,-16.98741 c -2.6542,-2.65415 -0.524,-6.375 3.6497,-6.375 3.5957,0 4.827,3.38933 2.1896,6.02678 -1.7545,1.75455 -4.2822,1.90529 -5.8393,0.34822 z m 17.7843,0.30579 c -0.7082,-0.44898 -1.1133,-1.96158 -0.9375,-3.50127 0.422,-3.69636 6.7484,-4.64763 7.8489,-1.18019 1.0748,3.38629 -3.7738,6.67051 -6.9114,4.68146 z m 18.3563,-0.19338 c -4.0903,-2.38242 -0.1953,-8.72433 3.9844,-6.48741 2.4179,1.29402 2.4552,5.2485 0.062,6.52952 -2.1581,1.15501 -1.9876,1.15678 -4.046,-0.0421 z m -53.6013,-17.65942 c -2.4897,-2.75109 -0.4838,-5.91001 3.5073,-5.52337 3.5805,0.34686 4.7667,4.04154 1.957,6.09598 -2.2872,1.67242 -3.5525,1.53982 -5.4643,-0.57261 z m 17.7829,0.53663 c -2.1809,-1.5947 -1.3343,-5.85155 1.3321,-6.69782 4.666,-1.48096 7.531,3.72762 3.5746,6.49879 -2.5342,1.77503 -2.74,1.78338 -4.9067,0.19903 z M 1864.375,676.25 c -1.1252,-1.12517 -0.6555,-4.74512 0.7691,-5.92739 3.2404,-2.68935 8.0402,1.06317 6.0695,4.7453 -0.9445,1.76499 -5.4729,2.54774 -6.8386,1.18209 z m -51.4844,-16.32509 c -4.0903,-2.38242 -0.1953,-8.72433 3.9844,-6.48741 2.4179,1.29402 2.4552,5.2485 0.062,6.52952 -2.1581,1.15501 -1.9876,1.15678 -4.046,-0.0421 z M 1829.25,658.875 c -1.5787,-1.57871 -1.4025,-3.02078 0.5894,-4.82345 3.4131,-3.08871 7.4448,-0.80455 6.3412,3.59252 -0.6539,2.60532 -4.8168,3.34469 -6.9306,1.23093 z m 17.8528,0.0403 c -2.6848,-2.6848 -0.2913,-6.83146 3.6092,-6.25288 2.8464,0.42221 4.4296,3.09661 3.0949,5.22821 -1.2611,2.01422 -5.1241,2.60464 -6.7041,1.02467 z m -52.0247,-15.8654 c -2.5216,-1.46872 -2.0978,-5.42248 0.695,-6.48432 4.821,-1.83291 8.1116,2.66475 4.2421,5.79809 -2.4037,1.9464 -2.7023,1.98791 -4.9371,0.68623 z m 16.2795,-1.59878 c -1.2888,-2.40831 1.2046,-6.04409 3.8715,-5.6451 2.723,0.40738 4.2608,3.1206 2.9528,5.20959 -1.4876,2.37595 -5.6438,2.64119 -6.8243,0.43551 z m 17.7413,-0.13322 c -1.3081,-2.44419 -0.3057,-4.65208 2.4229,-5.33694 3.9419,-0.98937 6.6939,3.2408 3.9157,6.01903 -1.7201,1.72016 -5.2567,1.3396 -6.3386,-0.68209 z m -52.9048,-16.55084 c -0.9292,-2.42122 -0.685,-3.08544 1.7117,-4.65584 4.0202,-2.63408 8.3576,1.68789 5.0317,5.01377 -1.6298,1.62981 -6.0712,1.39407 -6.7434,-0.35793 z m 17.9129,0.90236 c -2.4739,-2.47385 0.5139,-7.27968 4.2008,-6.75702 3.7209,0.52747 3.122,6.77471 -0.6852,7.14764 -1.5654,0.15335 -3.1475,-0.0224 -3.5156,-0.39062 z m 17.143,-1.29443 c -1.5177,-2.83583 0.3493,-5.625 3.7651,-5.625 2.1678,0 2.8888,0.50669 3.353,2.35593 1.1434,4.55592 -4.9353,7.34767 -7.1181,3.26907 z m -50.8153,-14.76313 c -2.4207,-0.54187 -3.0602,-3.82401 -1.1551,-5.92905 3.0152,-3.33183 7.4569,-1.40044 6.808,2.96041 -0.3234,2.17341 -2.9778,3.56743 -5.6529,2.96864 z m 16.1651,-1.59813 c -2.8788,-3.46869 3.091,-8.09965 6.3021,-4.88867 1.218,1.21804 1.2934,1.93141 0.4095,3.87155 -1.2271,2.69309 -4.8633,3.24415 -6.7116,1.01712 z m 18.0096,0.74037 c -1.3313,-0.53717 -1.5372,-3.91382 -0.3527,-5.78231 1.3399,-2.11352 6.1623,-0.97944 6.5184,1.53293 0.528,3.72473 -2.424,5.75922 -6.1657,4.24938 z M 1741.5625,591.875 c -1.3308,-1.3308 -0.5438,-4.97746 1.2854,-5.95646 3.8112,-2.03968 7.4759,1.36918 5.4204,5.04206 -0.8469,1.51335 -5.4757,2.14453 -6.7058,0.9144 z m 17.2248,-0.73626 c -1.6125,-1.94295 -0.3116,-5.09667 2.3811,-5.7725 3.9808,-0.99911 6.7535,3.2118 3.9566,6.00876 -1.542,1.54202 -4.9678,1.4143 -6.3377,-0.23626 z m 17.9627,0.23626 c -2.6486,-2.6486 -0.218,-6.78626 3.6495,-6.21259 3.2766,0.48601 4.3926,3.10259 2.3064,5.40771 -1.9633,2.1694 -4.2785,2.48228 -5.9559,0.80488 z m -52.1919,-16.32585 c -1.6998,-1.69978 -1.7146,-1.83382 -0.4626,-4.17328 1.1733,-2.19238 4.894,-2.37774 6.5948,-0.32854 2.5159,3.03165 -3.3189,7.31519 -6.1322,4.50182 z m 16.8339,-1.34414 c -0.8291,-2.61215 1.2081,-4.79784 4.1528,-4.45554 2.7331,0.31772 3.984,4.16954 1.8029,5.55203 -2.3009,1.45845 -5.3213,0.90239 -5.9557,-1.09649 z m 17.5455,0.79499 c -2.1133,-2.11336 -0.045,-6.375 3.0938,-6.375 1.4117,0 4.2187,2.49508 4.2187,3.75 0,2.87158 -5.1995,4.73805 -7.3125,2.625 z m 17.8125,0 c -2.6486,-2.6486 -0.218,-6.78626 3.6495,-6.21259 3.5194,0.52203 4.5158,3.38984 1.9185,5.52132 -2.5543,2.09618 -3.9854,2.27385 -5.568,0.69127 z m -69.375,-15.9375 c -0.6187,-0.61875 -1.125,-1.83272 -1.125,-2.69771 0,-4.04306 6.7758,-5.01042 7.3376,-1.04757 0.5612,3.9592 -3.5314,6.42646 -6.2126,3.74528 z m 17.2232,-0.34822 c -2.6737,-2.67369 -1.1057,-6.02678 2.8183,-6.02678 3.3574,0 4.6555,2.36391 2.829,5.15155 -1.77,2.70142 -3.5459,2.97664 -5.6473,0.87523 z m 17.9799,0.46063 c -3.9127,-2.27899 -0.4001,-8.34775 4.0198,-6.94492 2.5013,0.79387 2.5195,5.65267 0.026,6.98703 -2.1581,1.15501 -1.9876,1.15678 -4.046,-0.0421 z m 16.3997,-1.00962 c -2.6848,-2.6848 -0.2913,-6.83146 3.6092,-6.25288 2.8464,0.42221 4.4296,3.09661 3.0949,5.22821 -1.2611,2.01422 -5.1241,2.60464 -6.7041,1.02467 z m -69.5655,-16.21405 c -1.6125,-1.94295 -0.3116,-5.09667 2.3811,-5.7725 3.9808,-0.99911 6.7535,3.2118 3.9566,6.00876 -1.542,1.54202 -4.9678,1.4143 -6.3377,-0.23626 z m 18.0096,0.74037 c -2.4341,-0.98216 -1.0075,-6.87911 1.6642,-6.87911 3.1101,0 4.6639,1.11562 4.6639,3.34857 0,2.97444 -3.2344,4.77892 -6.3281,3.53054 z m 17.3437,-0.3917 c -2.9832,-1.73757 -1.0083,-7.42491 2.5782,-7.42491 3.639,0 5.0251,3.88109 2.3437,6.5625 -2.1188,2.11885 -2.6153,2.20584 -4.9219,0.86241 z m 16.1108,-1.91413 c -0.8768,-1.63824 -0.7322,-2.32161 0.8192,-3.87304 2.5369,-2.53695 6.7419,-1.6177 6.7419,1.47387 0,4.39422 -5.5508,6.15551 -7.5611,2.39917 z m -68.6889,-14.57328 c -2.2763,-2.27627 0.2727,-6.875 3.8107,-6.875 2.5455,0 3.5082,1.85376 2.6788,5.15835 -0.5752,2.29178 -4.7975,3.40869 -6.4895,1.71665 z m 17.7232,-0.84822 c -1.7429,-1.74289 -1.7578,-1.8682 -0.5027,-4.21341 1.6381,-3.06088 7.467,-1.82094 7.467,1.58841 0,1.5414 -2.632,4.09822 -4.2187,4.09822 -0.6998,0 -1.9353,-0.66294 -2.7456,-1.47322 z m 17.9251,0.39251 c -3.4622,-1.93752 -0.8845,-6.84788 3.2845,-6.25688 1.6862,0.23904 2.161,0.90061 2.161,3.01145 0,3.05965 -2.7978,4.72712 -5.4455,3.24543 z M 1723.75,524.375 c -1.0187,-1.01863 -0.7127,-4.53733 0.5,-5.75 3.1822,-3.18215 8.4836,0.56004 6.375,4.5 -0.9786,1.8284 -5.4785,2.64656 -6.875,1.25 z m -69.0252,-16.67376 c -1.6125,-1.94295 -0.3116,-5.09667 2.3811,-5.7725 3.9808,-0.99911 6.7535,3.2118 3.9566,6.00876 -1.542,1.54202 -4.9678,1.4143 -6.3377,-0.23626 z m 18.0096,0.74037 c -1.2545,-0.5062 -1.5307,-2.97827 -0.6028,-5.39618 0.98,-2.5541 5.8518,-1.90468 6.549,0.873 0.9605,3.82707 -2.0313,6.10289 -5.9462,4.52318 z m 16.6779,-1.67787 c -1.5237,-1.83596 -0.4021,-4.95911 2.0619,-5.74113 2.7805,-0.88251 5.7931,2.74247 4.4167,5.31445 -1.1308,2.11288 -4.8745,2.35944 -6.4786,0.42668 z m 17.0069,-0.17814 c -1.3024,-2.32725 -0.2166,-4.97547 2.2988,-5.6068 3.9337,-0.98731 6.6813,3.24694 3.907,6.0212 -1.6221,1.62204 -5.1998,1.38313 -6.2058,-0.4144 z m -51.5442,-15.5231 c -2.6542,-2.65415 -0.524,-6.375 3.6497,-6.375 3.5957,0 4.827,3.38933 2.1896,6.02678 -1.7545,1.75455 -4.2822,1.90529 -5.8393,0.34822 z m 17.3125,-0.4375 c -1.1141,-1.1141 -0.6617,-4.74001 0.7363,-5.90016 3.0651,-2.54382 7.7077,2.09879 5.1639,5.1639 -1.1602,1.3979 -4.7861,1.85036 -5.9002,0.73626 z m 16.875,0 c -1.1252,-1.12517 -0.6555,-4.74512 0.7691,-5.92739 2.4394,-2.02459 6.1059,-0.39133 6.1059,2.71995 0,3.22134 -4.6784,5.40401 -6.875,3.20744 z m -51.0907,-16.13171 c -0.7082,-0.44898 -1.1133,-1.96158 -0.9375,-3.50127 0.4322,-3.78605 6.6689,-4.1497 7.1954,-0.41955 0.4859,3.4428 -3.285,5.80546 -6.2579,3.92082 z m 17.8876,-0.19886 c -2.5869,-0.97682 -2.7278,-3.75675 -0.3016,-5.95238 2.1681,-1.96213 5.3368,-1.25126 6.1735,1.38501 1.0477,3.30081 -2.3099,5.9124 -5.8719,4.56737 z M 1671.75,473.25 c -2.3042,-2.30418 0.026,-6.375 3.6496,-6.375 2.5042,0 4.3683,4.11424 2.7485,6.06599 -1.4218,1.71309 -4.8295,1.87767 -6.3981,0.30901 z m -51.5625,-15.9375 c -2.6542,-2.65415 -0.524,-6.375 3.6497,-6.375 3.5957,0 4.827,3.38933 2.1896,6.02678 -1.7545,1.75455 -4.2822,1.90529 -5.8393,0.34822 z m 17.8125,0 c -3.1274,-3.12741 0.088,-7.87195 4.2656,-6.29443 2.7124,1.0242 2.7255,4.06905 0.025,5.96002 -2.505,1.75455 -2.8447,1.78103 -4.2914,0.33441 z m 16.375,-0.4375 c -1.1252,-1.12517 -0.6555,-4.74512 0.7691,-5.92739 3.2404,-2.68935 8.0402,1.06317 6.0695,4.7453 -0.9445,1.76499 -5.4729,2.54774 -6.8386,1.18209 z m -52.1574,-17.13132 c -1.543,-2.88321 0.3362,-5.87726 3.454,-5.50299 3.1394,0.37685 4.8532,2.96786 3.4478,5.21243 -1.5412,2.46146 -5.6475,2.63432 -6.9018,0.29056 z m 17.9699,0.69382 c -3.1964,-3.19637 0.7112,-8.33941 4.7344,-6.23123 3.1206,1.63523 1.4801,7.35623 -2.1094,7.35623 -0.825,0 -2.0063,-0.50625 -2.625,-1.125 z m 16.7248,-1.17376 c -1.4691,-1.77031 -0.4325,-4.94946 1.8503,-5.67397 2.3718,-0.7528 5.6124,1.05486 5.6124,3.13071 0,3.598 -5.135,5.34798 -7.4627,2.54326 z M 1585,424.0625 c -1.6921,-1.69204 -0.5751,-5.91429 1.7167,-6.48949 3.3046,-0.82941 5.1583,0.13328 5.1583,2.67882 0,3.53797 -4.5987,6.08695 -6.875,3.81067 z m 17.7232,-0.84822 c -1.7429,-1.74289 -1.7578,-1.8682 -0.5027,-4.21341 1.3686,-2.55729 6.1952,-2.46871 7.0195,0.12881 1.2374,3.8986 -3.6436,6.95786 -6.5168,4.0846 z m 16.6993,-0.81577 c -1.4065,-3.66535 2.0247,-7.46749 5.0306,-5.57448 3.5403,2.22954 2.0122,6.92597 -2.2535,6.92597 -1.2421,0 -2.4918,-0.60817 -2.7771,-1.35149 z m -51.735,-15.71101 c -2.5217,-2.5217 -0.5583,-6.375 3.2483,-6.375 1.7674,0 4.0642,2.31145 4.0642,4.09015 0,2.57846 -5.3479,4.24945 -7.3125,2.28485 z m 17.2232,-0.34822 c -2.5892,-2.58916 0.4855,-7.56732 3.8961,-6.30827 4.2734,1.57748 3.356,7.78149 -1.1505,7.78149 -0.6998,0 -1.9353,-0.66294 -2.7456,-1.47322 z m 16.9084,-0.94721 c -0.9994,-2.6042 -0.6192,-4.04929 1.3413,-5.09853 3.834,-2.05188 7.5135,1.11156 5.5532,4.77437 -1.1996,2.24166 -6.0708,2.47068 -6.8945,0.32416 z m -52.1316,-16.32957 c -1.5075,-2.81684 0.3495,-5.625 3.7198,-5.625 3.1557,0 4.4745,2.57598 2.8616,5.58959 -1.3302,2.48553 -5.2589,2.50667 -6.5814,0.0354 z m 17.8553,0.52035 c -0.6183,-0.74505 -0.9864,-2.32708 -0.8179,-3.51563 0.4672,-3.29601 6.7247,-3.18269 7.1923,0.13025 0.5285,3.74404 -4.056,6.17882 -6.3744,3.38538 z m 17.328,-0.1584 c -1.8316,-1.83164 -1.8187,-3.59263 0.04,-5.45123 3.4125,-3.4125 8.7904,0.58943 5.7924,4.31034 -1.8077,2.24361 -4.2515,2.72165 -5.8323,1.14089 z m -52.6306,-16.70002 c -1.3245,-3.45163 0.01,-5.69318 3.3848,-5.69318 3.6013,0 5.0377,2.94385 2.7697,5.6766 -1.4468,1.74322 -5.4878,1.75412 -6.1545,0.0166 z m 18.1504,0.32548 c -3.4571,-2.01359 -1.2958,-6.48741 3.1341,-6.48741 3.1723,0 4.1775,2.35612 2.2562,5.28834 -1.5715,2.39831 -2.845,2.6816 -5.3903,1.19907 z M 1566.75,372 c -2.8407,-2.8407 1.155,-7.34573 4.9726,-5.60634 3.8902,1.77254 2.5062,6.73134 -1.8788,6.73134 -1.0829,0 -2.4751,-0.50625 -3.0938,-1.125 z m -51.7072,-16.16715 c -0.6183,-0.74505 -0.9864,-2.32708 -0.8179,-3.51563 0.437,-3.083 5.8056,-3.61729 7.3501,-0.73149 2.0182,3.77113 -3.792,7.54885 -6.5322,4.24712 z m 17.314,-0.17248 c -0.8399,-0.83993 -1.2919,-2.14005 -1.0045,-2.88918 0.2875,-0.74912 0.5227,-1.52363 0.5227,-1.72113 0,-0.1975 0.8438,-0.81065 1.875,-1.36256 4.4244,-2.36788 7.662,3.15442 3.5414,6.04059 -2.6064,1.82562 -3.0473,1.81957 -4.9346,-0.0677 z m 16.8617,-0.34832 c -1.0872,-1.75899 0.3635,-5.46473 2.3912,-6.10827 2.6101,-0.82842 4.7955,1.20983 4.4534,4.15347 -0.3049,2.622 -5.513,4.10944 -6.8446,1.9548 z m -50.9342,-15.81876 c -0.7082,-0.44898 -1.1133,-1.96158 -0.9375,-3.50127 0.4322,-3.78605 6.6689,-4.1497 7.1954,-0.41955 0.4859,3.4428 -3.285,5.80546 -6.2579,3.92082 z m 16.9032,-0.30579 c -3.2603,-3.26033 1.4197,-9.32046 4.941,-6.39804 2.0056,1.66453 1.7899,5.39163 -0.3794,6.55256 -2.3384,1.25147 -3.1842,1.22282 -4.5616,-0.15452 z m 16.875,-0.9375 c -1.7175,-1.71745 -1.3432,-4.31723 0.7854,-5.45646 3.834,-2.05188 7.5135,1.11156 5.5532,4.77437 -1.0819,2.02169 -4.6185,2.40225 -6.3386,0.68209 z M 1480.5,322.3125 c -2.6542,-2.65415 -0.524,-6.375 3.6497,-6.375 3.5957,0 4.827,3.38933 2.1896,6.02678 -1.7545,1.75455 -4.2822,1.90529 -5.8393,0.34822 z m 17.8594,0.49474 c -2.9138,-1.15241 -0.4263,-7.80724 2.9182,-7.80724 0.9192,0 3.4096,2.97134 3.3956,4.05134 -0.035,2.6386 -3.6702,4.80147 -6.3138,3.7559 z m 16.0631,-1.65873 c -1.4065,-3.66535 2.0247,-7.46749 5.0306,-5.57448 3.5403,2.22954 2.0122,6.92597 -2.2535,6.92597 -1.2421,0 -2.4918,-0.60817 -2.7771,-1.35149 z m 16.8969,-1.00444 c -0.7167,-2.85558 0.9579,-5.14407 3.7641,-5.14407 3.924,0 5.492,3.35309 2.8183,6.02678 -2.3566,2.35657 -5.8882,1.88296 -6.5824,-0.88271 z m -68.3376,-15.1087 c -0.8399,-0.83993 -1.2919,-2.14005 -1.0045,-2.88918 0.2875,-0.74912 0.5227,-1.52363 0.5227,-1.72113 0,-1.30147 3.9509,-2.25851 5.625,-1.36256 2.4179,1.29402 2.4552,5.2485 0.062,6.52952 -2.4779,1.32617 -3.4231,1.22509 -5.2048,-0.55665 z M 1480.5,304.5 c -1.597,-1.59701 -1.3984,-3.02446 0.6828,-4.90795 3.33,-3.01359 7.7592,0.29576 5.6558,4.22586 -1.0819,2.02169 -4.6185,2.40225 -6.3386,0.68209 z m 16.6458,-0.82799 c -1.2429,-2.32217 1.0577,-5.54701 3.9571,-5.54701 2.4321,0 4.2594,4.15107 2.6702,6.06599 -1.7194,2.07166 -5.3949,1.78383 -6.6273,-0.51898 z m 17.255,0.54464 c -1.2839,-3.34543 0.5046,-6.22101 3.6782,-5.91428 5.1992,0.5025 4.38,7.32263 -0.8794,7.32263 -1.2421,0 -2.5017,-0.63376 -2.7988,-1.40835 z m -34.6439,-17.82258 c -1.1434,-4.55592 4.9353,-7.34767 7.1181,-3.26907 1.5177,2.83582 -0.3493,5.625 -3.7651,5.625 -2.1678,0 -2.8888,-0.50669 -3.353,-2.35593 z m 17.4306,0.48093 c -1.5075,-2.81684 0.3495,-5.625 3.7198,-5.625 3.1557,0 4.4745,2.57598 2.8616,5.58959 -1.3302,2.48553 -5.2589,2.50667 -6.5814,0.0354 z m 602.2234,582.89699 c 3.2565,-10.95952 4.3391,-17.18532 4.3391,-24.95374 l 0,-8.1553 -6.7969,-7.00908 c -3.7383,-3.855 -12.4922,-13.30592 -19.4531,-21.00205 -6.9609,-7.69614 -14.5547,-15.93784 -16.875,-18.31492 -6.1645,-6.31529 -23.005,-24.64187 -26.6227,-28.97195 -1.7146,-2.05231 -4.1841,-4.71073 -5.4876,-5.90759 -1.3035,-1.19686 -6.5028,-6.6058 -11.554,-12.01986 -5.0513,-5.41406 -15.7502,-16.61435 -23.7755,-24.88952 -8.0253,-8.27516 -16.7008,-17.39851 -19.2789,-20.27408 -2.5782,-2.87558 -8.6954,-9.42263 -13.5938,-14.54901 -4.8984,-5.12638 -11.3802,-12.03429 -14.404,-15.35092 -3.0238,-3.31662 -9.786,-10.45991 -15.0271,-15.87397 -10.0992,-10.43235 -33.0789,-34.83051 -44.5912,-47.34375 -3.795,-4.125 -16.2199,-17.01116 -27.6108,-28.63592 -22.3389,-22.79761 -33.5369,-34.38326 -63.3669,-65.56079 -10.5703,-11.0478 -24.2812,-25.37676 -30.4687,-31.84211 -6.1875,-6.46536 -16.7649,-17.45467 -23.5052,-24.42069 -21.6233,-22.34726 -29.2606,-30.39338 -32.4446,-34.181 -1.712,-2.03666 -6.4877,-7.16185 -10.6127,-11.38932 -4.125,-4.22745 -14.25,-14.74479 -22.5,-23.37185 -8.25,-8.62705 -18.7969,-19.54981 -23.4375,-24.2728 -4.6407,-4.72297 -14.1329,-14.6601 -21.0938,-22.0825 -6.9609,-7.42239 -16.4531,-17.38982 -21.0937,-22.14983 -18.1019,-18.56752 -28.6878,-29.60201 -42.6476,-44.45446 -17.7332,-18.86727 -41.9802,-43.10748 -43.1195,-43.10748 -1.3667,0 -15.2084,10.75718 -18.871,14.6657 -1.8634,1.98855 -5.1234,5.09211 -7.2444,6.8968 -2.121,1.80469 -3.8659,3.6258 -3.8776,4.04692 -0.04,1.46575 4.845,7.13344 6.6403,7.70324 0.994,0.31552 2.6107,2.12503 3.5923,4.02113 2.1547,4.16159 10.9483,12.84569 13.9028,13.72943 1.1688,0.34966 2.7047,1.97613 3.413,3.61439 1.7664,4.08573 9.7847,12.17208 13.2117,13.32373 1.9553,0.6571 3.1149,1.87459 3.8047,3.99496 1.2773,3.9254 10.505,13.3162 13.0851,13.3162 2.5792,0 4.2039,1.72983 4.2039,4.47585 0,2.28776 9.6073,13.32106 11.6271,13.35285 0.566,0.008 1.9495,1.33336 3.0743,2.94322 1.8535,2.65292 35.0404,37.27695 56.0799,58.50861 4.6406,4.68301 10.0819,10.38175 12.0918,12.66389 8.0864,9.18164 21.4031,23.33464 33.6891,35.80498 7.1327,7.23966 13.349,14.16384 13.8141,15.38708 0.465,1.22324 1.5901,2.48316 2.5003,2.79983 2.9266,1.01833 11.4984,9.99936 11.4984,12.04729 0,2.28799 1.664,4.2039 3.651,4.2039 0.7706,0 10.3218,9.07031 21.2248,20.15625 10.903,11.08594 20.2719,20.15625 20.8195,20.15625 0.5477,0 1.7755,1.44953 2.7285,3.22118 2.5301,4.7041 10.3114,12.59847 13.1106,13.301 1.5018,0.37693 2.8872,1.71264 3.6578,3.52665 1.7013,4.0046 11.6145,13.48584 14.4945,13.86306 1.798,0.23548 2.6263,1.17914 3.5608,4.05686 1.6581,5.10655 9.1407,12.65625 12.5436,12.65625 2.6802,0 4.5214,2.17177 4.5214,5.33317 0,1.67369 5.4576,7.58699 12.4219,13.45923 1.9336,1.63038 3.5193,3.44798 3.524,4.03909 0,0.59112 2.6413,3.39188 5.8594,6.22389 3.218,2.83203 11.6567,11.26953 18.7525,18.75 7.096,7.48049 21.0721,21.94469 31.0583,32.1427 9.9861,10.198 20.3741,20.95581 23.0843,23.90625 2.7103,2.95043 9.195,9.8167 14.4105,15.25839 5.2156,5.44168 13.2797,14.00015 17.9203,19.01882 4.6407,5.01867 14.1329,14.96383 21.0938,22.10035 16.2425,16.6522 31.2906,32.27288 36.2266,37.60495 2.1355,2.30692 5.2996,5.50422 7.0312,7.10509 1.7317,1.60088 6.7344,6.80588 11.1172,11.56667 13.4906,14.65404 19.4799,20.6789 20.5571,20.6789 0.5681,0 1.7852,1.23702 2.7047,2.74895 3.1069,5.10882 13.0719,15.06355 15.0791,15.06355 1.3391,0 2.1239,0.79486 2.5455,2.57812 1.2988,5.49135 9.6938,14.29688 13.6304,14.29688 2.2084,0 2.7412,0.52762 3.55,3.51562 1.2603,4.65644 8.885,13.35938 11.7044,13.35938 2.5057,0 4.7469,2.31007 5.5564,5.72726 0.7181,3.03211 6.8072,9.59872 12.1017,13.0508 4.8166,3.14047 6.1325,2.23467 8.5441,-5.88107 z M 577.5,705.4294 c 62.13281,-0.29072 114.12891,-0.75074 115.54687,-1.02224 3.37327,-0.64589 3.30096,-0.95607 -1.50462,-6.45452 -2.24552,-2.56926 -4.94281,-6.35889 -5.99399,-8.42139 -1.05119,-2.0625 -2.79004,-4.54477 -3.86415,-5.51615 -1.66804,-1.50853 -10.43411,-18.01516 -10.43411,-19.64759 0,-0.30906 -1.05469,-2.86773 -2.34375,-5.68591 -1.28906,-2.81817 -2.34375,-5.80988 -2.34375,-6.64824 0,-0.83836 -1.12223,-5.40054 -2.49385,-10.1382 -2.18714,-7.55452 -2.4947,-10.28575 -2.50069,-22.20766 -0.01,-19.14287 1.93184,-28.8445 9.16086,-45.77736 1.83353,-4.29473 3.33368,-8.21236 3.33368,-8.70586 0,-0.4935 2.00391,-3.55934 4.45312,-6.81298 2.44922,-3.25365 6.33827,-8.55523 8.64234,-11.7813 8.96689,-12.5551 30.77206,-30.10202 43.62329,-35.10426 3.60937,-1.40493 8.46094,-3.48368 10.78125,-4.61945 l 4.21875,-2.06505 0.26053,-13.41607 c 0.25555,-13.16003 0.2153,-13.46984 -2.10937,-16.23255 -1.30346,-1.54906 -2.36991,-3.60297 -2.36991,-4.56422 0,-0.96126 -0.42997,-2.01348 -0.95549,-2.33827 -1.87522,-1.15895 -329.15383,-0.59648 -330.55707,0.5681 -0.75658,0.62791 -1.29994,2.84597 -1.29994,5.30653 0,7.41324 -4.92284,13.13276 -10.28903,11.95415 -11.76284,-2.58356 -11.11657,-6.87834 -11.77883,78.27609 -0.29875,38.41406 -0.69095,81.90409 -0.87154,96.6445 -0.38177,31.16106 -0.90916,29.30528 8.40481,29.57465 9.44069,0.27304 12.65959,3.51311 12.65959,12.74288 l 0,3.73304 28.82812,-0.55604 c 15.85547,-0.30581 79.66407,-0.7939 141.79688,-1.08463 z M 780,703.97458 c 54.38968,-0.22832 64.57701,-2.33631 69.28281,-14.33619 0.2071,-0.52812 2.12829,-2.87765 4.26932,-5.22118 15.80319,-17.29794 25.41794,-40.2647 27.24291,-65.07515 0.81673,-11.1036 -3.74149,-15.01704 -15.33244,-13.16357 -3.00056,0.4798 -4.49687,0.16811 -7.19346,-1.49848 l -3.40483,-2.10429 -3.91653,2.94135 c -8.46262,6.35554 -13.40568,6.88934 -16.94916,1.83031 -1.07547,-1.53545 -1.6718,-1.69566 -3.22252,-0.86575 -1.04656,0.5601 -3.16432,1.01837 -4.70613,1.01837 -1.54181,0 -6.02526,1.29013 -9.9632,2.86696 -9.10904,3.64744 -15.50274,2.87051 -20.36692,-2.47486 l -2.91707,-3.20565 -4.00021,2.34427 c -4.64681,2.72322 -7.74543,2.91693 -13.77823,0.86134 -3.96862,-1.35224 -4.53876,-1.35224 -6.46935,0 -2.40583,1.68511 -5.42189,1.87703 -9.60218,0.611 -10.32525,-3.12707 -15.18989,-2.67121 -19.59694,1.83642 -3.98134,4.07222 -8.70028,3.88623 -13.38003,-0.52735 l -3.51266,-3.31286 -5.69472,3.52635 c -8.89924,5.51073 -14.9281,5.23261 -18.80971,-0.86774 -3.43927,-5.40517 -3.72427,-5.42386 -9.99399,-0.65553 -4.80417,3.65372 -5.26016,3.80054 -10.79718,3.47617 -5.7375,-0.33611 -5.78531,-0.31801 -6.32812,2.39609 -2.92853,14.64263 9.40069,54.42372 21.62036,69.75958 15.15793,19.02343 17.66056,20.48987 34.48405,20.20629 6.22456,-0.10493 30.09082,-0.26958 53.03613,-0.3659 z m -25.69073,-10.37984 c -1.85726,-2.65161 -1.85939,-3.09819 -0.0235,-4.93402 3.66961,-3.66961 8.95878,-0.65842 6.79558,3.8688 -1.61595,3.38191 -4.79869,3.88255 -6.77202,1.06522 z M 789.5625,688.875 c -1.80017,-1.80017 -1.3074,-4.33726 1.15588,-5.95127 4.28848,-2.80992 8.43096,2.12336 4.81734,5.73699 -1.63341,1.63339 -4.45295,1.73455 -5.97322,0.21428 z m -53.01095,-7.15194 c -2.0119,-2.22313 -1.95617,-3.25378 0.28568,-5.28262 2.52396,-2.28416 6.20334,-1.27456 7.00571,1.92233 1.15519,4.60266 -4.01198,6.98399 -7.29139,3.36029 z m 103.29389,-0.79143 c -4.30249,-1.13949 -1.7367,-8.15184 2.79139,-7.62886 3.04794,0.35202 3.97249,4.32899 1.56585,6.73562 -1.56682,1.56682 -1.7061,1.59538 -4.35724,0.89324 z m -22.57982,-1.31922 c -3.45439,-2.012 -0.86666,-7.42491 3.54961,-7.42491 3.27087,0 4.74765,3.22006 2.82354,6.15662 -1.58464,2.41846 -3.68185,2.83582 -6.37314,1.26829 z m -116.76041,-4.47347 c -0.66744,-0.42342 -1.30025,-2.6318 -1.40625,-4.90752 l -0.19271,-4.13767 3.28125,0 c 3.18265,0 3.27808,0.10512 3.17583,3.49856 -0.14848,4.92754 -2.17921,7.24608 -4.85812,5.54663 z m 55.68884,-4.43437 c -1.08547,-2.82869 -0.56027,-5.9558 1.15438,-6.87346 4.7294,-2.5311 9.00789,3.2942 4.87654,6.63956 -2.60574,2.11001 -5.27132,2.21339 -6.03092,0.2339 z m 60.23793,-5.02084 c -3.70948,-3.04414 0.65013,-7.96691 5.21396,-5.88749 2.95732,1.34745 3.31003,5.28463 0.60319,6.73328 -2.5155,1.34625 -3.28177,1.23484 -5.81715,-0.84579 z m -38.8793,-5.1468 c -1.32887,-3.46301 0.0184,-5.68613 3.62673,-5.98459 4.24344,-0.351 5.40345,1.50239 3.12081,4.98615 -1.69815,2.59171 -5.89768,3.21311 -6.74754,0.99844 z m -51.40577,-6.37053 c -2.01567,-2.87777 -1.83385,-4.19034 0.82147,-5.93017 4.51047,-2.95537 8.54499,2.67897 4.6834,6.54055 -2.03687,2.03689 -3.78654,1.84289 -5.50487,-0.61038 z m 107.66,-0.18096 c -0.9313,-2.42695 0.0541,-6.61709 1.62617,-6.91488 2.78723,-0.52796 4.58609,2.28216 3.48424,5.44293 -1.03913,2.98083 -4.18382,3.88659 -5.11041,1.47195 z m -84.7343,-1.94201 c -3.09891,-3.73396 2.8732,-9.24941 6.30225,-5.82036 1.24512,1.24512 1.28668,1.89951 0.27567,4.3403 -1.31856,3.18327 -4.55923,3.91243 -6.57792,1.48006 z m 55.69205,-3.85405 c -0.98719,-5.26216 3.8611,-8.14129 6.54111,-3.88441 1.38223,2.19551 -1.06159,6.6767 -3.86183,7.08136 -1.67482,0.24203 -2.13775,-0.31034 -2.67928,-3.19695 z m -106.56154,-8.24443 c -3.38621,-2.57049 -1.11045,-7.59617 3.15622,-6.97004 2.62768,0.38561 4.3657,4.8656 2.677,6.90036 -1.40388,1.69158 -3.66112,1.71854 -5.83322,0.0697 z M 791.875,632.1875 c -1.01864,-1.01863 -0.71267,-4.53733 0.5,-5.75 1.60456,-1.60456 5.39417,-1.39126 6.05891,0.34103 1.40623,3.66457 -3.91502,8.05286 -6.55891,5.40897 z m -67.42188,-2.27025 c -1.88141,-1.08703 -2.22178,-5.4197 -0.46875,-5.96688 5.11896,-1.59783 12.89063,-1.45749 12.89063,0.23278 0,2.90085 -2.46535,4.56382 -9.375,6.32382 -0.77344,0.19701 -2.14453,-0.0683 -3.04688,-0.58972 z m 41.95313,-0.85475 c -0.8924,-2.81168 0.34224,-5.625 2.46856,-5.625 1.0304,0 2.65891,-0.42037 3.61891,-0.93413 4.76648,-2.55095 6.08935,1.6907 1.78213,5.71425 -3.41891,3.19374 -7.00201,3.57842 -7.8696,0.84488 z m 61.00447,-1.47322 c -1.89129,-1.89127 -1.85422,-2.57888 0.24122,-4.47523 3.55405,-3.21636 6.60166,-1.18081 5.40005,3.6068 -0.67884,2.70472 -3.38794,3.12177 -5.64127,0.86843 z m 28.42997,-2.16665 c -2.86528,-2.32016 -1.32254,-6.67263 2.36513,-6.67263 3.22395,0 3.77573,1.44213 1.9909,5.20338 -1.79904,3.79119 -1.57984,3.71726 -4.35603,1.46925 z m -157.63757,-0.18522 c -3.82834,-2.22981 0.0444,-9.0698 4.64141,-8.19764 2.45875,0.46649 2.62443,4.60332 0.28492,7.11448 -2.18803,2.34857 -2.59871,2.43887 -4.92633,1.08316 z m 16.0118,-23.43115 c 9.30476,-4.53949 11.71564,-4.61359 15.61426,-0.47984 l 3.25283,3.449 2.59962,-1.84957 c 4.86625,-3.46222 15.15292,-5.22844 20.29112,-3.48398 5.91828,2.00931 7.41248,1.89874 11.46019,-0.84812 1.89954,-1.28906 4.16505,-2.34375 5.03446,-2.34375 0.86942,0 2.57158,1.05469 3.7826,2.34375 2.78775,2.96743 5.99125,2.9747 10.78125,0.0245 6.0406,-3.72051 9.67942,-3.21135 14.0014,1.95913 4.03505,4.82722 9.71472,5.38776 14.07054,1.38867 1.09919,-1.00916 4.14473,-2.06384 7.08431,-2.4533 2.83594,-0.37574 5.9884,-1.26355 7.00548,-1.97294 2.71774,-1.89554 5.42368,-1.58442 9.34107,1.074 l 3.4832,2.36375 3.44449,-1.85591 c 10.84083,-5.8411 17.03826,-5.80975 17.03826,0.0862 0,2.54863 2.71668,2.10378 3.75,-0.61405 1.04563,-2.75022 4.92754,-3.19671 8.15273,-0.9377 6.64118,4.65167 5.72638,-9.65018 -1.62338,-25.37979 -1.46292,-3.13087 -2.95932,-6.88565 -3.32533,-8.34394 -1.15297,-4.5938 -11.17515,-18.50345 -20.52779,-28.49023 -8.90334,-9.50702 -29.3219,-22.62959 -35.21137,-22.62959 -5.64296,0 -5.25263,11.89267 -3.2918,-100.29538 0.37845,-21.65292 -0.28173,-23.60147 -7.21994,-21.31013 -2.95116,0.97463 -2.88483,0.57403 -2.62078,15.82902 0.23621,13.6463 -12.03759,21.13731 -23.1041,14.10102 -4.34454,-2.76235 -5.85326,-7.49045 -6.12125,-19.18301 l -0.26324,-11.48527 -7.5,0 -7.5,0 -0.27552,16.875 c -0.15154,9.28125 -0.0382,18.18655 0.25203,19.78957 l 0.52756,2.91455 10.52922,0.63428 c 14.73859,0.88784 14.02436,-0.35244 13.64304,23.69157 -0.36171,22.8081 0.45085,21.37809 -12.95758,22.80353 -12.65887,1.34576 -12.1875,0.65135 -12.1875,17.95423 l 0,13.8356 -3.04688,2.29438 c -1.67578,1.26191 -6.84375,3.85146 -11.48437,5.75455 -22.21705,9.11106 -39.69593,23.59147 -53.46062,44.28951 -1.79197,2.6946 -3.25813,5.12877 -3.25813,5.40926 0,0.28049 -1.06152,2.19154 -2.35894,4.24679 -2.95783,4.68549 -5.49091,11.42904 -7.9144,21.06968 -2.43407,9.68272 -2.51755,9.19891 1.82107,10.55299 5.51079,1.71991 6.2241,1.53183 10.36221,-2.73221 5.88024,-6.0592 14.86229,-5.01512 17.79649,2.06867 1.44088,3.47859 2.80022,3.46324 10.13349,-0.11444 z M 1808.8384,434.10401 c 0.253,-19.35877 0.5826,-62.61334 0.7326,-96.12127 l 0.2728,-60.92352 -4.6875,-0.87202 c -9.8262,-1.82797 -139.6704,-1.23566 -148.5938,0.67782 -4.3828,0.93984 -11.7656,2.51646 -16.4062,3.50362 -17.5411,3.73137 -21.2397,4.65865 -23.7414,5.95235 -1.4154,0.73192 -4.2464,1.62921 -6.2911,1.99396 -4.1366,0.73797 -9.8113,3.80895 -9.8113,5.30962 0,1.51594 7.6974,10.09812 28.0455,31.26921 5.9734,6.21502 18.2436,19.05971 27.267,28.54375 9.0234,9.48404 17.7064,18.53184 19.2954,20.10621 1.5891,1.57438 14.0324,14.67501 27.6521,29.11251 13.6195,14.4375 29.4372,31.10156 35.1505,37.03125 5.7132,5.92969 12.6059,13.10156 15.3173,15.9375 3.3914,3.54739 5.0883,4.75231 5.4386,3.86167 0.28,-0.71203 2.2486,-3.05043 4.3745,-5.19645 2.1259,-2.14604 5.2467,-5.46582 6.935,-7.3773 4.4056,-4.98809 4.3648,-5.01135 21.427,12.2277 l 15.542,15.70313 0.8106,-2.77099 c 0.4458,-1.52404 1.0174,-18.60998 1.2704,-37.96875 z M 790.7213,411.32812 c 0.24448,-1.16015 0.35798,-6.32812 0.25223,-11.48437 l -0.19228,-9.375 -4.6875,0 -4.6875,0 0,10.28482 c 0,10.02926 0.0582,10.31427 2.34375,11.47055 3.71119,1.87755 6.4613,1.52409 6.9713,-0.896 z m -0.58245,-32.34375 c -0.32535,-1.7156 -4.42325,-2.7045 -7.04238,-1.69944 -2.46692,0.94665 0.48418,3.34007 4.11831,3.34007 2.57467,0 3.17168,-0.33497 2.92407,-1.64063 z m 0.22895,-51.79687 c 1.48179,-19.88114 0.26307,-182.78183 -1.38105,-184.59855 -2.50005,-2.76252 -6.96286,-4.36297 -8.33578,-2.98937 -1.11411,1.11466 -1.11715,192.61172 -0.003,194.43269 0.25271,0.41306 2.42516,0.624 4.82766,0.46875 l 4.36793,-0.28227 0.52405,-7.03125 z m 654.4015,-41.93405 c 1.1243,-2.95692 2.4237,-3.96894 5.1217,-3.9891 3.4735,-0.026 12.4952,-8.98156 12.4006,-12.30978 -0.094,-3.29396 1.3428,-4.52723 5.3647,-4.6058 1.9979,-0.039 4.2939,-1.38199 7.9275,-4.63685 6.0945,-5.45923 6.0344,-5.74938 -3.0489,-14.70049 -8.9502,-8.81991 -11.0725,-11.06892 -16.1286,-17.09122 -2.5782,-3.07078 -6.0732,-6.12876 -7.7668,-6.79551 -1.8636,-0.73371 -3.2938,-2.06713 -3.6227,-3.37785 -0.5069,-2.01929 -3.5868,-4.93435 -5.2137,-4.93435 -0.3944,0 -1.7683,1.66525 -3.0531,3.70057 -1.6218,2.56902 -3.3347,3.97629 -5.602,4.6023 -5.0644,1.39838 -12.7105,8.29482 -12.7105,11.46442 0,4.24012 -3.3661,6.64912 -6.5107,4.65954 -1.2857,-0.81345 -6.5812,1.97814 -7.3955,3.89868 -0.172,0.40535 -0.9199,0.73699 -1.6623,0.73699 -1.1078,0 -1.0583,-0.4621 0.2757,-2.57813 l 1.6255,-2.57812 -2.0726,1.78593 c -2.9801,2.56792 -2.6081,4.19659 2.2188,9.71455 4.5677,5.22147 6.0211,5.98078 6.0211,3.14556 0,-2.55041 2.396,-4.17261 5.1441,-3.48287 4.0687,1.0212 2.6472,7.11808 -1.6597,7.11808 -2.929,0 -1.6139,1.71101 13.4559,17.5066 15.9149,16.68164 15.5114,16.37708 16.8915,12.74685 z m -16.3318,-13.06595 c -1.0358,-1.03578 -0.7032,-5.48431 0.5,-6.6875 2.4591,-2.4591 7.3125,-0.68885 7.3125,2.6672 0,3.11026 -5.759,6.07382 -7.8125,4.0203 z m 17.2248,-1.67376 c -1.6125,-1.94295 -0.3116,-5.09667 2.3811,-5.7725 3.9808,-0.99911 6.7535,3.2118 3.9566,6.00876 -1.542,1.54202 -4.9678,1.4143 -6.3377,-0.23626 z M 1428.9375,253.875 c -2.4683,-2.4682 -0.5722,-6.375 3.0938,-6.375 3.8569,0 5.3954,3.37693 2.7455,6.02678 -1.7545,1.75455 -4.2822,1.90529 -5.8393,0.34822 z m 16.5295,-1.19099 c -1.3616,-2.98848 0.4368,-5.39576 3.7332,-4.99704 3.4956,0.42285 4.7251,2.99985 2.5682,5.38315 -2.3507,2.59745 -5.0163,2.43412 -6.3014,-0.38611 z m 17.5687,0.84277 c -1.789,-1.78906 -1.8223,-2.37848 -0.2551,-4.52177 1.8661,-2.55197 6.6567,-1.7021 7.0741,1.25496 0.5532,3.9194 -3.9899,6.0959 -6.819,3.26681 z M 1428.9375,237 c -3.6412,-3.64125 1.6188,-9.36211 5.4337,-5.9097 2.4329,2.20175 2.3754,3.76808 -0.2048,5.57529 -2.5024,1.75271 -3.732,1.83134 -5.2289,0.33441 z m 17.2232,-0.34822 c -2.4844,-2.48444 -0.7183,-6.96428 2.7456,-6.96428 3.639,0 5.0251,3.88109 2.3437,6.5625 -2.2606,2.26063 -3.1595,2.33159 -5.0893,0.40178 z m -52.1951,-29.46428 c 7.1863,0 6.4119,-6.53806 -1.5547,-13.125 -7.6607,-6.33403 -22.8141,-19.26799 -35.5865,-30.374 -5.2699,-4.58248 -9.3584,-8.69329 -9.0853,-9.13514 0.2731,-0.44185 -0.4377,-0.80336 -1.5797,-0.80336 -2.2246,0 -4.2795,-1.41592 -16.9592,-11.68558 -4.4789,-3.62762 -10.4175,-8.00452 -13.1967,-9.72644 -2.7792,-1.72192 -7.3895,-5.09692 -10.2451,-7.5 -4.8403,-4.0733 -8.6625,-6.88285 -20.6109,-15.15048 -2.6082,-1.80469 -6.4857,-4.79051 -8.6167,-6.63516 -2.131,-1.84465 -7.4605,-5.687659 -11.8433,-8.540031 -4.3828,-2.852358 -9.6088,-6.511067 -11.6133,-8.13046 -2.0044,-1.619392 -4.0741,-2.944349 -4.599,-2.944349 -0.525,0 -2.2599,-0.968858 -3.8555,-2.153018 -5.1006,-3.785505 -18.7064,-11.884961 -31.4947,-18.748672 -8.4652,-4.543378 -25.1009,-12.84831 -25.7366,-12.84831 -0.3254,0 -3.2107,-1.222541 -6.4119,-2.716758 C 1173.6873,43.568299 1158.669,37.5 1157.5376,37.5 c -0.8157,0 -4.5689,-1.515889 -10.5063,-4.243437 C 1142.2354,31.05342 1119.6967,24.019954 1106.25,20.530291 1066.093,10.108789 1030.7548,6.5547907 994.21875,9.2631941 973.45163,10.802654 963.66413,12.41188 945,17.355613 c -2.83594,0.751179 -10.00781,2.621535 -15.9375,4.156347 -21.27583,5.506937 -30.51408,8.17142 -33.28125,9.598932 -1.54688,0.797993 -4.5,1.975826 -6.5625,2.617405 -10.60357,3.298442 -36.68557,16.178741 -44.01618,21.736895 -2.6036,1.974082 -5.20019,3.591056 -5.7702,3.593274 -1.62179,0.0063 -33.86283,25.927989 -35.09939,28.219788 -2.02136,3.746325 2.94176,4.706361 7.64557,1.478912 12.18308,-8.359249 20.18814,-14.08543 20.9902,-15.014712 1.96877,-2.281048 8.17779,-6.440355 12.40666,-8.310986 2.42367,-1.072102 6.31898,-3.120465 8.65626,-4.551917 2.33727,-1.431451 6.14802,-3.335074 8.46833,-4.230274 2.32031,-0.895199 4.85156,-2.143591 5.625,-2.774206 0.77344,-0.630614 4.78125,-2.308118 8.90625,-3.727785 4.125,-1.419669 10.45312,-3.755405 14.0625,-5.190525 35.32621,-14.04603 79.06069,-22.157464 121.87495,-22.604169 54.5189,-0.568823 122.0611,16.662819 184.8883,47.169411 20.3973,9.904142 62.7629,35.471317 74.3305,44.857587 2.3203,1.88277 6.3281,4.84862 8.9063,6.59081 2.5781,1.74217 6.9464,5.00127 9.7073,7.24244 2.7609,2.24117 6.5578,5.09874 8.4375,6.35017 6.0283,4.0134 15.0293,11.27786 21.5908,17.4253 3.5108,3.28924 8.2029,7.457 10.4271,9.26169 2.2241,1.80469 5.8676,5.07422 8.0967,7.26562 2.229,2.19141 4.6462,3.98438 5.3715,3.98438 0.7253,0 2.1792,1.83037 3.2308,4.06748 1.9766,4.20523 5.4251,7.17785 8.3396,7.18882 1.5653,0.006 6.3446,4.72558 16.0872,15.88686 2.2557,2.58402 4.4989,4.4524 4.985,4.15195 0.4862,-0.30044 1.1043,0.23447 1.3737,1.18868 0.2695,0.95423 2.1779,3.10009 4.2411,4.76859 l 3.7511,3.03363 2.7993,-2.79926 c 1.5396,-1.53959 3.5345,-2.79925 4.4331,-2.79925 z m 22.5969,3.75 c 0,-0.51563 -0.6328,-0.9375 -1.4062,-0.9375 -0.7735,0 -1.4063,0.42187 -1.4063,0.9375 0,0.51562 0.6328,0.9375 1.4063,0.9375 0.7734,0 1.4062,-0.42188 1.4062,-0.9375 z M 502.35564,1280.1682 c -0.20244,-0.2025 -9.85044,-0.6098 -21.43998,-0.905 -22.05642,-0.562 -30.23463,-0.8766 -61.85316,-2.3789 -10.57031,-0.5022 -24.70313,-1.1412 -31.40625,-1.4199 -26.70384,-1.1101 -46.67658,-2.7618 -84.375,-6.9777 -26.81784,-2.9989 -33.50053,-3.824 -34.13165,-4.2141 -0.32507,-0.2009 -5.0128,-0.8382 -10.41719,-1.4162 -9.09549,-0.9727 -26.03874,-3.4898 -47.79491,-7.1002 -12.18047,-2.0214 -31.0674,-4.9654 -38.4375,-5.9915 -8.11066,-1.1291 -25.40946,-4.4171 -60,-11.4042 -15.726563,-3.1766 -30.492188,-6.1324 -32.8125,-6.5685 -2.320313,-0.436 -7.804688,-1.6035 -12.1875,-2.5944 -4.382813,-0.9909 -11.976563,-2.7034 -16.875,-3.8055 -4.898438,-1.1021 -12.492188,-2.8914 -16.875,-3.976 -4.382813,-1.0847 -10.289063,-2.5019 -13.125,-3.1493 -2.835938,-0.6473 -7.054688,-1.852 -9.375,-2.677 -2.3203125,-0.825 -5.1025834,-1.5061 -6.1828241,-1.5136 -4.97034885,-0.035 -7.1460556,-8.4817 -2.7057015,-10.5049 2.3939721,-1.0908 12.0579176,0.5797 25.7635256,4.4532 2.835937,0.8015 7.6875,2.0445 10.78125,2.7622 3.09375,0.7176 11.320312,2.8307 18.28125,4.6956 6.960937,1.865 15.1875,3.8001 18.28125,4.3003 3.09375,0.5001 9,1.7027 13.125,2.6722 8.338294,1.96 23.26506,5.017 31.875,6.528 20.94451,3.676 27.90296,4.9681 33.28125,6.1806 3.35156,0.7555 9.25781,1.8127 13.125,2.3494 3.86719,0.5366 12.72656,2.0301 19.6875,3.3189 30.28644,5.6076 110.28447,16.2676 143.90625,19.1761 37.81596,3.2713 48.53993,4.0163 81.5625,5.6664 10.82812,0.5411 22.64062,1.1371 26.25,1.3245 12.65549,0.657 53.52593,1.9076 62.34375,1.9076 29.84392,0 109.8014,-2.6616 111.50031,-3.7116 0.34803,-0.2151 6.938,-0.6356 14.64437,-0.9344 7.70637,-0.2989 18.4445,-0.9561 23.86253,-1.4605 5.41803,-0.5043 15.75396,-1.3317 22.96875,-1.8387 16.95966,-1.1915 35.68183,-3.2329 52.84998,-5.7624 7.53792,-1.1107 16.02562,-2.163 18.86156,-2.3386 13.23934,-0.8196 25.21838,-2.0542 29.0625,-2.9951 6.48429,-1.5872 19.04422,-3.9268 21.11517,-3.9333 1.01947,0 3.06196,-0.6359 4.53887,-1.4063 1.47691,-0.7702 3.49484,-1.4004 4.48429,-1.4004 0.98945,0 3.78889,-0.9971 6.22096,-2.2158 2.43208,-1.2186 6.08786,-2.7556 8.12395,-3.4154 4.26574,-1.3824 11.96816,-5.7702 15.82303,-9.0139 1.45755,-1.2264 3.17738,-2.2299 3.82183,-2.2299 7.18568,0 19.68392,-20.7805 19.55601,-32.5152 -0.13239,-12.1445 -5.92202,-22.0934 -8.66244,-14.8855 -1.84037,4.8405 -3.23641,4.9018 -61.89667,2.716 -8.50781,-0.317 -33.60938,-0.6469 -55.78125,-0.733 -43.12166,-0.1675 -42.92,-0.1469 -44.92988,-4.6062 -3.44705,-7.648 -3.57776,-18.3581 -0.30446,-24.9482 2.36646,-4.7643 3.53361,-5.312 13.16162,-6.1762 7.04289,-0.6322 7.89549,-1.2239 13.42975,-9.3204 1.76222,-2.5782 4.14656,-5.957 5.29851,-7.5087 2.39475,-3.2255 10.39982,-10.7726 11.42643,-10.7726 2.31334,0 5.72942,-4.3596 6.84221,-8.732 2.82819,-11.1124 3.03082,-11.5858 5.42743,-12.6778 1.31607,-0.5996 3.36962,-1.0902 4.56342,-1.0902 2.96967,0 3.26514,-3.2807 3.41965,-37.9687 0.17051,-38.2803 0.58744,-51.94 1.62568,-53.2594 1.065,-1.3536 1.14716,-4.5184 0.15065,-5.80315 -0.39994,-0.51563 -0.53896,-16.125 -0.30895,-34.6875 0.23002,-18.5625 0.36516,-35.01563 0.3003,-36.5625 -0.0649,-1.54688 -0.18472,-15.46875 -0.26639,-30.9375 l -0.14847,-28.125 2.27499,-0.32128 c 1.25126,-0.17671 3.21509,-0.93725 4.36407,-1.6901 4.28933,-2.81047 20.37483,-1.71367 24.44834,1.66704 1.42356,1.18144 1.34642,67.68779 -0.17439,150.34429 -1.26741,68.8846 -0.7706,80.1563 3.53298,80.1563 9.28564,0 13.19982,3.9457 12.71431,12.8166 -0.23763,4.3418 0.0279,5.4344 1.5897,6.5388 20.23719,14.3124 27.41671,20.8682 30.35167,27.7153 2.47512,5.7741 4.03163,7.0238 9.7021,7.7896 6.23119,0.8416 7.85825,1.7063 9.61954,5.1122 0.77629,1.5012 3.62832,4.0642 6.33782,5.6954 25.95133,15.624 17.97423,58.4201 -14.29238,76.6769 -3.86719,2.1881 -8.41804,4.8536 -10.113,5.9235 -7.80035,4.9232 -30.44181,12.16 -48.012,15.3457 -6.82969,1.2383 -46.52041,6.8242 -52.03125,7.3226 -1.03125,0.094 -2.39362,0.5027 -3.0275,0.9099 -0.63388,0.4071 -1.9495,0.3137 -2.92361,-0.2077 -0.97411,-0.5213 -1.97371,-0.7452 -2.22134,-0.4976 -0.49038,0.4904 -25.76395,3.1679 -35.13757,3.7225 -3.1955,0.1891 -9.9455,0.7675 -15,1.2853 -5.05449,0.5178 -14.46342,1.1931 -20.90873,1.5005 -6.44531,0.3075 -15.51562,0.9584 -20.15625,1.4465 -4.64062,0.488 -18.98437,1.1198 -31.875,1.4039 -12.89062,0.284 -24.91406,0.6951 -26.71875,0.9135 -4.39898,0.5323 -70.9263,1.4103 -71.39436,0.9423 z M 778.4121,854.39668 c -0.61553,-0.25041 -1.58968,-1.88097 -2.16476,-3.62349 -1.08808,-3.29693 -1.15374,-3.12081 6.28712,-16.86694 3.79217,-7.00562 7.88311,-17.59143 7.34107,-18.99593 -0.3458,-0.89599 -0.83132,-4.88992 -1.07896,-8.8754 -0.49271,-7.92979 -0.65308,-8.33836 -7.24525,-18.45846 -5.90654,-9.06754 -6.30478,-10.25047 -6.81159,-20.23271 -0.5458,-10.7502 -0.84863,-11.63339 -3.01124,-8.78199 -10.34226,13.63631 -16.18588,44.31553 -11.85124,62.21949 5.01839,20.72818 3.67515,31.35563 -3.48626,27.58253 -3.05213,-1.60806 -3.54529,-2.63033 -3.58258,-7.42628 -0.018,-2.32031 -0.67563,-7.59375 -1.46131,-11.71875 -0.78567,-4.125 -2.01362,-10.59187 -2.72875,-14.37084 -3.80182,-20.08975 6.43726,-54.36864 20.77846,-69.56316 7.25931,-7.69125 14.00314,0.4933 14.95447,18.14926 l 0.51375,9.53474 6.05169,10.05239 c 10.35382,17.19863 11.77283,34.0542 4.20489,49.94761 -9.915,20.82245 -11.90979,23.38054 -16.70951,21.42793 z M 1825.859,37.625827 c -0.4038,-0.653441 -0.4811,-1.441255 -0.1716,-1.7507 0.839,-0.839026 1.7538,0.394971 1.3007,1.754479 -0.3176,0.952664 -0.5384,0.951924 -1.1291,-0.0038 z"
     id="path4175"
     inkscape:connector-curvature="0" />
</svg>
