<?xml version="1.0" encoding="utf-8"?>
<!-- Generator: Adobe Illustrator 23.0.3, SVG Export Plug-In . SVG Version: 6.00 Build 0)  -->
<svg version="1.1" id="Capa_1" xmlns="http://www.w3.org/2000/svg" xmlns:xlink="http://www.w3.org/1999/xlink" x="0px" y="0px"
	 viewBox="0 0 500 500" style="enable-background:new 0 0 500 500;" xml:space="preserve">
<style type="text/css">
	.st0{fill-rule:evenodd;clip-rule:evenodd;fill:#EDEDEC;stroke:#070308;stroke-width:0.2;}
	.st1{fill-rule:evenodd;clip-rule:evenodd;fill:#C4D160;stroke:#070308;stroke-width:3;}
</style>
<path id="path2319" class="st0" d="M250.5,250l-0.3-0.5l-0.3,0.3"/>
<path id="path2319_1_" class="st1" d="M426.2,457.3l-10.2-13.3l-6.6-4.8l-2.6-5.9l-2.3-8.5l-9.4-6.2l-6.9,1.1l-5.3,5.5l-5.3,0.5
	l-4.7-3.3l-4.8-0.2h-4.4l-2.6-4l-4.7,2.3l59.6-100.2v-6.1l-1.8-4.3l-1.9,1.2l-2.7,2.6l-3.4-0.4l0.2-2.8l-3.4-2.1
	c0,0-2.7-3.1-2.7-3.8v-4.1l-5.3-0.2l-3.9,2.9l-1.6-3.5l4.5-3.5l-4.5-2l-3.6,0.4l-1.6,2.2l-2.7-1.7l-0.6-3.3L376,290l-4.7-3.1
	l-0.8,2.8l0.2,4.2l-2.6-0.6l-2.1-2.4l-1.1-4.2l-3.1-1.2v-3.3l-2.1-3l-4.5-2.2l-3.7-1.9l-4-1.7l-1.3-2.8l-4.2-1.6h-3.9l-3.6,0.2
	l-1.5-0.9l-1.5,3.8l-0.3,2.4h-1.8l-3.6-1.4l-4.4,2.4l-1,3.6l-0.3,3.3l-4,1.7l-3.7-2.4l-4.5-1.2l-2.6,0.7l-1.9,2.6l-3.2,1.4l-3.2-0.2
	l-1-5.7l-1.6-3.3l-2.4-1.7l-2.3,1.2l0.2,2.6l-1.8,1l-2.3-1.5l0.3-3.3c0,0,1.3-1.9,0.6-2.8c-0.6-0.9-2.4-1.7-3.1-1.9
	c-0.6-0.2-4.4-0.7-4.4-0.7l-4.7-1.5l-3.2-0.9l-2.4,0.9l-1.9-2.6l0.2-3l-2.6,0.2c0,0-0.6,1.2-2.1,1.6c-1.5,0.4-1.6,2.6-1.6,2.6
	l-2.4,0.5l-2.1,3.8l-1.9,4l-3.6,5.5l-2.6,1.6l-3.9,1.2l-3.7-0.9l-3.9-1.1l-3.2,3.8l-2.7,4.5l0.2,2.4l-1.6,0.9l-3.2-2.1l-2.3-0.9
	l-1.9,0.5l-4.7,3l-4.5,1.6l-2.9-1.6l-1.8-3.3l-4-0.2l-9.9-0.7l-2.9-0.7l-2.9-2.8l-2.3,1l-1.3,3.8l-2.6,1.9l-1.5,2.2l-1.1-3.8
	l-1.5-2.4L177,290l-1.6,1.4l-1.9-3l-3.6,1.4l-3.1,2.3l-2.4,1.7l-5.7,0.2v-3.3l-0.8-2l-1.5-3.7l-4.4-0.9l-3.9,0.4
	c0,0-2.6-1.5-3.2-2.1c-0.6-0.5-3.6-2.2-3.6-2.2l-2.3-5.5l-0.8-4.3l4.7-0.7l0.2-5.2l2.3-1.2l1.5-1.9l-1.9-2l-2.1-1.7l-0.2-4.8
	l-0.6-13.7l-2.7-1.2l-1.3-4.7l-3.4-2.6l-3.6-1.4l-1.9,2.8l-4.8-0.5l-3.2,1.2l-3.6-3l-5,0.9l-0.6-3l-2.7-1.9l-2.1-0.5l-1.8-2.8
	l0.6-3.4l2.1-2.4l0.8-3.1l2.3-0.4l-0.3-3.3l-2.4-1.9v-3.3l-1.1-3.7l-2.6-3.1l-1.9-2l-1.5-6.1l-3.2-3.8l-2.1-2.6l-2.1-3l-2.4-1.7
	l-3.6-1.4l-1.9,0.4l-1.5-1.4l-0.3,2.1l-1.9,0.2l-3.7-0.4l-3.7-2.2l-1.3-2.4l-3.1-4.7l-0.3-2.6l-3.6,0.2l-1,1l-0.6-2.4l-2.1-1.2h-1.3
	c0,0-0.5-1.2-0.5-2.8c0-1.6-1.8-4-1.8-4l-2.4,1.2l-0.2,3.5l-1.5-0.2l-3.1-2.2l-3.9-2.6l-7.4-1.6l-1-1.6l-1-2.8l-0.3-4.3l-4.7-2.6
	l4.2-1.6l1.6-4.3c0,0-1.5,0.2-2.4-0.7c-1-0.9-3.4-4.2-3.4-4.2l-4-3.3l0.8-4.8l0.8-2.8l-2.6-4.3l1-3.6l-3.2-1.7l1.5-1.9l53-16.1
	l7.8,0.2l4.2,4l6.3,1.9v4.8l4.4,1.4c0,0,6-0.5,6.8,0.2c0.8,0.7,8.6-0.3,8.6-0.3l6.5,1l4.5,4l4,4.5l6.3,1l0.8-1.9l4.7-2.2l3.1-6.1
	l4.8,0.3l3.7,4.5l1.6,2.8l4-0.3l4.8-0.9l2.7-3.6l2.6-0.3h3.6l3.2,3.1l2.4,4.2l4.8,5.2l3.2,1.2l3.2-0.9c0,0,2.6-2.1,2.9-3.1
	c0.3-1,3.9-6.2,3.9-6.2l1.1-2.9l3.1-0.5l2.3,3.5l4.7,2.6l2.1,0.2l4.2-2.2l3.6-2.6l0.3-4.5l6.6-13.3l2.3-3.1l5.7-2.8l1.3-5l2.9-2.4
	l2.9-0.5l9.4,2.4l4.4,0.5l4.4-2.3l0.8-4.5l1.6-5.2l3.1-3.8l3.6-2.8l6-4.8l6.1-4.2l6.1-1.9l5.3,0.3l3.7-2.9l3.6-3.8l2.3-2.6l1,3.3
	l2.6,2.6h2.3l2.1-2.1h1.9l2.6,1.9l-0.2,2.3l1.5,3.6l4.2,2.8l3.6,1.4h5.8l3.6,0.2l3.4,2.1l0.8,1.2l0.2,3.3l-2.4,1.9l-0.2,3.3l0.2,2.8
	l1,2.1l4,1.2l1.6,3.5l-1.9,3.6l-0.3,4l3.6,2.9l3.1-0.3l3.4-2.2l1.9-3.8l3.9,0.9l1.8,3.5l3.6,0.2l3.1,1.9l1.6,1.4l7.9-2.6l3.7,1.7
	l2.9,5l0.2,2.8l7.1,2.1l2.6-0.5l0.5-2.4l-2.1-1.6l5.3-1.4l3.7,1l1.8,3.5l-0.5,2.1h-4.9l-3.1,3.8l-1.1,2.8l2.1,2.8l3.7,0.9l1.3,4.5
	l-0.3,5.9l-0.2,1.4l-2.1,2.1l1.3,5.4l3.4,2.2l1.9,2.8l-1.1,3.5l-2.1,2.9l-4.2,1.7l-0.5,3.8l3.7,2.6l1.9-0.9l2.4-3.3h4.7l-0.3,3.8
	l-4.4,3.1l-1.6,3.1l3.1,1.9l2.1,4.7l2.3,0.5l1.3-1.9l3.1-2.1l1.6-3.6l2.1-6.2l0.2-1.2l4.5-2.4l4.2-0.2l1.6,6.4l-1.9,4.5l1.9,2.9
	l7.3-3.1l1.8-4l3.6,0.5l1.3,4.7l3.2,1.7l4.2-3.5l2.7,4.7l-4.5,4l1.8,6.7l4,1.9l3.1-0.5l-0.2-4.8l2.9-0.9l4.5,6.6l1.5-3.5l3.7-0.3
	l1.8-12.3l1.6-2.2l2.3,3.1l2.4,1.7l-1,5.5l-2.3,4.3l1.5,8.8l0.8,5l-2.1,2.6l-2.1,2.2l1.1,2.2l-23.1,139.8l-7.6,43.8l-6.5,37.7
	L426.2,457.3L426.2,457.3z"/>
</svg>
