<?xml version="1.0" encoding="utf-8"?>
<!-- Generator: Adobe Illustrator 23.0.3, SVG Export Plug-In . SVG Version: 6.00 Build 0)  -->
<svg version="1.1" id="Capa_1" xmlns="http://www.w3.org/2000/svg" xmlns:xlink="http://www.w3.org/1999/xlink" x="0px" y="0px"
	 viewBox="0 0 500 500" style="enable-background:new 0 0 500 500;" xml:space="preserve">
<style type="text/css">
	.st0{fill-rule:evenodd;clip-rule:evenodd;fill:#C75240;stroke:#070308;stroke-width:3;}
</style>
<path id="path3357" class="st0" d="M320.2,432l-8.7,2l-4.3,6l-5.6,2l-4.9,2.6l1.2,5.3l-4.9,4.6l-3.1,4l-5-0.7l-2.5,5.3l-3.1,3.3
	l-6.8-2.6l-1.9-5.3l-0.6-7.9l-3.7-2v-5.3l-1.2-5.3h-3.7l-3.1-2l-5,4.6h-3.7l-3.7-5.3l-3.7-3.3H238l-1.2,4.6v6.6v7.3l3.1-1.3l2.5,4.6
	l-1.2,5.3h-7.4l-8-2.7l-5,2h-4.3l-8,2l-2.5,4.6H199l-4.3-2.7l-3.7,2l-2.5-6l-3.1-7.3l-4.9-6l1.2-9.9l-1.2-5.3l-5-4l-3.1-8.6l4.3-6.6
	l1.2-7.3l-1.2-5.3l-6.2,0.7l-3.1-2l-3.7-6l-0.6-9.9v-6.6l-3.1-2l-15.5,3.3h-8.7l-5.6-2l-6.2,6l-5-2l-7.4-1.3l-4.9,3.3l-3.7-2.6
	v-11.3l-4.3-6.6l-3.1-7.3l3.1-8.6l3.7-4l-7.4-9.9l-5.6-4H84l-2.5-4.6v-11.3l-4.9-2.6l-3.7-6.6v-9.9l8-2.7l6.2,2l6.8-1.3l3.1-7.3v-6
	l-4.3-4l3.1-4l8,2.6l8-3.3l4.3,4l6.2,0.7l6.2,2.6l-0.6-8.6l1.2-7.3l2.5-10.6l-4.9-13.9l-7.4-5.3h-7.4l-9.9-17.2l-6.8-7.3l-8.7-6
	l-10.5-11.3l-12.4-12.6l-5.6-5.3l2.5-8.6l6.8-6.6l3.7-8.6l-3.1-6l-3.7-5.3l3.7-1.3l3.1,6.6l3.1-3.3l0.6-6l-3.1-7.3l-1.9-13.9l4.3-4
	l3.7,1.3l-2.5,4l-0.6,3.3l1.2,2.7l4.3-2l1.2,3.3l-4.3,2.6l-1.2,7.3h4.9l1.2-4v-4l3.1,3.3h4.3v9.9l-3.1,3.3l-3.7-0.7l-3.7,8.6
	l-0.6,4.6l3.7,4.6h4.3l4.9,1.3l6.2-2l3.7-7.3l-0.6-6.6l3.7-6.6l-4.3-4.6v-7.9l-1.2-8.6l-2.5-9.3l2.5-5.3l-1.2-6l-1.9-5.3L92,77
	l-5.6-8.6L82.7,71l-4.3,2.6l-1.9-7.3l7.4-2.7l-1.9-4l5.6-2h7.4l8-0.7l5.6-3.3l1.9-4.6l4.9-4l6.2-4l6.8-7.3l4.3-2l5.6-2.6l-0.6-4h3.1
	l5.6,11.3l3.1,9.3l-1.2,5.3l-1.2,2.6l11.7,9.3l8,4.6l1.2,4V77l1.2,9.3l-13.6,16.6l-3.7,9.3l-4.9,9.3l-5.6,6l1.2,16.6l-4.3,8.6
	l-3.7,6l-1.2,9.3l-1.9,11.3l-0.6,9.3l7.4,16.6l5.6,11.3l6.2,8.6l58.1-1.3l16.1-19.9l3.7-7.3l0.6-11.9l3.1-6.6l5.6-4.6l6.2-0.7
	l4.3,4.6l5-0.7l1.2-6.6l1.2-6.6h5.6l7.4-4.6l3.1-4.6v-4l4.3-2l10.5-14.6h20.4l4.3-2l6.8,0.7l7.4-4.6l1.2-6.6l2.5-3.3h5.6l2.5-7.9
	l1.9,6l-0.6,2l4.3,4l2.5,4.6l5,4.6l4.3,0.7l3.1,1.3l1.2,5.3l9.9,9.3l-1.2,14.6l-0.6,4.6l3.1,5.3l1.2,2h3.7l3.1,2l1.2,4.6l-4.9,2
	l-3.7,2.6H366l-3.1,5.3l3.7,6.6l-0.6,3.3l-4.3,5.3v6l1.9,4.6l3.7,2.6l3.1,6.6h3.7l5.6-2.6l3.1-7.3l4.3-2l2.5,2.6l-2.5,5.3l-1.9,2.6
	l-3.1,2l1.9,4.6l1.2,6l-4.3,1.3v7.3l4.3,2l0.6,5.3v4l3.1,4l-0.6,4.6l2.5,3.3l13.6,0.7l16.1-17.2l11.8-12.6l6.2-6.6l-1.2,9.9v7.9
	l1.2,7.3l8.7,6l-2.5,4.6v4.6l-8,5.3l-8,3.3l-4.3,3.3l-5.6,8.6l-5.6,7.9l-11.1,6l-6.2,9.9l-4.3,2h-6.2l-4.3,4l-1.2,4l1.9,9.3l4.3,6.6
	v6l-4.9,2l-6.2,6.6l-3.1,5.3l-9.3,4L358,379l0.6,6l4.3,3.3v11.3v6.6l-3.1-4l-1.9,7.9l-3.1,4l-3.1,6.6l1.9,6.6v3.3l-6.2-1.3l-5,4
	l-3.7,4l-4.9-2l-8-5.3L320.2,432L320.2,432z"/>
</svg>
