<?xml version="1.0" encoding="utf-8"?>
<!-- Generator: Adobe Illustrator 23.0.3, SVG Export Plug-In . SVG Version: 6.00 Build 0)  -->
<svg version="1.1" id="Capa_1" xmlns="http://www.w3.org/2000/svg" xmlns:xlink="http://www.w3.org/1999/xlink" x="0px" y="0px"
	 viewBox="0 0 500 500" style="enable-background:new 0 0 500 500;" xml:space="preserve">
<style type="text/css">
	.st0{fill-rule:evenodd;clip-rule:evenodd;fill:#C02F55;stroke:#070308;stroke-width:3;}
</style>
<path id="path3469" class="st0" d="M462.4,329.7l-13.1-1.2l-9.8,4.7h-12l-5.4-3.5h-16.3l2.2-5.8l-5.5-9.3l-5.4,2.3l-8.7-4.7l-7.6,7
	v-16.3l-14.2-8.2l-16.3-1.2l-15.2-5.8l-7.6,7l-18.5,11.7l-2.2-5.8h-6.5l-5.4,4.7h-17.4l-8.7-9.3l-12,7l-17.4-7l-7.6,2.3l-21.8-2.3
	l-16.3,4.7l-31.6,1.2l-7.6,2.3l-6.5-9.3l-2.2,5.8l-15.3,5.8l-22.9,10.5l-1.1-10.5l-6.5,7L79,311l-4.4,11.7l-8.7,4.7l-5.4-7h-6.5
	l-5.4-11.7l-8.7-10.5v9.3l-4.4-11.7v-9.3l10.9-7l-1.1-9.3l4.4-8.2l5.4,5.8l15.3-8.2l1.1-8.2v-10.5l5.4-8.2l5.4-2.3l-5.4-8.2l5.4-7
	l8.7,1.2l-3.3-9.3v-8.2l7.6-7l-3.3-5.8l6.5-1.2v-8.2l8.7-1.2l17.4-9.3l7.6,5.8l14.2-3.5l8.7,3.5h24l7.6,4.7l9.8-2.3l9.8,2.3
	l14.2-2.3l4.4,5.8h14.2l18.5-10.5l25.1-7l12,3.5l8.7-1.2l6.5,8.2v2.3h9.8l5.4,8.2l6.5-1.2l13.1,5.8l5.4-1.2l3.3-7l18.5,2.3
	l101.3,136.5l-3.3,8.2L462.4,329.7L462.4,329.7z"/>
</svg>
