<?xml version="1.0" encoding="utf-8"?>
<!-- Generator: Adobe Illustrator 23.0.3, SVG Export Plug-In . SVG Version: 6.00 Build 0)  -->
<svg version="1.1" id="Capa_1" xmlns="http://www.w3.org/2000/svg" xmlns:xlink="http://www.w3.org/1999/xlink" x="0px" y="0px"
	 viewBox="0 0 500 500" style="enable-background:new 0 0 500 500;" xml:space="preserve">
<style type="text/css">
	.st0{fill-rule:evenodd;clip-rule:evenodd;fill:#D99AC0;stroke:#070308;stroke-width:3;}
</style>
<path id="path3314" class="st0" d="M283.9,470.7l-2.2-22.2l-13.1-4.5l-8.7-18.7V409l-6.5-10.5l-12-7.1l-10.9-2.1h-13.1l-16.3-10.5
	h-16.3l-18.5-9.5l-15.2-6.9l-14.2-5.8l-8.7-8.2l-16.3-18.7l6.5-19.8l5.5-24.5l8.7-9.5l1.1-22.2l-6.5-19.8v-17.4l1.1-25.8l34.9-16.4
	l19.6-14l34.9-30.3l10.9-3.4v-18.7l21.8-17.4l20.7-8.2l18.5-24.5l17.4-21.1l21.8,15.3l20.7,26.9L370,97.3V115l1.1,18.7l-1.1,20.8
	v9.5l13.1,11.6l-9.8,37.2l-12,22.4v12.7l3.3,15.3l7.6,1.1l4.4,31.6l-21.8,12.7l-25.1,34l1.1,23.2l-31.6,75.9L283.9,470.7z"/>
</svg>
