<?xml version="1.0" encoding="utf-8"?>
<!-- Generator: Adobe Illustrator 23.0.3, SVG Export Plug-In . SVG Version: 6.00 Build 0)  -->
<svg version="1.1" id="Capa_1" xmlns="http://www.w3.org/2000/svg" xmlns:xlink="http://www.w3.org/1999/xlink" x="0px" y="0px"
	 viewBox="0 0 500 500" style="enable-background:new 0 0 500 500;" xml:space="preserve">
<style type="text/css">
	.st0{fill-rule:evenodd;clip-rule:evenodd;fill:#67418D;stroke:#070308;stroke-width:3;}
</style>
<path id="path3441" class="st0" d="M161.4,465.2V448l26.8-26.8l12.5-24.9l-5.4-13.4l8.9-17.2l-8.9-15.3l1.8-28.7l10.7-17.2l19.7,0
	l10.7,7.7l5.4-17.2l12.5-13.4v-19.1l10.7-11.5l-7.2-17.2v-19.1l8.9-11.5l-12.5-13.4l8.9-7.7l5.4-13.4v-42.1L258,111l12.5-13.4
	l1.8-21l19.7-11.5l1.8-15.3l16.1-19.1h16.1l7.2,7.7l3.6,11.5v21.1l-5.4,11.5l8.9,11.5l-3.6,24.9l-16.1,30.6l-14.3,19.1l-12.5,21.1
	l8.9,17.2l-7.2,21.1l-3.6,53.6l14.3,7.7l-1.8,9.6l-21.4,7.7l-3.6,21.1l-17.9,15.3l-21.4,23l-8.9,32.5l-3.6,13.4l-16.1,19.1
	l-10.7,15.3H190l-3.6,15.3C186.4,461.4,161.4,465.2,161.4,465.2z"/>
</svg>
