<?xml version="1.0" encoding="utf-8"?>
<!-- Generator: Adobe Illustrator 23.0.3, SVG Export Plug-In . SVG Version: 6.00 Build 0)  -->
<svg version="1.1" id="Capa_1" xmlns="http://www.w3.org/2000/svg" xmlns:xlink="http://www.w3.org/1999/xlink" x="0px" y="0px"
	 viewBox="0 0 500 500" style="enable-background:new 0 0 500 500;" xml:space="preserve">
<style type="text/css">
	.st0{fill-rule:evenodd;clip-rule:evenodd;fill:#3D3E8D;stroke:#070308;stroke-width:3;}
</style>
<path id="path3333" class="st0" d="M162.5,98.2c-1.7-4.7-4.7-6.5-4.7-6.5l-1,1.8l-3.3,3.9l-5,3.6l-1.3,3.6h-3.3l-1.7-5.4l1.7,2.1
	l2.3-1.1l3-3.6l3-3.6l-1.7-2.2l0.3-2.8l3,0.3v-5.7l-0.3-3.3l2.7-4.6h3l1,3.9l-3,2.9l-1.7,2.5l1.7,2.1l3.7-1.1l1-4.3v-4.6l-3-3.9
	l-0.7-3.3l3.4-3.2l1.3-3.6l2,4.7l0.7,2.5l1.7-4.6l-0.7-5.8l-3-4.3l1.3-3.2l4.7-3.3l2-3.6l3.7-3.9l2.3-2.5h5.7l3.4-1.4l4.7-9
	l-0.7,9.3l2,5.7l-0.3,3.3v2.1l-2.3,2.9l-1.3,5.4l-1,3.6l-0.7,0.8l4.4,5l1.3,1.4l11.7,5.3l4.7-0.3l3,2.9h3.4l3,0.7l2.7,1.8l1.3,1.8
	v1.8l0.3,3.2l1.7,3.9l3.3,1.1l0.7,4.3l-3,5.8v5.4l4.7,0.3l3,4.3l4.3,3.6l3.7,6.1l-1.7,2.5l-6.4,5l-0.3,10l3.7,4.3l4,7.9l-0.7,4.3
	l0.3,5l4,4.3l1,3.3l-0.3,3.9l-2.3,4.3l-0.7,3.6l0.3,3.9v1.8l5,3.6l9.4-1.1l0.7,4.3l-0.7,1.4l3.7,2.5l4.7,3.6l0.7,3.6v3.6l5.4,5.4
	l5.4-2.9l6,4.3l6.7,2.5l4.7-0.4l3.7,4.3l9,4.7l4.7,8.6l5,5.4l8.4-1.1l6,4.3l4-1.1l5,2.2l4.7,2.5l0.3,2.9l-1.3,4.3l2.3,4.3l2.7-1.1
	l4.7,7.2l0.7,3.9l-2,5.7l-3,4.3v7.2l0.3,3.2l4.4,11.1l3.7,10.4l-2.3,23.7v7.9l-3.3,3.9v-0.4l-2.7,0.7l-6,7.2l-2.3,4.3l1.3,4.7l3,2.9
	l-0.3,7.2v4.3l4.4,7.5l0.7,8.6l0.7,4.7l-2.7,9.7l-5,7.5l-3.3,4.3l-1,2.9l-3.7,1.4l2.4,2.1l1.3,2.9l-2.7,5l-1.3,5.4l0.7,4.3
	l-30.5,32.3h-13.7l-0.3-0.4l0.7,0.4l-1.3-2.9v-4.3l-2-2.9v-5.7l-2.3-3.6l-2.7-1.8l-0.3-5.4l4-2.9l-0.3-5l-2.7-2.5l1.3-2.1l3.3-2.1
	l2-4.3l0.7-2.5l-3-1.4l-3.4,1.8l-1,2.5l-2,3.6l-5.7,3.6l-3-1.4l-2-5.7l-3.4-0.4l-1.3-2.5l-0.3-4.3l-0.3-4.7l4-4.7v-3.6l-1.7-2.9
	l-1-3.6l2-3.9l5-0.7l6.7-3.2l-0.3-3.9l-3.4-2.5h-3.7l-2.7-5.4v-6.5l0.7-7.2v-5l-3.3-4.7l-5.4-5.4l-1.3-3.2l-3.4-1.8l-3.7-1.1
	l-4.4-3.9l-2.3-3.6l-3.3-3.9v-3.9V326l8-3.6l6.7-1.1v-2.9l3-3.9v-2.9l3.3-1.4l3-1.4l3-2.9l0.3-4.3l-1.7-1.8c0,0-3-2.9-3-4.3
	c0-1.4-1-4.7-1-4.7l-1.7-1.4v-7.9l-2-3.9v-9l4.4-2.5l2-7.9l-4.7-8.3l-3.3-0.7l-1.7-4.7l-4.4-5.4l-4-2.9l-4.7-0.7l-4-3.6l-1.7-2.5
	l-2.7-6.5l-3.7-5l-5.4-10.8v-7.5l1.7-6.8l-2.7-6.8l-3.7-3.6l-2-0.7l-0.3-5.1l-3.7-3.2l-4.4-2.1h-5.4l-3.4-5.1l-3-4.3l-4.7-3.6H193
	l-3.3-0.7l-5,0.4l-4,0.3l-1.7,4.7l-1-3.6l-0.7-3.9l4.4-6.8l0.7-3.3v-5l0.3-5l-5-1.4l-6.7,0.8l-2.3-0.8l-1-3.6l1-3.2l0.3-4.3
	l-0.3-3.9l-2-3.3l-1.7-2.5l-1-2.1l-2-3.3l-2.7-1.8l-0.7-3.6l2.7-0.4l1.7-1.1L162.5,98.2L162.5,98.2z"/>
</svg>
