<?xml version="1.0" encoding="utf-8"?>
<!-- Generator: Adobe Illustrator 23.0.3, SVG Export Plug-In . SVG Version: 6.00 Build 0)  -->
<svg version="1.1" id="Capa_1" xmlns="http://www.w3.org/2000/svg" xmlns:xlink="http://www.w3.org/1999/xlink" x="0px" y="0px"
	 viewBox="0 0 500 500" style="enable-background:new 0 0 500 500;" xml:space="preserve">
<style type="text/css">
	.st0{fill-rule:evenodd;clip-rule:evenodd;fill:#54ABD2;stroke:#070308;stroke-width:3;}
</style>
<path id="path3427" class="st0" d="M34.2,265.6l-2.5-15.2l9.2-12.5l0.8-9.8l5.8,6.3l0.8-25l-5.8-5.4l-1.7-9.8l5-13.4l9.2-4.5
	l-0.8,6.3l11.7,16.1l-1.7,8.9l11.7,4.5l5,9.8l4.2-7.1l11.7-5.4l-2.5,17l5,6.3V245l9.2,5.4V245l4.2-5.4l5.8,5.4l4.2-1.8l5,9.8
	l9.2,3.6l3.3,8.9h10.8l6.7,7.1l16.7-7.1l5-6.3l9.2,4.5l6.7,7.1h5.8l2.5-11.6v-4.5l-0.8-11.6l-1.7-8l2.5-4.5l2.5-5.4l3.3-5.4l7.5-4.5
	v-5.4l0.8-8.9l4.2,2.7l10,8l9.2,11.6l-0.8,12.5L226,245l1.7,11.6l5.8,8l6.7-8l-0.8-7.1h7.5l8.3-1.8l1.7-5.4l4.2-3.6l4.2-4.5l1.7-9.8
	l8.3,1.8l7.5,4.5l15-1.8l7.5-11.6l17.5-17l19.2-23.2v-16.1l5.8-10.7l-8.3-15.2l-4.2-11.6l0.8-3.6l8.3-0.9l8.3,12.5l2.5,9.8l5,5.4
	l5-1.8l3.3-7.1l8.3-1.8l0.8-10.7l0.8-8.9l6.7-3.6l3.3-6.2l0.8-6.3l-4.2-8l0.8-7.1l0.8-17l5-5.4l5,2.7l9.2-2.7l6.7-1.8l5-5.4l0.8-8.9
	l6.7,1.8h5l1.7-4.5l0.8-8h4.2l4.2,4.5l6.7-0.9l5.8-3.6l13.3,6.3h5.8l-0.8,8l-4.2,3.6l0.8,8l-6.7,7.2V79l0.8,8l-7.5,1.8l-4.2,4.5
	l2.5,8.9l-5,3.6l-5,9.8l0.8,10.7l-4.2,7.2l-8.3,6.2l-5,2.7l-3.3,5.4l-4.2-8.9l-4.2,7.1l-0.8,11.6l-8.3,4.5l-8.3,8l-1.7,18.7l4.2,8
	l8.3,8.9l-2.5,6.3v22.3l-8.3,6.3l-8.3,4.5l5,2.7l5,3.6l10.8,3.6l7.5,8l0.8,7.1l5.8,0.9l3.3,7.1l-5,2.7l-4.2,7.1l-2.5,12.5V312h-6.7
	l-5-4.5l-0.8-8l-4.2-3.6l-10,11.6l-14.2,18.7l-11.7,9.8l-5.8,6.3l-8.3,11.6l-2.5-10.7l-5.8-3.6l-2.5-6.2l-7.5-1.8l-5.8,2.7
	l-2.5,10.7l-10,10.7l-1.7,13.4l0.8,6.2l5.8,5.4l-5,14.3l-12.5,5.4l-6.7,16.1l-5,9.8l5.8,8l-2.5,10.7l-5,8.9l-8.3,3.6l-5.8-1.8
	l-5-1.8l-2.5-6.3l-5-4.5l-7.5,4.5l-6.7-8l-1.7-6.2l-6.7-17l-10,1.8l-11.7-1.8l-4.2-5.4l2.5-7.2l10-15.2l-3.3-16.1l-4.2-15.2
	l-4.2-11.6l-8.3-3.6l-2.5-8.9l-0.8-8l-5-6.3l-6.7-5.4l-17.5-8l-7.5-5.4l-9.2,8.9l-5,2.7l4.2,5.4l-4.2,5.4l-5.8,1.8l-1.7,8.9
	l-9.2-2.7l-9.2-9.8l-9.2-6.2h-8.3l-10.8-9.8v-7.1l-7.5-4.5l-1.7-9.8l5-3.6l-0.8-9.8l0.8-4.5l-4.2-3.6v-5.4l-8.3-3.6l-2.5,4.5
	l-4.2,4.5l-7.5,2.7l-6.7-2.7l-8.3-2.7l-6.7,8h-5L34.2,265.6L34.2,265.6z"/>
</svg>
