<?xml version="1.0" encoding="utf-8"?>
<!-- Generator: Adobe Illustrator 23.0.3, SVG Export Plug-In . SVG Version: 6.00 Build 0)  -->
<svg version="1.1" id="Capa_1" xmlns="http://www.w3.org/2000/svg" xmlns:xlink="http://www.w3.org/1999/xlink" x="0px" y="0px"
	 viewBox="0 0 500 500" style="enable-background:new 0 0 500 500;" xml:space="preserve">
<style type="text/css">
	.st0{fill-rule:evenodd;clip-rule:evenodd;fill:#F1D7A3;stroke:#070308;stroke-width:3;}
</style>
<path id="path3407" class="st0" d="M427.5,245.1l-13.5,3.6l-20.3-9.1l-15.2,3.6l-11.8,3.6l-18.6-3.6l-11.8,5.4h-16.9l-5.1,23.6
	l-15.2,7.2l-15.3,19.9l-18.6-7.2l-8.5,16.3l-10.2-3.6l-11.8,9.1l-3.4,9.1v18.1l5.1,16.3l-8.5,12.7v10.9l6.8,7.2l6.8,9.1l-8.5,10.9
	l-15.3,3.6l-15.2-5.4l-6.8-12.7l-10.2-11.1l-15.2-5.4l-30.5-3.5l-3.4-9.1l-15.2,9.1h-6.8l-11.9-9.1v-12.7L94,341.2l-10.2-10.9
	l-10.2,9.1l1.7,12.7l-6.8,12.7l-8.5,5.4l-18.6-12.7l-1.7-36.3l20.3-12.7l8.5-9.1l1.7-12.7l-1.7-9.1l3.4-16.3v-14.5l11.8,5.4
	l13.5-1.8l8.5,10.9H116l8.5-9.1l-3.4-18.1l-8.5-14.5l-8.5-9.1h-8.5l-16.9,3.6l-13.5,7.2l-11.8,3.6l1.7-9.1l6.8-5.4l-3.4-29l5.1-12.7
	l16.9-1.8l8.5-3.6l8.5,3.6l15.3-5.4l22,9.1l22-3.6v-12.7l-6.8-14.5l-8.5,5.4V111l5.1-16.3h6.8l13.6,9.1l8.5,12.7l1.7,1.8h11.8
	l10.2-14.5l10.2,9.1l5.1-5.4l6.8,19.9l-1.7,9.1l1.7,3.6l8.5,5.4l3.4,19.9l6.8,16.3l16.9,5.4l8.5-10.9l6.8-10.9l13.5,1.8l6.8-12.7
	l15.2-10.9l-3.4-9.1l-1.7-7.2l20.3-9.1l11.8-5.4l6.8-12.7l20.3-3.6l18.6-9.1l23.7,18.1l13.6,3.6l11.8-14.5l8.5-7.2l18.6,3.6
	l-5.1,16.3l8.5,7.2l-1.7,19.9L447.8,149l3.4,12.7l-6.8,3.6l1.7,18.1l-1.7,23.6l-6.8,14.5l-1.7,12.7L427.5,245.1L427.5,245.1z"/>
</svg>
