<?xml version="1.0" encoding="utf-8"?>
<!-- Generator: Adobe Illustrator 23.0.3, SVG Export Plug-In . SVG Version: 6.00 Build 0)  -->
<svg version="1.1" id="Capa_1" xmlns="http://www.w3.org/2000/svg" xmlns:xlink="http://www.w3.org/1999/xlink" x="0px" y="0px"
	 viewBox="0 0 500 500" style="enable-background:new 0 0 500 500;" xml:space="preserve">
<style type="text/css">
	.st0{fill-rule:evenodd;clip-rule:evenodd;fill:#F4DB61;stroke:#070308;stroke-width:3;}
</style>
<path id="path2327" class="st0" d="M208.1,372.1l1.5-3.4l-2.7-1l-3.9-1.1l-2-1.6l-5.4,0.5l-3.2,1.3l-4.4-2.1l-2.2,1l-4.4,0.8
	c0,0-2.7,1.1-3.2,0c-0.5-1-1.5-1.3-1.5-2.4v-3.4l-3.2-0.3l-1.5-5.3v-3.4c0,0,2,0.3,2.5-0.8c0.5-1-1.7-3.7-1.7-3.7l1-4.7v-2.6
	c0,0-3.9-3.4-4.4-4.5c-0.5-1-2.7-1.3-2.7-1.3l-5.6,0.5l-4.2,0.8l-2.2-2.9h-3.4l-5.4-0.5l-1-6.8l0.5-5.8l-0.7-7.9l-5.9-3.2l-4.4-2.6
	l-2,2.9l-3.2,1l-1.7,1.6l-3.2-2.1l0.5-3.9l-1-3.2l1-4.2l-1.7-2.9l-1.5-7.1l-6.1-1.6l-2-1.6l-5.9,2.4l-5.9-3.9l-3.4-4.2l-3.2-2.6
	l-5.4-1.8l-5.2-0.8l-3.2,2.9l-4.7-0.8l-2.4-4.2l-4.2,0.8l-1.2-3.7c0,0-0.5-1.6-1.5-2.6c-1-1-2.7-2.9-2.7-2.9V260l-2.7-2.9l-5.6,0.3
	l-5.1,0.3l-3.9-3.2l-2.2-3.7l-4.7,1V244l-5.1,3.4l0.7-5.5l-1.7-2.4l-2.7-4.5l9.8-19.4l2.7-2.1l5.6,1.3l6.1-0.5l6.1-5.3l9.6-11.8
	l2.5-7.6l6.4-1.8l1.7-7.6l6.1-6.6h5.1l3.4-5.8l2-7.1l5.6-7.1l1.7-6l4.9-2.6l7.6-9.2l3.2-6.6l2.2-5.8l3.4,0.3l6.1-2.9l7.8-8.4
	l-0.7-2.4l0.7-10.8l4.7-3.4l2.9-2.6v-4.2l-0.7-5.3l4.4-3.4l0.5-1.6l3.2-1l4.2,4.5l4.7,0.3l5.1,6.3l4.7,0.3l4.9,6.8l1.2,9.5l-5.6,4.7
	l-3.7,7.9l3.9,9.7l-0.2,16.3l5.6,11l-0.7,10l2,10.5l8.1,8.4l6.6,3.2l8.6,1l4.9,1.1l3.7-0.8l4.4,7.6l8.1,3.4l2.2,0.5l5.4,8.7l4.9,0.8
	l4.4-5l5.9-2.6l3.9,1.6l6.6-3.2l3.9,4.7l-0.7,5l1.7,4.7l5.6,7.9l6.9,7.1l2.9,3.7l0.5,6.8l2.7,5.3l6.4,8.9l3.2,1.8l9.1,4.2l2.2,6
	l10.5,5l3.9-5.3l6.4-5.2l3.9-1.8l-0.5-7.4l2.7-7.1l3.9-1.3l3.4,0.5v4.5l3.9-2.9l1-3.2l4.7,2.9h2l6.9,4.7l4.9,4.7l5.6,2.6l2,4.5
	l0.5,5.8l1,1.1l2.7,0.3l1.2,3.7l3.7,1.1v3.7l2.9,3.7l4.7,0.8l-0.5,5.5l2.5,4.7l2-4.5l4.7-2.9l2.9,0.3l1,3.2l4.4,6.6l0.2,1.6l2.7,2.1
	l0.2,3.7l0.7,3.2l4.7,0.5l2,6.6h3.4l2.7,2.9v3.7l2.7,2.9h5.1l2,1.6l1.2,3.4l0.2,1.8l-1,3.7l5.4,1.6l2,4.5l3.2-2.1h2.7l2.5,3.4
	l4.4,2.4l4.9-1.3l2.2-2.4l4.7-0.3l4.2,2.9l1,2.9l-6.6,6.3l-2.4,2.1l-6.4-0.3l-5.9,2.1l-6.4,3.9l-6.6,6l-4.7,4.2l-2,7.6v2.9l-4.4,2.1
	l-5.9-1.3l-7.8-1.8l-3.7,1.3l-2.2,1.8l-0.7,4.2l-1.5,1.3l-4.4,2.4l-3.4,5l-3.4,7.3l-2.7,3.9l1,2.6l-2.7,2.4l-4.9,2.6h-2.7l-4.7-3.4
	l-2-2.4l-1.7,0.3l-2,1.8l-0.5,2.1l-4.2,5.3l-0.5,2.1l-3.2,2.4l-2.9-1l-3.4-2.1l-2.7-3.2l-3.4-4.7l-2.7-2.4h-4.4l-2.4,1.8l-2,2.4
	L326,412l-2.2-3.4l-2.9-3.9l-5.4,0.5l-1.7,3.2l-1,1.6l-4.4,2.6l-0.5,2.1l-6.4-1.3l-6.1-6.3l-2.7-2.6l-5.4-0.3l-6.4,1.1l-3.7-1.1
	l-5.4,0.5l-4.4-1.6v-5.3l-6.1-1.3l-3.7-3.9h-8.8l-2.2,1.6l-4.2-2.6l-6.9-0.8l-5.2-1.8l-1-2.6l-5.6-4.5l-1.2-0.3l-3.4-2.4l-2.9,1.3
	l-3.9-2.9l-2.9-1.1l0.5-2.6L208.1,372.1L208.1,372.1z"/>
</svg>
