<?xml version="1.0" encoding="utf-8"?>
<!-- Generator: Adobe Illustrator 23.0.3, SVG Export Plug-In . SVG Version: 6.00 Build 0)  -->
<svg version="1.1" id="Capa_1" xmlns="http://www.w3.org/2000/svg" xmlns:xlink="http://www.w3.org/1999/xlink" x="0px" y="0px"
	 viewBox="0 0 500 500" style="enable-background:new 0 0 500 500;" xml:space="preserve">
<style type="text/css">
	.st0{fill-rule:evenodd;clip-rule:evenodd;fill:#DC9920;stroke:#070308;stroke-width:3;}
</style>
<path id="path3467" class="st0" d="M470.4,143.2l-11.7,10.5l-8.8,14.6l-4.9,7.3v7.3l-8.8,15.7l-12.7,7.3l-23.4,9.4h-9.8l-14.6,10.5
	l-14.6,10.5l-6.8,3.1l-1.9,11.5l-7.8,8.4l-6.8,6.3h-7.8l-2,9.4l-7.8,4.2l-3.9,9.4l-6.8,7.3l-9.8,8.4l-8.8,10.5l-15.6,8.4h-7.8
	l-11.7,14.6h-19.5l-14.6,16.7l-12.7-2.1l-11.7,12.5l-16.6,14.6l-11.7,6.3l-2.9-9.4l-18.5-5.2l-3.9,7.3l-5.9,1l-5.9,7.3l-9.8,2.1
	l-4.9,6.3l-8.8-10.5l-4.9,6.3l-11.7-1l-4.9,8.4l-10.7-3.1l-7.8-16.7l-12.7-11.5l-5.9-9.4l-11.7-18.8l-3.9-3.1l2.9-11.5l-3.9-7.3
	l7.8-19.9l10.7-4.2l1.9-12.5l-3.9-6.3v-13.6l9.8-8.4l2-8.4l4.9-4.2l5.9,3.1l1.9,3.1l5.9,3.1l1.9,11.5l7.8-14.6l11.7-9.4l21.5-26.1
	l2.9,7.3l1,5.2l3.9,3.1h5.9l-1-9.4l1-10.4l3.9-7.3l5.9-1l-2.9-5.2l-6.8-2.1l-1-8.4l-7.8-6.3l-6.8-1l-6.8-6.3l6.8-2.1l6.8-4.2
	l-1-10.5v-8.4l2-6.3l-6.8-8.4l-2.9-4.2l1-14.6l5.9-5.2l-2,8.4l2,9.4l2-6.3l7.8,8.4l2,4.2l2,7.3h8.8l2.9,5.2l8.8-3.1l4.9-9.4l13.7-1
	h2.9l6.8-4.2l1,8.4l21.5-9.4l12.7-3.1l3.9-5.2l3.9,6.3l20.5-2.1l15.6-1l15.6-3.1l18.5,1l5.9-2.1l13.7,6.3l11.7-5.2l8.8,7.3l15.6,1
	l4.9-4.2l7.8-2.1l-1,6.3l10.7-7.3l13.7-7.3l13.7,4.2h12.7l12.7,6.3l1.9,8.4l1,6.3l5.9-4.2l5.9,3.1l6.8-2.1l4.9,9.4l-2,4.2
	C456.8,143.2,470.4,143.2,470.4,143.2z"/>
</svg>
