<?xml version="1.0" encoding="utf-8"?>
<!-- Generator: Adobe Illustrator 23.0.3, SVG Export Plug-In . SVG Version: 6.00 Build 0)  -->
<svg version="1.1" id="Capa_1" xmlns="http://www.w3.org/2000/svg" xmlns:xlink="http://www.w3.org/1999/xlink" x="0px" y="0px"
	 viewBox="0 0 500 500" style="enable-background:new 0 0 500 500;" xml:space="preserve">
<style type="text/css">
	.st0{fill-rule:evenodd;clip-rule:evenodd;fill:#EDEDEC;stroke:#070308;stroke-width:3;}
</style>
<path id="path3489" class="st0" d="M395.6,444.5l-6.9,7.3h-10.3l-8.6,7.3l-18.8-0.9l-13.7-1.8L327,450l-4.3-7.3l-8.6,4.6l0.9-5.5
	l-0.9-11l-0.9-7.3l3.4-6.4l-6.9-31.2l-9.4-4.6v-2.7l-13.7-0.9l0.9,8.3l-6,14.7h-12l-9.4-2.7l6.9-3.7v-6.4l-5.1-6.4l-3.4-9.2v-10.1
	l7.7-6.4l1.7-8.3l-0.9-6.4l-9.4-3.7l-7.7-6.4l-6.9-5.5l-7.7-2.8l-10.3,6.4l-13.7,1.8l-6.9-2.8l-10.3,4.6l-5.1-1.8l-11.1-0.9l7.7-9.2
	l0.9-11l-2.6-5.5l14.6-12.8l5.1-9.2l-6.9-9.2l-10.3-8.3l-7.7-7.3v-8.3l-2.6-10.1l-8.6-7.3l-7.7,2.8l-10.3,1.8l-7.7,1.8h-8.6
	l-4.3-5.5l-6.9-1.8l-6-2.8v-9.2l-15.4-17.4l-9.4-16.5l-12-14.7l-6.8-8.2l-1.7-6.4l-2.5-8.3l4.3,5.5H76l-0.9-8.3l4.3-7.3l4.4-2.8
	l5.9,6.4l4.4,4.6l2.5-6.4l-0.9-1.8l-4.3-8.3l11.2,0.9h6l2.5,6.4v-10.1l-9.4-2.7l0.9-3.7h7.7l5.2-8.3l-0.9-4.6l0.9-4.6l2.6-3.7h5.1
	l0.9-7.3l6-2.8l-8.6-0.9l1.7,3.7l-4.3-7.3l8.6-12.8l13.7-11l3.4-5.5v-4.6h12l0.9-4.6l-4.3-2.8h-10.3l12-9.2l3.4-4.6l12,2.8l0.9,10.1
	l5.1,3.7V51l0.9,3.7l2.6,2.7l12-0.9l6,5.5l3.4,7.3l1.7,2.8l12.8-0.9l5.1,7.3l21.4-8.2l11.1,5.5l6,10.1h7.7l3.4-6.4l4.3-3.7l5.1,3.7
	l5.1-0.9l12-7.3l0.9-3.7l3.4,8.3l6.9-6.4l13.7,2.8V51l7.7-5.5l-3.4-6.4v-8.3l7.7,3.7l6,4.6h30.8l4.3,5.5l6,3.7h10.3l5.1,10.1
	l-3.4,6.4v11l8.6,12.8h6l7.7,14.7l5.1,11.9v27.5l10.3,16.5l2.6,12.8l7.7,10.1v9.2l-7.7,1.8l-3.4,4.6l-7.7-9.2l-8.6-7.3l-11.1-2.8
	l-1.7,6.4l-4.3,5.5l-6.9,11l-7.7,1.8l-8.6-4.6l-6.9-2.8l-6.9,3.7l-1.7,9.2l-4.3,4.6l-0.9,3.7l-9.4-1.8l1.7,9.2l6.9,11.9v10.1
	l-10.3,4.6l-10.3-6.4l-4.3-7.3v7.3l-12,0.9l-8.6,2.8l-0.9,8.2l-2.6,3.7l6.9,3.7l-1.7,10.1l-0.9,22l11.1,2.8l9.4-1.8l5.1,11.9
	l1.7,14.7l-4.3,10.1l5.1,1.8l2.6,8.3h13.7l5.1-0.9l6,8.2v5.5l7.7,2.8l6-0.9l3.4-5.5l6,1.8l5.1,5.5l-9.4-2.7l-5.1,3.7l-3.4,8.3
	l-1.7,5.5l-7.7,13.8l-3.4,5.5l-2.6,6.4l4.3,8.3l4.3,3.7l-0.9,11l5.1-3.7l5.1-3.7l-0.9,16.5l9.4-2.8l2.6,5.5L395.6,444.5L395.6,444.5
	z"/>
</svg>
