<?xml version="1.0" encoding="utf-8"?>
<!-- Generator: Adobe Illustrator 23.0.3, SVG Export Plug-In . SVG Version: 6.00 Build 0)  -->
<svg version="1.1" id="Capa_1" xmlns="http://www.w3.org/2000/svg" xmlns:xlink="http://www.w3.org/1999/xlink" x="0px" y="0px"
	 viewBox="0 0 500 500" style="enable-background:new 0 0 500 500;" xml:space="preserve">
<style type="text/css">
	.st0{fill-rule:evenodd;clip-rule:evenodd;fill:#183D8D;stroke:#070308;stroke-width:3;}
</style>
<path id="path3292" class="st0" d="M232.7,31.8l23.8-5.4l11.3-1.3l10,2.7l0.6,7.4l-1.9,8.7l-1.3,4l4.4-2l3.8-5.3l5,5.3l2.5,7.4
	l3.8-1.3l5.6,6l1.9,5.4L301,68l-3.8,6.7l-5,4l-1.9,4l3.8,3.4v3.4l6.9-4h6.3l3.8,2l3.1,5.4l10.6-3.4l11.3,0.7l-13.8,16.8l0.6,24.8
	l-10,20.8l0.6,11.4l6.3,7.4l-11.9,10.1l0.6,6l-9.4,22.8l-13.8,9.3l3.1,5.4l-8.8,8.1l-5.6,8.7l-1.3,11.4l-2.5,6l-1.9,4.7v2.7h-8.8
	l-2.5,9.4v12.7l-1.9,9.4l3.8,16.8l-5.6,9.4l-0.6,9.4l-7.5,2.7l-3.1,8l1.3,7.4l2.5,7.4l5.6,1.3l-0.6,5.4l-1.9,6l1.3,7.4l3.1,2
	l5.6-3.3l-0.6-6v-4.7l3.1-4l3.1,3.3l3.8,2v6l-3.8,12.1l-4.4,10.1l-0.6,13.4l2.5,8l5,6l8.1,2.7l2.5,3.3l-1.3,8.7h-5l-5,3.4v4l2.5,6
	l-3.1,6l-4.4,4.7l-6.9,9.4l-8.1-0.7l-5.6-3.3l-3.1-3.4l-5.6,2l-1.9-3.4l-5.6,1.3h-8.1l-0.6-10.1l3.1-6.7l7.5-4v-6.7l-5-7.4l-4.4-5.4
	l-3.1-7.4l-3.8-6l4.4-3.4v-8.7l1.3-16.1l1.3-14.1l-5.6-15.4l-3.8-9.4v-12.7l3.1-4.7l2.5-7.4l-1.9-6.7l-5-6h-3.8l-1.3-4l0.6-4v-5.4
	l-6.3-2.7l6.9-1.3l1.3-5.4l1.3-4.7l-5-7.4l-3.8-2l1.3-4l-1.9-4l-3.8-1.3l-4.4-1.3l-1.3-4.7l0.6-7.4l0.6-6.7l-6.3-6.7l-5-6l-10-6.1
	l-3.8-3.4l5-3.4l4.4-2.7v-5.3l4.4-4l5.6-0.7l3.1,2l10,0.7l4.4-2h4.4l6.3,1.3v-6l-5.6-7.4l-3.8-8.1l-0.6-6l-3.8-6.7l-6.3-6v-2.7
	l-5-2.7l-6.3-8.7l-5.6-8.1l-2.5-5.4v-6.7l6.3-16l9.4-8.1l0.6-3.4l7.5-9.4l6.9-1.3h4.4h6.3l3.8-4l4.4-5.4l8.1-0.7l0.6-7.4l4.4-0.7
	l-0.6-6.7l-2.5-3.4v-6.7l1.9-7.4l5-6.6l-1.3-4.7l-4.4-1.3l-5,3.4l-0.6,1.3l-0.6-2l1.9-4C227.1,35.2,232.7,31.8,232.7,31.8z"/>
</svg>
