<?xml version="1.0" encoding="utf-8"?>
<!-- Generator: Adobe Illustrator 23.0.3, SVG Export Plug-In . SVG Version: 6.00 Build 0)  -->
<svg version="1.1" id="Capa_1" xmlns="http://www.w3.org/2000/svg" xmlns:xlink="http://www.w3.org/1999/xlink" x="0px" y="0px"
	 viewBox="0 0 500 500" style="enable-background:new 0 0 500 500;" xml:space="preserve">
<style type="text/css">
	.st0{fill-rule:evenodd;clip-rule:evenodd;fill:#EDEDEC;stroke:#070308;stroke-width:0.2;}
</style>
<path id="path3383" class="st0" d="M253.9,483.9l-5.7-6.1l-5.7-1.4l-4-5.2l-3.5,1.4l-4.4-0.5l-3.1-3.3l-5.7,0.9l-3.5-4.7l-3.1,2.4
	l-4.4-1.9l-0.4-4.7l-3.1,1.9v4.2l-4.4-1.9l-4.9,0.9l-0.9,2.8h-4.8l0.4,6.6l-3.1,2.8l-4-6.6l-2.2-4.2v-9.4l3.1-5.2l0.4,4.2l2.6,1.9
	l0.9-4.7l4.4-7.1l6.6-5.2l3.5-0.9l-3.5-1.9l-0.4-9.9l1.3-5.2l0.4-14.2h3.1l0.4,3.8l3.1-1.9l-4-6.6l-5.3-4.3l-2.2-4.2v-9.4l-1.8-7.1
	l-0.4-10.9l5.7-1.9l-0.4-2.4h-6.2V355l3.1-0.5l-0.9-3.3l-4-0.9l-0.4-7.5l4-1.4l-1.8-2.4h-2.2l-1.8-4.7l-3.5,0.9l-1.8,1.9l-2.2-3.3
	l2.2-3.3l-1.3-2.4l0.4-2.4h3.1l2.6-1.4l4.4-2.4l4,3.3l1.3-1.9l1.8-5.2l5.7-5.2l3.5-6.1l-1.8-4.7l-4.8-7.1l-2.2-9l-2.2-8.5l-2.6-0.9
	l-7.5-9l-1.8-4.2h1.8v-8l1.8-1.9l0.9,2.4l2.2,2.4l0.4,3.8l2.2,0.9v-4.7l0.4-4.7l-1.3-4.7l-2.2-4.7l4.8,1.4v-3.8l1.8-5.7v-8.5
	l-3.5-4.2l-1.8-4.7l-3.1-3.3h-4l-1.8,1.9v3.8l-4.4-1.4l-0.4-7.6l-2.6-6.6l-5.7-4.7l-2.2-0.5l-2.6,2.8l-0.9-4.2l0.9-6.1l4.4-0.5v-3.8
	l-4.4-7.6l-9.7-9.4l-8.4-7.6l3.1-8l1.3-9.4l1.3-5.7l3.5,0.5l4.4-1.4l0.9-2.8l-0.4-6.6l-0.9-5.2l2.2-4.7l3.1-1.4l4.8,6.6l3.1,7.6
	l4,1.9l4.4-3.3l3.5-6.6l7.5-9.4l3.5-9l5.3-4.3l9.7-2.4l-0.4-8.5l2.2-5.7l-2.6-1.4l-0.4-7.1l-4.4-8l-5.7-8.5l-0.9-6.6l-3.1-5.2
	l-4-6.6l-2.6-5.7l1.3-4.7l2.6-4.3l1.8-1.9v-4.7l6.2,8l4.4,2.8l-0.4,4.2l2.6,2.8l2.6,3.3l4.4,0.5l4.9,5.7l5.7,9.9l3.5,4.3l1.3,5.7
	l0.9,5.7l2.6,6.1l-0.9,4.2l-2.6,2.4l-2.2-5.2h-2.6l5.3,9.4l-1.3,3.3l-1.8,3.3l-1.3,1.9l-3.5,2.4l-2.6,7.6l4.4,2.8l7.5,8.5l11,11.3
	l6.6,4.7l5.7,6.1l6.2,12.7l6.2-0.5l5.3,4.3l4,10.4l-2.6,11.3v4.7l1.3,4.2l-6.6-2.8h-4l-3.1-2.8l-6.6,2.8l-3.5-1.9l-1.8-0.5l-2.6,3.3
	l3.1,2.8v4.2l-1.8,6.6H246l-4-1.4l-6.2,2.8v8l3.1,4.7l3.5,1.4v8.5l1.8,4.2h5.3l3.5,2.4l3.1,3.8l3.1,4.7l-3.5,2.8l-2.2,6.1l0.9,3.8
	l4.8,7.1v4.7l-0.4,3.8l4,2.4l3.5-3.3l7.9,2.8l3.5-1.4l2.6-2.8l5.3,1.9h6.2l11-2.8l2.2,1.9l0.9,12.3l3.1,5.7h4h3.1l0.9,4.7l-0.9,2.8
	l-0.4,2.4l-3.5,4.2l2.6,7.1l4.4,3.3v4.7l-0.9,7.1l4.4,4.7l4,9.4l-4,3.3l-3.5-0.5l-4.4,4.3l-3.1,1.9l-7.9,3.8l-3.1,5.7l0.9,13.2
	l2.2,7.6l0.9,5.7l3.1,3.8l3.5,2.4h2.6l-1.8,3.8l-0.9,5.7l-4,3.3l-5.7,5.2h-4.4l-4.4,4.7l-6.2,9l-3.1,10.9l-2.2,6.6l-2.2,5.7
	l-3.5-1.4l-1.8,1.9l0.9,6.1l2.6,2.4l-0.9,3.8l0.9,4.7l4.8,1.9l3.1,4.7l0.9,1.9l-6.2,2.4l-7.9,6.6l-3.5,1.9l-5.3,0.9l-4.4,3.3
	L253.9,483.9L253.9,483.9z"/>
</svg>
