<?xml version="1.0" encoding="utf-8"?>
<!-- Generator: Adobe Illustrator 23.0.3, SVG Export Plug-In . SVG Version: 6.00 Build 0)  -->
<svg version="1.1" id="Capa_1" xmlns="http://www.w3.org/2000/svg" xmlns:xlink="http://www.w3.org/1999/xlink" x="0px" y="0px"
	 viewBox="0 0 500 500" style="enable-background:new 0 0 500 500;" xml:space="preserve">
<style type="text/css">
	.st0{fill-rule:evenodd;clip-rule:evenodd;fill:#B067A0;stroke:#070308;stroke-width:3;}
</style>
<path id="path3349" class="st0" d="M220.8,419l-78.7,1.7l-13-21.4l-11.7-27.5v-11.8l4.4-20.4V331l11-18.1l-1.5-22l5.9-7.1l7.3-12.6
	l5.9-13.4l19.1-22.8l-3.7-12.6v-9.4l-2.2-3.9l-11.7-7.1l-10.3-8.6l-2.2-1.6l1.5-7.9l-1.5-11l-3.7-8.6l-5.1-9.4v-3.1h5.1l2.9-7.1
	l7.3-6.3l5.9-1.6l2.9-6.3v-7.1l13.9-11l-1.5-18.1l4.4-3.9l8.1-4.7l0.7-8.6h2.9l2.9-4.7h11l12.5-11.7l5.1-1.7l3.7,3.2l5.9-3.2h6.6
	l-4.4,2.4v4.7h6.6l7.3-3.9l7.3,0.8l-2.2,3.1l1.5,7.9l0.7,3.9l5.9,3.1l6.6-1.6l3.7,4.7l2.9,3.9l1.5,2.4l14.7,1.6l2.9,4.7l0.7,3.9
	l5.1,6.3l2.9,4.7l6.6-2.4l3.7,4.7l4.4,4.7l-0.7,6.3l4.4,2.4l2.2-2.4l4.4-1.6l6.6,8.6v12.6l-1.5,4.7l-0.7,7.1l-5.1-3.9l-7.3,6.3
	l-10.3-0.8l-7.3,5.5v3.9l8.1,4.7l3.7,5.5l-4.4,3.9l-1.5,3.9l2.2,7.9l2.2,8.6l2.2,9.4l-0.7,7.1v4.7l3.7,2.4h5.1l4.4-3.1l6.6,1.6v9.4
	l1.5,3.9l5.1,3.1l5.1-3.1l3.7-1.6l2.9-3.9l2.2-3.9l5.1,1.6l2.9-2.4V221l5.9,5.5l8.1,0.8h5.9l4.4,3.1l2.2,6.3l2.2,2.4l6.6,0.8
	l3.7,8.6l2.9,7.9l2.2,6.3l-4.4,1.6l-2.2,5.5l-2.2,6.3l-7.3,0.8l-2.9,4.7L377,291l-11,5.5H358l-9.5,2.4h-13.2h-11l-15.4,20.4
	l-3.7,1.6v5.5l-6.6,6.3l-10.3,6.3h-5.9v5.5l-1.5,3.1l-0.7,8.6h-6.6l-6.6-4.7h-7.3l-8.1,6.3l-3.7,13.4l-1.1,11.1l-3.4,11L220.8,419
	L220.8,419z"/>
</svg>
