<?xml version="1.0" encoding="utf-8"?>
<!-- Generator: Adobe Illustrator 23.0.3, SVG Export Plug-In . SVG Version: 6.00 Build 0)  -->
<svg version="1.1" id="Capa_1" xmlns="http://www.w3.org/2000/svg" xmlns:xlink="http://www.w3.org/1999/xlink" x="0px" y="0px"
	 viewBox="0 0 500 500" style="enable-background:new 0 0 500 500;" xml:space="preserve">
<style type="text/css">
	.st0{fill-rule:evenodd;clip-rule:evenodd;fill:#3E9C79;stroke:#070308;stroke-width:3;}
</style>
<path id="path2272" class="st0" d="M450.5,424.6l-3.1-5.8v-7.4l0.8-11.6v-10.7l-5.4-12.4l-1.5-9.1l-1.5-10.7l-6.9-7.4l-9.3-9.1
	l-5.4-10.7v-9.1v-5.8l1.5-7.4l-6.9-5l-7.7-0.8l-6.2,4.1l-1.5,5.8l-10,9.1l-6.9,5l-6.2,3.3h-6.9l-2.3,5l-6.9,1.7v8.3l-0.8,6.6h-6.9
	l-10-8.3l-7.7-11.6l-8.5-3.3l-2.3-3.3l-4.6,0.8l-0.8,8.3l-4.6,7.4l3.9,1.7v5.8l2.3,1.6l3.1-2.5l1.5,5l4.6,4.1l-138.8-1.7l-4.6-3.3
	l-5.4,0.8l-4.6-2.5l-5.4-1.6l-5.4,2.5l-2.3,3.3l-14.6-0.8l-4.6,3.3l-7.7-3.3l-6.9-3.3l-8.5,0.8l-5.4-4.1l-6.9-8.3l-8.5-3.3v-8.3
	l6.9-8.3l2.3-13.2l10.8-8.3v-5l-3.1-5.8l-7.7,1.7l-3.9-1.7l-4.6,4.1l-9.2-2.5l-7.7,6.6l-3.9-6.6L65.8,290l-3.9-3.3l-6.2,1.6
	l-2.3-4.1l-3.9-1.7l-3.9-6.6l-13.1-21.5h-5.4l-2.3-5l36.2-24.8l16.2-5.8l2.3-5.8l10-3.3l0.8-4.1l-3.1-6.6l-3.9-8.3l-2.3-2.5l4.6-2.5
	l3.1-8.3l5.4-2.5l6.9,1.6l2.3-1.6v-7.4l4.6,0.8v-4.1l-4.6-4.1l-1.5-5l3.9-2.5h5.4l4.6,5l6.2-1.6l3.1-4.1l-0.8-5.8h6.9l1.5-5l0.8-4.1
	l3.1-3.3l27.8-4.1l3.9-5l3.9-5h6.9l16.2-4.1l3.9-1.7l5.4,0.8l3.1-3.3l5.4,5.8l12.3,2.5l9.2-4.1h15.4l1.5-4.1l3.9-2.5l6.9-1.7
	l13.9-0.8h6.2l3.1-2.5l10.8-7.4l1.5-7.4l6.2-2.5l1.5-3.3l0.8-5.8l10-0.8l13.1,3.3l3.1,1.7l5.4-2.5h5.4l2.3,5.8l7.7,5.8l6.9-8.3
	l6.2-4.1l4.6,0.8l3.9-6.6l3.9,9.9v5l5.4,6.6l1.5,13.2h3.9l8.5-2.5l5.4,5.8l10.8,31.4l8.5,5l-2.3,5.8l-1.5,5l-5.4,3.3v7.4h-3.9
	l-3.1,5.8l-44.7,40.4l-1.5,10.7l4.6-5l6.9-0.8l0.8-2.5l11.6,7.4l3.9-4.1l7.7,19l6.2-0.8l21.6,26.4l10,9.1l2.3,7.4l-4.6,7.4l4.6,13.2
	l7.7,4.1l3.9,9.9l-4.6,7.4l5.4,6.6l3.1,19l11.6,22.3l0.8,7.4l2.3,10.7l6.2,9.9l-2.3,9.9l3.9,8.3l-8.5,4.1l-8.5-0.8L450.5,424.6
	L450.5,424.6z"/>
</svg>
