<?xml version="1.0" encoding="utf-8"?>
<!-- Generator: Adobe Illustrator 23.0.3, SVG Export Plug-In . SVG Version: 6.00 Build 0)  -->
<svg version="1.1" id="Capa_1" xmlns="http://www.w3.org/2000/svg" xmlns:xlink="http://www.w3.org/1999/xlink" x="0px" y="0px"
	 viewBox="0 0 500 500" style="enable-background:new 0 0 500 500;" xml:space="preserve">
<style type="text/css">
	.st0{fill-rule:evenodd;clip-rule:evenodd;fill:#C4DCD1;stroke:#070308;stroke-width:3;}
</style>
<path id="path2281_1_" class="st0" d="M455.1,211.8l-5.2,3.6l-4.5,5.6l-5.2,1.6l-7.9,2.8l-9.7,5.2l-4.9-0.8l-5.2,5.6l-6,4h-5.6
	l-5.6,3.2l-4.1-2l-1.1-4l-8.6,0.4l-5.2,2l-9.7-1.2l-6.4-0.8l-3-3.2l0.4,5.2l1.1,5.6l-7.9,2.8l-12.3,6l-10.1,5.2l-5.2,6.4h-3.7
	l-0.8-3.6l-5.6-5.2l-3.4,0.4l-0.7,4.8l-5.2,6.8l-4.9,9.6v13.6l-4.5,9.2l-0.4,5.6l-1.1,3.2l-5.6,6.8l-0.7,8.4l3,4l3.7,5.6l-0.4,4
	h-2.2l-7.9-2l0.4,6.4l-1.9,4.4l-3.7,3.2l-4.9,3.6l-5.2-1.6l-3.7,1.6l-0.7,3.6l-2.6,2l-0.7,7.6l-4.9,2l-2.6,4.4l-17.9,17.2l-5.2,2.8
	l-4.5-7.2l-1.5-4.8l-4.1-0.4l-6.4,4l-2.2,5.2l-3-5.6V378l-4.1-1.2l-2.6-0.8l-3-4.8l-0.4-4l-4.9-2l-1.1-4.4c0,0-5.2,0-5.2-1.6
	s-0.4-4.8-0.4-6.4s-3.4-8-3.4-8l-7.5-3.6l-7.5-6.8l-6.7-4.4l-4.9-1.2l-4.1-2.4l-1.9,3.6l-4.9,2.8l-0.4-4.8l-4.5-1.2l-4.9,2.4
	l-3.7,8.8l0.4,5.2v5.2l-5.6,2l-9,6.8c0,0-4.9,6.8-4.9,6.8l-6.4-3.2l-7.5-3.6l-3-7.6l-15.7-8l-7.8-10.4l-4.1-8l-1.1-10.4l-10.8-11.2
	l-10.1-12.8l-1.5-6.4l0.4-7.6l0.7-95.3l5.6,5.6l7.9-4.4l10.1,3.2l4.9,1.2l6-0.4l4.1,1.6l4.5-6.8l-4.5-2.4l-1.1-7.2l6.7-1.2l7.1,5.6
	l8.2,2l8.2,0.4l12-6.8l-3-6.4l8.6-6l6.4-5.6l7.9,2.8l4.9-6.8l4.1,4.4l3-2.4l6.4,2.4l0.4-6l7.1,2.8l1.5-6.8l2.2-3.2h10.5l4.9-7.2
	l2.6-2.8l10.5-2l5.6,7.2h4.9l-2.6-7.6l-0.4-6l5.2-5.2l9.3,8.8l7.1,2.8l5.6-1.6l9.7-0.8l4.5,2.4l2.6-3.2l0.7-3.2l7.1-3.6l7.5,1.2
	l4.9,4.4h7.5l3-7.2l8.2,5.2l6.4-1.2l6.4,2.8h6.7l2.6-4.4v-5.2l0.4,8.4l6,0.8l7.5-5.2l6.7,4l6.4-4.8l3.4,5.2h15l0.7,2.8l3,2.8
	l6.4,1.2l1.9,2.8l1.1,2.8l7.1,2l6.7-1.2l6.7-4.4l4.5-4.4h2.2l3,2l3.4,3.6l-35.9,24l1.5,5.6h6l17.6,29.2l4.1,1.2l2.2,4.8l6-2.4l4.1,4
	l11.6-2.8l4.9,7.2l1.5-2.4l5.6-4.8l10.1,2.4l4.5-4.8l4.1,2.4l7.5-2l4.1,6l-0.7,6l-10.8,7.6"/>
</svg>
