<?xml version="1.0" encoding="utf-8"?>
<!-- Generator: Adobe Illustrator 23.0.3, SVG Export Plug-In . SVG Version: 6.00 Build 0)  -->
<svg version="1.1" id="Capa_1" xmlns="http://www.w3.org/2000/svg" xmlns:xlink="http://www.w3.org/1999/xlink" x="0px" y="0px"
	 viewBox="0 0 500 500" style="enable-background:new 0 0 500 500;" xml:space="preserve">
<style type="text/css">
	.st0{fill-rule:evenodd;clip-rule:evenodd;fill:#C2323B;stroke:#070308;stroke-width:3;}
</style>
<path id="path3508" class="st0" d="M303.3,279.4l-5,14.9l-4,8.5l-6,7.5l-10,11.7l-9,5.3l-4,11.7l-11,14.9l-2,11.7l-7,11.7h-11
	l-12,12.8l-4,14.9l-12,3.2l-5,14.9l-10,12.8l-10,11.7l-10,8.5l-12.9,2.1l-4-6.4l-10-2.1l-3,4.3l-8,1.1l-5-1.1v-7.5l-6-7.5l-8,2.1
	l-12-2.1l-1-6.4l-5-3.2l3-8.5l-1-12.8l-5-13.9l-9,2.1l-12-4.3v-20.3l2-10.7l-6-5.3l3-1.1v-10.7l9-3.2l12,2.1l-1-10.7l8,11.7l8,3.2
	l10-3.2l1-10.7l-9-13.9l-1-8.5l11,3.2l-1-3.2l6-4.3v-11.7l8-3.2l11,6.4l5,2.1l7-1.1l5-8.5l5-4.3l3-5.3v-5.3h7l10,5.3l8,10.7v5.3
	l7-6.4l8-2.1v-8.5l-10-13.9v-11.7l-13.9-18.1l2-24.5l-5-9.6l3-8.5l10,1.1l7-5.3l9-11.7h9l28.9-26.7l-3-11.7l4-4.3l13.9-8.5l5-14.9h7
	l6,2.1h7h6l5,6.4l5-3.2l3-5.3l7,4.3l5-6.4l8,1.1l9-3.2l8,5.3l-10,12.8v9.6l22.9,3.2l12-11.7l6-11.7l11-6.4l4-5.3l-7-6.4l5-7.5l3-4.3
	l-4-8.5l5-4.3h12.9V61.8L422.8,48v-7.5l6-3.2l5,7.5l-2,9.6l-1,10.7v18.1l-17.9,6.4l-5,25.6l1,19.2l-10,13.9l-6,18.1l-16.9,5.3
	l-20.9,24.5l8-3.2l-11,9.6l1,8.5v9.6l-8,5.3l-6,5.3l-1,14.9l-1,12.8L323.2,273l-12.9,6.4L303.3,279.4L303.3,279.4z"/>
</svg>
