<?xml version="1.0" encoding="utf-8"?>
<!-- Generator: Adobe Illustrator 23.0.3, SVG Export Plug-In . SVG Version: 6.00 Build 0)  -->
<svg version="1.1" id="Capa_1" xmlns="http://www.w3.org/2000/svg" xmlns:xlink="http://www.w3.org/1999/xlink" x="0px" y="0px"
	 viewBox="0 0 500 500" style="enable-background:new 0 0 500 500;" xml:space="preserve">
<style type="text/css">
	.st0{fill-rule:evenodd;clip-rule:evenodd;fill:#C85633;stroke:#070308;stroke-width:3;}
</style>
<path id="path3250" class="st0" d="M174.4,449.4l13-18.5l8.8-21.1l10.5-18l8-27.5l8.8-20.7l8.8-13.1l14.7-14l18.1-7.2l10.9-0.9
	l29-55.4l18.1-40.4l45-14.9l31.5-11.2l32.4-13.1l5.9-8.5v-4.9l-2.9-1.3v-6.3h6.7l3.4,3.6l2.9-3.6l4.2-4.1l8-5.4l6.3-3.6l5-4.1
	l3.4-3.6v-6.7l-6.7-11.3l-7.6-12.1l-5.9-10.3L451,76.1l-10.5-5.8l-7.1-0.5l-4.6-2.3l-5.1-2.3h-8.8l-3.8-3.1l-2.1-4.5l-3.4-1.3
	l-3.8-1.9h-13l-8.8-4h-8.4l-7.6,3.6l-0.4,2.7l3.8,0.5l5.9-1.3l3.8,0.4l-0.8,1.3l2.9,0.4l-0.4,5h-5l-2.5,0.4l-1.7,4.5l-2.9-0.9
	l-0.8-3.6l-2.1-1.9l-3.4,2.8l0.4,5.9l-1.7,3.1l-7.1,5.9l-4.6-1.7l-1.3-11.7l-12.2,12.6l-5.5,5.5l-3.4,4l5.9-2.3l5.9,0.9l1.3,4.5
	l3.8,4v5.5l-5.9,1.7l-5,1.9l-2.1,6.3l-6.7,0.4l-5-2.7l1.7-5.5l-0.4-2.7l2.9-1.7l3.4-0.5v-4.4l-1.7-3.2h-5l-4.6,1.7l-2.9,0.5h-5.5
	h-3.8l-0.8,3.1h-5l-2.1-2.2h-5.9l-2.1,3.6l-0.8,3.1h5l1.7,4.5l0.4,15.7l-2.5,5.9l-2.5,12.6l-7.6,15.7l-9.2,8.6l-15.6,11.6l-15.1,8.1
	l-16.4,4.9l-17.7,2.3l-20.6,6.8l-9.3,5.9l-17.2,17.9l-7.1,6.4l-8,4l-5.9,4.9l-8,7.2l-9.2,10.8l-8.4,3.2l-5.5,5.9l-6.3,8.5l-9.7,6.3
	l-7.6,4.9l-19.3,0.9l-25.2,1.7l-5,10.8L26,304l-0.8,8.5l-0.4,9l-1.7,7.2l-0.8,10.4l0.8,7.6l2.1,6.8l5,5.4l1.7,6.4v4.4l7.2-0.8
	l12.6-3.6l14.7-3.6h10.5h9.7l5,0.8l3.4,4.5v6.3l0.4,3.2l-2.1,6.8l-1.7,6.3l2.9,0.9l5.9-5.5l1.7-4l5.9,6.7l3.4,9.1l5.9,0.9l7.6,6.3
	l3.4,9l-2.9,9.1l-2.9,4l-5.5,5.9l-3.8,4l-0.4,3.6l0.8,2.8l2.5,3.1l0.4,4.5l8.4-6.3h10.1l5.5,2.7l3.4,5.4l7.6-0.8l8-1.9L174.4,449.4
	L174.4,449.4z"/>
</svg>
