<?xml version="1.0" encoding="utf-8"?>
<!-- Generator: Adobe Illustrator 23.0.3, SVG Export Plug-In . SVG Version: 6.00 Build 0)  -->
<svg version="1.1" id="Capa_1" xmlns="http://www.w3.org/2000/svg" xmlns:xlink="http://www.w3.org/1999/xlink" x="0px" y="0px"
	 viewBox="0 0 500 500" style="enable-background:new 0 0 500 500;" xml:space="preserve">
<style type="text/css">
	.st0{fill-rule:evenodd;clip-rule:evenodd;fill:#1E93D1;stroke:#070308;stroke-width:3;}
</style>
<path id="path3300" class="st0" d="M325.4,478.4h-17.9l-9-5.3h-13l-6-5.3l-11-17.1l-14.9-8.5l-4-5.3l-14-2.1l-9-4.3l-6-4.3l-8,4.3
	l-9-7.5c0,0,0-9.6-4-13.9c-4-4.3-11-8.5-11-8.5v-9.6L173,392l-8-5.4v-12.7l5-11.7l-1-8.6l-7-6.3l-1-9.7l1-7.4l-7-12.7l-5-5.4v-17
	l10-6.4l3-6.3l-6-9.6l-7-6.4l-5-6.4h-7v-8.6l9-17l7-17l6-15v-9.6l9-12.7l9-5.4l-2-11.7c0,0-4,1.1-4-6.3c0-7.5,5-13.9,5-13.9l3-15
	l-5-3.2l1-13.9l-1-12.9l-9-8.5l-9-13.9l8,2.1l31.9,14.9l24.9,7.4l24.9-2.1l11-8.5l7-8.6l-2-8.6V60.2l-4-6.3l5-6.4l3-8.6l1-4.3h7
	l3-7.4h9v2.1l6-2.1l5-4.3l24.9,12.9l20.9,8.6l19.9-1.1h13.9l-2.2,9.6l-6.6,6.7l-3.2,10.4l1,6.3l-3,13.9v10.7l3,9.6l6,9.6v6.4l-6,5.3
	l-3,4.3v4.3l9-7.4l6,2v6.4l-6,9.6l-3,13.9l3,10.7l3,6.4l-6,3.2l-2,10.7l-11.6,0.5l-9.5,12.3l-14.3-0.8l-11,2.9l-9.6,12l-1.4,5.8
	l-12.3,9.9l-6,19.2l-2,12.9l7.4,14.9l11.8,15.6l7.7,1.4l-0.9,5.3l10.9,10.7l4,6.4l-1,9.6l6,10.7l7,8.5v7.5h-5l-8-2.1l-7,4.2h-8l-7-2
	l-5-2.1h-6l-6,6.3v6.4l-12,10.7l11,6.3l8,6.4l13,17.1v6.4v10.7l2,9.6l8,1.1l5,3.2l-1,9.6l6,4.3l6,8.5l-3,6.4v5.3L325.4,478.4
	L325.4,478.4z"/>
</svg>
