<?xml version="1.0" encoding="utf-8"?>
<!-- Generator: Adobe Illustrator 23.0.3, SVG Export Plug-In . SVG Version: 6.00 Build 0)  -->
<svg version="1.1" id="Capa_1" xmlns="http://www.w3.org/2000/svg" xmlns:xlink="http://www.w3.org/1999/xlink" x="0px" y="0px"
	 viewBox="0 0 500 500" style="enable-background:new 0 0 500 500;" xml:space="preserve">
<style type="text/css">
	.st0{fill-rule:evenodd;clip-rule:evenodd;fill:#81AE38;stroke:#070308;stroke-width:3;}
</style>
<path id="path3459" class="st0" d="M182.8,350.1l-1.6,90.3l-4.1-5.2l-8.9,3.5l-4.9-1.7l-6.5,2.6l-6.5,6.1l-7.3-0.9l-5.7-10.4
	l-7.3-2.6l-6.5-3.5l-4.9-8.7h-7.3L96,417l-8.1-3.5l-9.7-11.3l-2.4-13l0.8-12.2l-6.5-13.9v-12.2v-8.7L65.2,331l4.1-10.4l7.3-6.1
	l-0.8-12.2l-7.3-8.7h-4.9l-7.3-7.8l-5.7-0.9l-5.7-5.2l-7.3,1.7l12.2-12.2l11.4-5.2l4.9-10.4l5.7-9.6v-13.9l3.2-14.8l10.5-5.2
	l0.8-12.2l7.3-1.7v-6.1l5.7,0.9l6.5-10.4l5.7-15.6l7.3-6.9l14.6-0.9l0.8-5.2l6.5-4.3l9.7,0.9l6.5-7.8l11.4-5.2l2.4-3.5l-2.4-6.9
	l-4.9-1.7l3.2-2.6l-2.4-5.2l-4.1-5.2l5.7-3.5l3.2-2.6l1.6-6.9l13.8,2.6l3.2,7.8l0.8,10.4l1.6,6.9l8.9-1.7l8.9-1.7l7.3,1.7l13,6.1
	l6.5,3.5l3.2,3.5l2.4-8.7l-1.6-7.8l6.5-44.3l2.4,2.6l8.9,17.4l5.7,6.9l9.7,10.4l3.2,6.1l2.4,6.9l11.4,0.9l1.6-5.2h9.7l4.9-4.3
	l8.1,6.9l3.2-4.3h7.3l6.5-8.7h4.9l1.6-5.2l16.2,4.3l4.1,5.2l9.7-4.3l10.5-10.4l4.9-5.2l6.5-5.2h10.5L411.6,79l16.2-2.6l9.7-9.6
	l8.9-3.5l11.4-6.9l7.3-6.1v237.1l-7.3,5.2l-4.9-3.5l-7.3,4.3H440l-0.8-8.7c0,0,0.8,9.6-2.4,9.6h-6.5l-5.7-2.6h-6.5l-7.3-3.5
	l-3.2,6.1h-7.3l-4.9-4.3H388l-5.7,2.6l-2.4,6.1l-4.9-2.6l-9.7,0.9l-4.9,1.7l-7.3-2.6l-8.9-7.8l-4.9,5.2v5.2l2.4,6.9h-4.9l-4.9-6.9
	l-5.7,0.9l-4.1,0.9l-4.1,4.3l-2.4,6.1h-10.5l-2.4,2.6l-0.8,5.2l-6.5-1.7l-0.8,6.1l-6.5-2.6l-2.4,1.7l-4.1-3.5l-4.9,6.1l-7.3-1.7
	l-7.3,5.2l-6.5,6.1l1.6,5.2l-9.7,6.9h-8.9l-7.3-2.6l-7.3-5.2l-5.7,1.7l0.8,6.9l4.1,1.7l-4.1,5.2l-4.9-0.9h-7.3l-12.2-3.5l-8.1,4.3
	L182.8,350.1L182.8,350.1z"/>
</svg>
