<?xml version="1.0" encoding="utf-8"?>
<!-- Generator: Adobe Illustrator 23.0.3, SVG Export Plug-In . SVG Version: 6.00 Build 0)  -->
<svg version="1.1" id="Capa_1" xmlns="http://www.w3.org/2000/svg" xmlns:xlink="http://www.w3.org/1999/xlink" x="0px" y="0px"
	 viewBox="0 0 500 500" style="enable-background:new 0 0 500 500;" xml:space="preserve">
<style type="text/css">
	.st0{fill-rule:evenodd;clip-rule:evenodd;fill:#349742;stroke:#070308;stroke-width:3;stroke-miterlimit:10;}
</style>
<g id="g2382" transform="matrix(.23392 0 0 .25048 -162.34 -211.19)">
	<path id="path2344" class="st0" d="M1964.1,2443.3l22.5-51.8l-37.5-37.8l-82.6,25.9l-112.7,22.9l-67.6-52.8l-63.9-44.8l-90.2-56.7
		l-22.5-37.8h-60.1l-67.6-51.8l-3.8-45.8l-48.8-14.9l-75.2-4c0,0,18.8-17.9-30.1-55.7s-75.2-71.7-75.2-71.7s-18.7-14.9-41.3-33.8
		c-22.5-18.9-63.8-48.8-63.8-48.8V1846l-52.7-25.9l-41.3-25.9l-15-37.8l52.7-48.8l67.6-86.6l60.1,14.9h63.8h71.4l15,14.9l37.5-37.8
		l-14.9-59.7h-33.8v-37.8l-26.3-29.8l-7.6-48.9l45.1,22.6l26.3-45.1l7.6-63.9v-37.5l-33.8-3.8v-37.5l-18.8-15h-22.5l7.5-45.1
		l30.1-22.5l3.8-52.6l22.6-18.8h48.8l48.9-26.3l3.7-33.8l22.6,30.1l18.7,22.5l15-33.7l7.6-18.8l33.8,33.8l3.7-22.6l18.8,7.6
		l18.8-22.6l26.3-33.7v-22.6l48.8-3.7l26.3,45l11.3,37.6l30.1-15v-18.8l30-18.8v-33.7l3.8-18.8h11.2l15,41.3v22.6l90.2,105.1
		l30.1,56.3l56.3,52.7l15,26.3l7.5,37.5l56.3,18.8l15,26.3l52.7-7.6l48.8-11.2l45.1-15l41.3,33.8l11.2,33.8v26.3v15l67.7,56.4
		l18.7,4l26.3,44.8l-22.5,33.8l-26.3,18.9l-41.3,25.9l3.7,14.9l11.3,37.8l-11.3,33.8l-26.3,22.9l41.3,7l33.8,11l30.1-25.9l45.1,18.9
		l45.1-14.9l48.8-26.9l41.3,15.9l37.6,29.9l30,14.9l41.4,14.9l-7.6,67.7l-37.5,18.9l-3.8,40.8l18.8,41.8l30.1,29.9l-3.8,25.9
		l-37.6,8l18.8,4l-7.5,11h-45.1l-22.6,40.8h-30l-48.9,18.9l-11.2,11.9l7.5,48.8l-22.5,36.8l15,37.8l26.3,18.9l-3.8,25.9l7.6,37.8
		l-18.8,26.9l-33.8,44.8l-7.5,14.9l-63.9,67.7l-11.2,11v18.9l45.1,48.8l18.8,48.8l37.5,60.7v74.7h-45.1l-18.7,8l-37.6,7l-41.3-7
		l-26.3-18.9H2182l-7.6,18.9l-26.3-48.8h-22.5l-22.6-41.8l-22.5-44.8l11.2-33.8l7.5-26.9l-37.5-14.9l-41.3-11l-30.1-25.9
		L1964.1,2443.3L1964.1,2443.3z"/>
	<path id="path2352" class="st0" d="M1220.6,1490.6l-2.3-41.3l-16.2,4.6v25.6L1220.6,1490.6z"/>
	<path id="path2354" class="st0" d="M1211.3,1423.8l41.7,16.2l7-23.2l-7-30.2l-34.7-9.3v-2.3l-16.2,25.5
		C1202.1,1400.6,1211.3,1423.8,1211.3,1423.8z"/>
	<path id="path2356" class="st0" d="M1264.7,1379.7l-27.9-13.8l-25.5-11.6l-2.3-16.2h41.7l20.9,18.5
		C1271.7,1356.5,1264.7,1379.7,1264.7,1379.7z"/>
	<path id="path2358" class="st0" d="M1285.5,1354.2l-37-25.5l-46.4,2.3l-27.8,2.4l4.6-37.1l30.2-13.9l16.2-11.5l25.5,16.2l-2.3,34.7
		l39.4,2.4C1287.9,1324.1,1285.5,1354.2,1285.5,1354.2z"/>
	<path id="path2360" class="st0" d="M1401.5,1059.8l-23.2-16.2v25.5h-25.5l-11.6-16.2l25.5-25.5l9.4-25.5l27.8,9.3l-2.3,18.5
		l16.2,16.2L1401.5,1059.8z"/>
	<path id="path2362" class="st0" d="M1501.1,1052.8h-25.5l-23.2-7v-20.8l37-18.5l34.8,11.5l-2.4,16.2L1501.1,1052.8L1501.1,1052.8z"
		/>
	<path id="path2364" class="st0" d="M1519.6,999.6l-30.2-4.7l-18.5-18.5l37.1-4.7l39.4,4.7L1519.6,999.6L1519.6,999.6z"/>
	<path id="path2368" class="st0" d="M1429.2,1083l7-37.1l4.6-39.3l20.9-4.7l-11.5-18.5l-39.4,18.5l2.3,27.8l11.5,11.6L1429.2,1083z"
		/>
	<path id="path2370" class="st0" d="M1579.9,957.9l-18.5,4.6l9.3,16.2l7-4.6C1577.6,974.1,1579.9,957.9,1579.9,957.9z"/>
	<path id="path2374" class="st0" d="M1607.7,946.2l-16.2-7v27.9l20.8-2.3C1612.3,964.8,1607.7,946.2,1607.7,946.2z"/>
	<path id="path2376" class="st0" d="M1647.2,992.6l-7-16.2l-16.2,7l9.3,20.8h11.5L1647.2,992.6L1647.2,992.6z"/>
	<path id="path2378" class="st0" d="M1647.2,1048.3l18.5-32.5l20.9,2.3v-30.2l-2.4-16.2l-18.5,20.9l-18.5,20.8l-9.3,4.7
		L1647.2,1048.3L1647.2,1048.3z"/>
</g>
</svg>
