<?xml version="1.0" encoding="utf-8"?>
<!-- Generator: Adobe Illustrator 23.0.3, SVG Export Plug-In . SVG Version: 6.00 Build 0)  -->
<svg version="1.1" id="Capa_1" xmlns="http://www.w3.org/2000/svg" xmlns:xlink="http://www.w3.org/1999/xlink" x="0px" y="0px"
	 viewBox="0 0 500 500" style="enable-background:new 0 0 500 500;" xml:space="preserve">
<style type="text/css">
	.st0{fill-rule:evenodd;clip-rule:evenodd;fill:#DDAF1E;stroke:#070308;stroke-width:3;}
</style>
<path id="path3365" class="st0" d="M291.1,450.9l-15-1l-6.6-2H263l-9.4-4l-9.4-6l-8.4-4l12.2-13l-3.7-11l-4.7-13l5.6-10l-3.7-12
	l-7.5-7l-3.7-10l-11.2-10l-1.9-9l-0.9-7l-12.2,6l-4.7-2l-10.3-2l-10.3,2l-6.5,5v8h-10.3l-7.5-6h-12.2l-11.2-8l-6.6-9l-2.8-8l8.4,5
	l10.3,1l12.2-18l7.5-10l-5.6-8l2.8-5l7.5-4l2.8,1l3.8-8l-2.8-7l-9.4-4l-5.6-5l-6.6-12v-14v-8l10.3-18l1.9-12l-0.9-6l-5.6-3l-3.8-5
	l-3.7,5l0.9,17.1l-6.6,3l-4.7-3l-3.8-9l3.8-7v-9h-5.6l-4.7-14v-7l3.8-11l10.3-3v-13l6.6-12l-2.8-14l-0.9-7l3.7-17l-0.9-12l3.8-13
	l12.2-1l6.5,1l28.1-12l7.5-10l6.5-2l11.2,8l3.7,7v17l7.5,4l5.6-7h8.4l11.2,3l-1.9,11l4.7,11l4.7,16l6.6,27.1l5.6,16l-0.9,11h7.5
	l4.7,7l16.9,22.1l18.7,16l2.8,19.1l-1.9,18v15l2.8,8l-6.6,8l-12.2,5l0.9,14l3.7,10l-6.6,17.1l-0.9,9l3.7,18v18l4.7,7l1.9,9v3l6.6-3
	l13.1,8l3.7-4l10.3-3l12.2,14l-1.9,15l18.7,38.1l-8.4,3l-5.6,1l-3.7-6l-5.6,1v6l-1.9,7h-5.6l-5.6-2l-1.9,9l-3.7,6l-6.6,3l-13.1,2
	l-4.7-3l-3.7,7l-4.7-6l-8.4-1l-2.8-7l2.8-3C294.8,457,291.1,450.9,291.1,450.9z"/>
</svg>
