<?xml version="1.0" encoding="utf-8"?>
<!-- Generator: Adobe Illustrator 23.0.3, SVG Export Plug-In . SVG Version: 6.00 Build 0)  -->
<svg version="1.1" id="Capa_1" xmlns="http://www.w3.org/2000/svg" xmlns:xlink="http://www.w3.org/1999/xlink" x="0px" y="0px"
	 viewBox="0 0 500 500" style="enable-background:new 0 0 500 500;" xml:space="preserve">
<style type="text/css">
	.st0{fill:#972927;}
	.st1{fill:none;stroke:#000000;stroke-width:3;stroke-miterlimit:10;}
	.st2{fill:#972927;stroke:#000000;stroke-width:3;stroke-miterlimit:10;}
</style>
<g id="g5782">
	<g id="g3">
		<g>
			<g id="XMLID_1_">
				<g>
					<path class="st0" d="M397.3,341.9c-0.3,0.4-0.8,0.6-0.8,1.1c0,0.4,0.3,0.6,0.3,0.9v4.4c0,0.8,0.3,1.3,0.3,2.1v4.2
						c0,1-0.2,1.5-0.2,2.5c-0.1,1.1,0.4,2-0.4,2.8c-0.5,0.6-1.2,0.5-2,0.5h-0.6c0,0.2-0.1,0.3-0.1,0.5c0,0.4,0.4,0.3,0.7,0.6
						c0.8,0.9,1.9,1.3,1.9,2.6c0,1-0.2,1.5-0.2,2.5c0,0.4,0.2,0.6,0.3,1c0.2,0.7,0,1.2,0.4,1.8c0.4,0.5,1,0.2,1.5,0.6
						c0.7,0.6,0.3,1.6,0.6,2.5c0.2,0.6,0.5,1,0.5,1.6v1.1c-0.9,0.1-1.4,0.2-2.3,0.3c-0.5,0.1-1.1,0.3-1.1,0.8c0,0.8,0.3,1.2,0.3,2
						c0,0.8-0.8,1-1.4,1.4c-1,0.6-1.8,0.9-2.3,1.9c-0.3,0.5-0.1,1.1-0.5,1.6c-0.6,0.8-1.8,0.6-2.3,1.5c-0.2,1.2,0,1.9,0,3.1
						c-1,1-2.6,0.9-2.6,2.3v0.9c0,0-0.7,1-0.7,1.8c0,0.7,0.7,0.8,1.3,1.3c0.8,0.8,0.8,1.7,1.5,2.5c0.5,0.7,0.7,1.2,1.3,1.6
						c0.8,0.5,2,0.5,2,1.5c0,0.9-0.7,1.5-1.6,1.8c-0.9,0.3-2,0.2-2.3,1.2c-0.5,1.7-1.2,2.6-1.9,4.3l-0.9,1.8l5.5,14.2l1.5,0.9
						c1.3,0,2.1-0.4,3.3-0.2l3.2,2.6c-0.4,0.5-1.2,0.7-1.9,0.9c-0.8,0.3-1.5,0.9-1.9,1.7c-0.4,0.7-0.8,1.7-0.9,2.5l-0.4,1
						c0,1,0.4,1.9-0.2,2.7c-0.7,0.9-1.8,0.2-2.8,0.7c-0.7,0.3-0.5,1.1-0.7,1.8c-0.2,0.7-0.7,0.9-1.2,1.4c-0.5,0.5-0.7,1-1.1,1.5
						c-1.6,1.8-2.3,3.1-4.3,4.4c-1.4,0.9-1.6,2-3.7,2.7c-0.4,0.1-0.7,0.5-0.8,0.9c0,0.6,0.5,0.8,1,1.1c0.6,0.4,0.7,0.9,1.1,1.4
						c0.3,0.3,0.5,0.6,0.4,1v2.1l0.3,1.2c-0.6,1.5-1.9,1.8-3.4,2.5c-0.7,0.4-1,1-1.9,1.1h-1.5c-0.6,0-1.1,0.3-1.2,0.8
						c-0.1,0.3,0.1,0.6-0.1,0.9c-0.1,0.3-0.5,0.5-0.5,0.8c0,0.4,0.5,0.4,0.8,0.7c0.6,0.7,0.8,1.3,0.8,2.2c0,1.1,0.2,1.8,0.2,2.9
						c0,1.4-0.7,2.1-1.5,3.2c-0.4,0.5-0.7,0.8-1,1.3c-0.2,0.5-0.2,1-0.7,1.3c-2,1-3.3,1.2-5.5,1.4c-0.5,0.1-0.8,0-1.2,0.2
						c-0.3,0.1-0.6,0.4-0.6,0.4h-1.6c-0.7,0-1-0.5-1.7-0.5c-0.4,0-0.7,0.5-0.9,0.7c0,0,0,0,0,0c-0.8-0.7-1.3-1-2.1-1.8
						c-0.5-0.5-0.6-1-1.3-1.3c-0.4-0.2-0.8-0.1-1.2-0.2c-0.2-0.1-0.3-0.2-0.6-0.3c-0.5-0.2-0.8-0.2-1.2-0.6
						c-0.6-0.6-0.9-1.1-1.7-1.3c-0.9-0.7-1.4-1.1-2.2-1.9c-0.3-0.4-0.9-0.3-1.1-0.7c-0.1-0.3-0.1-0.5-0.2-0.7
						c-0.4-0.8-1.1-0.8-1.8-1.4c-0.7-0.6-1.2-1.1-2.1-1.1c-0.8,0-0.8-1-1.5-1.4c-0.8-0.4-1-1-1.8-1.4c-0.8-0.4-1.3-0.7-2.1-1.2
						c-0.6-0.4-0.7-0.9-1.7-0.7c-0.3,0.1-0.5-0.1-0.5-0.4c0-0.4,0.2-0.6,0.2-1v-1.7c0-0.9-0.1-1.4-0.3-2.3c-0.1-0.3-0.2-0.5-0.3-0.8
						c-0.1-0.5-0.1-0.7-0.3-1.1c-0.5-0.9-1.3-1-1.9-1.9c-0.2-0.3-0.3-0.6-0.6-0.7c-0.6-0.2-1.1,0.1-1.6-0.2c-0.5-0.3-0.6-0.7-1-1
						c-0.5-0.3-0.9-0.2-1.5-0.4c-0.5-0.2-0.8-0.2-1.3-0.3c-0.7-0.2-1.1-0.5-1.8-0.7c-0.5-0.1-1-0.1-1.3-0.6
						c-0.4-0.5-0.4-0.9-0.9-1.3c-1-0.7-1.3-1.6-2.5-1.9c-1-0.2-2.6,0.1-2.6-0.9c0-0.6-0.4-1-0.9-1.3c-0.6-0.4-0.9-0.7-1.6-1
						c-0.6-0.2-1.3-0.1-1.4-0.7c-0.2-0.7-0.3-1.1-0.7-1.7c-0.4-0.5-0.8-0.7-1.4-1c-0.8-0.4-1.2-0.7-2.1-1.1c-1.3-0.6-2-1-3.3-1.2
						c-0.6-0.1-0.9-0.1-1.6-0.1c-0.8-0.1-1.2-0.3-2-0.3c-1.1-0.1-1.7-0.6-2.4-1.5c-0.3-0.3-0.4-0.7-0.7-0.9c-0.4,0-0.8,0-1.3-0.2
						c-0.2-0.1-0.2-0.3-0.4-0.4c-0.3-0.3-0.6-0.4-1-0.7c-0.6-0.5-1.1-0.5-1.7-0.8c-0.7-0.3-0.8-1.1-1.6-1.1c-0.3,0-0.5,0.1-0.9,0.1
						c-0.4,0-0.6-0.2-0.9-0.4c-0.4-0.2-0.8-0.1-1.2-0.5v-1c0-0.1-0.1-0.3-0.3-0.3c-0.7-0.1-1-0.3-1.5-0.4c-0.8-0.3-1.2-0.4-2-0.6
						c-1.1-0.3-1.6-0.5-2.7-0.9c-0.5-0.2-0.7-0.4-1.2-0.4h-0.9c-0.5,0-0.9,0-1.2-0.4c-0.4-0.3-0.4-0.7-0.9-0.9
						c-0.6-0.2-1-0.1-1.6-0.2c-0.2,0-0.3-0.1-0.5-0.2c-1-0.9-1.7-1-2.7-1.8c-0.5-0.4-0.6-1-1.2-1.3c-0.4-0.3-0.8-0.2-1.1-0.7
						c-0.2-0.4-0.2-0.7-0.4-1.1c-0.3-0.4-0.7-0.5-1.2-0.7c-0.5-0.2-0.7-0.5-1.2-0.7c-0.7-0.2-1.2-0.2-1.9-0.4
						c-0.5-0.2-0.6-0.6-0.9-0.9h-0.8c0,0-1-0.6-1.6-0.9c-0.6-0.2-0.8-0.6-1.2-1c-0.2-0.2,0-0.5-0.1-0.7c-0.1-0.1-0.2-0.1-0.3-0.2
						c-0.9-0.7-1.6-0.9-2.7-1.3c-0.5-0.2-0.7-0.4-1.2-0.6c-0.9-0.4-1.2-0.9-2-1.4c-0.8-0.4-1.3-0.7-2.2-1.1
						c-0.5-0.2-0.7-0.5-1.1-0.7c-0.3-0.2-0.6-0.1-1-0.3c-0.6-0.2-0.8-0.4-1.3-0.8c-0.3-0.2-0.4-0.5-0.7-0.4h-0.8
						c-0.3-0.1-0.4-0.4-0.6-0.6c-0.5-0.5-0.7-0.8-1.4-0.9c-0.6-0.1-0.9-0.3-1.3-0.8c-0.2-0.3-0.8-0.3-0.8-0.7c0-0.3,0.4-0.2,0.6-0.5
						c0.1-0.2,0.1-0.4,0.1-0.6c0-0.6-0.6-0.8-1.2-0.9c-0.4-0.1-0.9-0.1-0.9-0.5c0-0.4,0.9-0.2,0.9-0.7c0-0.5-0.5-0.7-0.9-1.1
						c-0.4-0.5-0.7-0.8-1.4-0.9c-0.7-0.1-1.2-0.1-1.8-0.5c-0.4-0.2-0.4-0.6-0.6-1c-0.2-0.3-0.4-0.5-0.5-0.9c-0.3-0.9-0.6-1.5-1.3-2
						c-0.2-0.1-0.3-0.1-0.4-0.3c-0.1-0.2,0-0.4-0.1-0.6c-0.2-0.4-0.5-0.6-0.9-0.8c-1.4-0.7-2.1-1-3.4-1.8c-1.5-1-2.2-1.7-3.8-2.5
						c-0.7-0.4-0.8-1.1-1.5-1.4c-0.7-0.3-1.2-0.7-1.1-1.4v-0.7c-0.1-0.5-0.4-0.8-0.6-1.2c-0.2-0.3-0.5-0.6-0.5-0.6v-0.8
						c0-0.7-0.5-1-1-1.3c-0.4-0.3-0.6-0.5-0.9-0.9c-0.2-0.2-0.2-0.4-0.4-0.5c-0.3-0.1-0.6-0.2-0.8-0.5c-0.2-0.3-0.5-0.4-0.5-0.7
						v-0.3h0.6v-0.3c-0.3-0.8-0.3-1.5-1-2c-0.6-0.4-1-0.5-1.6-0.9c-0.3-0.2-0.4-0.7-0.8-0.7c-0.3,0-0.3,0.4-0.5,0.7
						c0,0.1-0.6-1.7-0.7-1.9c0-0.3,0.2-0.3,0.3-0.6c0.2-0.8,0.2-1.2,0.1-2.7c0-0.3,0-0.6,0-0.9c0-0.3-0.1-0.5-0.3-0.7
						c-0.1-0.1-0.1-0.2-0.2-0.2c-0.4,0-0.6,0.3-1,0.3c-0.4,0-0.9,0-0.9-0.5c0-0.5,0.3-0.7,0.3-1.4c0-0.2,0-0.4,0.2-0.5
						c0.2-0.2,0.4,0,0.7-0.1c0.3,0,0.4-0.3,0.6-0.3c0.3,0,0.4,0.3,0.5,0.6c0.1,0.2,0.2,0.4,0.3,0.6l0.1,0c0.2-0.8,0.6-1.2,0.8-2
						c0.3-1.1,0.4-1.7,0.6-2.8c0.4-1.8,0.7-2.8,0.7-4.5c0-0.9-0.8-1.2-1.2-2.1c-0.4-1-0.8-1.5-1.3-2.5c-0.4-0.9-0.7-1.3-1.3-2
						c-0.2-0.2-0.2-0.4-0.4-0.7c-0.7-0.8-1.1-1.2-2-1.8c-1.2-0.7-1.3-1.7-1.6-3c-0.2-0.7-0.5-1-0.7-1.7c-0.1-0.5-0.2-0.7-0.4-1.2
						c-0.1-0.4-0.1-0.7-0.3-1c-0.4-0.5-0.9-0.5-1.4-0.9c-0.4-0.3-0.4-0.7-0.7-1.1c-0.1-0.6-0.3-0.9-0.5-1.5
						c-0.2-0.7-0.3-1.3-0.9-1.6c-0.3-0.2-0.5-0.2-0.7-0.5c-0.2-0.3-0.2-0.6-0.4-0.9c-0.4-0.4-0.7-0.6-1-1.1
						c-0.1-0.1-0.3-0.2-0.3-0.4c0-0.3,0.2-0.4,0.2-0.6v-1.1c0-0.7-0.4-1-0.8-1.5c-0.7-0.8-1.2-1.1-2-1.8c-0.6-0.5-1-0.7-1.8-1.1
						c-0.5-0.2-0.7-0.5-1.1-1c-0.1-0.1-0.3-0.2-0.3-0.3v-0.6c0-0.9-0.2-1.5-0.7-2.2c-0.5-0.7-1.2-0.9-1.2-1.7V318
						c0-0.7-0.3-1.1-0.7-1.7c-0.5-0.8-0.6-1.3-0.9-2.2c-0.1-0.2-0.3-0.3-0.3-0.5c0-0.4,0.7-0.3,0.7-0.6c0-0.9-0.4-1.4-0.9-2.1
						c-0.1-0.1-0.2-0.3-0.3-0.4c-0.1-0.1-0.2-0.2-0.3-0.4c-0.3-0.7-0.8-0.8-1.2-1.4c-0.2-0.3-0.1-0.7-0.2-1.1
						c-0.1-0.3-0.3-0.4-0.6-0.6c-0.6-0.5-0.9-0.8-1.4-1.4c-0.4-0.4-0.7-0.3-1.2-0.6c-0.8-0.5-1.1-0.7-1.9-1.2
						c-0.9-0.5-1.4-0.8-2.3-1.2c-0.7-0.3-1.2-0.4-1.5-1.1c-0.2-0.5-0.2-0.8-0.2-1.3c0-0.5,0.4-0.7,0.9-0.8v-0.5c0-0.7-0.3-1-0.4-1.7
						c-0.1-0.6-0.1-0.9-0.3-1.5c-0.1-0.3-0.6-0.4-0.6-0.8c0-0.3,0.2-0.4,0.2-0.7c0-1-0.5-1.5-1-2.4c-0.2-0.3,0-0.6-0.2-0.9
						c-0.2-0.3-0.4-0.4-0.7-0.5c-0.2-0.1-0.3-0.1-0.5-0.2c-0.5-0.4-0.3-1-0.6-1.6c-0.5-0.9-1-1.4-1.7-2.2c-0.5-0.6-0.9-0.9-1.2-1.7
						c-0.3-1-0.6-1.6-1.5-2.2c-0.3-0.2-0.3-0.4-0.5-0.7c-0.4-0.5-0.7-0.7-0.9-1.3c-0.1-0.5,0-0.8,0-1.3c0-0.3-0.3-0.4-0.6-0.6
						c-0.1-0.1-0.1-0.2-0.2-0.3c-0.1-0.3-0.1-0.6-0.3-0.9c-0.2-0.3-0.5-0.4-0.8-0.7c-0.4-0.4-0.4-0.8-0.6-1.2
						c-0.4-0.9-0.9-1.2-1.4-2.1c-0.2-0.3-0.5-0.4-0.5-0.8c0-0.1,0.1-0.2,0.1-0.4c0-0.7-0.2-1-0.3-1.7c0-0.3,0.1-0.5,0-0.8
						c-0.2-0.5-0.7-0.6-0.8-1.1c-0.1-0.5,0.1-0.8,0-1.3c0-0.4-0.3-0.5-0.3-0.9c0-0.4,0.2-0.5,0.2-0.9c0-1.1-0.8-1.5-1.4-2.3
						c-0.5-0.6-0.7-1-1.2-1.6c-0.6-0.7-0.6-1.4-0.8-2.3c-0.1-0.4-0.2-0.7-0.3-1c-0.1-0.3-0.4-0.4-0.4-0.7v-0.8
						c0-0.3,0.2-0.4,0.2-0.7c0-0.3-0.3-0.3-0.6-0.4c0-0.8,0.1-1.3,0-2.1c-0.8-0.1-1.4,0.3-2-0.3c-0.2-0.2-0.2-0.5-0.4-0.7
						c-0.2-0.2-0.5-0.3-0.5-0.6c0-0.3,0.3-0.3,0.4-0.5c0.2-0.4,0.2-0.6,0.3-1c0-0.2,0.2-0.3,0.2-0.5c0-0.3-0.4-0.3-0.7-0.3
						c-0.2,0-0.3,0-0.5,0.1c-0.5,0.3,0,1.4-0.6,1.4h0c-0.1-0.5-0.1-1-0.6-1.2l-0.2-0.4c0.1-0.3,0.5-0.2,0.8-0.3
						c0.3-0.1,0.4-0.3,0.4-0.6v-0.8c-0.5-0.3-0.7-0.5-1.2-0.7c-0.3-0.1-0.6-0.1-0.8-0.4c-0.3-0.4,0-0.7-0.4-1.2
						c-0.1-0.1-0.2-0.3-0.2-0.5c0-0.3,0.1-0.4,0.1-0.7c0-0.9-0.7-1.3-1.3-2c-0.3-0.4-0.5-0.7-0.7-1.2c-0.2-0.4-0.7-0.5-0.7-1
						c0-0.8,0.6-1.1,0.6-1.9v-1.3c0-1.3-0.8-2-1.6-3.1c-0.7-0.9-1.5-0.8-2.4-1.5c-0.2-0.2-0.4-0.3-0.6-0.5c-0.1-0.1-0.3-0.1-0.3-0.3
						c0-0.4,0.7-0.4,0.7-0.9c0-0.8-0.4-1.3-0.8-2c-0.2-0.3-0.5-0.3-0.5-0.7c-0.3-1.3-0.7-2-1.7-2.9c-1-0.9-2-1.1-2.5-2.4
						c-0.2-0.5-0.3-0.8-0.7-1c-0.7-0.4-1.3-0.5-1.7-1.2c-1.3-1-2.3-1.3-3-2.8c-0.3-0.7-0.5-1.1-1-1.7c-0.3-0.4-0.4-0.8-0.8-1.1
						c-0.3-0.3-0.7-0.3-0.7-0.7c0-0.3,0.3-0.4,0.3-0.7c0-0.7-0.4-1.1-0.7-1.8c-0.7-1.3-1.5-1.7-2.2-3c-0.3-0.5-0.6-0.8-0.6-1.5
						c-0.1-1.3-0.1-2-0.7-3.1c-0.3-0.6-0.3-1.2-0.8-1.6c-0.4-0.3-0.6-0.5-0.9-0.7c-0.2-0.2-0.4-0.3-0.4-0.6c0-0.6,0.2-0.9,0.2-1.4
						c0-1.1-0.6-1.8-1.6-2.5c-0.5-0.3-0.6-0.7-1-1.1c-0.4-0.4-0.9-0.5-1.4-0.6c-0.6,0-0.8-0.4-1.1-0.8c-0.3-0.4-0.6-0.6-0.8-1.1
						c-0.1-0.4-0.4-0.5-0.6-0.9c-0.2-0.5-0.1-0.9-0.4-1.4c-0.1-0.2-0.3-0.3-0.3-0.6c-0.3-0.9-1-1-1.7-1.6c-0.6-0.5-0.9-0.9-1.5-1.5
						c-0.3-0.3-0.6-0.4-1-0.6c-1.2-0.5-1.7-1.1-3-1.6c-2.3-0.8-3.5-1.4-5.8-2.4c-1-0.4-1.7-0.5-2.7-1c-1-0.5-1.3-1.2-2.2-1.7
						c-0.6-0.4-1.1-0.2-1.8-0.4c-0.4-0.1-0.5-0.4-0.7-0.7c-0.9-0.9-1.6-1.2-2.7-1.9c-0.6-0.4-0.9-0.7-1.5-1
						c-0.8-0.5-1.4-0.4-2.3-0.8c-0.2-0.1-0.3-0.3-0.5-0.4c-0.8-0.5-1-1-1.7-1.7c-0.3-0.4-0.5-0.9-0.5-1.4c0-1.4,0.6-2.1,0.7-3.4
						c0.7-0.1,1.1-0.5,1.3-1.1c0.2,0.1,0.4,0.1,0.5,0.3c0.1,0.2,0.1,0.4,0.3,0.5c0.3,0.2,0.5,0.1,0.9,0.2c0.6,0.1,0.9,0.4,1.5,0.4
						c0.7,0,1.1-0.4,1.4-1c0.5-0.8,0.8-1.4,0.8-2.3v-1.2c0-0.9,0-1.5-0.4-2.3c-0.3-0.8-0.3-1.4-0.8-2.1c-0.8-1.3-1.6-1.8-2.6-3
						c-0.7-0.9-1.1-1.7-2.2-1.9c-0.6-0.1-1-0.3-1.3-0.8c-0.3-0.3-0.4-0.5-0.6-0.9c-0.2-0.2-0.6-0.2-0.6-0.5c0-0.5,0.6-0.6,0.6-1.1
						V151l0.3-0.9v-0.6c0-0.2,0.2-0.4,0.4-0.4c0.4,0,0.6,0.1,1,0.1s0.6-0.2,0.9-0.2c0-0.3-0.2-0.5-0.4-0.8c-0.3-0.7-0.6-1.1-1.2-1.5
						c-0.9-0.7-1.1-1.4-1.8-2.2c-0.8-0.9-1.2-1.4-2-2.2c-0.5-0.5-0.8-0.9-1.2-1.5c-0.3-0.4-0.7-0.6-0.7-1.1c0-0.4,0.3-0.5,0.5-0.8
						c0.4-0.5,0.6-0.9,0.6-1.6c0-0.7,0-1.1-0.2-1.8c-0.1-0.3-0.2-0.4-0.2-0.7c0-0.5,0.8-0.5,0.8-1c0-0.3,0-0.5,0-0.9l0.2,0
						c0.1-0.2,0.2-0.3,0.2-0.5v-1.9c0-0.4,0.3-0.6,0.6-0.9c0.1-0.1,0.1-0.3,0.2-0.4c0.6-0.6,1.2-0.5,1.7-1.1
						c0.9-1.1,1.3-1.9,2.5-2.7c1.1-0.8,1.3-1.7,2.1-2.9c0.7-1.1,1.6-1.4,2.7-2.1c1-0.7,0.5-1.9,1.2-2.9c0.2-0.3,0.5-0.5,0.8-0.7
						c0.8-0.5,1.2-0.9,2.1-1.3c1.3-0.7,2-1.2,2.8-2.4c0.3-0.3,0.5-0.4,0.8-0.7c0.3-0.3,0.3-0.6,0.5-0.9c0.3-0.5,0.5-1,1.1-1
						c0.7,0,1.1,0.2,1.7,0.2c0.9,0,1.3-0.9,1.5-1.8c0.1-0.5,0.3-0.8,0.5-1.1c1,0.1,1.5,0.4,2.4,0.4c-0.1,1.2-0.1,1.9-0.1,3.1
						c0,0.4,0,0.6,0,1v1.8c0,0.4,0.3,0.6,0.4,1c0.2,0.7,0.1,1.1,0.3,1.8c0.4,1.2,1.2,1.8,1.2,3.1c0,0.6-0.4,1.2-1,1.4
						c-0.9,0.3-0.6,1.1-1.1,1.6c-0.3,0.3-0.7,0.3-1.1,0.3c-1,0-1.5-0.8-2.6-0.8c-1.2,0-1.7,1.1-2.3,2.2c0.8,0.6,1.1,1.3,1.1,2.3
						c0,0.5,0,0.7-0.1,1.2c0.2,0,0.2,0.1,0.4,0.1l1.8-0.4l0.3-0.2c-0.5,1.1-0.5,1.8-1.2,2.8c-0.5,0.8-1.5,1-1.5,2
						c0,0.6,0.7,0.8,1.3,1.1c0.5,0.3,0.7,0.7,1.4,0.7c0.5,0,0.7-0.3,1.1-0.5c1.3-0.6,2.1-1.1,3.1-2.1c0.8-0.8,1.1-1.7,2.2-1.7
						c0.2,0,0.2,0.2,0.3,0.4c0.5,0.5,0.9,0.9,1.5,1.3c1,0.8,1.9,0.4,3.1,1c1.1,0.5,1.2,2.2,2.5,2.2c0.9,0,1.4,0,2.2-0.3
						c0.6-0.2,0.8-0.8,1.5-0.8c0.5,0,0.7,0.5,1.1,0.8c0.7,0.5,1.2,0.8,2.1,0.9v0.6c0,0.4-0.2,0.7-0.2,1.1c0,1.4,1.2,2,2.1,3.1
						c0.6,0.7,0.6,1.4,1,2.2c0.5,1,1,1.5,1.8,2.2c0.8,0.7,1.1,1.9,2.2,1.9h2c1,0,1.4,0.7,2.4,0.7c1.4,0,1.8-1.2,2.7-2.2
						c0.4-0.5,1-0.3,1.7-0.4c0-0.7,0-1.1,0-1.8v-1.3c0-2.2,2-2.9,3.9-4c0.4-0.2,0.8-0.2,1.2-0.5c0.5-0.5,0.6-0.9,0.8-1.6
						c0.3-0.8,0.8-1.2,1.3-1.9c-0.5-0.4-0.8-0.8-0.8-1.4v-1.4c0,0,0.4-1.4,0.8-2.3c0.7-1.2,0.8-2,1.1-3.3c0.6-2.1,0.3-3.8,1.8-5.3
						c0.9-0.9,1.1-1.6,1.6-2.8c1-2.5,1.5-3.9,2.5-6.4c0.3-0.9,0.4-1.4,1-2.2c0.2,0.8,0.2,1.8,1,1.8c0.9,0,2.1-0.1,2.1-1.1
						c0-0.5-0.6-0.7-0.9-1c-0.3-0.4-0.4-0.8-0.4-1.3c0-0.7,1.1-0.6,1.5-1.2c0.6-0.8,0.8-1.4,1.6-2.2c0.6-0.6,1.2-0.9,1.6-1.7
						c1-0.6,1.2-1.3,1.9-2.2c1.2-1.3,2.2-1.6,3.7-2.5l15.5-5.4l13-4.6l14.1-11.4l12.7-14.7l3.7-13.7c0.6,0.5,1.3,0.9,2.3,0.9
						c0.9,0,1.5-0.1,2.4-0.1c-0.1-1-0.5-1.9-0.7-2.9c-0.2-1.1,0-1.8-0.4-2.9c-0.1-0.4-0.5-0.4-0.4-0.8v-1.5c0.4-0.3,0.6-0.8,0.6-1.5
						c0-0.5,0.1-0.9-0.2-1.2c-0.4-0.5-1.1-0.3-1.5-0.8c-0.2-0.3-0.1-0.6-0.4-0.9c-0.5-0.6-1.4-0.5-1.9-1.1c-0.3-0.4-0.3-0.8-0.4-1.3
						c-0.3-1.4-0.6-2.2-1.5-3.2c-0.5-0.5-0.8-0.8-1.4-1c-0.7-0.2-1.7-0.3-1.7-1.1c0-0.3,0.1-0.5,0.1-0.9c0.2,0,0.3-0.1,0.5-0.1
						l3.3,1.4h1.8c0.7,0.1,1.3,0,1.8-0.3c0.5-0.3,1-0.7,1.3-1.3c0.1,0,0.1-0.1,0.2-0.2c0.1-0.2,0.2-0.4,0.3-0.6c0.1-0.4-0.2-1,0.2-1
						h0.1c0.3,0,0.5,0,0.8,0.1c0.3,0.1,0.5,0.3,0.8,0.4c0.2,0.1,0.4,0,0.6,0.1c0.2,0.1,0.4,0,0.6,0.2c0.1,0.1,0.1,0.2,0.2,0.3
						c0.1,0.2,0.2,0.4,0.3,0.6c0,0.1,0,0.2,0.1,0.3c0,0,0.1,0,0.2,0.1c0.3,0.3,0.6,0.3,0.9,0.5c0.5,0.3,0.7,0.6,1,1.1
						c0.2,0.3,0.4,0.5,0.7,0.7c0.4,0.3,0.7,0.6,1.3,0.6c0.3,0,0.4-0.1,0.6-0.2c0.2,0,0.4,0,0.7-0.1c0.1,0,0.1-0.1,0.1-0.1
						c0.1-0.3,0.3-0.4,0.5-0.5c0.1,0,0.1-0.1,0.1-0.2c0,0,0.1,0,0.2,0c0.1,0.2,0.1,0.3,0.2,0.5c0.2,0.3,0.5,0.4,0.8,0.6
						c0.1,0.1,0.1,0.2,0.2,0.3c0.1,0.2,0.3,0.3,0.3,0.5c0,0.1-0.1,0.2-0.2,0.2c-0.1,0.2-0.3,0.3-0.3,0.6c0,0.1,0.1,0.2,0.3,0.3
						c0.2,0.1,0.3,0.1,0.5,0.2c0.3,0.1,0.4,0.2,0.6,0.4c0.4,0.4,0.5,1.1,1,0.9c0.8-0.3,0.3-0.4,1-0.4c0.1,0,0.2,0.1,0.3,0.2
						c0.2,0.3,0.3,0.4,0.4,0.6c0.2,0.3,0.4,0.3,0.7,0.5c0.3,0.1,0.4,0.2,0.6,0.3c0.5,0.2,0.8,0.2,1.1,0.6c0.1,0.2,0.1,0.3,0.2,0.5
						c0.1,0.1,0.3,0.2,0.5,0.2c0.3,0.2,0.5,0.2,0.8,0.4c0.6,0.3,0.7,0.9,0.8,1.5c0.1,0.4,0.1,0.6,0.2,1c0.1,0.2,0.2,0.3,0.3,0.5
						c0.3,0.7,0.6,1.2,0.8,1.9c0.1,0.4,0,0.6,0.1,1c0.1,0.4,0.3,0.5,0.5,0.8c0.5,0.5,1.4,0.6,1.3,1.4c0,0.2-0.4,0-0.6,0.1
						c-0.3,0.1-0.6,0.5-0.4,0.8c0.4,0.4,0.8,0.4,1.2,0.8c0.4,0.4,0.5,0.8,0.8,1.3c0.2,0.2,0.3,0.4,0.4,0.6c0.1,0.1,0.1,0.2,0.2,0.3
						c0.2,0.1,0.3,0.2,0.5,0.2c0.4,0.2,0.6,0.3,1,0.4c0.3,0,0.5,0,0.8,0.1c0.1,0,0.1,0.1,0.2,0.1c0.3,0.1,0.5,0,0.8,0.2
						c0.3,0.2,0.4,0.5,0.6,0.8c0,0.1,0.1,0,0.2,0.1c0.4,0.4,0.6,0.6,1.1,0.9c0.1,0,0.1,0.1,0.1,0.2c0.3,0.2,0.6,0.2,1,0.2h0.8
						c0.4,0,0.6,0.4,0.8,0.7c0.2,0.4,0.5,0.5,0.8,0.8c0.3,0.3,0.3,0.7,0.7,0.8c0.2,0.1,0.3,0,0.5,0.1c0.1,0,0.2,0.1,0.4,0.1
						c0.4,0,0.6-0.1,0.9-0.2c0.1-0.1,0.2-0.2,0.3-0.2c0.3,0,0.5,0,0.6,0.2c0.1,0.1,0,0.2,0.1,0.3c0.2,0.2,0.5,0.3,0.8,0.3
						c0.6,0.1,1,0.2,1.6,0.3c0.5,0.1,0.7,0.4,0.8,0.9c0,0.2,0,0.3,0,0.5c0,0.2,0.1,0.3,0.2,0.5c0.1,0.4,0,0.7,0,1.1
						c0,0.1,0.1,0.2,0.1,0.3c0,0.1,0,0.1,0,0.2c0,0.1,0.1,0.1,0.2,0.1c0.2,0.2,0.4,0.3,0.6,0.4c0.5,0.3,0.7,0.6,1.1,0.9
						c0.2,0.1,0.4,0.2,0.5,0.4c0.4,0.5,0.6,0.8,0.6,1.4c0,0.3,0,0.5-0.2,0.8c-0.1,0.2-0.3,0.2-0.5,0.4c-0.2,0.3-0.3,0.5-0.4,0.8
						c-0.1,0.3-0.3,0.5-0.3,0.8c0,0.3,0.1,0.5,0.2,0.8c0,0.2,0.1,0.3,0.1,0.5c0,0.1,0,0.3,0.1,0.3c0.1,0.1,0.2,0,0.3,0
						c0.4,0,0.8,0,1.1,0.2c0.5,0.4,0.7,0.9,1.3,1.2c0.3,0.1,0.4,0.2,0.6,0.4c0.2,0.2,0.4,0.5,0.7,0.5c0.4,0,0.6-0.5,1-0.5
						c0.2,0,0.3,0.1,0.6,0.1c0.5,0,0.8-0.2,1.2-0.2c0.3,0,0.6,0.2,0.6,0.5c0,0.6,0,0.8,0.1,1.3c0.1,0.4,0.2,0.7,0.3,1.1
						c0.1,0.3,0,0.5,0.2,0.8c0.1,0.3,0.3,0.4,0.5,0.6c0.3,0.5,0.6,0.8,1,1.3c0,0,0,0.1,0.1,0.2c0.2,0.3,0.5,0.4,0.7,0.7
						c0.2,0.3,0.2,0.5,0.2,0.8c0,0.4-0.2,0.6-0.4,1c-0.3,0.4-0.4,0.7-0.8,0.9c-0.4,0.2-0.5,0.5-0.9,0.6c-0.2,0.1-0.4,0-0.5,0.2
						c-0.1,0.1,0,0.2,0,0.3c0,0.3,0.2,0.5,0.5,0.7c0.2,0.1,0.3,0.2,0.4,0.3c0.1,0.4,0.1,0.6,0.2,1c0.1,0.5,0.2,0.9,0.6,1.2
						c0.2,0.2,0.4,0.4,0.6,0.4c0.2,0,0.2-0.3,0.3-0.4c0-0.1,0.1-0.1,0.2-0.1c0.1,0,0.1-0.1,0.2-0.1c0.1,0,0.2,0.1,0.3,0.2
						c0.4,0.3,0.6,0.5,1,0.7c0.3,0.2,0.6,0.3,0.9,0.4v0c0.1,0,0.1,0.1,0.2,0.1c0.2,0.1,0.4,0.1,0.5,0.3c0.3,0.3,0.3,0.6,0.6,0.8
						c0.3,0.2,0.6,0.3,1,0.3c0.3,0,0.5-0.2,0.8-0.3c0.2-0.1,0.4-0.1,0.6-0.2c0.3-0.1,0.4-0.2,0.6-0.2c0.5-0.1,0.9-0.1,1.5-0.1
						c0.4,0,0.8-0.1,1.1,0.2c0.2,0.2,0.3,0.3,0.5,0.5c0.1,0.1,0.2,0.2,0.3,0.2c0.2,0,0.2-0.2,0.3-0.3c0.1-0.2,0.2-0.3,0.4-0.4
						c0.2-0.2,0.3-0.4,0.5-0.6c0.2-0.4,0.6-0.7,1-0.7c0.2,0,0.3,0,0.4,0.1c0.3,0.2,0.3,0.4,0.5,0.6c0.2,0.2,0.4,0.2,0.6,0.3
						c0.6,0.2,1,0.2,1.6,0.4c0.3,0.1,0.5,0.1,0.8,0.2c0.2,0.1,0.3,0.1,0.5,0.2c0.1,0.1,0.2,0.2,0.2,0.3c0.2,0.2,0.4,0.3,0.6,0.6
						c0.2,0.2,0.3,0.5,0.6,0.5c0.3,0,0.4-0.2,0.6-0.3c0.4-0.3,0.6-0.6,1.1-0.8c0.6-0.2,0.9-0.4,1.5-0.4c0.4,0,0.6,0.4,1,0.4
						c0.4,0,0.6-0.3,0.9-0.5c0.5-0.4,0.8-0.6,1.2-1c0.1-0.2,0.3-0.2,0.5-0.4c0.6-0.4,1.1-0.4,1.8-0.4c0.1,0,0.2,0.1,0.3,0.1
						c0.3,0,0.5,0,0.9,0c0.7,0,1.4-0.1,1.8-0.7c0.2-0.4,0.3-0.6,0.4-1c0.1-0.2,0-0.4,0.1-0.6c0.3-0.7,1-0.6,1.5-1
						c0.2-0.2,0.3-0.4,0.5-0.6c0.3-0.2,0.6-0.3,1-0.3c0.1,0,0.3-0.1,0.3,0c0.1,0.2,0,0.5,0,0.7c0,0.6,0.9,0,1.5,0
						c0.6,0,0.9,0.1,1.4,0.4c0.3,0.1,0.4,0.3,0.6,0.4c0.3,0.2,0.6,0.3,1,0.4c0.2,0,0.3,0,0.5,0.1c0.1,0,0.1,0.1,0.2,0.2
						c0.1,0.2,0.3,0.3,0.3,0.5c0.1,0.2,0,0.4,0,0.6c0.1,0.4,0.3,0.8,0.7,0.7c0.1,0,0.1,0,0.2,0c0.3-0.1,0.2-0.4,0.3-0.6
						c0.1-0.2,0.2-0.5,0.5-0.5c0.1,0,0.1,0.1,0.2,0.1c0.2,0.1,0.3,0.3,0.4,0.4c0.2,0.4,0.2,0.6,0.4,1c0.1,0.2,0.2,0.3,0.2,0.5
						c0.1,0.4,0.1,1,0.5,1c0.2,0,0.2-0.2,0.3-0.3c0.3-0.2,0.5-0.4,0.9-0.3c0.3,0,0.4,0.2,0.6,0.2c0.3,0,0.5-0.4,0.8-0.4
						c0.3,0,0.5,0,0.9,0c0.2,0,0.3,0.1,0.4,0c0.1,0,0.2,0,0.3,0c0.1-0.1,0.1-0.2,0.2-0.3c0.2-0.2,0.4-0.2,0.7-0.5
						c0.1-0.1,0.2-0.2,0.3-0.3c0.1-0.3,0.1-0.6,0.4-0.8c0.4-0.3,0.7-0.3,1.2-0.3c0.3,0,0.5,0.1,0.7,0.2c0.3,0.1,0.5,0.4,0.7,0.1
						c0.3-0.4-0.1-0.8,0-1.3c0-0.2,0.1-0.3,0.1-0.5c0,0,0.1,0,0.2,0c0.2-0.1,0.2,0.4,0.4,0.4h0.8c0.5,0,0.8-0.1,1.3-0.1
						c0.5,0,0.7,0.2,1.1,0.4c0.5,0.3,0.8,0.4,1.3,0.7c0.4,0.3,0.7,0.5,1.1,0.8c0.4,0.3,0.7,0.4,1.1,0.6c0.2,0.1,0.3,0.2,0.5,0.3
						c0.5,0.3,0.8,0.5,1.2,1c0.1,0.2,0.2,0.3,0.4,0.5c0.3,0.4,0.4,0.7,0.6,1.1c0.1,0.3,0.2,0.4,0.3,0.6c0.1,0.2,0.2,0.3,0.4,0.3
						c0.3,0,0.4-0.3,0.5-0.5c0.2-0.4,0.5-0.8,1-0.8c0.2,0,0.4,0.1,0.6,0.2c0.2,0.3,0.2,0.6,0.5,0.8c0.4,0.4,0.8,0.5,1.3,0.6
						c0.3,0.1,0.4,0.1,0.7,0.1c0.7,0.1,1.2,0.2,1.9,0.2c0.1,0,0.1,0.1,0.1,0.2c0,0.2,0,0.3-0.1,0.5c-0.1,0.4,0.1,0.7,0.5,0.8
						c0.4,0.1,0.6-0.3,1-0.3c0.2,0,0.2,0.3,0.3,0.5c0.1,0.3,0.2,0.5,0.4,0.8c0.3,0.4,0.8,0.4,1.2,0.6c0.4,0.2,0.7,0.3,1.1,0.6
						c0.3,0.2,0.5,0.4,0.8,0.6c0.2,0.1,0.3,0.2,0.5,0.2c0.3,0,0.4-0.3,0.7-0.3c0.1,0,0.2,0,0.2,0.1c0.2,0.4,0.4,0.8,0.6,1.3
						l-16.5,26c0.7,0.1,1.2,0.2,1.8,0.6c0.2,0.2,0.4,0.4,0.6,0.6c0.5,0,0.6,0.7,1.1,0.7c1,0,1.4,0,2.4,0c0.9,0,1.2-0.7,2.1-0.7
						c0.5,0,0.7,0.4,1.2,0.4c0.2,0,0.3-0.1,0.5-0.1c0.9,0,1.6,0.5,1.9,1.3c0.4,0.9,0.1,1.6,0.7,2.4c1,1.2,1.6,1.9,2.8,2.8
						c1.2,1,2,1.5,2.9,2.7c0.2,0.3,0.4,0.5,0.5,0.8c-1.2,0.5-1.2,1.4-2.2,2.2l-0.3-0.1c-0.1-0.6,0-1.3-0.5-1.5
						c-0.7-0.3-1.2-0.2-1.9-0.3c0,0.8-0.4,1.8-1.3,1.8c-0.6,0-0.5-0.9-1-1.1c-0.4-0.2-0.8-0.1-1.2-0.5c-0.8-0.8-0.2-1.8-0.2-2.9
						h-2.7c-0.3,0-0.4-0.3-0.7-0.3c-0.8,0-0.9,1.1-1.7,1.2c-0.8,0.1-1.3,0.1-2.1,0.1c-0.8,0-0.9-1-1.3-1.8c-0.6,0.6-0.9,1.4-1.7,1.4
						c-0.6,0-0.7-0.8-1.4-0.8c-1,0-1.1,1.2-1.5,2.1c-0.4,1-1.3,1.2-2,2.1c-0.7,0.9-0.8,2.2-1.9,2.2c-0.4,0-0.5-0.6-1-0.6
						c-0.3,0-0.3,0.5-0.5,0.6c-0.4,0.2-0.6,0.2-1,0.2c-0.4,0-0.3-0.8-0.7-0.8c-0.5,0-0.6,0.7-1.1,0.7c-0.9,0-1.4,0-2.2-0.4
						c-0.4-0.2-0.4-0.8-0.8-0.8c-0.9,0-0.3,2.1-1.3,2.1c-0.2,0-0.3-0.2-0.5-0.2c-0.2,0-0.4,0.2-0.6,0.2c-0.5,0-0.8-0.2-1.3-0.2
						c-1.1,0-1.6,0.9-2.7,1.1c-0.7,0.2-1.3,0-2,0.2c-0.6,0.2-0.9,0.7-1.5,0.7c-0.9,0-1.3-0.8-2.2-0.8c-1.3,0-2.1,0.4-3.4,0.8
						c-0.5,0.2-0.9,0.2-1.3,0.6c-0.4,0.5-0.5,1.3-1.1,1.3c-0.3,0-0.5-0.2-0.7-0.2c-0.8,0-0.9,0.9-1.3,1.5c-0.4,0.5-1,0.5-1.6,0.8
						c-0.9,0.5-1.2,1.2-2.2,1.4c-1.2,0.3-2,0.3-3.1,1c-0.7,0.4-1.3,0.8-1.3,1.7c0,0.1,0.1,0.2,0.1,0.3v0.1c-0.5,0.1-0.8-0.2-1.2,0
						c-0.6,0.3-0.3,1.1-0.9,1.4c-0.7,0.4-1.3,0.3-1.9,0.8c-0.4,0.5-0.6,0.8-0.9,1.4c-0.3,0.6-1.1,0.5-1.8,0.5
						c-0.3,0-0.5-0.1-0.8-0.2c-1,0.1-1.7,0.7-2.6,1c-0.9,0.2-2,0.3-2,1.2c0,0.5,0.3,0.8,0.3,1.3c0,1-0.7,1.5-1.2,2.4
						c-0.5,0.9-0.1,1.7-0.5,2.7c-0.2,0.5-0.8,0.7-0.8,1.3c0,1.2,1.1,1.7,1.1,2.9c0,0.8-0.7,1.1-0.9,1.9c-0.1,0.6-0.1,1.2-0.4,1.7
						v0.2c-0.1,0.2-0.2,0.3-0.4,0.4c-0.4,0.3-0.9,0.2-1.3,0.6c-0.6,0.7-0.8,1.2-1.3,1.9c-0.5,0.6-1.3,0.8-1.3,1.6
						c0,0.5,0.3,0.8,0.3,1.3c0,1.5-1.1,2.1-1.1,3.6c0,1.7,0.9,2.6,0.9,4.4v1.5c0,1.4,0.4,2.5-0.4,3.6c-0.8,1-1.9,0.4-3,1
						c-0.9,0.5-1.2,1.2-1.9,2c-0.4,0.4-0.8,0.4-1.3,0.7c-0.7,0.5-1.2,0.9-1.9,1.3c-1.1,0.6-1.4,1.4-2.4,2.1c-1.7,1.1-2.8,1.7-4,3.3
						c-0.6,0.8-0.3,1.5-0.6,2.5c-0.2,0.8-0.7,1.2-0.7,2.1c0,0.9,0.7,1.2,1.3,1.9c0.4,0.6,0.3,1.1,0.4,1.8c0.1,0.6,0.3,0.8,0.4,1.4
						c-0.8,0.6-1.6,0.2-2.5,0.5c-0.5,0.1-0.6,0.8-1.2,0.8l-0.8-0.4h-0.8c0,0.1-0.1,0.2-0.1,0.3c0,0.3,0.1,0.4,0.1,0.7v1.5
						c0,1.2-0.9,1.7-1.6,2.8c0.9,0.9,1.4,1.4,2.2,2.4c0.6,0.7,0.7,1.4,1.6,1.9c0.4,0.3,0.9,0.1,1.4,0.3c0.5,0.2,0.7,0.6,1.2,0.9
						c0.8,0.4,1.5,0.9,1.5,1.8c0,1.2-2.5,0.6-2.5,1.8c0,0.9,1.2,0.8,1.8,1.3c1,0.9,1.8,1.4,2.1,2.8c0.3,1.3,0,2.3,0.7,3.4
						c0.3,0.4,0.7,0.6,0.9,1c0.5,1.1-0.1,2.2,0.9,2.8c0.9,0.6,1.7,0.7,2.6,1.3c1.4,1,2,2.2,2,4c0,0.6,0.5,0.7,0.9,1.1
						c0.3,0.3,0.2,0.8,0.7,1c0.6,0.2,1.1-0.2,1.6,0.1c1,0.7,1.2,1.5,1.6,2.7c0.1,0.5,0.5,0.7,0.8,1.1c1.3,1.8,3,2.7,3,5v1.8
						c0,0.8-0.6,1-1.2,1.5c-1,1-1,2-1.9,3.1c0,0,2.7,2,2.7,2s2.9,0.3,4.7,0.7c0.9,0.2,1.4,0.1,2.3,0.3c1.1,0.3,1.7,1.1,2.8,1.1h2.6
						c1.2,0,1.9,0.5,2.8,1.2c0.4,0.3,0.6,0.3,0.9,0.7c0.2,0.7-0.1,1.2,0.2,1.8c0.4,0.7,0.8,1.1,0.8,1.9v1.6c1.2,0,2.3,1,2.3,2.3v2
						c0,0.7-0.2,1.1-0.3,1.8l7.7,0c3,0.1,4.7,0.2,7.7,0.2c1.3,0,2,0.3,3.2-0.1c0.7-0.2,0.8-1.1,1.6-1.1c0.5,0,0.8,0.5,1.3,0.5
						c0.8,0,0.9-0.9,1.5-1.3c1.1-0.8,1.8-1.1,3.1-1.7c2.2-1,3-2.3,4.7-4c1.1-1.1,2.1-1.5,3.4-2.4c1.6-1.1,1.9-2.7,3.7-3.5
						c0.4-0.2,3-0.8,2.8-0.6c-0.7,1-1,1.7-1.8,2.7c-0.4,0.5-1,0.7-1,1.3c0,1.5,1.8,1.9,1.8,3.4c0,1.3-2.3,1.2-2.3,2.5v1.5l-0.4,27.4
						c1.1-0.1,1.4-1.3,2.5-1.3c0.5,0,0.7,0.6,1,0.9c0.8,0.7,1.3,1.2,2.2,1.6c1.2,0.5,2,0.6,3.3,0.6c1.1,0,1.7-0.4,2.8-0.7
						c0.9-0.2,1.5-0.4,2.3-0.9c1.3-0.9,1.7-2.3,3.3-2.3c1,0,1.4,1,2.4,1.2c1.2,0.3,2.1,0.3,3.1,0.4c0.9,0.1,1.9,0.1,3.1,0.3
						l21.1,38.1c-0.8,0.8-1.2,1.4-2.2,1.9c-0.5,0.3-1,0.6-1,1.2s1.2,0.4,1.2,1c0,1-1.3,0.7-2.2,1c-0.7,0.3-0.8,1-1.4,1.6
						C398.4,340.5,398,341,397.3,341.9z"/>
				</g>
				<g>
					<path class="st1" d="M301.3,254.9c0,0,2.9,0.3,4.7,0.7c0.9,0.2,1.4,0.1,2.3,0.3c1.1,0.3,1.7,1.1,2.8,1.1h2.6
						c1.2,0,1.9,0.5,2.8,1.2c0.4,0.3,0.6,0.3,0.9,0.7c0.2,0.7-0.1,1.2,0.2,1.8c0.4,0.7,0.8,1.1,0.8,1.9v1.6c1.2,0,2.3,1,2.3,2.3v2
						c0,0.7-0.2,1.1-0.3,1.8l7.7,0c3,0.1,4.7,0.2,7.7,0.2c1.3,0,2,0.3,3.2-0.1c0.7-0.2,0.8-1.1,1.6-1.1c0.5,0,0.8,0.5,1.3,0.5
						c0.8,0,0.9-0.9,1.5-1.3c1.1-0.8,1.8-1.1,3.1-1.7c2.2-1,3-2.3,4.7-4c1.1-1.1,2.1-1.5,3.4-2.4c1.6-1.1,1.9-2.7,3.7-3.5
						c0.4-0.2,3-0.8,2.8-0.6c-0.7,1-1,1.7-1.8,2.7c-0.4,0.5-1,0.7-1,1.3c0,1.5,1.8,1.9,1.8,3.4c0,1.3-2.3,1.2-2.3,2.5v1.5l-0.4,27.4
						c1.1-0.1,1.4-1.3,2.5-1.3c0.5,0,0.7,0.6,1,0.9c0.8,0.7,1.3,1.2,2.2,1.6c1.2,0.5,2,0.6,3.3,0.6c1.1,0,1.7-0.4,2.8-0.7
						c0.9-0.2,1.5-0.4,2.3-0.9c1.3-0.9,1.7-2.3,3.3-2.3c1,0,1.4,1,2.4,1.2c1.2,0.3,2.1,0.3,3.1,0.4c0.9,0.1,1.9,0.1,3.1,0.3
						l21.1,38.1c-0.8,0.8-1.2,1.4-2.2,1.9c-0.5,0.3-1,0.6-1,1.2s1.2,0.4,1.2,1c0,1-1.3,0.7-2.2,1c-0.7,0.3-0.8,1-1.4,1.6
						c-0.7,0.8-1.1,1.3-1.8,2.2c-0.3,0.4-0.8,0.6-0.8,1.1c0,0.4,0.3,0.6,0.3,0.9v4.4c0,0.8,0.3,1.3,0.3,2.1v4.2c0,1-0.2,1.5-0.2,2.5
						c-0.1,1.1,0.4,2-0.4,2.8c-0.5,0.6-1.2,0.5-2,0.5h-0.6c0,0.2-0.1,0.3-0.1,0.5c0,0.4,0.4,0.3,0.7,0.6c0.8,0.9,1.9,1.3,1.9,2.6
						c0,1-0.2,1.5-0.2,2.5c0,0.4,0.2,0.6,0.3,1c0.2,0.7,0,1.2,0.4,1.8c0.4,0.5,1,0.2,1.5,0.6c0.7,0.6,0.3,1.6,0.6,2.5
						c0.2,0.6,0.5,1,0.5,1.6v1.1c-0.9,0.1-1.4,0.2-2.3,0.3c-0.5,0.1-1.1,0.3-1.1,0.8c0,0.8,0.3,1.2,0.3,2c0,0.8-0.8,1-1.4,1.4
						c-1,0.6-1.8,0.9-2.3,1.9c-0.3,0.5-0.1,1.1-0.5,1.6c-0.6,0.8-1.8,0.6-2.3,1.5c-0.2,1.2,0,1.9,0,3.1c-1,1-2.6,0.9-2.6,2.3v0.9
						c0,0-0.7,1-0.7,1.8c0,0.7,0.7,0.8,1.3,1.3c0.8,0.8,0.8,1.7,1.5,2.5c0.5,0.7,0.7,1.2,1.3,1.6c0.8,0.5,2,0.5,2,1.5
						c0,0.9-0.7,1.5-1.6,1.8c-0.9,0.3-2,0.2-2.3,1.2c-0.5,1.7-1.2,2.6-1.9,4.3l-0.9,1.8l5.5,14.2l1.5,0.9c1.3,0,2.1-0.4,3.3-0.2
						l3.2,2.6c-0.4,0.5-1.2,0.7-1.9,0.9c-0.8,0.3-1.5,0.9-1.9,1.7c-0.4,0.7-0.8,1.7-0.9,2.5l-0.4,1c0,1,0.4,1.9-0.2,2.7
						c-0.7,0.9-1.8,0.2-2.8,0.7c-0.7,0.3-0.5,1.1-0.7,1.8c-0.2,0.7-0.7,0.9-1.2,1.4c-0.5,0.5-0.7,1-1.1,1.5
						c-1.6,1.8-2.3,3.1-4.3,4.4c-1.4,0.9-1.6,2-3.7,2.7c-0.4,0.1-0.7,0.5-0.8,0.9c0,0.6,0.5,0.8,1,1.1c0.6,0.4,0.7,0.9,1.1,1.4
						c0.3,0.3,0.5,0.6,0.4,1v2.1l0.3,1.2c-0.6,1.5-1.9,1.8-3.4,2.5c-0.7,0.4-1,1-1.9,1.1h-1.5c-0.6,0-1.1,0.3-1.2,0.8
						c-0.1,0.3,0.1,0.6-0.1,0.9c-0.1,0.3-0.5,0.5-0.5,0.8c0,0.4,0.5,0.4,0.8,0.7c0.6,0.7,0.8,1.3,0.8,2.2c0,1.1,0.2,1.8,0.2,2.9
						c0,1.4-0.7,2.1-1.5,3.2c-0.4,0.5-0.7,0.8-1,1.3c-0.2,0.5-0.2,1-0.7,1.3c-2,1-3.3,1.2-5.5,1.4c-0.5,0.1-0.8,0-1.2,0.2
						c-0.3,0.1-0.6,0.4-0.6,0.4h-1.6c-0.7,0-1-0.5-1.7-0.5c-0.4,0-0.7,0.5-0.9,0.7c0,0,0,0,0,0c-0.8-0.7-1.3-1-2.1-1.8
						c-0.5-0.5-0.6-1-1.3-1.3c-0.4-0.2-0.8-0.1-1.2-0.2c-0.2-0.1-0.3-0.2-0.6-0.3c-0.5-0.2-0.8-0.2-1.2-0.6
						c-0.6-0.6-0.9-1.1-1.7-1.3c-0.9-0.7-1.4-1.1-2.2-1.9c-0.3-0.4-0.9-0.3-1.1-0.7c-0.1-0.3-0.1-0.5-0.2-0.7
						c-0.4-0.8-1.1-0.8-1.8-1.4c-0.7-0.6-1.2-1.1-2.1-1.1c-0.8,0-0.8-1-1.5-1.4c-0.8-0.4-1-1-1.8-1.4c-0.8-0.4-1.3-0.7-2.1-1.2
						c-0.6-0.4-0.7-0.9-1.7-0.7c-0.3,0.1-0.5-0.1-0.5-0.4c0-0.4,0.2-0.6,0.2-1v-1.7c0-0.9-0.1-1.4-0.3-2.3c-0.1-0.3-0.2-0.5-0.3-0.8
						c-0.1-0.5-0.1-0.7-0.3-1.1c-0.5-0.9-1.3-1-1.9-1.9c-0.2-0.3-0.3-0.6-0.6-0.7c-0.6-0.2-1.1,0.1-1.6-0.2c-0.5-0.3-0.6-0.7-1-1
						c-0.5-0.3-0.9-0.2-1.5-0.4c-0.5-0.2-0.8-0.2-1.3-0.3c-0.7-0.2-1.1-0.5-1.8-0.7c-0.5-0.1-1-0.1-1.3-0.6
						c-0.4-0.5-0.4-0.9-0.9-1.3c-1-0.7-1.3-1.6-2.5-1.9c-1-0.2-2.6,0.1-2.6-0.9c0-0.6-0.4-1-0.9-1.3c-0.6-0.4-0.9-0.7-1.6-1
						c-0.6-0.2-1.3-0.1-1.4-0.7c-0.2-0.7-0.3-1.1-0.7-1.7c-0.4-0.5-0.8-0.7-1.4-1c-0.8-0.4-1.2-0.7-2.1-1.1c-1.3-0.6-2-1-3.3-1.2
						c-0.6-0.1-0.9-0.1-1.6-0.1c-0.8-0.1-1.2-0.3-2-0.3c-1.1-0.1-1.7-0.6-2.4-1.5c-0.3-0.3-0.4-0.7-0.7-0.9c0,0-0.1-0.1-0.2-0.1
						c-0.1-0.1-0.3-0.1-0.4-0.1"/>
					<path class="st1" d="M301.3,254.9c0,0-2.7-1.9-2.7-2c0.9-1.1,0.9-2.1,1.9-3.1c0.5-0.5,1.2-0.8,1.2-1.5v-1.8c0-2.3-1.7-3.2-3-5
						c-0.3-0.4-0.7-0.6-0.8-1.1c-0.3-1.2-0.6-2-1.6-2.7c-0.5-0.4-1,0-1.6-0.1c-0.4-0.1-0.3-0.7-0.7-1c-0.4-0.4-0.9-0.6-0.9-1.1
						c0-1.7-0.6-2.9-2-4c-0.9-0.7-1.6-0.7-2.6-1.3c-1-0.6-0.4-1.8-0.9-2.8c-0.2-0.5-0.6-0.6-0.9-1c-0.7-1.1-0.4-2.1-0.7-3.4
						c-0.3-1.3-1.1-1.9-2.1-2.8c-0.6-0.6-1.8-0.5-1.8-1.3c0-1.2,2.5-0.6,2.5-1.8c0-0.9-0.7-1.4-1.5-1.8c-0.5-0.3-0.7-0.7-1.2-0.9
						c-0.5-0.2-0.9,0-1.4-0.3c-0.8-0.5-0.9-1.2-1.6-1.9c-0.8-1-1.3-1.5-2.2-2.4c0.6-1.1,1.6-1.5,1.6-2.8v-1.5c0-0.3-0.1-0.5-0.1-0.7
						c0-0.1,0.1-0.2,0.1-0.3h0.8l0.8,0.4c0.6-0.1,0.7-0.7,1.2-0.8c0.9-0.3,1.7,0.1,2.5-0.5c0-0.6-0.3-0.8-0.4-1.4
						c-0.1-0.7,0-1.2-0.4-1.8c-0.5-0.7-1.3-1.1-1.3-1.9c0-0.9,0.5-1.3,0.7-2.1c0.3-1,0-1.7,0.6-2.5c1.2-1.6,2.4-2.2,4-3.3
						c1-0.7,1.3-1.5,2.4-2.1c0.8-0.4,1.2-0.8,1.9-1.3c0.4-0.3,0.9-0.2,1.3-0.7c0.7-0.8,0.9-1.5,1.9-2c1.1-0.6,2.2,0,3-1
						c0.9-1.1,0.4-2.2,0.4-3.6v-1.5c0-1.7-0.9-2.6-0.9-4.4c0-1.5,1.1-2.1,1.1-3.6c0-0.5-0.3-0.8-0.3-1.3c0-0.8,0.8-1,1.3-1.6
						c0.6-0.7,0.8-1.2,1.3-1.9c0.3-0.4,0.9-0.3,1.3-0.6c0.2-0.1,0.3-0.3,0.4-0.4v-0.2c0.3-0.5,0.3-1,0.4-1.7
						c0.2-0.8,0.9-1.1,0.9-1.9c0-1.2-1.1-1.7-1.1-2.9c0-0.6,0.5-0.8,0.8-1.3c0.4-1,0-1.8,0.5-2.7c0.5-0.9,1.2-1.3,1.2-2.4
						c0-0.5-0.3-0.8-0.3-1.3c0-0.9,1.1-1,2-1.2c1-0.2,1.6-0.9,2.6-1c0.2,0.2,0.5,0.2,0.8,0.2c0.7,0,1.5,0.1,1.8-0.5
						c0.3-0.6,0.5-1,0.9-1.4c0.6-0.6,1.2-0.4,1.9-0.8c0.6-0.3,0.3-1.2,0.9-1.4c0.4-0.2,0.7,0.1,1.2,0v-0.1c0-0.1-0.1-0.2-0.1-0.3
						c0-0.8,0.7-1.2,1.3-1.7c1.1-0.7,1.8-0.7,3.1-1c1-0.2,1.3-1,2.2-1.4c0.6-0.3,1.1-0.3,1.6-0.8c0.5-0.6,0.6-1.5,1.3-1.5
						c0.3,0,0.4,0.2,0.7,0.2c0.7,0,0.7-0.8,1.1-1.3c0.3-0.4,0.8-0.5,1.3-0.6c1.3-0.4,2-0.8,3.4-0.8c0.9,0,1.3,0.8,2.2,0.8
						c0.6,0,0.9-0.5,1.5-0.7c0.7-0.2,1.3,0,2-0.2c1.1-0.3,1.5-1.1,2.7-1.1c0.5,0,0.8,0.2,1.3,0.2c0.2,0,0.4-0.2,0.6-0.2
						c0.2,0,0.3,0.2,0.5,0.2c0.9,0,0.3-2.1,1.3-2.1c0.4,0,0.4,0.5,0.8,0.8c0.7,0.4,1.3,0.4,2.2,0.4c0.5,0,0.6-0.7,1.1-0.7
						c0.4,0,0.3,0.8,0.7,0.8c0.4,0,0.6-0.1,1-0.2c0.3-0.1,0.2-0.6,0.5-0.6c0.5,0,0.5,0.6,1,0.6c1.1,0,1.2-1.3,1.9-2.2
						c0.7-0.9,1.6-1,2-2.1c0.4-0.9,0.5-2.1,1.5-2.1c0.6,0,0.7,0.8,1.4,0.8c0.8,0,1.1-0.8,1.7-1.4c0.4,0.7,0.5,1.8,1.3,1.8
						c0.8,0,1.3,0,2.1-0.1c0.8-0.2,0.9-1.2,1.7-1.2c0.3,0,0.4,0.3,0.7,0.3h2.7c0,1.1-0.7,2.2,0.2,2.9c0.4,0.3,0.8,0.2,1.2,0.5
						c0.5,0.3,0.5,1.1,1,1.1c0.8,0,1.3-0.9,1.3-1.8c0.8,0.1,1.2,0,1.9,0.3c0.6,0.2,0.4,0.9,0.5,1.5l0.3,0.1c1-0.8,1-1.7,2.2-2.2
						c-0.2-0.2-0.3-0.5-0.5-0.8c-0.9-1.3-1.7-1.8-2.9-2.7c-1.2-0.9-1.8-1.6-2.8-2.8c-0.6-0.8-0.4-1.5-0.7-2.4
						c-0.3-0.8-1.1-1.3-1.9-1.3c-0.2,0-0.3,0.1-0.5,0.1c-0.5,0-0.7-0.4-1.2-0.4c-0.9,0-1.3,0.7-2.1,0.7c-1,0-1.4,0-2.4,0
						c-0.5,0-0.6-0.7-1.1-0.7c-0.2-0.2-0.4-0.4-0.6-0.6c-0.6-0.4-1.1-0.5-1.8-0.6l16.5-26c-0.2-0.5-0.3-0.9-0.6-1.3
						c-0.1,0-0.1-0.1-0.2-0.1c-0.3,0-0.4,0.3-0.7,0.3c-0.2,0-0.3-0.1-0.5-0.2c-0.3-0.2-0.5-0.3-0.8-0.6c-0.4-0.3-0.7-0.4-1.1-0.6
						c-0.5-0.2-0.9-0.2-1.2-0.6c-0.2-0.3-0.3-0.5-0.4-0.8c-0.1-0.2-0.1-0.5-0.3-0.5c-0.4,0-0.6,0.4-1,0.3c-0.4,0-0.6-0.4-0.5-0.8
						c0-0.1,0.1-0.3,0.1-0.5c0-0.1,0-0.2-0.1-0.2c-0.8,0-1.2-0.1-1.9-0.2c-0.3,0-0.4,0-0.7-0.1c-0.5-0.2-0.9-0.2-1.3-0.6
						c-0.3-0.3-0.2-0.5-0.5-0.8c-0.2-0.2-0.3-0.2-0.6-0.2c-0.5,0-0.7,0.4-1,0.8c-0.1,0.2-0.2,0.5-0.5,0.5c-0.2,0-0.3-0.2-0.4-0.3
						c-0.1-0.2-0.2-0.4-0.3-0.6c-0.2-0.4-0.3-0.7-0.6-1.1c-0.1-0.2-0.2-0.3-0.4-0.5c-0.3-0.5-0.6-0.7-1.2-1
						c-0.2-0.1-0.3-0.2-0.5-0.3c-0.5-0.2-0.8-0.3-1.1-0.6c-0.4-0.3-0.6-0.6-1.1-0.8c-0.5-0.3-0.8-0.4-1.3-0.7
						c-0.4-0.2-0.7-0.4-1.1-0.4c-0.5,0-0.8,0.1-1.3,0.1h-0.8c-0.2,0-0.2-0.5-0.4-0.4c-0.1,0-0.1,0-0.2,0c-0.1,0.1-0.1,0.3-0.1,0.5
						c-0.1,0.5,0.3,0.9,0,1.3c-0.1,0.2-0.4-0.1-0.7-0.1c-0.3-0.1-0.4-0.2-0.7-0.2c-0.5,0-0.8,0.1-1.2,0.3c-0.3,0.2-0.3,0.5-0.4,0.8
						c-0.1,0.1-0.2,0.2-0.3,0.3c-0.2,0.2-0.4,0.3-0.7,0.5c-0.1,0.1-0.1,0.3-0.2,0.3c-0.1,0-0.2,0-0.3,0c-0.2,0-0.3,0-0.4,0
						c-0.3,0-0.5,0-0.9,0c-0.3,0-0.5,0.4-0.8,0.4c-0.3,0-0.4-0.2-0.6-0.2c-0.3,0-0.6,0.1-0.9,0.3c-0.1,0.1-0.1,0.3-0.3,0.3
						c-0.4,0-0.5-0.5-0.5-1c0-0.2-0.1-0.3-0.2-0.5c-0.2-0.4-0.2-0.6-0.4-1c-0.1-0.2-0.2-0.4-0.4-0.4c-0.1,0-0.1-0.1-0.2-0.1
						c-0.3,0-0.4,0.3-0.5,0.5c-0.1,0.2-0.1,0.6-0.3,0.6c-0.1,0-0.1,0-0.2,0c-0.4,0.1-0.6-0.3-0.7-0.7c0-0.2,0-0.4,0-0.6
						c-0.1-0.2-0.2-0.3-0.3-0.5c-0.1-0.1-0.1-0.1-0.2-0.2c-0.2,0-0.3,0-0.5-0.1c-0.4-0.1-0.6-0.2-1-0.4c-0.3-0.1-0.4-0.3-0.6-0.4
						c-0.5-0.3-0.8-0.4-1.4-0.4c-0.6,0-1.5,0.6-1.5,0c0-0.2,0.1-0.5,0-0.7c0-0.1-0.2,0-0.3,0c-0.4,0-0.7,0-1,0.3
						c-0.3,0.2-0.3,0.4-0.5,0.6c-0.5,0.5-1.2,0.4-1.5,1c-0.1,0.2-0.1,0.4-0.1,0.6c-0.1,0.4-0.2,0.6-0.4,1c-0.3,0.7-1,0.7-1.8,0.7
						c-0.3,0-0.6,0-0.9,0c-0.1,0-0.2-0.1-0.3-0.1c-0.7,0-1.2,0.1-1.8,0.4c-0.2,0.1-0.3,0.2-0.5,0.4c-0.4,0.5-0.7,0.7-1.2,1
						c-0.3,0.3-0.5,0.5-0.9,0.5c-0.4,0-0.6-0.4-1-0.4c-0.6,0-0.9,0.2-1.5,0.4c-0.5,0.1-0.7,0.4-1.1,0.8c-0.2,0.2-0.3,0.3-0.6,0.3
						c-0.3,0-0.4-0.3-0.6-0.5c-0.2-0.2-0.4-0.3-0.6-0.6c-0.1-0.1-0.1-0.2-0.2-0.3c-0.1-0.1-0.3-0.1-0.5-0.2
						c-0.3-0.1-0.5-0.1-0.8-0.2c-0.6-0.1-1-0.2-1.6-0.4c-0.3-0.1-0.4-0.1-0.6-0.3c-0.3-0.2-0.3-0.5-0.5-0.6
						c-0.1-0.1-0.2-0.1-0.4-0.1c-0.5,0-0.8,0.3-1,0.7c-0.1,0.3-0.3,0.4-0.5,0.6c-0.1,0.2-0.3,0.3-0.4,0.4c-0.1,0.1-0.1,0.3-0.3,0.3
						c-0.2,0-0.2-0.1-0.3-0.2c-0.2-0.2-0.3-0.3-0.5-0.5c-0.3-0.3-0.7-0.2-1.1-0.2c-0.6,0-0.9,0-1.5,0.1c-0.3,0.1-0.4,0.1-0.6,0.2
						c-0.2,0.1-0.4,0.1-0.6,0.2c-0.3,0.1-0.5,0.3-0.8,0.3c-0.4,0-0.6-0.1-1-0.3c-0.3-0.2-0.3-0.5-0.6-0.8c-0.1-0.1-0.3-0.2-0.5-0.3
						c-0.1,0-0.2-0.1-0.2-0.1v0c-0.3-0.1-0.5-0.2-0.9-0.4c-0.4-0.2-0.6-0.4-1-0.7c-0.1-0.1-0.2-0.2-0.3-0.2c-0.1,0-0.1,0.1-0.2,0.1
						c-0.1,0-0.2,0-0.2,0.1c-0.1,0.2-0.1,0.4-0.3,0.4c-0.3,0-0.4-0.2-0.6-0.4c-0.4-0.3-0.5-0.7-0.6-1.2c-0.1-0.4,0-0.6-0.2-1
						c-0.1-0.2-0.2-0.2-0.4-0.3c-0.3-0.1-0.5-0.3-0.5-0.7c0-0.1,0-0.2,0-0.3c0.1-0.1,0.3-0.1,0.5-0.2c0.4-0.1,0.6-0.4,0.9-0.6
						c0.4-0.3,0.6-0.5,0.8-0.9c0.2-0.3,0.4-0.6,0.4-1c0-0.3,0-0.5-0.2-0.8c-0.2-0.3-0.4-0.4-0.7-0.7c0-0.1,0-0.1-0.1-0.2
						c-0.4-0.5-0.7-0.7-1-1.3c-0.1-0.3-0.4-0.4-0.5-0.6c-0.1-0.3-0.1-0.5-0.2-0.8c-0.1-0.4-0.2-0.7-0.3-1.1
						c-0.1-0.5-0.1-0.7-0.1-1.3c0-0.3-0.3-0.6-0.6-0.5c-0.5,0-0.7,0.2-1.2,0.2c-0.2,0-0.3-0.1-0.6-0.1c-0.4,0-0.6,0.5-1,0.5
						c-0.3,0-0.5-0.2-0.7-0.5c-0.2-0.2-0.4-0.3-0.6-0.4c-0.6-0.3-0.8-0.8-1.3-1.2c-0.3-0.3-0.7-0.2-1.1-0.2c-0.1,0-0.2,0.1-0.3,0
						c-0.1-0.1-0.1-0.2-0.1-0.3c-0.1-0.2-0.1-0.3-0.1-0.5c0-0.3-0.2-0.5-0.2-0.8c0-0.3,0.2-0.5,0.3-0.8c0.2-0.3,0.2-0.5,0.4-0.8
						c0.1-0.2,0.4-0.2,0.5-0.4c0.2-0.3,0.2-0.5,0.2-0.8c0-0.6-0.2-1-0.6-1.4c-0.1-0.2-0.3-0.2-0.5-0.4c-0.4-0.3-0.6-0.7-1.1-0.9
						c-0.3-0.1-0.5-0.2-0.6-0.4c-0.1-0.1-0.1,0-0.2-0.1c0-0.1,0-0.1,0-0.2c0-0.1-0.1-0.2-0.1-0.3c0-0.4,0.1-0.7,0-1.1
						c0-0.2-0.1-0.3-0.2-0.5c0-0.2,0-0.3,0-0.5c-0.1-0.5-0.4-0.8-0.8-0.9c-0.6-0.1-1-0.2-1.6-0.3c-0.3-0.1-0.6-0.1-0.8-0.3
						c-0.1-0.1,0-0.2-0.1-0.3c-0.2-0.2-0.4-0.2-0.6-0.2c-0.1,0-0.2,0.1-0.3,0.2c-0.3,0.1-0.5,0.2-0.9,0.2c-0.2,0-0.3-0.1-0.4-0.1
						c-0.2,0-0.3,0-0.5-0.1c-0.4-0.1-0.5-0.5-0.7-0.8c-0.3-0.3-0.6-0.4-0.8-0.8c-0.2-0.3-0.4-0.7-0.8-0.7h-0.8c-0.4,0-0.7,0-1-0.2
						c-0.1,0-0.1-0.1-0.1-0.2c-0.4-0.3-0.7-0.5-1.1-0.9c0,0-0.1,0-0.2-0.1c-0.2-0.3-0.3-0.6-0.6-0.8c-0.3-0.2-0.5-0.1-0.8-0.2
						c-0.1,0-0.1-0.1-0.2-0.1c-0.3-0.1-0.5-0.1-0.8-0.1c-0.4,0-0.6-0.2-1-0.4c-0.2-0.1-0.3-0.1-0.5-0.2c-0.1-0.1-0.1-0.2-0.2-0.3
						c-0.1-0.3-0.3-0.4-0.4-0.6c-0.3-0.5-0.4-0.9-0.8-1.3c-0.4-0.4-0.8-0.4-1.2-0.8c-0.2-0.3,0.1-0.6,0.4-0.8
						c0.2-0.1,0.6,0.1,0.6-0.1c0.1-0.7-0.8-0.8-1.3-1.4c-0.3-0.3-0.4-0.5-0.5-0.8c-0.1-0.3,0-0.6-0.1-1c-0.2-0.8-0.4-1.2-0.8-1.9
						c-0.1-0.2-0.2-0.3-0.3-0.5c-0.1-0.3-0.1-0.6-0.2-1c-0.2-0.6-0.3-1.2-0.8-1.5c-0.3-0.2-0.5-0.3-0.8-0.4
						c-0.2-0.1-0.3-0.1-0.5-0.2c-0.1-0.1-0.1-0.3-0.2-0.5c-0.3-0.4-0.6-0.5-1.1-0.6c-0.3-0.1-0.4-0.2-0.6-0.3
						c-0.3-0.1-0.6-0.2-0.7-0.5c-0.1-0.2-0.3-0.4-0.4-0.6c-0.1-0.1-0.2-0.2-0.3-0.2c-0.7,0-0.2,0.1-1,0.4c-0.5,0.2-0.6-0.5-1-0.9
						c-0.2-0.2-0.4-0.3-0.6-0.4c-0.2-0.1-0.3-0.1-0.5-0.2c-0.1-0.1-0.3-0.1-0.3-0.3c0-0.2,0.2-0.4,0.3-0.6c0.1-0.1,0.2-0.1,0.2-0.2
						c0-0.2-0.2-0.3-0.3-0.5c-0.1-0.1-0.1-0.2-0.2-0.3c-0.3-0.2-0.6-0.3-0.8-0.6c-0.1-0.2-0.1-0.3-0.2-0.5c0,0-0.1,0-0.2,0
						c-0.1,0-0.1,0.1-0.1,0.2c-0.2,0.2-0.4,0.2-0.5,0.5c0,0.1-0.1,0.1-0.1,0.1c-0.2,0.1-0.4,0-0.7,0.1c-0.2,0.1-0.4,0.2-0.6,0.2
						c-0.6,0-0.9-0.3-1.3-0.6c-0.3-0.3-0.5-0.4-0.7-0.7c-0.3-0.5-0.5-0.8-1-1.1c-0.3-0.2-0.6-0.2-0.9-0.5c-0.1,0-0.1,0-0.2-0.1
						c-0.1-0.1-0.1-0.2-0.1-0.3c-0.1-0.3-0.2-0.4-0.3-0.6c-0.1-0.1-0.1-0.2-0.2-0.3c-0.2-0.1-0.4-0.1-0.6-0.2
						c-0.2-0.1-0.4,0-0.6-0.1c-0.3-0.1-0.5-0.3-0.8-0.4c-0.3-0.1-0.5-0.1-0.8-0.1h-0.1c-0.4,0-0.1,0.6-0.2,1
						c-0.1,0.3-0.2,0.4-0.3,0.6c-0.1,0.1-0.1,0.2-0.2,0.2c-0.3,0.6-0.8,1-1.3,1.3c-0.5,0.3-1.2,0.4-1.8,0.3h-1.8l-3.3-1.4
						c-0.2,0-0.3,0.1-0.5,0.1c0,0.3-0.1,0.5-0.1,0.9c0,0.8,0.9,0.8,1.7,1.1c0.6,0.2,1,0.5,1.4,1c0.9,1,1.2,1.8,1.5,3.2
						c0.1,0.5,0.1,0.9,0.4,1.3c0.5,0.7,1.3,0.5,1.9,1.1c0.2,0.3,0.2,0.6,0.4,0.9c0.4,0.5,1.1,0.4,1.5,0.8c0.3,0.4,0.2,0.7,0.2,1.2
						c0,0.6-0.2,1.1-0.6,1.5v1.5c-0.1,0.4,0.3,0.5,0.4,0.8c0.3,1.1,0.1,1.8,0.4,2.9c0.2,1,0.6,1.9,0.7,2.9c-0.9,0-1.5,0.1-2.4,0.1
						c-1,0-1.7-0.4-2.3-0.9l-3.7,13.7l-12.7,14.7l-14.1,11.4l-13,4.6l-15.5,5.4c-1.5,0.9-2.6,1.2-3.7,2.5c-0.7,0.8-1,1.6-1.9,2.2
						c-0.4,0.8-0.9,1.1-1.6,1.7c-0.7,0.7-0.9,1.3-1.6,2.2c-0.4,0.6-1.5,0.4-1.5,1.2c0,0.5,0,0.9,0.4,1.3c0.3,0.4,0.9,0.5,0.9,1
						c0,0.9-1.2,1.1-2.1,1.1c-0.8,0-0.7-1-1-1.8c-0.6,0.7-0.6,1.3-1,2.2c-1,2.5-1.5,3.9-2.5,6.4c-0.5,1.1-0.7,1.9-1.6,2.8
						c-1.5,1.5-1.2,3.2-1.8,5.3c-0.4,1.3-0.5,2.1-1.1,3.3c-0.5,0.8-0.8,2.3-0.8,2.3v1.4c0,0.6,0.3,1,0.8,1.4c-0.5,0.7-1,1-1.3,1.9
						c-0.2,0.7-0.3,1.1-0.8,1.6c-0.4,0.3-0.8,0.3-1.2,0.5c-1.9,1.1-3.9,1.9-3.9,4v1.3c0,0.7,0,1.1,0,1.8c-0.7,0.1-1.3-0.1-1.7,0.4
						c-0.8,1-1.3,2.2-2.7,2.2c-1,0-1.4-0.7-2.4-0.7h-2c-1.1,0-1.4-1.2-2.2-1.9c-0.8-0.7-1.3-1.2-1.8-2.2c-0.4-0.8-0.4-1.5-1-2.2
						c-0.9-1.1-2.1-1.6-2.1-3.1c0-0.4,0.2-0.7,0.2-1.1V135c-0.9-0.1-1.4-0.4-2.1-0.9c-0.5-0.3-0.6-0.8-1.1-0.8
						c-0.7,0-0.9,0.6-1.5,0.8c-0.8,0.3-1.3,0.3-2.2,0.3c-1.3,0-1.3-1.6-2.5-2.2c-1.1-0.5-2.1-0.2-3.1-1c-0.6-0.5-1-0.8-1.5-1.3
						c-0.1-0.1-0.1-0.4-0.3-0.4c-1.1,0-1.4,1-2.2,1.7c-1,1-1.7,1.5-3.1,2.1c-0.4,0.2-0.6,0.5-1.1,0.5c-0.6,0-0.8-0.5-1.4-0.7
						c-0.6-0.3-1.3-0.4-1.3-1.1c0-1,1-1.2,1.5-2c0.7-1,0.7-1.7,1.2-2.8l-0.3,0.2l-1.8,0.4c-0.2,0-0.2,0-0.4-0.1
						c0-0.5,0.1-0.7,0.1-1.2c0-1-0.3-1.6-1.1-2.3c0.5-1.1,1-2.2,2.3-2.2c1,0,1.5,0.8,2.6,0.8c0.4,0,0.8,0,1.1-0.3
						c0.5-0.5,0.2-1.3,1.1-1.6c0.6-0.2,1-0.7,1-1.4c0-1.3-0.8-1.9-1.2-3.1c-0.2-0.7-0.1-1.1-0.3-1.8c-0.1-0.4-0.4-0.6-0.4-1V112
						c0-0.4,0-0.6,0-1c0-1.2,0-1.9,0.1-3.1c-1,0-1.4-0.3-2.4-0.4c-0.2,0.3-0.4,0.7-0.5,1.1c-0.3,0.9-0.6,1.8-1.5,1.8
						c-0.7,0-1.1-0.2-1.7-0.2c-0.6,0-0.8,0.5-1.1,1c-0.2,0.3-0.2,0.6-0.5,0.9c-0.3,0.3-0.5,0.4-0.8,0.7c-0.9,1.1-1.6,1.7-2.8,2.4
						c-0.8,0.5-1.3,0.8-2.1,1.3c-0.3,0.2-0.6,0.4-0.8,0.7c-0.7,1-0.2,2.3-1.2,2.9c-1.1,0.7-2,1-2.7,2.1c-0.7,1.2-0.9,2.1-2.1,2.9
						c-1.2,0.8-1.6,1.6-2.5,2.7c-0.5,0.6-1.2,0.6-1.7,1.1c-0.1,0.1-0.1,0.3-0.2,0.4c-0.3,0.3-0.6,0.5-0.6,0.9v1.9
						c0,0.2-0.1,0.3-0.2,0.5l-0.2,0c0,0.3,0,0.5,0,0.9c0,0.5-0.8,0.5-0.8,1c0,0.3,0.1,0.4,0.2,0.7c0.2,0.7,0.2,1.1,0.2,1.8
						c0,0.7-0.1,1.1-0.6,1.6c-0.3,0.3-0.5,0.4-0.5,0.8c0,0.5,0.4,0.7,0.7,1.1c0.5,0.6,0.7,0.9,1.2,1.5c0.8,0.9,1.2,1.4,2,2.2
						c0.8,0.8,1,1.5,1.8,2.2c0.6,0.4,0.8,0.8,1.2,1.5c0.2,0.3,0.4,0.5,0.4,0.8c-0.4,0-0.5,0.2-0.9,0.2s-0.6-0.1-1-0.1
						c-0.2,0-0.4,0.2-0.4,0.4v0.6l-0.3,0.9v0.8c0,0.5-0.6,0.6-0.6,1.1c0,0.3,0.4,0.3,0.6,0.5c0.2,0.3,0.3,0.5,0.6,0.9
						c0.4,0.5,0.7,0.7,1.3,0.8c1.1,0.2,1.5,1,2.2,1.9c0.9,1.2,1.8,1.7,2.6,3c0.4,0.7,0.5,1.3,0.8,2.1c0.3,0.8,0.4,1.4,0.4,2.3v1.2
						c0,1-0.3,1.5-0.8,2.3c-0.3,0.6-0.7,1-1.4,1c-0.6,0-0.9-0.2-1.5-0.4c-0.3-0.1-0.6-0.1-0.9-0.2c-0.2-0.1-0.1-0.3-0.3-0.5
						c-0.1-0.2-0.3-0.2-0.5-0.3c-0.3,0.6-0.7,1-1.3,1.1c-0.1,1.4-0.7,2.1-0.7,3.4c0,0.5,0.2,1,0.5,1.4c0.7,0.8,0.9,1.3,1.7,1.7
						c0.2,0.1,0.2,0.3,0.5,0.4c0.9,0.4,1.5,0.3,2.3,0.8c0.6,0.4,0.9,0.6,1.5,1c1.1,0.7,1.8,1,2.7,1.9c0.3,0.3,0.4,0.6,0.7,0.7
						c0.7,0.2,1.2,0,1.8,0.4c0.9,0.6,1.2,1.2,2.2,1.7c1,0.5,1.6,0.6,2.7,1c2.2,0.9,3.5,1.5,5.8,2.4c1.2,0.4,1.8,1,3,1.6
						c0.4,0.2,0.7,0.3,1,0.6c0.6,0.6,0.9,0.9,1.5,1.5c0.7,0.6,1.4,0.7,1.7,1.6c0.1,0.2,0.2,0.3,0.3,0.6c0.2,0.5,0.2,0.9,0.4,1.4
						c0.1,0.4,0.4,0.5,0.6,0.9c0.2,0.5,0.5,0.7,0.8,1.1c0.4,0.4,0.6,0.8,1.1,0.8c0.5,0,1,0.2,1.4,0.6c0.4,0.4,0.5,0.8,1,1.1
						c1,0.6,1.6,1.3,1.6,2.5c0,0.6-0.2,0.9-0.2,1.4c0,0.3,0.2,0.5,0.4,0.6c0.4,0.3,0.6,0.5,0.9,0.7c0.6,0.4,0.5,1,0.8,1.6
						c0.5,1.1,0.6,1.9,0.7,3.1c0,0.6,0.3,0.9,0.6,1.5c0.7,1.3,1.5,1.7,2.2,3c0.3,0.6,0.7,1,0.7,1.8c0,0.3-0.3,0.4-0.3,0.7
						c0,0.4,0.4,0.5,0.7,0.7c0.4,0.4,0.5,0.7,0.8,1.1c0.4,0.6,0.7,1,1,1.7c0.7,1.5,1.7,1.8,3,2.8c0.4,0.7,1,0.8,1.7,1.2
						c0.4,0.2,0.6,0.6,0.7,1c0.5,1.3,1.5,1.5,2.5,2.4c1,0.9,1.4,1.6,1.7,2.9c0.1,0.3,0.3,0.4,0.5,0.7c0.5,0.7,0.8,1.2,0.8,2
						c0,0.4-0.7,0.4-0.7,0.9c0,0.2,0.2,0.2,0.3,0.3c0.2,0.2,0.4,0.3,0.6,0.5c0.9,0.7,1.7,0.7,2.4,1.5c0.8,1.1,1.6,1.7,1.6,3.1v1.3
						c0,0.8-0.6,1.2-0.6,1.9c0,0.5,0.5,0.6,0.7,1c0.3,0.5,0.4,0.8,0.7,1.2c0.5,0.7,1.3,1.1,1.3,2c0,0.3-0.1,0.4-0.1,0.7
						c0,0.2,0.1,0.4,0.2,0.5c0.3,0.5,0.1,0.8,0.4,1.2c0.2,0.3,0.5,0.3,0.8,0.4c0.5,0.2,0.8,0.4,1.2,0.7v0.8c0,0.3-0.1,0.5-0.4,0.6
						c-0.3,0.1-0.6,0-0.8,0.3l0.2,0.4c0.5,0.2,0.4,0.7,0.6,1.2h0c0.6,0,0.1-1.1,0.6-1.4c0.1-0.1,0.3-0.1,0.5-0.1
						c0.3,0,0.7,0,0.7,0.3c0,0.2-0.1,0.3-0.2,0.5c-0.1,0.4-0.1,0.7-0.3,1c-0.1,0.2-0.4,0.3-0.4,0.5c0,0.3,0.3,0.3,0.5,0.6
						c0.2,0.3,0.2,0.5,0.4,0.7c0.6,0.5,1.2,0.1,2,0.3c0.1,0.8,0,1.3,0,2.1c0.2,0.1,0.6,0.1,0.6,0.4c0,0.3-0.2,0.4-0.2,0.7v0.8
						c0,0.3,0.3,0.4,0.4,0.7c0.1,0.4,0.2,0.6,0.3,1c0.1,1,0.1,1.6,0.8,2.3c0.5,0.6,0.8,1,1.2,1.6c0.6,0.8,1.4,1.3,1.4,2.3
						c0,0.4-0.2,0.5-0.2,0.9c0,0.4,0.3,0.5,0.3,0.9c0.1,0.5-0.1,0.8,0,1.3c0.1,0.5,0.6,0.6,0.8,1.1c0.1,0.3,0,0.5,0,0.8
						c0.1,0.7,0.3,1,0.3,1.7c0,0.1-0.1,0.2-0.1,0.4c0,0.4,0.3,0.5,0.5,0.8c0.5,0.8,1,1.2,1.4,2.1c0.2,0.5,0.2,0.8,0.6,1.2
						c0.3,0.3,0.6,0.3,0.8,0.7c0.2,0.3,0.2,0.6,0.3,0.9c0.1,0.1,0.1,0.3,0.2,0.3c0.3,0.2,0.6,0.2,0.6,0.6c0,0.5-0.1,0.8,0,1.3
						c0.1,0.6,0.5,0.9,0.9,1.3c0.2,0.3,0.2,0.5,0.5,0.7c0.9,0.6,1.2,1.2,1.5,2.2c0.2,0.8,0.7,1.1,1.2,1.7c0.7,0.9,1.1,1.3,1.7,2.2
						c0.3,0.6,0.1,1.1,0.6,1.6c0.1,0.1,0.3,0.1,0.5,0.2c0.3,0.2,0.5,0.2,0.7,0.5c0.2,0.3,0,0.6,0.2,0.9c0.5,0.9,1,1.4,1,2.4
						c0,0.3-0.2,0.4-0.2,0.7c0,0.4,0.4,0.5,0.6,0.8c0.2,0.5,0.3,0.9,0.3,1.5c0.1,0.7,0.4,1,0.4,1.7v0.5c-0.5,0.1-0.9,0.3-0.9,0.8
						c0,0.5,0,0.9,0.2,1.3c0.3,0.6,0.9,0.8,1.5,1.1c0.9,0.4,1.4,0.7,2.3,1.2c0.8,0.4,1.1,0.7,1.9,1.2c0.4,0.3,0.8,0.2,1.2,0.6
						c0.6,0.6,0.8,0.9,1.4,1.4c0.3,0.2,0.5,0.3,0.6,0.6c0.1,0.4,0,0.7,0.2,1.1c0.4,0.6,1,0.7,1.2,1.4c0.1,0.2,0.2,0.3,0.3,0.4
						c0.1,0.1,0.2,0.2,0.3,0.4c0.5,0.7,0.9,1.2,0.9,2.1c0,0.3-0.7,0.3-0.7,0.6c0,0.2,0.2,0.3,0.3,0.5c0.3,0.9,0.4,1.5,0.9,2.2
						c0.4,0.6,0.7,1,0.7,1.7v1.2c0,0.8,0.8,1.1,1.2,1.7c0.5,0.8,0.7,1.3,0.7,2.2v0.6c0,0.2,0.2,0.2,0.3,0.3c0.3,0.4,0.6,0.7,1.1,1
						c0.7,0.4,1.1,0.6,1.8,1.1c0.8,0.7,1.3,1,2,1.8c0.4,0.5,0.8,0.8,0.8,1.5v1.1c0,0.3-0.2,0.4-0.2,0.6c0,0.2,0.1,0.3,0.3,0.4
						c0.3,0.5,0.6,0.7,1,1.1c0.2,0.3,0.2,0.6,0.4,0.9c0.2,0.3,0.4,0.3,0.7,0.5c0.6,0.4,0.7,0.9,0.9,1.6c0.2,0.6,0.3,0.9,0.5,1.5
						c0.3,0.4,0.3,0.8,0.7,1.1c0.5,0.4,0.9,0.4,1.4,0.9c0.3,0.3,0.2,0.6,0.3,1c0.1,0.5,0.2,0.7,0.4,1.2c0.2,0.7,0.5,1,0.7,1.7
						c0.3,1.3,0.5,2.3,1.6,3c0.9,0.5,1.3,1,2,1.8c0.2,0.2,0.2,0.4,0.4,0.7c0.6,0.7,0.9,1.2,1.3,2c0.5,1,0.9,1.5,1.3,2.5
						c0.4,0.9,1.2,1.2,1.2,2.1c0,1.8-0.3,2.8-0.7,4.5c-0.3,1.1-0.3,1.7-0.6,2.8c-0.2,0.8-0.6,1.2-0.8,2l-0.1,0
						c-0.1-0.2-0.3-0.4-0.3-0.6c-0.1-0.3-0.2-0.6-0.5-0.6c-0.3,0-0.4,0.3-0.6,0.3c-0.3,0-0.4-0.1-0.7,0.1c-0.2,0.1-0.2,0.3-0.2,0.5
						c0.1,0.7-0.3,0.9-0.3,1.4c0,0.4,0.5,0.5,0.9,0.5c0.4,0,0.6-0.3,1-0.3c0.1,0,0.1,0.1,0.2,0.2c0.1,0.3,0.3,0.4,0.3,0.7
						c0,0.3-0.1,0.6,0,0.9c0.1,1.5,0.1,1.8-0.1,2.7c0,0.2-0.2,0.3-0.3,0.6c0.1,0.2,0.7,2,0.7,1.9c0.2-0.3,0.1-0.7,0.5-0.7
						c0.4,0,0.5,0.5,0.8,0.7c0.6,0.4,1,0.5,1.6,0.9c0.7,0.5,0.7,1.2,1,2v0.3h-0.6v0.3c0,0.3,0.3,0.5,0.5,0.7
						c0.2,0.3,0.4,0.4,0.8,0.5c0.2,0.1,0.3,0.3,0.4,0.5c0.3,0.4,0.5,0.6,0.9,0.9c0.5,0.4,1,0.7,1,1.3v0.8c0,0,0.3,0.4,0.5,0.6
						c0.3,0.4,0.5,0.7,0.6,1.2v0.7c-0.1,0.7,0.4,1.2,1.1,1.4c0.7,0.3,0.8,1,1.5,1.4c1.6,0.8,2.3,1.6,3.8,2.5c1.3,0.8,2,1.1,3.4,1.8
						c0.4,0.2,0.7,0.4,0.9,0.8c0.1,0.2,0,0.4,0.1,0.6c0.1,0.2,0.3,0.2,0.4,0.3c0.8,0.5,1,1.2,1.3,2c0.1,0.4,0.3,0.6,0.5,0.9
						c0.2,0.4,0.2,0.7,0.6,1c0.6,0.4,1.1,0.3,1.8,0.5c0.6,0.1,0.9,0.4,1.4,0.9c0.4,0.4,0.9,0.5,0.9,1.1c0,0.4-0.9,0.2-0.9,0.7
						c0,0.4,0.5,0.4,0.9,0.5c0.6,0.1,1.2,0.3,1.2,0.9c0,0.3,0,0.4-0.1,0.6c-0.2,0.2-0.6,0.2-0.6,0.5c0,0.4,0.6,0.4,0.8,0.7
						c0.3,0.5,0.7,0.7,1.3,0.8c0.6,0.1,0.9,0.4,1.4,0.9c0.2,0.2,0.3,0.4,0.6,0.6h0.8c0.3-0.1,0.5,0.2,0.7,0.4
						c0.5,0.4,0.7,0.6,1.3,0.8c0.4,0.1,0.7,0,1,0.3c0.4,0.3,0.7,0.5,1.1,0.7c0.9,0.4,1.3,0.6,2.2,1.1c0.8,0.5,1.1,1,2,1.4
						c0.5,0.2,0.7,0.4,1.2,0.6c1.1,0.4,1.8,0.5,2.7,1.3c0.1,0.1,0.2,0.1,0.3,0.2c0.1,0.2,0,0.5,0.1,0.7c0.4,0.4,0.7,0.8,1.2,1
						c0.7,0.3,1.6,0.9,1.6,0.9h0.8c0.4,0.3,0.5,0.7,0.9,0.9c0.7,0.2,1.2,0.2,1.9,0.4c0.5,0.2,0.7,0.5,1.2,0.7
						c0.5,0.2,0.9,0.2,1.2,0.7c0.3,0.4,0.2,0.7,0.4,1.1c0.3,0.4,0.7,0.4,1.1,0.7c0.6,0.4,0.6,0.9,1.2,1.3c0.9,0.7,1.6,0.9,2.7,1.8
						c0.1,0.1,0.3,0.2,0.5,0.2c0.6,0.1,1,0,1.6,0.2c0.5,0.2,0.5,0.6,0.9,0.9c0.4,0.3,0.7,0.4,1.2,0.4h0.9c0.5,0,0.7,0.3,1.2,0.4
						c1,0.4,1.6,0.6,2.7,0.9c0.8,0.2,1.2,0.4,2,0.6c0.5,0.2,0.8,0.3,1.5,0.4c0.1,0,0.3,0.2,0.3,0.3v1c0.3,0.4,0.7,0.3,1.2,0.5
						c0.4,0.1,0.5,0.4,0.9,0.4c0.3,0,0.5-0.1,0.9-0.1c0.7,0,0.9,0.8,1.6,1.1c0.7,0.3,1.2,0.3,1.7,0.8c0.4,0.3,0.6,0.4,1,0.7
						c0.2,0.1,0.2,0.4,0.4,0.4c0.5,0.2,0.9,0.2,1.3,0.2c0.1,0,0.2,0,0.3,0"/>
				</g>
			</g>
		</g>
		<g>
			<path class="st2" d="M102.5,149L102.5,149C102.5,149.1,102.5,149,102.5,149C102.5,149,102.5,149,102.5,149z"/>
		</g>
	</g>
</g>
</svg>
