<?xml version="1.0" encoding="utf-8"?>
<!-- Generator: Adobe Illustrator 23.0.3, SVG Export Plug-In . SVG Version: 6.00 Build 0)  -->
<svg version="1.1" id="Capa_1" xmlns="http://www.w3.org/2000/svg" xmlns:xlink="http://www.w3.org/1999/xlink" x="0px" y="0px"
	 viewBox="0 0 500 500" style="enable-background:new 0 0 500 500;" xml:space="preserve">
<style type="text/css">
	.st0{fill-rule:evenodd;clip-rule:evenodd;fill:#48398A;stroke:#070308;stroke-width:3;}
</style>
<path id="path2336" class="st0" d="M208.4,291.9h-5.8l-4.5-6.9l-5.2-6.2l-3.6-5.9l-1.3-6.2l-7.4-6.2l-4.9,1.4c0,0-5.2,2.4-5.2,1
	c0-1.4,2.3-4.8,2.3-4.8l-3.9-1.4l-7.1,0.7l-4.5-2.8l-3.2-1.4l-3.9-4.5l-4.5,1.7l-0.7,5.5l-6.1-1l-2.3,1l-1.3,21.8l-13.9-1.4
	l-3.9,0.7l-2.9,1.4L113,275l-3.9-3.1h-5.5h-5.8l-2.9-2.4l-1.9,1l-1.6,5.5l-5.2-1l-5.5-0.7l-2.3,3.8l-3.2-1.7l-3.2-4.5
	c0,0-6.8-6.2-8.1-6.6c-1.3-0.3-8.1-0.3-8.1-0.3l-3.6-2.8l-0.6-2.4l0.6-13.8L49,239l-3.2-4.8l-2.6-5.2l-2.3-4.2l-3.2-4.2l-2.6-4.8
	l1.6-5.2l5.8-5.5l6.1-6.6l1.6-4.8l5.2-7.3l2.3-2.4l-1-4.2l0.3-8.7l-3.2-3.5l-3.9-7.3l3.6-7.6l-1.6-6.2l4.2-4.5l12-3.1l4.2-5.5
	l6.5-0.7l2.6-2.1l3.6,0.7l9.7,1l4.9-10.7l-0.3-6.9l10,0.3v1.4l7.4,4.5l4.8,24.2l-2.9,4.2l1,7.6l-0.3,9.7l7.1-2.8l3.2,5.9l7.4,5.2
	l23.9,1.4l8.1-6.2l7.1,0.7l6.1-6.6l14.6-0.7l4.8,4.8l-1,4.5l5.2,5.2l2.9,8.3l6.5-0.7l3.6,5.9l6.8,1.4l5.2-4.8l7.4,1.7l7.8,2.1
	l4.8,5.2l5.5,5.5l8.4,6.2l8.4-4.5l5.8,4.2l5.8,0.7l1.9,5.9v4.2l2.6,3.8l1,1.4l-1.9,4.8l1,5.5l-0.6,5.2l5.5,4.5l2.3-3.5l4.9-0.7
	l2.3-5.5l15.2,9l1.3,12.8l-1,7.6l1.6,10l12.9,1l3.2,3.8l13.9-2.1l3.9,1l2.3,3.1l5.5,5.9l-1.3,4.8l-0.3,4.5l2.3,4.5l-1,1.4l-2.6,0.7
	l-0.7,4.5l2.6,8.3l5.2,0.7l-0.7,5.2l3.2,4.2l5.8-1.4l5.5-1l2.3-1.4l7.4,3.8l4.2-2.8l7.4-0.7l2.9,2.8l10,3.1l-2.3,4.5l2.6,3.5
	l-0.7,3.8h3.2l7.8,6.2l3.9-2.8l5.5,3.8l2.9,0.7l5.2,5.2l2.6,5.2l6.5,2.1l7.4,1.4h4.8l4.5,3.1l-70.2,21.1l-6.5-1.7l-1.6-4.2l-9.4-5.2
	c0,0-2.6,1-2.9-0.3c-0.3-1.4-5.5-9.3-5.5-9.3l-5.2-5.2h-9.1l-4.2-2.8c0,0-1-7.3-1.3-8.7c-0.3-1.4-4.5-8-4.5-8l-2.3-4.2h-3.9
	l-2.9,2.1l-4.2,2.8l-5.5-3.1l-8.4-8.3l-5.8-2.4c0,0-6.1-5.9-6.8-7.3c-0.6-1.4-5.2-2.8-5.2-2.8h-5.2l-5.5-1.4l-4.2,1.7l-3.2,5.2h-5.2
	l-8.1-2.1l-5.8-1.4c0,0-5.2-2.1-7.8-4.5c-2.6-2.4-5.5-3.5-6.8-4.2c-1.3-0.7-6.1-2.8-6.1-2.8l-4.8-3.1l-2.9-2.4l-4.5-1.4h-4.5
	l-8.1,0.7l-5.8-3.1l-3.6-3.1L208.4,291.9L208.4,291.9z"/>
</svg>
