<?xml version="1.0" encoding="utf-8"?>
<!-- Generator: Adobe Illustrator 23.0.3, SVG Export Plug-In . SVG Version: 6.00 Build 0)  -->
<svg version="1.1" id="Capa_1" xmlns="http://www.w3.org/2000/svg" xmlns:xlink="http://www.w3.org/1999/xlink" x="0px" y="0px"
	 viewBox="0 0 500 500" style="enable-background:new 0 0 500 500;" xml:space="preserve">
<style type="text/css">
	.st0{fill-rule:evenodd;clip-rule:evenodd;fill:#ECEB8E;stroke:#070308;stroke-width:3;}
</style>
<path id="path3399" class="st0" d="M204.4,474l-28.2-3.8l-17.6-26.4v-49L141,353.3l-3.5-45.3v-49l-38.7-18.9l-17.6-22.6l17.6-52.8
	v-45.3l-21.1-11.3l10.6-18.9l35.2,3.8l14.1-18.9l14.1,37.7l21.1-26.4l17.6-11.3L186.7,29l66.9,7.5l42.3,7.5l42.3,7.5l17.6-3.8
	l14.1-11.3l42.3,11.3l7,37.7l-10.6,18.9l-14.1,11.3l-42.3,18.9l-28.2,22.6l-24.7,30.2l-7,30.2v22.6l-10.6,26.4l-3.5,26.4l-3.5,22.6
	l-14.1,11.3v22.6L222,394.8l3.5,30.2l-21.1,11.3L204.4,474L204.4,474z"/>
</svg>
