<?xml version="1.0" encoding="utf-8"?>
<!-- Generator: Adobe Illustrator 23.0.3, SVG Export Plug-In . SVG Version: 6.00 Build 0)  -->
<svg version="1.1" id="Capa_1" xmlns="http://www.w3.org/2000/svg" xmlns:xlink="http://www.w3.org/1999/xlink" x="0px" y="0px"
	 viewBox="0 0 500 500" style="enable-background:new 0 0 500 500;" xml:space="preserve">
<style type="text/css">
	.st0{fill-rule:evenodd;clip-rule:evenodd;fill:#AD1B17;stroke:#070308;stroke-width:3;}
</style>
<path id="path3391" class="st0" d="M464.5,464.4l-29.9-3.2l-9,6.4l-41.8-3.2l-37.4-8l-56.8-4.8h-23.9c0,0-26.9-3.2-26.9-9.6
	s-9-19.2-9-19.2l-11.9,9.6H194l6-30.4l1.5-27.2h-17.9c0,0-7.5-8-13.4-12.8c-6-4.8-23.9-28.8-23.9-28.8l-9-14.4l-17.9-6.4l-19.4,3.2
	l-13.4,1.6l-25.4-14.4l-12-24l-7.5-38.4l-7.5-24l-7.5-68.8v-14.4l16.5-24l46.3-22.4l25.4-17.6l13.4-12.8l16.5,1.6l23.9-16l14.9-8
	l17.9,12.8l20.9,1.6h7.5v12.8l1.5,27.2l-10.5,11.2l1.5,8l31.4-6.4l28.4-12.8l20.9,3.2l14.9,14.4l6,17.6l3,16l-3,20.8l-17.9,6.4
	l-11.9-8l-7.5-8l-9,1.6l-26.9-6.4v19.2l-6,24l1.5,30.4l-9,17.6l-9,6.4l-9,6.4l-11.9,3.2l-7.5,3.2v60.8l7.5,4.8l16.4,12.8l20.9-4.8
	l6-22.4l-1.5-16l14.9-14.4l17.9,3.2l7.5,16l6,14.4l3,17.6l17.9,14.4l23.9-9.6l7.5-6.4l4.5,14.4l37.4,1.6h12l20.9,6.4l22.4,33.6
	L469,402l-10.5,11.2l1.5,9.6l11.9,8l3,19.2L464.5,464.4L464.5,464.4z"/>
</svg>
