<?xml version="1.0" encoding="utf-8"?>
<!-- Generator: Adobe Illustrator 23.0.3, SVG Export Plug-In . SVG Version: 6.00 Build 0)  -->
<svg version="1.1" id="Capa_1" xmlns="http://www.w3.org/2000/svg" xmlns:xlink="http://www.w3.org/1999/xlink" x="0px" y="0px"
	 viewBox="0 0 500 500" style="enable-background:new 0 0 500 500;" xml:space="preserve">
<style type="text/css">
	.st0{fill-rule:evenodd;clip-rule:evenodd;fill:#249CA7;stroke:#070308;stroke-width:3;}
</style>
<path id="path3375" class="st0" d="M262,470l-7.3-10.1l-1.1-9l13.6-11.2l3.1-11.2l-3.1-6.7l-7.3-9l-7.3-6.7l-7.3-4.5l-1,7.9
	l-1.1,6.7l-9.4,6.7l-3.1,10.1l-5.2,5.6l3.1,9l1,15.7l-4.2,13.5H219l-5.2-6.7l-10.5-4.5l-6.3,5.6l-10.5,4.5l-7.3,3.4l-7.3-6.7h-10.5
	l-4.2-10.1l-10.5-4.5l-5.2-10.1l-6.3-1.1l-4.2-3.4l-4.2,5.6l-1,5.6l-9.4-5.6v-13.5l-5.2-6.7l1-9l1.1-9l-13.6,5.6l-4.2,4.5l-6.3-9
	l-10.5-3.4l1-6.7L72.3,387l-5.2-6.7l3.1-9l12.6-13.5l10.5-7.9v-9l-6.3-7.9l-3.1-9v-6.7l5.2-5.6l3.1-4.5l11.5,1.1l6.3-4.5l4.2-7.9
	l3.1-5.6l10.5-5.6l6.3-2.2l11.5-15.7l4.2-11.2l15.7-7.9l13.6-9v-3.4l4.2-9l-9.4-10.1l-5.2-7.9l1.1-20.2l1-10.1l-2.1-4.5l4.2-14.6
	l2.1-5.6l-6.3-5.6l7.3-3.4l6.3-10.1l10.5-16.8l3.1-12.3L193.9,93l-2.1-11.2l-6.3-10.1V52.7l-5.2-4.5l-1.1-7.9l9.4-12.3l4.2-5.6
	l5.2,1.1l5.2,10.1l4.2,9l12.6,14.6L219,67.2l-10.5,5.6l-3.1,7.9v10.1v5.6l10.5-2.3l8.4-1.1l4.2,6.7l6.3-5.6l7.3,10.1v4.5l6.3,11.2
	l12.6,4.5h10.5l7.3,6.7h10.5l2.1-9l7.3-5.6l9.4-2.3l15.7,4.5l11.5-6.7l3.1,18l12.6,10.1l2.1,7.9l6.3,6.7l5.2,10.1v7.9l-6.3,5.6
	l10.5,25.8l-12.6,13.5l8.4,4.5l9.4,6.7l10.5,4.5h8.4l10.5,2.2h9.4l3.1,6.7l-2.1,3.4l3.1,6.7h7.3l4.2,5.6l5.2-5.6l-4.2,9l-2.1,11.2
	l-1,12.3l4.2,6.7l-2.1,9l-4.2,5.6l-7.3,5.6l2.1,11.2l-3.1,9l-8.4,2.2l-7.3,7.9l-6.3-5.6l-3.1-11.2l-8.4-12.3L372,314l2.1,7.9
	l3.1,7.9l8.4,17.9l-6.3,10.1v9v9l-47.2,55l-18.9,2.2l-6.3-4.5l-9.4-1.1l-1.1,11.2l-7.3,5.6l-3.1,6.7l-9.4,3.4h-7.3v7.9L262,470
	L262,470z"/>
</svg>
