<?xml version="1.0" encoding="utf-8"?>
<!-- Generator: Adobe Illustrator 23.0.3, SVG Export Plug-In . SVG Version: 6.00 Build 0)  -->
<svg version="1.1" id="Capa_1" xmlns="http://www.w3.org/2000/svg" xmlns:xlink="http://www.w3.org/1999/xlink" x="0px" y="0px"
	 viewBox="0 0 500 500" style="enable-background:new 0 0 500 500;" xml:space="preserve">
<style type="text/css">
	.st0{fill-rule:evenodd;clip-rule:evenodd;fill:#85241D;stroke:#070308;stroke-width:3;}
</style>
<path id="path3449_1_" class="st0" d="M373.7,312.1v6.2l-17.5,14.3v9.8l-11.7-0.9l-4.2,2.7l4.2,6.2l-0.8,7.1l-5.8,3.6l-1.7,5.4
	l5.8,4.5l-3.3,5.4l-10,6.2l-7.5,11.6l-6.7,5.4l-4.2,5.4l-20.8-3.6l-1.7-6.2l3.3-5.4l7.5-8l-7.5-6.2l-8.3,3.6l-4.2-1.8h-5.8l-3.3,6.2
	l-5.8-3.6l-3.3,4.5l-5.8,2.7l-4.2-5.4l-5-0.9l-7.5,1.8l-5.8-3.6l-5.8,1.8l-5,12.5l-12.5,8.9l-4.2,4.5l0.8,9.8l-5.8,7.1l-12.5,11.6
	l-7.5,7.1l-8.3,0.9l-11.7,9.8l-3.3,6.2l-10-0.9l-2.5,6.2l0,0l-8.3-14.3l-6.7-1.8l-7.5-9.8v-11.6l3.3-7.1v-13.4l7.5-8.9l-1.7-4.5
	l5-17l3.3-28.6v-9.8l7.5-6.2l-0.8-7.1l5-5.4l5.8-23.2l23.3-24.1l6.7-7.1l-0.8-7.1l-1.7-8l6.7-3.6l-1.7-8l7.5-6.2l3.3-3.6l-1.7-4.5
	l5-3.6l0.8-14.3l3.3-8v-8.9l8.3-9.8l10-5.4l10-5.4l0.8-7.1l-0.8-7.1l5-5.4l-2.5-5.4l-4.2-3.6l0.8-5.4l1.7-3.6h7.5l6.7-5.4l-8.3-10.7
	l1.7-5.4l5.8-4.5l-3.3-6.2l-1.7-16.1l9.2-5.4l4.2,1.8l4.2-9.8l9.2,6.2l4.2-7.1l5-4.5l7.5-3.6l0.8-11.6l10.8,0.9l5-4.5l10.8,3.6
	l12.5-4.5l8.3,3.6l10.8-0.9l-4.2,5.4l-3.3,8l5,8.9l0.8,7.1l-3.3,8.9l3.3,26.8l-6.7,12.5l1.7,11.6l-6.7,8.9l-5.8,7.1l-4.2,0.9
	l6.7,8.9l-0.8,2.7l-4.2,7.1v8.9l5,5.4l3.3,4.5l-8.3,7.1l-0.8,7.1l-5.8,8.9l-3.3,5.4l0.8,9.8l5.8-2.7l10-1.8l5.8,5.4l13.3,10.7h5
	l5-9.8l3.3-4.5h5l5.8,6.2l4.2,8.9l3.3,7.1l0.8,3.6l-5,9.8l-0.8,19.6l-0.8,8.9l-3.3,8.9V312.1"/>
</svg>
