<?xml version="1.0" encoding="utf-8"?>
<!-- Generator: Adobe Illustrator 23.0.3, SVG Export Plug-In . SVG Version: 6.00 Build 0)  -->
<svg version="1.1" id="Capa_1" xmlns="http://www.w3.org/2000/svg" xmlns:xlink="http://www.w3.org/1999/xlink" x="0px" y="0px"
	 viewBox="0 0 500 500" style="enable-background:new 0 0 500 500;" xml:space="preserve">
<style type="text/css">
	.st0{fill-rule:evenodd;clip-rule:evenodd;fill:#303D8C;stroke:#070308;stroke-width:3;}
</style>
<path id="path3415" class="st0" d="M364.3,420.3l-6.6-11.2h-13.3l-4.7-4.1l-5.7-7.1h-18.1h-20.9l-4.8-6.1l-10.4-4.1l-1.9,9.2
	l4.8,9.2l-7.6,6.1v13.2v11.2h-8.6l-8.6-1l-8.6,6.1l-2.8-10.2l-4.8,7.1l-13.3,7.1h-5.7l-3.8-3l-7.6,5.1l-2.8,8.1l-8.6-1l-10.4-13.2
	l-12.4-5.1l-10.5,4.1l-14.3,4.1l-6.6-8.1l-15.2,1l-4.8-6.1l-1.9-8.1l-7.6-4.1h-12.4l-5.7-4.1L96.3,405l-4.8-4.1v-12.2l-16.1-3.1
	l11.4-8.1l2.8-6.1l5.7-3.1h6.7l2.8-5.1l2.8-6.1l-5.7-6.1l1.9-8.1l6.7-7.1l1.9-8.1l11.4-1l10.5-4.1l2.8-8.1h7.6l-2.8-6.1l-4.8-4.1
	l-1.9-11.2l4.8-10.2l4.8-3.1l-5.7-1l1.9-4.1l6.6,2l6.7,9.2l-1.9,4.1h-7.6l1.9,6.1h9.5l6.6-3.1v-9.2l-8.5-3.1v-13.2l4.7-3.1h8.6v-8.1
	H159l-3.8,2v-7.1h-8.6l-3.8,5.1l5.7,4.1v4.1l-7.6,2l-4.8,4.1l-9.5-1l-10.5-2l-5.7-7.1l-5.7-3.1l1-9.2h7.6l1-6.1h7.6l2.8-7.1l4.8-7.1
	l-2.8-5.1H122l-1-5.1l-5.7,1l-2.8,5.1l-9.5,11.2l0.9,4.1l-2.8,5.1l-1,6.1l-7.6-3.1v-9.2l-8.6-5.1l-4.7-7.1l3.8-7.1l-1.9-14.2l11.4,0
	l1.9-5.1l9.5-4.1l10.5,5.1l0.9-9.2l6.7-5.1l0.9,10.2l9.5,4.1l7.6-6.1l6.6,13.2l13.3-4.1l7.6,8.1l9.5,1l8.6-4.1l7.6,14.2l13.3,0
	l13.3,16.3l10.4-2l11.4-8.1l13.3-2l12.4-10.2l10.4-8.1l13.3-5.1l-9.5-15.3l-9.5-4.1l-2.9-7.1v-9.2l1-3.1l-6.6-5.1v-13.2l2.8-6.1
	l6.6,5.1l4.8-3.1l6.7-26.5l6.6-22.4l15.2-20.3l9.5-10.2h11.4l19-19.3l1-8.1l2.8-8.1l3.8-5.1h9.5l5.7,1l5.7,10.2L389,47.8l7.6-1
	l-1,11.2l-2.8,14.2h10.4l4.8-5.1l5.7,11.2l23.8,1v13.2l-7.6,5.1l-3.8,9.2l-5.7-12.2l-4.8,4.1h-9.5l-2.9,5.1l6.7,4.1V119l-3.8,12.2
	l-1.9,6.1l6.6,8.1l8.6,4.1l3.8,2l-3.8,6.1l1.9,19.3l5.7,14.2v15.3l6.7,11.2h8.6v8.1l-12.4,12.2l-25.7,28.5l-3.8,12.2l-2.8,14.2
	l-5.7,7.1v9.2l-8.6,7.1l-3.8,33.6v14.2l-4.7,17.3l-1,11.2l-7.6,9.2L364.3,420.3L364.3,420.3z"/>
</svg>
