<?xml version="1.0" encoding="utf-8"?>
<!-- Generator: Adobe Illustrator 23.0.3, SVG Export Plug-In . SVG Version: 6.00 Build 0)  -->
<svg version="1.1" id="Capa_1" xmlns="http://www.w3.org/2000/svg" xmlns:xlink="http://www.w3.org/1999/xlink" x="0px" y="0px"
	 viewBox="0 0 500 500" style="enable-background:new 0 0 500 500;" xml:space="preserve">
<style type="text/css">
	.st0{fill-rule:evenodd;clip-rule:evenodd;fill:#CA5D36;stroke:#070308;stroke-width:3;}
</style>
<path id="path2309_2_" class="st0" d="M340.3,85.9v84.7l4-1.9l2.7-4l4.2-2.9l5.2,3.2l0.3,4h2.7l2-1.9l2.2-1.6h4.5l1.7,2.4l1.2,2.7
	l17-0.3l1,3.5l3.7,0.3l2.5-3.7l2.5-2.9h4.7l2.7,2.7l2.2,1.9l4.7-0.3l2,3.2l1.7,4.5l-1,3.5h3.2l2.7,2.1l-0.3,2.7l-1.5,0.3v5.1h2.5
	l2.2,2.1l0.7,4.3l-2.5,1.6l-1.7-0.8l-0.3,4.3h2.2l0.3,1.9l-0.5,4.5l-0.7,1.1h-2.5v4.5l5.5,1.9l2.7,4l0.3,2.7l-3.7,1.6l-4.7-0.8h-2
	l-1,5.3l-3.5,0.8l-4-1.1l-2.2-3.7l-1.5-2.1l-1.7,1.1l-3,4.3h-2.7l-2.7-4.8l-7.2-7.2l-4.7-2.9l-3.2,1.1l-10.2,9.3l-4.7,2.1l-2.2-2.7
	l-7-1.6l-1.7,4l-4.7,5.1l-3.2,2.1l-16,0.3l-2.2,4l-4.2-0.5l-1-1.9l-2.2,0.3l-1.2,2.9l-1.7,1.9l-2.5,2.1l-0.3,83.1l3.5,4l-0.3,10.4
	l3.7,1.3l2.7,4l3.5,3.2l3.7,4.3l3.5,1.9l4.7-0.3l2.7,1.9l4.2,3.2l5.2,3.2l4.2,4.8l7.5,2.4l3.7,2.1l2.2,4.3v3.5v4.3l1.5,4.5l2.5,2.7
	l-1.7,2.9l-3,6.4l-1.7,4l0.3,4l3.7,1.9l4.2,5.3l3,5.3l2,6.7l1.2,2.7l3.7,3.5l6.7,8.3v3.5l-0.2,4.3l0,0L388,448l-1.7,2.4l-1.3,10.7
	l-1,6.7h-5.5l-2.5,4l-3.2-5.1l-2.5-3.5l-3.7,2.1v6.4H362l-5.5-2.9l-2-8.6l6.2-5.6l-4-6.1l-5.5,4l-5-1.6l-1.5-6.9l-4.7-0.3l-2.5,5.1
	l-4,2.1l-6.2,1.9l-2.2-4c0,0,2.5-5.1,2.5-6.4s-1.7-7.7-1.7-7.7h-6.5l-5.7,3.2l-1,4.8l-3.5,8.3l-2.5,2.9c0,0-3.7,2.1-4.2,3.7
	c-0.5,1.6-3.7-0.3-3.7-0.3l-2.7-6.1l-3.7-2.9l2.2-4c0,0,6-3.2,6-4.5V435l-6.2,0.3l-4.7,5.3l-3-1.3c0,0-3-0.8-3.2-2.9
	c-0.3-2.1-0.3-4.5-0.3-4.5l6.5-1.6l2.7-3.7l1.7-6.1l-2.7-3.5l-4.5-3.2l-2-7.5l3.2-1.9l0.3-5.9l-0.5-6.4l-1-4.5l-5.5-0.5l-2.7-4.5
	l2.5-5.1l3.2-3.7l6.5-0.3l0.7-3.5l-2.7-3.7l-4.5-1.3l-7.5,2.1l3.2,2.4l-1.5,2.7l-3.7,0.8l-5.2-1.9l-3.5-0.8l-1.5-5.9l-3.7-5.6
	l-4.5-1.9l-4.5,1.9l-6,1.6l-3.7-2.9l-4.2-1.9l-3.7,0.3l-2.2-4.8l-5.2-1.1l-2.7,5.9l-8,2.9l-5.5-4v-5.9l2.7-5.6l-2.2-4l-5.5-2.1
	l-1.5-4.5v-6.1l4.2-2.9l-0.7-4.5l-6-4.3l-4.5-0.3h-7.2l-5.7-1.3l-6.2-4.5l-1.5-4.5v-4l-3.5-1.9h-3.2l-2,2.7l-4.2-0.5l-3-3.2
	l-0.3-2.9l-2.5-4.8l-6-3.5l-6,0.8l-2.5,2.4l-8,1.9l-5.2-2.4l-4-5.1l-4.5-0.3l-3.5,2.7l-1.5-2.9l-1.2-2.9l-7.7-3.2l1.7-5.1l-2.2-6.4
	l-3.7-2.1l-7.2-0.5l-2.7-3.5v-5.6l-5.2-4h-3.2l-1.7-4l-1.5-5.1l-6.5-1.3l-1-3.5v-2.7l-0.2-3.5l-3.7-2.4l-1.5-3.5l15.2-12.6l9.7-9.3
	l2.5-4.3l5.7-2.1l-0.7-8l4-2.4l0.2-3.2l3.7-2.1l6.2,2.1l8-6.7l2.5-6.4l-0.5-6.1l8.7,3.2l2-0.5l0.2-4.5l-7.2-10.4l0.7-9.3l6.5-6.4
	l1.2-4.3l0.5-5.6l4.7-9.3l-0.5-13.6l5.5-10.7l5.5-7.2l0.5-4.8l3.5-0.3l6.2,5.6l0.3,2.9l4.5,0.5l5.2-7.2l14-6.7l10.7-5.3l7.5-2.7
	l-1.2-5.6l-1.3-6.7l4.5,5.1l16,1.9l6.5-2.7h8.5l2,4.5l4.2,1.9l6-3.7h5.5l6.5-4l5.2-6.1l7,1.1l9-5.9l12.7-4.3l5.5-6.7l6-3.2l-3.2,15
	l-7.7,9.3v9.1l9.5,4.3l7.5,8.6l5.7,4l9.5-0.8L340.3,85.9"/>
</svg>
