<?xml version="1.0" encoding="utf-8"?>
<!-- Generator: Adobe Illustrator 23.0.3, SVG Export Plug-In . SVG Version: 6.00 Build 0)  -->
<svg version="1.1" id="Capa_1" xmlns="http://www.w3.org/2000/svg" xmlns:xlink="http://www.w3.org/1999/xlink" x="0px" y="0px"
	 viewBox="0 0 500 500" style="enable-background:new 0 0 500 500;" xml:space="preserve">
<style type="text/css">
	.st0{fill-rule:evenodd;clip-rule:evenodd;fill:#48A3A5;stroke:#070308;stroke-width:3;}
</style>
<path id="path3481" class="st0" d="M428.5,306.3c0.3,0.3,1.2,0.6,0.9,0.9c-1.6,1.7-4.2,5.9-7.1,6.6c-1.7,0.5-9.2,1.6-9.8,3.8
	c-0.4,1.5-6,8-6.2,7.6c-1-2.2-6.8-6-7.1-6.6c-0.5-1-5.7-9.1-9.8-4.7c-4.1,4.4-4.3,2-8,0c-2.7-1.4-6.5-1.9-11.5-1.9
	c-2.6,0-10.9-0.7-11.5,1.9c-1,4.5-0.1,7.2-5.3,8.5c-5.6,1.5-2,6.8-5.3,8.5c-4.3,2.3-2.3,4.2-8,5.7c-4.9,1.3-2.9,4.7-9.8,4.7
	c-5.1,0-7.3,0.9-12.4,0.9c-5,0-8.4,1.9-11.5,1.9c-7.5,0-1.5,6.6-7.1,6.6h-13.3c-4.5,0-8.7,3.8-9.8,3.8c-5,0-9-0.8-11.5-1.9
	c-3.2-1.4-7.3-9-8.9-5.7c-2.5,5.3-4,1.6-8.9,2.8c-0.1,0-4.3,1.9-8,1.9c-4.4,0-8.9,2.8-10.6,2.8c-7.1,0-6.5,0.3-9.8,3.8
	c-3.7,4-2.3,5.1-8,6.6c-3.6,1-6.7,0.6-11.5,1.9c-4.7,1.3-4.8,1.1-8,1.9c-2.1,0.6-9.2,1.5-9.8,3.8c-0.6,2.5,1,10.5-2.7,9.5
	c-6.6-1.8-4.7,0.2-6.2,6.6c-0.5,1.9-8.9,7.5-9.8,3.8c-1-4.4-4.3-5.2-9.8-3.8c-4.6,1.2-3.3,4.9,0,6.6c2.6,1.4,6.5,8.5,3.5,8.5h-4.4
	c0.3,5.7,1.2,8.5-6.2,8.5c-5.5,0-8.6-1.2-9.8,3.8c-1.2,5-2.1,6.8-5.3,8.5c-2.4,1.3,4.2,8.3,4.4,9.5c1.2,5.1,3.5,7.8,2.7,11.4
	c-0.4,1.8-8,4.3-8.9,4.7c-2.3,1.3-4,5-7.1,6.6c-4,2.1-6.8,2.2-9.8,3.8c-4.8,2.6-4.9,1.4-8-1.9c-2.7-2.9-6-1.2-8.9,1.9
	c-2.8,3-5.3,4.7-8.9,5.7c-4.1,1.1-7.4,0.8-10.6-1c-4.1-2.2-2.4-5.4-7.1-6.6c-6-1.6-5.7-0.8-8-5.7c-0.4-0.9-11.9,0-13.3,0
	c-2.3,0-2.4-4.6-4.4-5.7V200.9l11.5-11.4l6.2-11.4l6.2-4.7v-6.6h9.8L88,153.4l0.9-8.5l6.2-3.8l25.7-18l8.9-1l29.3-12.3l9.8-14.2
	l-0.9-7.6l8.9-13.3l12.4-14.2l6.2,2.8l9.8-1l5.3-2.8h16l5.3-7.6l8-2.8l7.1,6.6h6.2l4.4-7.6l5.3-2.8l1.8-6.6h16l7.1,4.7l31,4.7l8-3.8
	l7.1,1.9l7.1-4.7l22.2,0.9l8-4.7l12.4-3.8l14.2,6.6l9.8-10.4l8.9-3.8l18.6,1h9.8l8.9,8.5l2.7,7.6l-2.7,4.7l7.1,7.6l2.7,8.5l-0.9,3.8
	l-5.3-1.9l-8,9.5L441.8,87l-3.5,15.2v5.7l3.5,10.4l-1.8,7.6l-3.5,6.6l-13.3,5.7l-8.9,8.5l2.7,15.2l-2.7,7.6l3.5,11.4l-2.7,15.2
	l-1.8,5.7l4.4,15.2l-5.3,13.3l-3.5,13.3l7.1,2.8l9.8,19l-3.5,12.3l-2.7,7.6l6.2,6.6l3.5,9.5L428.5,306.3L428.5,306.3z"/>
</svg>
