<?xml version="1.0" encoding="utf-8"?>
<!-- Generator: Adobe Illustrator 23.0.3, SVG Export Plug-In . SVG Version: 6.00 Build 0)  -->
<svg version="1.1" id="Capa_1" xmlns="http://www.w3.org/2000/svg" xmlns:xlink="http://www.w3.org/1999/xlink" x="0px" y="0px"
	 viewBox="0 0 500 500" style="enable-background:new 0 0 500 500;" xml:space="preserve">
<style type="text/css">
	.st0{fill:#9DC18B;stroke:#000000;stroke-width:4;stroke-miterlimit:10;}
</style>
<path class="st0" d="M168.3,478.8l8.6-19l19.8-14.7l12.1-17.2l18.1-11.2l9.5-7.8l30.2-52.6l13.8-14.7l11.2-28.4l16.4-40.5l21.5-30.2
	l22.4-30.2l24.1-45.7c0,0,1.7-10.3-4.3-18.1c-2.4-3.1,0-14.7,0-14.7l-6-16.4l-7.6-1.4L357,103c0,0,2.4-14.5,6.9-17.2
	c2.2-1.3-1.7-17.2-1.7-17.2l-12.1-19c0,0,3.4-29.3-10.8-23.3c-0.2-1.7-0.5-3.4-0.7-5.2c-4.5,1.1-9,2.3-13.5,3.4
	c0,0-11.2,19-13.8,19.8c-2.6,0.9-14.7,3.4-14.7,3.4l-25.9,26.2l0.1,31.5h-12.9c0,0-5.3,8.8-11.2-2.6c-3.6-6.8-6-1.7-12.1-7.8
	c-6.8-6.8-8.4-11.3-7.4-15.3c0.2-0.8-0.6-1.5-1.4-1.1l-17.1,7c0,0-4.9,2.6-8.5,2.7c-2,0.1-3.7,1.6-3.7,3.6l1,41.9l-2.2,19.8
	l9.9,43.1c1.5,3.4,5.8,13.5,2.5,16.9c-0.5,0.5-2,1.7-2.5,2.1c-2.1,1.7-3.9,2.9-5.2,3.7c-2.1,11.6-3.7,21-4.7,26.9
	c-5.1,30.1-5.5,37.3-9.9,51.3c-4.1,13.1-5.1,11.4-6.8,19.7c-3.1,14.7-0.4,23.2-5.7,36.3c-2,5.1-4.5,9-6,11.2
	c-3.9,0.6-7.8,1.1-11.6,1.7l-12.9,19v10.3l-8.6,12.9l-15.5,4.3c0.4,8,0.9,16.1,1.3,24.1c1,2.6,2,5.2,3,7.8h6.9l7.8,12.9
	c3.9-0.7,7.8-1.4,11.6-2.2c1,1.7,2,3.4,3,5.2c0.6,1.6,1.1,3.2,1.7,4.7c2.6,0.9,5.2,1.7,7.8,2.6c-0.5,0.5-2.3,2.4-2,4.8
	C159.7,476.3,163.4,479.1,168.3,478.8z"/>
</svg>
