<?xml version="1.0" encoding="utf-8"?>
<!-- Generator: Adobe Illustrator 23.0.3, SVG Export Plug-In . SVG Version: 6.00 Build 0)  -->
<svg version="1.1" id="Capa_1" xmlns="http://www.w3.org/2000/svg" xmlns:xlink="http://www.w3.org/1999/xlink" x="0px" y="0px"
	 viewBox="0 0 500 500" style="enable-background:new 0 0 500 500;" xml:space="preserve">
<style type="text/css">
	.st0{fill:#E0A333;stroke:#000000;stroke-width:3;stroke-miterlimit:10;}
</style>
<path class="st0" d="M58.2,400.6c2.8,9.2,2.5,16.3,1.7,21.1c-1.3,7.6-4,10.7-2.2,15.6c2.5,6.9,11.3,9.2,13,9.7
	c5.9,1.4,12.6,0.3,17.3-3.4c3.9-3,3-5.1,7.4-8.6c1.9-1.5,7.6-6,13.5-4.4c6,1.6,8.7,8.5,9.4,10.5c2.5,7.3-1.6,10.5,1.6,16.2
	c2.6,4.7,7.6,6.6,9.1,7.2c4.5,1.8,6.2,0.5,9.9,1.3c10.8,2.4,11.2,17,20.1,17.7c4.6,0.4,5.2-2.7,12.6-4.8c13.1-3.7,18.9,3.5,23.5,0
	c8.3-6.1-9.1-29.7,1.3-58.9c0.8-2.2,1.2-5.8,3.9-8.6c3.8-3.9,7.8-2.7,13.8-4.8c5.7-2.1,10-7.1,18.6-17.1c2.8-3.2,5.9-7.2,11.5-12.6
	c2.7-2.6,4-3.8,5-4.3c6.6-3.4,12.7,0.7,18.4-3.6c0.8-0.6,1.2-1.1,2.1-2c8.4-9.3,12.6-14,19.5-22.5c11.1-13.6,10.4-10.5,13.2-15.2
	c5.7-9.5,4.2-14.2,8-27.7c5.9-20.7,13.2-19.7,13.3-31.4c0.3-17.2-15.5-30.1-11-34.5c2.1-2.1,5.4,0.4,9.4-2.1c5-3.1,4.2-9.5,6.8-19.4
	c2.4-9.2,6.4-15.7,12-25.1c7.4-12.2,10.8-13.4,11-19.9c0.1-4.2-1.2-7.5,0-14.6c1-6,2.5-7.6,3.7-8.4c3-2,5.7,0.4,9.4,0
	c4-0.5,8-4.2,16.7-25.1c6.9-16.6,6.1-18.3,10.5-24.1c3.5-4.6,9-12,18.3-14.6c9.9-2.8,15.6,2.2,22-2.6c3.7-2.8,2.4-5,7.8-10.5
	c5.7-5.8,8.4-4.7,11-8.9c4.3-6.9,0.9-16,0.5-17.3c-1.7-4.6-3.3-4.5-9.9-13c-8.7-11.3-8-14.1-12.6-15.7c-5.8-2-15.4-0.3-15.7-0.3
	c-0.1,0-0.3,0.1-0.3,0.1c-0.4,0.1-0.7,0.2-0.8,0.2c-1.5,0.5-0.2,10.2-0.2,10.2c0.5,3.6,0.6,4.1,0.2,4.5c-2,1.8-9.6-6.1-12.6-4.2
	c-2.7,1.8,2.2,9.7-1,13.6c-4.1,4.8-16.1-2.3-19.9,2.1c-2.8,3.2,3,8.6,3.1,15.7c0.3,13.3-19.4,20-47.1,40.8
	c-25.9,19.5-21.5,23.2-33.5,27.2c-26.6,8.9-49.7-10.2-59.6,2.1c-6,7.5,0.1,18.6-8.4,25.1c-5,3.8-11.8,3.5-16.3,3.4
	c-9.9-0.4-11.9-4.2-18.2-4.4c-10.3-0.3-18.1,9.5-30.1,24.5c-10.6,13.3-16,20-18,29.9c-1.1,5.1-1.3,10.7-5.9,15.6
	c-4.8,5.1-10.1,4.8-10.9,8.5c-0.9,4.4,6.4,6.4,8.9,14.6c1.4,4.5,0.5,8.3-0.8,13.7c-1.2,4.9-3.6,15.4-10.5,21.4
	c-0.7,0.6-2,1.7-1.8,2.6c0.5,1.7,6.4,2,11,1.3c2.5-0.3,3.1-0.8,3.7-0.3c2.2,1.8-0.7,12.1-7.3,16.7c-6.7,4.7-11.5-0.8-19.9,2.1
	c-12.9,4.4-20.4,23.5-22.2,36.6c-1.4,10.2,0.5,17.3-3.9,19.9c-5.1,3-12.5-3.6-16.7,0c-3.2,2.7,0.2,7-3.1,11.5
	c-4.3,5.8-12.3,1.5-17.8,7.8c-1.4,1.6-3.2,4.7-6.7,5.3c-1.5,0.3-2.4-0.1-2.7,0.4c-0.8,1.3,5.1,4.8,9.8,11.5
	C56.3,396.5,57.5,398.9,58.2,400.6z"/>
</svg>
