<?xml version="1.0" encoding="utf-8"?>
<!-- Generator: Adobe Illustrator 23.0.3, SVG Export Plug-In . SVG Version: 6.00 Build 0)  -->
<svg version="1.1" id="Capa_1" xmlns="http://www.w3.org/2000/svg" xmlns:xlink="http://www.w3.org/1999/xlink" x="0px" y="0px"
	 viewBox="0 0 500 500" style="enable-background:new 0 0 500 500;" xml:space="preserve">
<style type="text/css">
	.st0{fill:#8E3F8C;stroke:#000000;stroke-width:3;stroke-miterlimit:10;}
</style>
<path class="st0" d="M173.6,32c-5.6-2.8-1.2,13.5-1,19.4c0.3,10,4.7,12,7.8,20.4c2.6,7.3,1.3,13.9,0,17.5
	c-5.8,16.3-22.8,41.3-33.5,63.2c-2.1,4.4-3,8.1-5.3,14.6c-3.8,10.7-11.9,16.5-15.5,19.4c-6.8,5.4-4.8,5.6-40.8,59.3
	c-17.9,26.7-16.4,21.5-20.4,30.1c-15.2,33-27.4,52.6-28.2,59.3c-1.3,10.8,27,23.4,31.1,53.5c3.9,28.2-6.8,50.5,0,64.1
	c6.2,12.4,29.6,6.1,31.1,5.8c10.1-2,12.7-6.8,26.2-12.6c12.3-5.3,22.6-6.8,29.2-7.8c36.8-5.3,46.8,14.1,70.9,4.9
	c10.3-3.9,14.3-9.7,29.2-12.6c11.1-2.2,16.2,2.4,22.4-1c13-7.2,18.8-24.5,63.2-59.3c23.7-18.6,33.9-26.8,44.7-25.3
	c6,0.8,8.6,1.5,16.5-1c6.2-1.9,6.9-5.4,16.5-9.7c7.6-3.4,8.7-2,12.6-4.9c6.8-5,6.7-8.3,12.6-13.6c8-7.1,15.9-5.1,17.5-9.7
	c1.5-4.4-7.8-7.9-9.7-19.4c-0.8-4.9,0-9.5,0-9.7c1.3-7.4,4.8-9,3.9-12.6c-1.3-4.9-8-3.8-10.7-9.7c-2.1-4.7,0-10.1,1-12.6
	c1.9-4.7,1.2-10.3,2.9-13.1c7.6-12.3-5.4-25.4,1.9-36.9c0.6-0.9-2.6-0.6,5.8-9.2c6.8-6.9,7.3-7.8,7.8-8.7c1.8-3.8,1.6-8.1,1-16.5
	c-0.6-9-1.7-8.8-1-11.7c1.8-7.1,7.9-6.9,10.7-14.6c1-2.7,0.1-2.3,1-12.6c0.8-9.6,1.6-10.5,1-12.6c-2.2-7.3-14.4-9.1-20.4-6.8
	c-35.5,13.6-66,0.4-89.3,6.8c-18.8,5.2-21.8,8.2-25.4,4.8c-19.4-18.4-34.6-58.5-40.8-67.1c-3.4-4.7-7.9,5.2-15.5,3.9
	c-10.2-1.8-11.7-13-20.4-13.6c-7.1-0.5-8.9,6.6-18.5,8.7c-7.6,1.7-13.7-5-22.4-4.9C211.5,38,181.4,36,173.6,32z"/>
</svg>
