<?xml version="1.0" encoding="utf-8"?>
<!-- Generator: Adobe Illustrator 23.0.3, SVG Export Plug-In . SVG Version: 6.00 Build 0)  -->
<svg version="1.1" id="Capa_1" xmlns="http://www.w3.org/2000/svg" xmlns:xlink="http://www.w3.org/1999/xlink" x="0px" y="0px"
	 viewBox="0 0 500 500" style="enable-background:new 0 0 500 500;" xml:space="preserve">
<style type="text/css">
	.st0{fill:#25A1CB;stroke:#000000;stroke-width:3;stroke-miterlimit:10;}
</style>
<path class="st0" d="M302.1,139.6c0.8-4.3-0.1-11.8,0.5-19.1c0.2-2.3,2-1.6,2.3-14.7c0.5-19.4,0.5-20.9-0.3-24.3
	c-1-4.4-2.1-6.1-2-10.2c0.1-5.9,2.2-9.4,0.5-11c-2-1.8-6.5,1.4-7.9-0.3c-1.4-1.6,2.5-5.2,1-9c-0.7-1.8-1.8-1.5-3.5-3.9
	c-1.9-2.8-1.6-4.7-2.7-7.5c-1.4-3.5-3.4-4.7-6.1-7.5c-7.9-8.5-6.8-16.1-10.3-16.4c-3.6-0.3-8.7,7.1-7.3,12.5c1,4.1,4.8,3.8,7.7,9.5
	c2.1,4.2,0.3,4.6,2.7,11.1c1.8,4.6,3.3,6,3.4,9.9c0,1.5,0,4.3-1.8,6.1c-1.8,1.8-3.5,0.8-5.7,2c-5.2,2.8-2.4,11.7-7.1,14.1
	c-2.3,1.2-5.8,0.3-6.7-1.3c-0.7-1.3,0.5-2.5-0.3-3.8c-1-1.7-4.6-2.5-5.9-1.3c-2.4,2.3,4.3,9.5,1.3,14.8c-1,1.7-1.7,1.2-4.6,4.4
	c-2.4,2.7-4.3,4.9-4.3,7.4c0,1.8,1.1,2.7,5.9,7.8c6.9,7.3,7.4,8.4,7.6,9.6c0.7,4.4-3,6.3-1.5,9.5c1.4,3.2,5.7,2.6,6.9,6.1
	c0.8,2.5-0.7,4.6,0.4,5.4c1.2,0.9,3.2-1.6,5.1-1c3.3,1.1,5,11.5,0.3,16.7c-2,2.3-0.2,3.1-1.4,5.1c-1.6,2.7-3.7,4.6,1,14.7
	c5.4,11.3,6.9,13.7,6.5,18.1c-0.2,1.6-0.6,6.4-4.1,8.9c-3.2,2.2-6.1,0.5-8.2,3.1c-2,2.5-1.7,7.5-1.7,7.5c0,0,3.3,3.5,4.1,4.4
	c3.5,4.2,0.2,9.9,0.7,17.7c0.6,9.7,6.1,9.3,6.8,19.1c0.5,6.6-2.1,5.8-3.4,18.1c-0.8,8.1-0.2,13-3.4,15c-2.7,1.6-5.3-0.3-7.2,1.7
	c-1.9,2.1-1.5,6.7,0.7,8.5c1.3,1.1,2.2,0.5,3.4,1.7c1.8,1.8,0.5,4.1,2,5.5c1.7,1.4,4.1-0.6,5.5,0.7c1.9,1.8-2,6.9,0,9.2
	c1.4,1.6,4-0.2,5.8,1.4c3,2.5,1.5,11.6-3.1,14c-2.2,1.1-3.9,0.2-5.1,1.7c-1.6,1.9,0.9,4.2,0,7.2c-1.5,5-10.2,4.2-11.6,9.2
	c-0.8,2.7,1.7,3.8,0.7,6.5c-1.4,3.8-6.9,3-8.5,7.2c-0.4,1.1-0.2,1.3,0,5.8c0.2,4.8,0.3,7.2,0,8.9c-1.2,7.5-10.1,14.2-14.7,12.6
	c-2-0.7-2.3-2.6-4.4-2.7c-2.1-0.1-3.3,1.9-5.5,3.4c-4.1,2.9-8.8-0.7-10.9,2.4c-5.4,7.9-13.2,24.9-10.2,31.4
	c0.7,1.6,9.6,11.4,4.1,10.6c-2.4-0.3,0.5-1.4,0,0c-1.4,3.9-5.1,6.5-12.6,1.7c-5.5-3.5-7.4,12.1-10.2,15.4c-2.2,2.6,2.6,3.6,5.8,8.9
	c1.6,2.6-0.3,4.2,1,5.8c1.7,2.2,4.3,1.2,6.5,3.8c1.1,1.4,0.7,2,1.7,3.8c1.9,3.4,6.5,6.2,8.5,5.1c1.9-1,1.6-7.3,1-19.8
	c-0.1-2.9-0.3-5.4,1.4-7.2c2.1-2.2,5-1.1,8.5-1.7c9.4-1.7,15.5-14.2,17.4-22.2c1.3-5.3,1-9.9,1-9.9c9.8-5.8,14.3-17.8,18.1-21.5
	c3.7-3.6,6.1,1.9,9.2,0.3c8.5-4.2,7.5-16.9,9.6-22.5c0.8-2.2,3.4-2.7,4.1-5.1c1.1-3.8-1.7-5.8-0.7-9.9c0.8-3,2.6-3.1,3.8-6.5
	c1.2-3.4,0.3-6.1,0-8.5c-1-6.9,2.7-8.6,6.8-23.2c1.7-6,0.9-5.2,3.4-15c2.2-8.6,4.3-13.7,4.8-16.7c4-23.9,2.7-32.1,3.4-47.8
	c0.3-6.4,5.3-7.8,11.9-21.2c3-6,5.3-11.3,3.4-16.4c-1.3-3.5-3.2-3.2-4.8-6.8c-2.7-6.2,1.9-9.4,1.7-18.4c-0.2-8.3-4.3-15.9-5.8-18.8
	c-1.8-3.4-3.5-5.6-4.4-9.9C301.4,145.5,301.7,142,302.1,139.6z"/>
</svg>
